<?xml version="1.0" standalone="no"?>
<!DOCTYPE svg PUBLIC "-//W3C//DTD SVG 1.1//EN" "http://www.w3.org/Graphics/SVG/1.1/DTD/svg11.dtd" >
<svg xmlns="http://www.w3.org/2000/svg">
<metadata></metadata>
<defs>
<font id="just_another_handregular" horiz-adv-x="742" >
<font-face units-per-em="2048" ascent="1440" descent="-608" />
<missing-glyph horiz-adv-x="300" />
<glyph unicode="&#xfb01;" horiz-adv-x="660" d="M-1 634q0 23 11 42t34 25q-3 55 -7.5 122.5t-3 136.5t12.5 134.5t38 116t74 81.5t121 31q14 0 42 -5t55.5 -15.5t48.5 -25.5t21 -34q0 -11 -9.5 -18.5t-22.5 -12t-26 -6.5t-20 -2q-23 0 -44 7t-42 9q-33 -9 -55.5 -36t-36 -65.5t-19.5 -84.5t-6 -92l13 -215q16 3 46 6.5 t66.5 7t75.5 7t74.5 6t62.5 4t39 1.5q23 0 32.5 -13t9.5 -33q0 -134 8.5 -273t19.5 -275q1 -11 2 -21t3 -20q2 -20 4.5 -39.5t2.5 -40.5q0 -23 -11 -32.5t-34 -9.5q-11 0 -25.5 3t-29 8.5t-26.5 13.5t-18 18q-4 6 -6.5 34t-4.5 71t-3 96t-1.5 107.5t-0.5 107.5v95v76 q-25 -2 -53 -3.5t-56.5 -3t-55.5 -3.5t-49 -3l-63 -4q20 -172 34.5 -290t24 -195.5t15 -121t8 -65t3 -27.5t0.5 -10q0 -21 -13 -29.5t-32 -8.5q-13 0 -29 2.5t-31 7.5t-27 14t-17 22q-7 77 -16.5 165t-19.5 177.5t-19.5 177.5t-15.5 165q-4 -1 -8 -0.5t-9 0.5 q-15 0 -25.5 7.5t-10.5 27.5zM436 855q0 4 3.5 22.5t7.5 39.5t8 38t6 19v-1q5 8 11.5 10t13.5 2q9 0 23.5 -2.5t29 -7t26.5 -11.5t15 -15t3.5 -21.5t-0.5 -24.5q0 -4 -0.5 -9.5t-0.5 -8.5q0 -5 0.5 -10t1.5 -10t1.5 -11t0.5 -13q0 -17 -7.5 -24.5t-26.5 -7.5q-9 0 -28.5 2.5 t-39 7.5t-34 14t-14.5 22z" />
<glyph unicode="&#xfb02;" horiz-adv-x="674" d="M-2 634q0 23 11 42t34 25q-2 55 -6 122t-2.5 136.5t12 135t37 116t73.5 81.5t121 31q57 0 100.5 -9.5t78.5 -27.5q3 33 6 58.5t8 36.5v-1q4 14 10.5 21t23.5 7q37 0 61.5 -24t24.5 -60q0 -70 -3.5 -139l-7 -138l-7 -138t-3.5 -139q0 -37 1 -97t4 -130.5t8.5 -145.5 t14 -143t21 -123t30.5 -85q8 -4 16.5 -12.5t15 -19t11 -22t4.5 -21.5q0 -14 -7 -23t-17.5 -14.5t-23 -8t-22.5 -2.5q-35 0 -61 20t-44.5 51.5t-31 72t-20.5 81t-12 78t-6 64.5q-9 93 -12.5 189t-3.5 190q0 125 4 245.5t12 244.5q-9 9 -23 19.5t-35 19.5t-48.5 15.5 t-63.5 6.5q-33 -9 -55.5 -36t-36 -65.5t-19.5 -84.5t-6 -92l13 -215q43 8 84 20t84 12q24 0 33.5 -13t9.5 -33t-5 -37t-21 -28q-10 -6 -32 -11t-47.5 -9t-50 -7t-40.5 -5h-5q20 -172 34 -290.5t23.5 -196t15 -121t8 -65t3 -27.5t0.5 -10q0 -21 -13 -29.5t-32 -8.5 q-13 0 -29 2.5t-31 7.5t-26.5 14t-16.5 22q-6 86 -17 178.5t-22 182.5t-20 173t-13 151q-4 -1 -7.5 -0.5t-8.5 0.5q-16 0 -26.5 7.5t-10.5 27.5z" />
<glyph horiz-adv-x="0" />
<glyph unicode="&#xd;" horiz-adv-x="300" />
<glyph unicode=" "  horiz-adv-x="300" />
<glyph unicode="&#x09;" horiz-adv-x="300" />
<glyph unicode="&#xa0;" horiz-adv-x="300" />
<glyph unicode="!" horiz-adv-x="341" d="M70 1410q0 23 5 34.5t31 11.5q13 0 28 -3.5t28.5 -10t24 -16t15.5 -22.5q3 -8 7.5 -53t9.5 -115.5t10 -159.5t10.5 -183.5t10.5 -188t9.5 -173.5t8 -140t6.5 -87q0 -8 1 -16t1 -16q0 -44 -40 -44q-12 0 -29.5 3t-35.5 9t-32.5 14.5t-20.5 19.5q-8 14 -8 29.5v32.5 q-6 222 -15.5 441.5t-18.5 442.5q-2 47 -4 94.5t-2 95.5zM120 108q0 10 7 15.5t17.5 8t21 2.5h18.5q10 0 23.5 -0.5t25.5 -4t20.5 -11t8.5 -20.5q0 -5 -0.5 -21.5t-1 -35.5t-2 -34.5t-2.5 -16.5q-6 -11 -19 -12.5t-25 -1.5q-30 0 -45 3t-21.5 12t-9 25t-6.5 42q-2 12 -6 24 t-4 26z" />
<glyph unicode="&#x22;" horiz-adv-x="386" d="M15 1280q0 20 8.5 31t29.5 11q17 0 36.5 -3t36 -10.5t27 -21t10.5 -35.5q0 -69 -2 -138t-2 -138q0 -11 -0.5 -21t-3.5 -18.5t-10 -13.5t-20 -5q-33 0 -59 17t-31 53q-3 26 -3.5 50t-2.5 50q-5 48 -9.5 96t-4.5 96zM215 1280q0 20 8.5 31t29.5 11q17 0 36.5 -3t36 -10.5 t27 -21t10.5 -35.5q0 -69 -2 -138t-2 -138q0 -11 -0.5 -21t-3.5 -18.5t-10 -13.5t-20 -5q-33 0 -59 17t-31 53q-3 26 -3.5 50t-2.5 50q-5 48 -9.5 96t-4.5 96z" />
<glyph unicode="#" horiz-adv-x="575" d="M21 546q0 23 8 37t21 21.5t30 11t35 6.5l14 102q-12 -2 -24 -3t-24 -1q-14 0 -22 5.5t-8 20.5q0 23 8 37t21 22t30 12t35 7l16 116q1 8 2.5 23t5 29.5t10 25t18.5 10.5q13 0 24.5 -6.5t19 -16.5t12 -22.5t4.5 -24.5q0 -30 -4.5 -59t-7.5 -59l84 12l4 38l20 146 q1 8 1.5 23.5t3.5 30.5t9.5 26.5t19.5 11.5q26 0 44 -21t18 -47q0 -48 -7.5 -100t-12.5 -100q17 2 33 3t33 1t30.5 -3.5t13.5 -24.5q0 -8 -1 -14t-3 -12q-8 -26 -18.5 -38t-24.5 -16.5t-32.5 -3.5t-42.5 0l-8 -90q15 2 31 3t31 1q17 0 30.5 -5t13.5 -25q0 -9 -3 -20.5 t-8 -23t-12 -21t-15 -13.5q-17 -8 -39.5 -7t-40.5 1q-1 -10 -3.5 -36.5t-5.5 -61.5t-7 -73t-8 -71t-7.5 -56t-6.5 -26t-7.5 -5.5t-10.5 -2.5q-35 0 -57.5 22.5t-22.5 55.5t5.5 65.5t10.5 64.5l14 116q-21 -2 -41 -3.5t-41 -4.5q-5 -48 -10.5 -95t-11.5 -95q-3 -14 -9 -23 t-21 -9q-13 0 -26.5 5t-25 13.5t-19 20t-7.5 25.5q0 36 8 73t14 73q-12 -2 -25 -3t-25 -1q-14 0 -22 5.5t-8 20.5zM221 640q21 2 42 4.5t42 5.5l10 96q-20 -2 -40.5 -4t-41.5 -4z" />
<glyph unicode="$" horiz-adv-x="477" d="M43 304q0 13 1.5 35.5t6.5 44.5t15.5 38t28.5 16q15 0 34.5 -9.5t31.5 -18.5q15 -9 21.5 -20.5t6.5 -29.5q0 -20 -5 -39t-5 -39q0 -24 14 -42t40 -18q18 0 34.5 7.5t28.5 20.5t19.5 29.5t7.5 34.5q0 14 -3.5 27t-8.5 25q-45 106 -97.5 207.5t-108.5 202.5 q-21 41 -40.5 85t-19.5 91q0 32 11 60.5t30 52t44.5 40.5t54.5 27q-6 44 -12 89t-6 87q0 26 10 34t34 8q9 0 23.5 -2.5t29.5 -7t26.5 -11.5t14.5 -17q3 -6 3.5 -12t0.5 -12q0 -12 -1 -23t-3 -23v-106q23 -7 45 -19.5t38.5 -30t26.5 -40t10 -48.5q0 -32 -32 -32t-49.5 12.5 t-31 27.5t-27 27.5t-36.5 12.5q-18 0 -33 -8t-26 -21.5t-17 -30t-6 -32.5q0 -38 19 -74t37 -68q38 -68 72.5 -135.5t69.5 -136.5q13 -26 28.5 -54t29 -56.5t22 -58t8.5 -59.5q0 -35 -12.5 -65t-33.5 -54t-49 -41t-59 -26v-10q2 -57 1 -116t-7 -118q-2 -17 -10 -25.5 t-26 -8.5q-14 0 -31 3t-32.5 10t-26 18.5t-10.5 28.5q0 12 1 22.5t3 21.5q6 42 10.5 85t9.5 85q-68 15 -103 64.5t-35 117.5z" />
<glyph unicode="%" horiz-adv-x="965" d="M27 970q0 48 4.5 95.5t19.5 94.5q-3 5 -5.5 10.5t-2.5 11.5v6t2 8q10 24 25 47.5t34.5 41.5t43.5 29.5t53 11.5q41 0 70.5 -21.5t49.5 -56.5t32 -79t18 -88.5t8 -86t2 -70.5t-2 -66t-8 -76t-17.5 -76.5t-31 -67.5t-48 -48t-67.5 -18q-42 0 -70.5 19t-47 49t-29 66.5 t-15.5 71.5q-9 47 -13.5 95.5t-4.5 96.5zM133 980q0 -13 1.5 -42t4.5 -65.5t8.5 -75.5t13.5 -71t19 -53t25 -21q5 0 10 6t9.5 13.5t8.5 15.5t6 13q17 45 23.5 93.5t6.5 96.5q0 20 -1 49.5t-4 62.5t-8 67.5t-12 66.5t-17.5 58t-23.5 42q-23 -34 -37 -63t-21.5 -58.5t-9.5 -62 t-2 -72.5zM237 150q0 9 11.5 45t31 91t44.5 123t52 140t54 143t50 131t40 105.5t25 65.5l52 134l12 34t14 32q5 9 11 15.5t17 6.5q23 0 38.5 -18.5t15.5 -39.5q0 -23 -9.5 -45t-18.5 -43q-80 -210 -154.5 -419.5t-145.5 -420.5q-3 -9 -8.5 -28t-11.5 -39t-12 -37t-10 -22 q-7 -10 -20 -10q-10 0 -23.5 4.5t-25.5 12t-20.5 18t-8.5 21.5zM587 450q0 48 4.5 95.5t19.5 94.5q-3 5 -5.5 10.5t-2.5 11.5v6t2 8q10 24 25 47.5t34.5 41.5t43.5 29.5t53 11.5q41 0 70.5 -21.5t49.5 -56.5t32 -79t18 -88.5t8 -86t2 -70.5t-2 -66t-8 -76t-17.5 -76.5 t-31 -67.5t-47.5 -48t-68 -18q-42 0 -70.5 19t-47 49t-29 66.5t-15.5 71.5q-9 47 -13.5 95.5t-4.5 96.5zM693 460q0 -13 1.5 -42t4.5 -65.5t8.5 -75.5t13.5 -71t18.5 -53t25.5 -21q5 0 10 6t9.5 13.5t8.5 15.5t6 13q17 45 23.5 93.5t6.5 96.5q0 20 -1 49.5t-4 62.5t-8 67.5 t-12 66.5t-17.5 58t-23.5 42q-23 -34 -37 -63t-21.5 -58.5t-9.5 -62t-2 -72.5z" />
<glyph unicode="&#x26;" horiz-adv-x="586" d="M21 244q0 59 11.5 123t29.5 128.5t39.5 126t41.5 116.5q-18 95 -29 193t-11 195q0 42 4.5 84.5t21 76.5t48 55.5t84.5 21.5q34 0 63 -10t50 -29t33 -46.5t12 -62.5q0 -56 -15 -120.5t-37 -131t-46.5 -130.5t-43.5 -118q23 -103 57 -200t79 -194q21 50 30.5 99t9.5 103 q0 20 7.5 32t30.5 12q18 0 37 -4.5t35 -13.5t26 -23.5t10 -34.5q0 -38 -9.5 -80.5t-25 -84.5t-35.5 -81t-42 -70q4 -8 18 -31t28.5 -48t26 -46.5t11.5 -26.5q0 -9 -6.5 -14.5t-15.5 -8.5t-19 -4t-17 -1q-23 0 -39 6.5t-28 17.5t-22 26.5t-21 33.5q-39 -35 -86 -57.5 t-100 -22.5q-55 0 -92.5 20t-60.5 54t-33 78t-10 92zM159 246q0 -14 2 -36.5t8 -43.5t18 -36.5t32 -15.5q16 0 33 9t33 22t30 27.5t24 25.5q-38 74 -71.5 149t-60.5 153q-18 -60 -33 -125.5t-15 -128.5zM235 1047q0 -22 2 -45q8 25 16.5 52t15.5 55.5t11.5 57t4.5 55.5 q0 8 -1.5 16t-6.5 16q-5 2 -8 2h-6h-6q-8 -11 -12 -27t-6.5 -34t-3 -35t-0.5 -30v-38v-45z" />
<glyph unicode="'" horiz-adv-x="186" d="M15 1280q0 20 8.5 31t29.5 11q17 0 36.5 -3t36 -10.5t27 -21t10.5 -35.5q0 -69 -2 -138t-2 -138q0 -11 -0.5 -21t-3.5 -18.5t-10 -13.5t-20 -5q-33 0 -59 17t-31 53q-3 26 -3.5 50t-2.5 50q-5 48 -9.5 96t-4.5 96z" />
<glyph unicode="(" horiz-adv-x="381" d="M18 668q0 94 10.5 203t36 217t67.5 206.5t104 171.5q5 6 12.5 14t16 15.5t17.5 13t18 5.5q12 0 22 -7.5t17.5 -19t12 -24.5t4.5 -23q0 -11 -10 -32t-23.5 -44.5t-26.5 -45t-20 -34.5q-30 -65 -50.5 -138t-33.5 -149.5t-18.5 -152.5t-5.5 -146q0 -80 6.5 -165.5t23 -170.5 t45.5 -165.5t73 -148.5q17 -26 34.5 -47t43.5 -39q9 -8 20.5 -16t11.5 -22q0 -13 -13 -25t-31 -21t-36.5 -14.5t-29.5 -5.5q-20 0 -38 10.5t-33.5 26.5t-29 34t-23.5 33q-53 78 -86.5 163.5t-53 175.5t-27 182.5t-7.5 184.5z" />
<glyph unicode=")" horiz-adv-x="380" d="M-45 1448q0 13 13 25t30.5 21t35.5 14.5t29 5.5q20 0 38.5 -10.5t34 -26.5t28.5 -34t23 -33q52 -78 86.5 -164t54 -176t27.5 -183t8 -185q0 -93 -10.5 -201.5t-36 -216.5t-67.5 -206.5t-104 -171.5q-5 -6 -12.5 -14.5t-16.5 -16t-18 -12.5t-17 -5q-12 0 -22.5 7.5t-18 19 t-11.5 24t-4 23.5t10 32t23 44.5t26 45t19 34.5q30 64 51 137t34 149.5t19 153t6 146.5q0 79 -6.5 165t-23 171t-45.5 164.5t-73 147.5q-18 26 -35 48t-43 40q-9 8 -20.5 15.5t-11.5 22.5z" />
<glyph unicode="*" horiz-adv-x="694" d="M32 1074q0 10 4 26t11.5 31.5t18 27t22.5 11.5q13 0 44 -16.5t63 -36.5q38 -24 81 -53q-4 43 -7 83q-3 35 -5 71.5t-2 61.5q0 20 8.5 31t29.5 11q17 0 36.5 -3t36 -11t27 -21.5t10.5 -34.5q0 -23 -0.5 -56.5t-0.5 -65.5q-1 -37 -1 -76q48 39 89 69q17 13 34.5 25t33 21.5 t27 15t16.5 5.5q12 0 22 -11.5t17.5 -27t12 -31.5t4.5 -26q0 -34 -30 -52q-5 -3 -16.5 -9.5t-26.5 -14.5t-33 -17l-36 -18q-42 -21 -92 -45q54 -41 98 -74q19 -15 37.5 -29.5t34 -27t27 -22t15.5 -13.5q6 -8 11 -14.5t5 -17.5q0 -12 -11.5 -24.5t-27 -22.5t-32.5 -16.5 t-27 -6.5q-14 0 -24.5 5.5t-19.5 14.5q-25 23 -45.5 41.5t-40 36.5t-39.5 37.5t-43 44.5q-24 -25 -44.5 -44.5t-40 -37.5t-40 -36.5t-45.5 -41.5q-9 -9 -19.5 -14.5t-22.5 -5.5q-11 0 -28 6.5t-32.5 16.5t-26.5 22.5t-11 24.5q0 11 4.5 17.5t9.5 14.5q4 4 15.5 13.5t27.5 22 t34.5 27t37.5 29.5q44 33 97 74q-51 18 -93 35q-18 7 -35.5 14.5t-32.5 14t-26 12t-15 8.5q-15 11 -22.5 22.5t-7.5 29.5z" />
<glyph unicode="+" horiz-adv-x="531" d="M18 674q0 28 19 43t45.5 21t55 7t48.5 3q1 23 0.5 58t-0.5 71t1.5 69.5t6.5 53.5q3 14 10 20t22 6q35 0 52.5 -15t24 -37.5t6.5 -49.5t1 -52l2 -116q39 3 79 5.5t79 2.5q17 0 30.5 -5t13.5 -25q0 -14 -7 -30.5t-15 -27.5q-14 -20 -36 -22t-42 -2l-100 -2q0 -57 1 -115 t13 -115q0 -5 1 -9.5t1 -10.5q0 -20 -16 -25t-32 -5q-45 0 -71.5 15.5t-26.5 66.5v198q-32 -2 -64.5 -2h-65.5q-12 0 -24 5.5t-12 20.5z" />
<glyph unicode="," horiz-adv-x="234" d="M-21 -100q0 8 6 18.5t13.5 21t15.5 20.5t13 18q13 23 20 43t10 39.5t4.5 40t5.5 45.5q2 18 11.5 23t26.5 5q41 0 63.5 -15.5t22.5 -62.5q0 -62 -20 -119.5t-56 -108.5q-5 -6 -10.5 -14.5t-12.5 -16t-15 -12.5t-16 -5q-11 0 -25.5 8.5t-27 20.5t-21 26t-8.5 25z" />
<glyph unicode="-" horiz-adv-x="436" d="M10 720q0 24 17 42.5t41 23.5q20 3 40 3.5t40 2.5q57 3 114 6.5t116 3.5q7 0 15.5 -0.5t16 -3t12 -8.5t4.5 -16q0 -14 -6 -26q-6 -17 -11.5 -28t-13.5 -17t-19.5 -8.5t-29.5 -2.5h-272q-7 0 -17.5 0.5t-21 3t-18 8t-7.5 16.5z" />
<glyph unicode="." horiz-adv-x="218" d="M35 108q0 10 7 15.5t17.5 8t21 2.5h18.5q10 0 23.5 -0.5t25.5 -4t20.5 -11t8.5 -20.5q0 -5 -0.5 -21.5t-1 -35.5t-1 -34.5t-1.5 -16.5q-8 -11 -20.5 -12.5t-23.5 -1.5q-31 0 -46 3t-22 12t-8.5 25t-5.5 42q-3 12 -7.5 24t-4.5 26z" />
<glyph unicode="/" horiz-adv-x="474" d="M15 36q0 6 1 12t1 12q15 72 32 144l34 144l198 886q4 16 9.5 46.5t12 62t13.5 59.5t13 40q6 11 12 15.5t18 4.5q16 0 32.5 -6.5t30 -17.5t21.5 -26t8 -32q0 -36 -9 -70.5t-17 -69.5q-32 -148 -61 -294.5t-61 -295.5q-30 -149 -63 -297t-59 -297q-2 -14 -4 -30t-7 -30.5 t-15 -24t-28 -9.5q-14 0 -33.5 5.5t-37 15t-29.5 23t-12 30.5z" />
<glyph unicode="0" horiz-adv-x="683" d="M64 740q0 97 8 194.5t34 189.5q-6 9 -11 18t-5 20q0 6 1 10.5t3 9.5q13 40 35 84t52.5 80.5t69.5 60t87 23.5q42 0 75 -16t58 -43t43 -61.5t30.5 -72.5t21 -76t14.5 -71q20 -110 30 -220t10 -222q0 -34 -1 -81.5t-4.5 -102.5t-11 -113t-20.5 -114t-33 -106t-48.5 -87.5 t-66.5 -59.5t-87 -22q-47 0 -83 19.5t-62.5 51.5t-45.5 73t-31.5 85t-20.5 87.5t-13 79.5q-14 95 -21 190t-7 192zM206 760q0 -17 1.5 -55.5t5.5 -89t10 -109.5t14 -118.5t18.5 -114t24 -96.5t29.5 -67.5t35 -25.5q13 0 24.5 13t20.5 31t15.5 36t9.5 28q30 95 42 191.5 t12 196.5q0 74 -3.5 156.5t-12.5 165t-25 162.5t-41 150q-8 23 -18 46t-28 40q-2 -2 -14 -23t-25.5 -46t-25 -47.5t-13.5 -27.5q-18 -43 -29 -93t-17 -102t-8 -103.5t-2 -97.5z" />
<glyph unicode="1" horiz-adv-x="379" d="M94 1352q0 20 6 32t30 12q27 0 55.5 -13t40.5 -39q4 -8 5.5 -27t2.5 -40t1 -41.5t1 -31.5q8 -258 18 -514t36 -514q3 -35 8.5 -69t5.5 -69q0 -23 -16 -30.5t-36 -7.5q-15 0 -36 4t-36 10q-20 9 -29 21t-12.5 27t-3.5 31.5t-1 34.5q-18 308 -29 612t-11 612z" />
<glyph unicode="2" horiz-adv-x="583" d="M9 1066q0 26 10.5 52t19.5 50q19 43 44 82t58 69t74 47.5t92 17.5q64 0 106 -26.5t66.5 -68.5t34 -95t9.5 -106q0 -91 -22 -194.5t-55 -208.5t-70.5 -206.5t-68.5 -186.5l-60 -174l222 30q6 0 11 1t11 1q23 0 32.5 -12.5t9.5 -33.5q0 -14 -3 -29t-9 -27q-7 -17 -25.5 -25 t-41 -10.5t-45.5 -2t-38 -0.5q-42 -3 -84 -7t-84 -7q-13 -26 -40 -26q-8 0 -20 3.5t-24.5 9t-23 12t-14.5 13.5q-11 8 -17.5 19t-6.5 25q0 23 10 43t18 41q56 142 107 283.5t99 286.5q16 47 31.5 95.5t27.5 97.5t19.5 99t7.5 100q0 16 -2.5 45t-10 57.5t-21.5 49t-38 20.5 q-15 0 -31 -9t-30.5 -22t-26 -28t-18.5 -27q-17 -27 -30 -57.5t-22 -60.5q-3 -15 -5.5 -29.5t-8.5 -28.5q-5 -11 -11.5 -15.5t-18.5 -4.5q-16 0 -32.5 5.5t-30 15.5t-22.5 24.5t-9 32.5z" />
<glyph unicode="3" horiz-adv-x="672" d="M27 228q0 42 44 42q18 0 44.5 -4.5t43.5 -13.5q15 -8 22.5 -18.5t12 -22.5t8 -26t9.5 -27q12 -29 36 -50.5t56 -21.5q34 0 61 23t46.5 59.5t33 82t22 90.5t12 84.5t3.5 64.5q0 37 -5.5 80.5t-21.5 80.5t-45 61t-76 22h-12q-7 -8 -15.5 -19.5t-18 -22t-20.5 -17.5t-22 -7 q-15 0 -30 8.5t-27 21.5t-19.5 29t-7.5 31v9t2 7q15 30 41 56.5t47 53.5q22 30 45.5 66.5t42 76t30.5 80.5t12 79q0 25 -5.5 46.5t-17.5 38t-31.5 26t-47.5 9.5q-23 0 -40.5 -9.5t-30 -24.5t-20 -34.5t-11.5 -39.5q-5 -15 -5 -30.5t-5 -29.5t-12 -19t-22 -5q-17 0 -34 5 t-30.5 15t-22.5 24.5t-9 33.5q0 30 12.5 64t29.5 60q33 53 87.5 79.5t116.5 26.5q55 0 100.5 -16.5t78.5 -47.5t51 -75.5t18 -100.5q0 -47 -10.5 -92t-28.5 -88t-41.5 -84t-49.5 -78q66 -14 109.5 -50.5t69.5 -87.5t36.5 -111t10.5 -119q0 -52 -6.5 -109.5t-21.5 -114 t-39 -108.5t-60.5 -91.5t-85.5 -63t-113 -23.5q-42 0 -81.5 11t-74.5 35q-25 17 -46.5 42t-37.5 54.5t-25 61t-9 62.5z" />
<glyph unicode="4" horiz-adv-x="578" d="M-7 516q0 35 10.5 70t19.5 68q47 165 100 325t104 323q-3 29 -6.5 58t-3.5 58q0 24 15.5 31t36.5 7q17 0 38 -5t39 -15t30.5 -25.5t12.5 -36.5q0 -6 -2 -11t-2 -11q0 -57 3.5 -115t6.5 -115l28 -552q32 3 64 8.5t62 5.5q20 0 32 -8.5t12 -29.5q0 -40 -14 -60.5t-37 -30 t-52.5 -11.5t-60.5 -4l12 -226q2 -47 5 -94.5t3 -95.5q0 -21 -6 -30.5t-30 -9.5q-14 0 -28.5 3t-28 9.5t-24 16t-15.5 23.5q-4 7 -7.5 36t-7 68.5t-7 85t-6 87t-4.5 73.5t-2 44q-21 0 -42 -1t-42 -1q-23 0 -58 1.5t-68 9.5t-56.5 26t-23.5 51zM153 554h26h48t48 2 q-6 91 -11 179t-11 177q-26 -86 -54.5 -177.5t-45.5 -180.5z" />
<glyph unicode="5" horiz-adv-x="649" d="M43 262q0 24 9.5 40t36.5 16q13 0 31 -4t34.5 -11.5t30.5 -18.5t20 -24q10 -21 14 -52.5t12.5 -61.5t26 -51t53.5 -21q29 0 50.5 36t37 92t26 124t16 131t8 114t2.5 73t-1.5 58.5t-6.5 78t-15 83.5t-25.5 75.5t-38.5 55t-55 21.5q-37 0 -72 -22q2 -8 3 -15t1 -15 q0 -46 -48 -46q-6 0 -13 1t-13 1q-10 -5 -24.5 0t-28.5 14t-25 20.5t-14 21.5q-8 30 -7 62t1 62q0 41 -2 81t-4 81q-3 3 -4.5 8t-1.5 10q0 25 3.5 44t13 31t27 18t46.5 7q44 2 86 4.5t86 7.5q21 3 41 6.5t43 3.5q20 0 27 -12t7 -30q0 -20 -4.5 -36t-21.5 -28 q-8 -5 -36.5 -11t-62 -11.5t-64.5 -9t-43 -4.5l16 -146q24 8 48 11t48 3q63 0 109 -26t77.5 -68.5t50.5 -97t29.5 -113t14 -115.5t3.5 -104q0 -48 -3 -115.5t-13 -140t-28.5 -144.5t-51 -128.5t-80 -92t-114.5 -35.5q-55 0 -98 19t-75 52t-53.5 77t-31.5 94q-3 18 -6.5 36 t-3.5 36z" />
<glyph unicode="6" horiz-adv-x="617" d="M68 510q0 27 1 54t1 56q0 199 41.5 381t122.5 363q3 8 8 20.5t12.5 24.5t16 20.5t19.5 8.5q13 0 27 -7t25.5 -17.5t18.5 -24.5t7 -27q0 -12 -8 -37t-18.5 -53.5t-21.5 -55t-16 -40.5q-21 -66 -38.5 -132t-29.5 -134q21 15 45.5 22.5t50.5 7.5q61 0 104 -28t71.5 -73.5 t44.5 -103.5t24 -118t10 -117t2 -100q0 -39 -3.5 -86.5t-13 -96.5t-27 -94.5t-44.5 -81.5t-66 -57.5t-92 -21.5q-54 0 -95 29.5t-71.5 77.5t-51 108t-33 121t-18 117t-5.5 95zM228 444q2 -20 5.5 -51.5t9.5 -68t14.5 -74.5t20 -71.5t26.5 -58.5t34 -36q21 2 36.5 22 t26.5 49.5t17.5 64.5t10 69.5t4.5 63.5t1 45q0 19 -1.5 55.5t-5.5 80.5t-10.5 91t-17 86.5t-25.5 67.5t-36 35q-31 -24 -51.5 -67t-33 -92.5t-18 -98.5t-5.5 -86v-14t-2 -12z" />
<glyph unicode="7" horiz-adv-x="491" d="M-25 1298q0 38 22.5 57.5t57.5 24.5q29 5 58 7t58 5q57 6 117 19t117 13q24 0 30 -18t6 -36q0 -11 -2 -21t-2 -21q0 -25 -6 -52q-21 -145 -38.5 -288t-31.5 -288q-15 -149 -28 -298t-28 -298l-6 -70q-2 -12 -3 -25t-5 -23.5t-13 -17t-25 -6.5q-11 0 -28.5 4.5t-35 12.5 t-32 18.5t-18.5 22.5q-2 8 -3 15.5t-1 16.5q0 24 5.5 49t8.5 49q5 35 9 69t7 69q17 151 32.5 300t35.5 298q14 100 28.5 197t29.5 197q-65 -5 -130.5 -8.5t-131.5 -3.5q-8 0 -17.5 0.5t-17.5 3.5t-13.5 9t-5.5 17z" />
<glyph unicode="8" horiz-adv-x="670" d="M72 370q0 52 4 105.5t14.5 105t29.5 100.5t50 93q-29 23 -48 55t-30 68t-15.5 74t-4.5 73q0 41 5.5 85t17.5 87t31 82.5t46 71.5q4 6 11.5 14t16 15t17.5 12t17 5q16 0 24 -8q18 9 39.5 15.5t42.5 6.5q59 0 99 -31t64 -78t34.5 -102t10.5 -103q0 -36 -5 -74t-15.5 -75.5 t-26 -72.5t-35.5 -64q49 -32 79 -78t46.5 -99.5t22.5 -111t6 -111.5q0 -49 -4.5 -103.5t-16.5 -108t-32.5 -102.5t-53.5 -86.5t-79.5 -59.5t-109.5 -22q-55 0 -94.5 19.5t-67.5 53t-45.5 76.5t-27.5 90t-13.5 94.5t-3.5 88.5zM216 1056q0 -19 3 -47.5t9 -57.5t16 -54t24 -37 q27 12 54 12q18 21 31.5 51t22.5 63t13.5 66t4.5 60q0 19 -3 45t-9.5 52.5t-17 49.5t-24.5 37q-7 -8 -11 -16.5t-8.5 -15t-12 -10.5t-20.5 -4q-8 0 -16 2.5t-16 5.5q-21 -44 -30.5 -99.5t-9.5 -102.5zM228 374q0 -15 1 -43.5t4.5 -62.5t10 -69.5t17 -64.5t25.5 -47.5 t36 -18.5q33 0 57.5 20t41.5 51.5t27.5 71.5t16 79.5t7.5 75.5t2 60q0 38 -1 79t-8.5 80t-23 75.5t-43.5 65.5q-13 16 -28 22l-26 -8q-8 -8 -16 -15t-16 -15q-25 -28 -41 -70.5t-25.5 -89.5t-13.5 -93.5t-4 -82.5z" />
<glyph unicode="9" horiz-adv-x="616" d="M29 1000q0 39 4 86t14 94.5t27 91.5t44.5 78.5t66 55t90.5 20.5q53 0 94 -28.5t71.5 -74.5t51 -104.5t33.5 -117.5t18.5 -113.5t5.5 -93.5q0 -29 -1 -57.5t-1 -58.5q0 -195 -42.5 -375.5t-121.5 -358.5q-4 -8 -9 -20t-12.5 -23.5t-16.5 -20t-20 -8.5q-14 0 -27.5 7 t-24 18.5t-17.5 25t-7 27.5q0 10 7 31.5t16 45.5t18.5 46t14.5 35q24 69 42 140t32 142q-44 -28 -92 -28q-63 0 -106 27.5t-72 72.5t-45 103t-24 117.5t-9.5 116.5t-1.5 101zM183 988q0 -19 1.5 -54t5.5 -77.5t11 -87t17.5 -83t25.5 -65t35 -31.5q31 22 51.5 63.5t33 89.5 t18 96.5t5.5 84.5v15t2 13q-2 21 -5.5 52t-9.5 66.5t-14.5 72t-20 69t-26.5 57.5t-34 37q-22 -3 -37 -22.5t-26 -49.5t-17.5 -66t-10 -70.5t-4.5 -64t-1 -45.5z" />
<glyph unicode=":" horiz-adv-x="302" d="M77 108q0 10 7 15.5t17.5 8t21 2.5h18.5q10 0 23.5 -0.5t25.5 -4t20.5 -11t8.5 -20.5q0 -5 -0.5 -21.5t-1 -35.5t-1 -34.5t-1.5 -16.5q-8 -11 -20.5 -12.5t-23.5 -1.5q-31 0 -46 3t-22 12t-8.5 25t-5.5 42q-3 12 -7.5 24t-4.5 26zM77 708q0 10 7 15.5t17.5 8t21 2.5h18.5 q10 0 23.5 -0.5t25.5 -4t20.5 -11t8.5 -20.5q0 -5 -0.5 -21.5t-1 -35.5t-1 -34.5t-1.5 -16.5q-8 -11 -20.5 -12.5t-23.5 -1.5q-31 0 -46 3t-22 12t-8.5 25t-5.5 42q-3 12 -7.5 24t-4.5 26z" />
<glyph unicode=";" horiz-adv-x="300" d="M9 -100q0 8 6 18.5t13.5 21t15.5 20.5t13 18q13 23 20 43t10 39.5t4.5 40t5.5 45.5q2 18 11.5 23t26.5 5q41 0 63.5 -15.5t22.5 -62.5q0 -62 -20 -119.5t-56 -108.5q-5 -6 -10.5 -14.5t-12.5 -16t-15 -12.5t-16 -5q-11 0 -25.5 8.5t-27 20.5t-21 26t-8.5 25zM79 708 q0 10 7 15.5t17.5 8t21 2.5h18.5q10 0 23.5 -0.5t25.5 -4t20.5 -11t8.5 -20.5q0 -5 -0.5 -21.5t-1 -35.5t-2 -34.5t-2.5 -16.5q-6 -11 -19 -12.5t-25 -1.5q-30 0 -45 3t-21.5 12t-9 25t-6.5 42q-2 12 -6 24t-4 26z" />
<glyph unicode="&#x3c;" horiz-adv-x="448" d="M17 736q0 26 15 49.5t27 44.5l146 272q4 9 10.5 22.5t14 25.5t17 21t20.5 9t22 -6t20 -15t14.5 -20t5.5 -21q0 -17 -6 -30.5t-12 -27.5l-82 -162l-82 -162q17 -34 43 -71.5t55.5 -75t59.5 -73t56 -64.5q7 -8 17 -18t19.5 -21t16.5 -23t7 -22q0 -11 -11 -18.5t-26 -12 t-30.5 -6t-24.5 -1.5q-18 0 -31 7t-25 21q-12 13 -35.5 42.5t-52 66.5t-58.5 78.5t-54.5 79t-40 67t-15.5 44.5z" />
<glyph unicode="=" horiz-adv-x="534" d="M59 594q0 26 16 43.5t40 22.5q20 5 40.5 5.5t41.5 2.5q51 5 103 7.5t105 2.5q7 0 20 -0.5t25.5 -3.5t21.5 -9t9 -17q0 -10 -5 -22t-12.5 -23.5t-16.5 -20.5t-18 -12q-8 -2 -14 -2h-14q-30 0 -60 2t-60 2q-44 0 -88 -2t-88 -2q-8 0 -16 0.5t-14.5 3t-11 7.5t-4.5 15z M59 820q0 24 17 42.5t41 23.5q20 3 40 3.5t40 2.5q57 3 114 6.5t116 3.5q7 0 15.5 -0.5t16 -3t12 -8.5t4.5 -16q0 -14 -6 -26q-6 -17 -11.5 -28t-13.5 -17t-19.5 -8.5t-29.5 -2.5h-272q-7 0 -17.5 0.5t-21 3t-18 8t-7.5 16.5z" />
<glyph unicode="&#x3e;" horiz-adv-x="447" d="M25 1142q0 12 11 19.5t26 11.5t30.5 5.5t24.5 1.5q18 0 31 -7t25 -19q12 -14 35.5 -43.5t52 -66.5t58.5 -78.5t54.5 -79t40 -67.5t15.5 -45q0 -12 -4.5 -24t-11 -23.5t-14 -23t-12.5 -21.5l-146 -272q-5 -9 -11 -22.5t-13.5 -26.5t-17 -22t-20.5 -9t-22 6t-20 15 t-14.5 20.5t-5.5 22.5q0 15 6 29.5t12 26.5q41 83 82 163t82 163q-17 34 -43 71.5t-55.5 75t-60 73t-55.5 64.5l-17 17t-19.5 21t-16.5 22t-7 22z" />
<glyph unicode="?" horiz-adv-x="632" d="M39 1182q0 56 14 110t44 96t75.5 68t108.5 26q87 0 143 -36.5t89 -94.5t45.5 -130.5t12.5 -144.5q0 -80 -8.5 -161.5t-37.5 -156.5q-18 -47 -47.5 -97.5t-57.5 -102.5t-48.5 -103.5t-20.5 -100.5q0 -12 1 -23t1 -23q0 -26 -10 -43t-40 -17q-17 0 -41 6t-39 14 q-24 12 -31 28.5t-7 43.5q0 52 15 100.5t38 94t50 89.5t51 88q47 88 64.5 185t17.5 197q0 20 -2.5 48t-8.5 58t-15.5 60t-24.5 53.5t-35.5 38t-47.5 14.5q-33 0 -54 -21t-33 -51t-16.5 -63.5t-4.5 -58.5q0 -28 9 -57.5t20 -54.5t20 -42.5t9 -21.5q0 -10 -8.5 -16t-20.5 -9.5 t-24 -5t-19 -1.5q-38 0 -62.5 23t-38.5 56.5t-19.5 71.5t-5.5 67zM209 108q0 10 7 15.5t17.5 8t21 2.5h18.5q10 0 23.5 -0.5t25.5 -4t20.5 -11t8.5 -20.5q0 -5 -0.5 -21.5t-1 -35.5t-2 -34.5t-2.5 -16.5q-6 -11 -19 -12.5t-25 -1.5q-30 0 -45 3t-21.5 12t-9 25t-6.5 42 q-2 12 -6 24t-4 26z" />
<glyph unicode="@" horiz-adv-x="547" d="M34 676q0 41 7 89t21.5 96t37.5 92.5t54.5 79t72.5 55t91 20.5q55 0 93 -24t61.5 -62t33.5 -85.5t10 -94.5q0 -19 -2.5 -49t-8.5 -64t-16 -69t-24.5 -63t-34.5 -45.5t-46 -17.5q-30 0 -47 22.5t-23 49.5q-7 -17 -15.5 -35.5t-20.5 -34t-27.5 -26t-36.5 -10.5 q-24 0 -40 11t-25 28.5t-13 38t-4 40.5q0 40 6.5 82.5t22 81.5t40.5 71.5t63 54.5q12 8 24 13t26 7q6 12 16 20t24 8q15 0 24 -6.5t14 -16.5t6.5 -22.5t1.5 -24.5q0 -54 -8 -108t-8 -108q0 -9 1 -18t3 -18q11 18 19.5 44.5t14 55t8 56.5t2.5 50q0 28 -4.5 60t-16.5 59.5 t-34 46t-57 18.5t-63.5 -18t-50.5 -47t-37.5 -66t-26 -75t-15.5 -74.5t-5 -63.5q0 -28 4 -69t16.5 -79.5t35 -66t60.5 -27.5q18 0 34.5 7t31 16t25.5 16t19 7t14 -7t10 -16.5t6 -19.5t2 -17q0 -20 -16.5 -34t-39.5 -23.5t-47 -14t-39 -4.5q-40 0 -70.5 15.5t-53.5 41 t-38 59.5t-24.5 70.5t-13.5 73t-4 68.5zM212 600q0 -6 2 -14q14 21 27 53.5t23.5 68t18.5 70t13 60.5q-26 -17 -42 -43.5t-25.5 -57t-13 -63t-3.5 -60.5v-14z" />
<glyph unicode="A" d="M42 436q0 10 7.5 18.5t18 16t21.5 13t19 8.5q21 140 40 279t34 281q4 38 7 77t6.5 78t9 77t15.5 76q9 36 30 58t62 22q12 0 23.5 -2t20.5 -8q26 -13 54 -71t56 -140.5t53.5 -178.5t46.5 -186t36 -162.5t22 -107.5q21 3 42 5.5t42 2.5q10 0 23 -1t24.5 -5.5t19 -13 t7.5 -22.5q0 -21 -15 -44t-33 -34q-5 -3 -17 -6t-25.5 -5.5t-26 -5t-19.5 -3.5l24 -148q11 -69 16.5 -138.5t25.5 -137.5q2 -6 4 -11t2 -13q0 -13 -7.5 -20t-18 -10.5t-22.5 -4.5t-22 -1h-14q-31 0 -47.5 5t-25.5 17t-12 30.5t-7 45.5q-24 183 -54 366q-62 -8 -124.5 -15 t-125.5 -13l-32 -196q-2 -18 -5.5 -49t-8 -63.5t-10 -60.5t-12.5 -41q-6 -12 -11 -17t-19 -5q-18 0 -35.5 6.5t-31 18t-21.5 27.5t-8 36t4.5 40t7.5 40q11 66 20 131.5t20 130.5q-7 1 -16 3.5t-17.5 6.5t-14.5 10t-6 14zM256 520q54 8 106.5 17.5t105.5 20.5 q-26 142 -56.5 281.5t-71.5 278.5q-18 -151 -39 -300t-45 -298z" />
<glyph unicode="B" horiz-adv-x="774" d="M46 1398q0 26 11 42t28 24.5t38.5 11t42.5 2.5q96 0 186 -24t159 -74t111 -127.5t42 -184.5q0 -88 -32 -168t-94 -142q56 -24 96.5 -62.5t66.5 -86.5t38.5 -103.5t12.5 -113.5q0 -117 -37.5 -204t-104.5 -145t-159.5 -86.5t-202.5 -28.5h-34q-10 0 -30 0.5t-40.5 4 t-36 11.5t-15.5 22q0 16 7.5 31.5t19.5 28t27 21t30 11.5q-8 10 -12 27t-7 36t-4.5 37.5t-2.5 31.5q-18 155 -31 309t-13 311q0 100 3 198t5 198q2 33 2 65v16q0 6 -1 11q0 34 3 70q-6 -2 -13 -2h-15q-15 0 -29.5 5.5t-14.5 26.5zM254 864q0 -20 1 -40.5t1 -41.5 q26 11 52.5 11.5t53.5 0.5q75 47 112.5 123.5t37.5 164.5q0 60 -19 106.5t-53 81t-81 56t-103 32.5q2 -5 2 -9v-7q0 -95 -2 -187.5t-2 -186.5v-104zM262 616q8 -113 19.5 -225.5t32.5 -224.5q5 -26 11.5 -51.5t8.5 -52.5q67 9 117.5 37.5t84 72t50 100.5t16.5 122 q0 48 -8.5 93t-29.5 82.5t-55 64.5t-85 40q-76 -43 -162 -58z" />
<glyph unicode="C" horiz-adv-x="813" d="M53 788q0 61 5.5 126t19.5 128.5t38 123t60 110t85.5 89.5t115.5 61q24 9 50 12.5t52 3.5q52 0 99 -17t82.5 -48t56 -75t20.5 -98q0 -18 -8 -27t-28 -9q-37 0 -57.5 12t-33.5 30t-21.5 39t-20.5 39t-32 30t-55 12t-65.5 -13.5t-56 -35.5t-46 -49.5t-36.5 -55.5 q-42 -78 -59 -166.5t-17 -177.5q0 -30 2.5 -77.5t8 -104.5t15.5 -120.5t24.5 -124.5t35 -117t47 -98t60 -67t75.5 -25q43 0 76 22.5t56.5 57t39 75t24.5 75.5q3 10 5.5 18t7 14t11.5 9t20 3q14 0 33.5 -5.5t37 -15.5t29.5 -24t12 -31q0 -15 -4.5 -29.5t-9.5 -28.5 q-22 -57 -54 -105.5t-74 -83.5t-95 -55t-117 -20q-85 0 -146 36t-104 93.5t-70.5 128.5t-43.5 142q-24 103 -37 206.5t-13 207.5z" />
<glyph unicode="D" horiz-adv-x="800" d="M77 1368q0 16 8 29.5t20.5 23.5t28 15.5t29.5 5.5t27 -2.5t27 -5.5q133 -32 237 -97t174.5 -158t107.5 -210t37 -253q0 -107 -19 -210.5t-62.5 -193.5t-114.5 -163.5t-174 -120.5q-26 -12 -56.5 -22t-63 -17t-64.5 -11t-60 -4q-11 0 -24.5 0.5t-25.5 4t-20 11.5t-8 22 q0 12 5 25t13.5 25t18.5 21.5t21 14.5q-5 8 -9.5 45t-8 94t-6.5 127.5t-5.5 145.5t-4 149.5t-2.5 137.5t-1.5 109.5t-0.5 67.5q0 94 3 185t3 185q-11 0 -20.5 6t-9.5 18zM245 1304q0 -258 8.5 -511.5t25.5 -510.5q3 -39 5.5 -77.5t8.5 -76.5q94 31 158 96t102.5 148.5 t55 178t16.5 183.5q0 100 -24 188.5t-71.5 162t-119 130t-165.5 93.5v-4z" />
<glyph unicode="E" horiz-adv-x="745" d="M80 1168q0 60 7 102t28 69t60.5 39t104.5 12t130.5 -1t131.5 -1q20 0 40 1.5t40 -3.5q12 -2 21 -6.5t9 -19.5q0 -36 -24 -53.5t-57 -23.5q-30 -6 -63 -6q-4 1 -6 1h-58h-130h-40t-40 -2q-6 -15 -8 -31t-2 -33q0 -109 5.5 -215t10.5 -215q62 5 123 12t123 16q9 0 16.5 1 t15.5 1q21 0 29.5 -11t8.5 -31q0 -14 -1.5 -26t-6.5 -24q-7 -20 -23 -29t-36 -12.5t-41.5 -3.5t-37.5 -1q-42 -2 -82.5 -3t-81.5 -3l3 -63l4.5 -94.5t6 -108.5t7.5 -105.5t9 -86.5t10 -50q11 -21 25 -27.5t37 -6.5q37 0 78 14.5t80 37t74.5 49.5t61.5 53q11 9 22 18.5 t26 9.5t29 -9t25 -22.5t17.5 -29.5t6.5 -29q0 -17 -13.5 -33t-32.5 -31t-39 -27.5t-33 -20.5q-34 -22 -67.5 -41t-69 -33t-73 -22t-78.5 -8l-16 -2q-33 0 -65.5 7.5t-60.5 23t-50 39.5t-34 58q-9 27 -14 64t-7.5 77t-4 78.5t-2.5 68.5q-15 306 -24 612q-2 35 -3 70t-1 70z " />
<glyph unicode="F" horiz-adv-x="636" d="M81 1172q0 59 7.5 100.5t28.5 67.5t60 38t102 12q65 0 129 -1t129 -1q23 0 44 1.5t42 -3.5q12 -2 21 -6.5t9 -19.5q0 -30 -16 -47t-40 -25t-51 -10t-49 -2q-44 0 -88 1t-88 1h-42t-42 -2q-8 -17 -10 -34.5t-2 -35.5q0 -94 7 -186t15 -186q60 5 120 12t122 16q8 0 15 1 t15 1q40 0 40 -44q0 -12 -2.5 -24t-7.5 -24q-7 -20 -23 -29.5t-36 -13t-41.5 -3t-37.5 -0.5l-156 -6q6 -95 13 -188t15 -188q8 -72 13.5 -145t16.5 -145v-16q0 -23 -13 -30.5t-33 -7.5q-37 0 -70 12q-22 8 -33 19.5t-15.5 26t-5.5 31.5t-2 37q-9 151 -20 300.5t-20 301.5 q-6 112 -13 222t-7 222z" />
<glyph unicode="G" horiz-adv-x="868" d="M53 766q0 56 5.5 120t18.5 129t35 127t56 114.5t80.5 92t108.5 59.5q23 8 46 12t46 4q100 0 166.5 -54t99.5 -146q6 -14 10 -28.5t4 -29.5q0 -18 -13 -23t-27 -5q-36 0 -58 13t-37 32t-26.5 42t-25.5 42t-35 32t-56 13q-50 0 -88 -28t-66 -73.5t-47 -103t-30 -115 t-16 -110.5t-5 -90q0 -39 5 -108t16.5 -150t31 -164.5t49 -151.5t70 -111t94.5 -43q47 0 85 27.5t64.5 69t40.5 89t14 88.5q0 39 -11 77.5t-31 73t-48 64t-62 49.5q-12 8 -26.5 14.5t-29.5 11.5q-8 1 -31 2.5t-47 4.5t-43 9.5t-19 19.5q0 18 6 37t17.5 34t27 25t35.5 10 q29 0 62.5 -8.5t59.5 -19.5q50 3 99 6.5t97 9.5q17 2 33.5 5t34.5 3q24 0 36 -11t12 -37q0 -32 -11.5 -49.5t-30.5 -26.5t-42.5 -11t-47.5 -3q54 -56 86 -129t32 -151q0 -77 -26 -150.5t-74 -130.5t-115 -92t-149 -35q-65 0 -117 25t-93 68.5t-72 101t-53 123t-36.5 135.5 t-23 137t-12 127.5t-3.5 108.5z" />
<glyph unicode="H" horiz-adv-x="869" d="M66 660q0 18 10.5 34.5t25.5 27.5v604q0 20 7.5 32t28.5 12q34 0 54.5 -10t31 -27.5t14 -42t4.5 -52.5q3 -122 4 -244t4 -244q86 8 171 16.5t171 25.5q-5 106 -12.5 210t-21.5 210q-8 50 -19 99.5t-11 100.5q0 18 13.5 23t28.5 5q24 0 48.5 -8t39.5 -28q9 -13 19 -54.5 t18.5 -98.5t16.5 -123t14 -126.5t10.5 -109t5.5 -70.5q12 3 25 5.5t25 2.5q24 0 35 -14.5t11 -37.5q0 -45 -23 -63.5t-65 -26.5q9 -154 11.5 -306t2.5 -306q0 -24 -10 -37t-36 -13q-22 0 -43.5 5t-38.5 15.5t-27.5 28t-10.5 43.5v312v118t-2 118q-86 -12 -172 -20.5 t-172 -11.5q3 -213 12 -426q3 -44 6.5 -86t3.5 -84q0 -20 -11 -30t-31 -10q-15 0 -32 2.5t-33.5 8.5t-30.5 15t-22 22q-3 5 -5 30t-3.5 63t-2.5 86t-1 99v100.5v91.5v73v43q-14 0 -25 6.5t-11 21.5z" />
<glyph unicode="I" horiz-adv-x="664" d="M-7 1274q0 19 8 33.5t21.5 24t29.5 15.5t33 9q43 8 87.5 13.5l89 11t89 11.5t88.5 16q42 9 84 23.5t86 14.5q24 0 32 -17.5t8 -38.5q0 -17 -3.5 -32.5t-14.5 -29.5q-6 -8 -26.5 -15.5t-49 -13.5t-61 -11.5t-63 -10t-55.5 -7.5t-37 -4q11 -139 15.5 -278t7.5 -278l6 -278 t11 -278q57 9 115 17.5t117 8.5q17 0 32.5 -7.5t15.5 -28.5q0 -29 -15 -54.5t-41 -37.5q-8 -4 -39 -7.5t-67 -6.5t-68.5 -6t-45.5 -4q-3 -17 -16 -23.5t-28 -6.5q-17 0 -39 5t-39 11q-45 -6 -91 -13t-93 -7q-36 0 -36 34t19 52t46 27t58 12t55 7q-5 284 -10.5 564t-5.5 564 q-41 -3 -80 -5.5t-78 -2.5q-8 0 -17 0.5t-16.5 3t-13 8t-5.5 16.5z" />
<glyph unicode="J" horiz-adv-x="878" d="M13 414q0 16 1.5 52t8 73.5t20 66t36.5 28.5q13 0 32.5 -6.5t37 -17.5t30 -25.5t12.5 -30.5q0 -38 -9 -74t-9 -74q0 -41 12 -91t36 -94.5t60.5 -74.5t85.5 -30q36 0 61.5 13.5t43 36t28 51.5t17.5 59q23 101 26.5 204.5t3.5 209.5q0 137 -6.5 274t-23.5 274 q-68 -8 -134 -17t-134 -9q-17 0 -26.5 7t-9.5 25q0 35 21 53.5t53 26.5q53 15 108.5 21.5t109.5 14.5v16q0 17 12 21.5t26 4.5q21 0 41 -6t37 -20q56 9 111.5 21.5t114.5 12.5q21 0 33.5 -12.5t12.5 -33.5q0 -40 -17.5 -59.5t-44.5 -27.5t-58.5 -9.5t-59.5 -5.5l-54 -6 q23 -177 28.5 -353.5t5.5 -356.5q0 -56 -3 -118.5t-14 -124t-32 -117.5t-57 -98.5t-89 -68t-127 -25.5q-85 0 -151.5 36.5t-112.5 95.5t-70 134.5t-24 153.5z" />
<glyph unicode="K" horiz-adv-x="732" d="M75 1378q0 24 16 32t34 8q56 0 88 -23t32 -83q0 -91 6 -178q5 -109 6.5 -216t3.5 -216q108 135 170 290.5t94 325.5q1 10 3.5 25t7 29.5t13 25t22.5 10.5q16 0 33 -5.5t30.5 -15.5t22 -24t8.5 -31q0 -44 -10.5 -85t-21.5 -83q-21 -85 -44.5 -157t-54 -138.5t-70.5 -131 t-95 -133.5l42 -84q53 -101 118 -196.5t142 -181.5q26 -29 53.5 -53.5t48.5 -56.5q6 -6 6 -16q0 -14 -13 -24t-31 -16t-36.5 -9t-29.5 -3q-3 0 -5 -1h-1q-2 0 -4 1q-20 4 -35 13.5t-27 22t-23 27.5t-23 31q-80 101 -150.5 207.5t-127.5 224.5l-12 -14v-386q0 -11 -1 -24.5 t-5 -25.5t-12 -20t-22 -8q-32 0 -52.5 10t-32 27.5t-15.5 41.5t-4 53q0 94 -2 187t-2 187q0 41 3 80t3 80q0 143 -11 284.5t-23 283.5q-3 33 -6.5 66t-3.5 66z" />
<glyph unicode="L" horiz-adv-x="624" d="M103 124q0 267 2 532t2 534q0 42 -2 83t-2 83q0 10 1 23.5t5 25t12 19.5t22 8t29.5 -4t29 -12t24 -19.5t15.5 -26.5q5 -18 4.5 -38.5t-0.5 -41.5q5 -266 7.5 -528t2.5 -528q0 -30 0.5 -60t3.5 -60q27 1 66 9t78.5 20.5t74.5 28.5t55 34q9 9 19 18.5t25 9.5q13 0 27.5 -9 t26.5 -22.5t20 -28.5t8 -28q0 -23 -24.5 -44t-63 -38.5t-85 -32t-91 -24.5t-81.5 -15.5t-55 -5.5q-34 0 -62.5 8t-49.5 24.5t-32.5 42.5t-11.5 63z" />
<glyph unicode="M" horiz-adv-x="956" d="M98 584q0 17 0.5 59t1.5 99.5t2.5 125t3.5 136.5t4 134.5t4 117.5t4.5 86.5t5.5 41.5q5 14 11.5 18t20.5 4q38 0 63.5 -16.5t34.5 -55.5q14 -21 32 -76.5t38 -129.5t40.5 -159.5t39 -164.5t34 -145t24.5 -101q29 172 59 342t57 342q5 29 10.5 57t5.5 57q0 18 -5 33.5 t-5 32.5q0 21 13.5 25.5t30.5 4.5q16 0 38 -5t42.5 -15t35 -25t14.5 -35q0 -35 -6 -74q36 -169 60 -338.5t36 -341.5q12 -148 19.5 -294t18.5 -292q2 -9 3 -17t1 -17q0 -20 -9.5 -32t-32.5 -12q-12 0 -25 2.5t-25 7.5q-25 7 -39.5 13t-22 15.5t-9.5 24.5t-3 41 q-8 205 -17.5 406.5t-30.5 405.5q-14 -69 -27 -138t-27 -140q-14 -74 -26.5 -151t-39.5 -149q-11 -29 -27 -45.5t-49 -16.5q-24 0 -39 8.5t-29 25.5q-13 14 -28 54t-31.5 93.5t-32.5 114.5t-30 117.5t-25 103.5t-17 71v-136q0 -133 5 -265t17 -263q3 -29 8.5 -58t5.5 -58 q0 -26 -17.5 -34t-38.5 -8q-57 0 -87.5 24.5t-30.5 83.5q0 121 -6 240t-6 240z" />
<glyph unicode="N" horiz-adv-x="797" d="M100 140q0 281 1 557t1 555v142q0 23 8.5 38.5t37.5 15.5q20 0 41 -5.5t37.5 -16.5t27 -28.5t10.5 -41.5q42 -80 70.5 -165t55.5 -171q39 -125 77 -250t77 -252q-6 189 -12.5 377.5t-25.5 376.5q-5 41 -11.5 80t-6.5 80q0 21 14 28.5t32 7.5q31 0 53 -5t37 -17t23 -32.5 t13 -51.5q6 -54 9.5 -108.5t6.5 -107.5q9 -134 13 -266t7 -266q3 -133 7.5 -265.5t4.5 -266.5q0 -18 -3.5 -35.5t-12 -31t-22.5 -21.5t-36 -8q-27 0 -43.5 11.5t-30.5 32.5q-19 27 -34 62.5t-27 73t-22.5 75t-20.5 69.5q-54 168 -100.5 335t-99.5 335q-5 -217 -7.5 -432 t-2.5 -432q0 -11 -1 -25t-5 -26.5t-12.5 -21.5t-23.5 -9q-51 0 -77.5 27.5t-26.5 78.5z" />
<glyph unicode="O" horiz-adv-x="788" d="M59 776q0 74 6.5 155t24.5 160.5t49 153.5t80 133q5 6 12.5 14t16.5 15.5t18.5 13t18.5 5.5t17.5 -5t14.5 -13q21 12 44.5 17t47.5 5q73 0 125.5 -34.5t87.5 -90.5t56 -127t32 -145t14 -143t3 -122q0 -42 -1.5 -97.5t-7 -118.5t-16 -129t-27.5 -129t-42 -119t-60 -98 t-81 -66.5t-105 -24.5t-107 27.5t-81 72.5q-27 36 -47.5 88.5t-36 114.5t-26.5 129t-17.5 132t-9.5 123.5t-3 102.5zM203 816q0 -21 2 -63t6 -96t11 -116t17 -123.5t23.5 -118t31.5 -100t40 -69.5t49 -26q15 0 27 8.5t23 17.5q30 27 52 71t37 97t25 111.5t15 115.5t7 108.5 t2 90.5q0 26 -1.5 79.5t-7.5 118t-16.5 132.5t-28.5 123.5t-44.5 91t-63.5 35.5q-15 0 -27 -14t-23 -36t-20 -48t-18 -50t-17 -43t-17 -27q-3 -3 -9.5 -3.5t-12.5 -0.5q-17 0 -32 6q-17 -68 -23.5 -135.5t-6.5 -136.5z" />
<glyph unicode="P" horiz-adv-x="714" d="M51 1308q0 30 15 43.5t41 24.5q0 11 0.5 25.5t4 27t11.5 21t24 8.5q26 0 50 -10t36 -34q35 6 68 11t68 5q79 0 141 -26.5t105 -74t65.5 -112.5t22.5 -141q0 -99 -31.5 -199t-88 -187t-135.5 -155t-173 -103q6 -83 14 -165t22 -165q3 -15 6.5 -31t2.5 -33q0 -26 -12.5 -35 t-36.5 -9q-17 0 -41 4t-41 12q-20 11 -26.5 22.5t-9.5 31.5q-17 85 -20.5 170t-9.5 170q-20 2 -33 10.5t-13 29.5q0 20 11.5 42t26.5 34q-8 159 -8 317q1 26 1 52q1 78 0 157q0 105 -1 212q-5 -2 -9 -3t-9 -1q-11 0 -18 5.5t-11.5 13.5t-6.5 17.5t-2 17.5zM249 1298 q0 -183 2.5 -363t13.5 -361q64 33 117 92t91 130.5t59 149t21 148.5q0 46 -12 86.5t-36 70t-61 46.5t-87 17q-27 0 -54.5 -4t-53.5 -12z" />
<glyph unicode="Q" horiz-adv-x="885" d="M56 798q0 75 9 158.5t30 165t56.5 155t88.5 129.5q11 12 28 27t32 15q11 0 20.5 -6t15.5 -14q48 24 104 24q79 0 135 -36.5t94 -96t59.5 -135.5t32.5 -154.5t14 -152.5t3 -131q0 -72 -6 -155.5t-21.5 -167.5t-42 -162t-66.5 -139q38 -44 76.5 -87t83.5 -81 q7 -5 18.5 -13.5t22.5 -18t19 -20t8 -20.5q0 -12 -13 -22.5t-31 -18.5t-36 -12.5t-28 -4.5q-23 0 -55.5 24t-64.5 56t-60 65t-42 51q-30 -18 -63.5 -26t-68.5 -8q-59 0 -103.5 22t-77.5 59t-56.5 84.5t-39.5 99.5t-26 104t-17 97q-15 88 -23.5 173t-8.5 173zM200 820 q0 -24 2 -67t7 -98t12.5 -117t19.5 -123t27.5 -117.5t36 -99.5t46 -68.5t57.5 -25.5q14 0 27.5 5.5t24.5 14.5q-6 9 -21 30.5t-33.5 49.5t-38.5 58.5t-36.5 57.5t-27.5 46.5t-11 25.5q0 9 7 15t17 9t20 4.5t16 1.5q39 0 60.5 -14t45.5 -44q23 -29 44 -59.5t44 -60.5 q24 55 39 118.5t23 129t11 131t3 125.5q0 29 -2 83t-8 118t-18 130.5t-32 121t-49 89t-71 34.5q-28 0 -46.5 -16.5t-31.5 -42t-22.5 -54.5t-19 -54.5t-22 -42t-30.5 -16.5q-20 0 -36 8q-20 -71 -27 -142.5t-7 -143.5z" />
<glyph unicode="R" horiz-adv-x="781" d="M56 1280q0 11 5.5 22t14 20t18.5 17t18 13v18q0 10 0.5 23t4 24.5t11.5 19t24 7.5q21 0 42 -7t36 -25q75 30 158 30q73 0 133 -29t102.5 -78t65.5 -113t23 -134q0 -75 -28 -145.5t-73 -133.5t-102.5 -115.5t-116.5 -91.5q94 -125 190.5 -247.5t197.5 -244.5 q6 -7 18.5 -21t25.5 -30.5t22.5 -31.5t9.5 -23q0 -12 -12 -20t-28.5 -13t-33 -7t-24.5 -2q-20 0 -32.5 3.5t-29.5 12.5q-5 3 -23.5 25.5t-46 58.5t-62 82t-71 94.5t-72 97t-65.5 89t-51.5 71t-30.5 42.5l-6 -2q6 -119 15.5 -237.5t32.5 -234.5q3 -12 6.5 -25t3.5 -27 q0 -23 -15 -29.5t-33 -6.5q-10 0 -24 1t-29 4t-27.5 7.5t-19.5 11.5q-14 12 -17.5 25t-6.5 31q-29 201 -36.5 403.5t-7.5 404.5q0 88 1 173t3 173q-12 1 -22.5 8t-18.5 17.5t-12.5 22t-4.5 22.5zM254 1294q2 -149 3.5 -298t4.5 -298l18 -2q52 29 102.5 73t91 98t65.5 114.5 t25 122.5q0 37 -13 77t-37 72.5t-57.5 53.5t-74.5 21q-33 0 -65.5 -9.5t-62.5 -24.5z" />
<glyph unicode="S" horiz-adv-x="712" d="M27 254q0 14 1 35t6.5 40.5t16 33t30.5 13.5q16 0 35.5 -6.5t36.5 -17.5t28.5 -26.5t11.5 -33.5v-58q0 -69 37.5 -112.5t108.5 -43.5q50 0 86 23t58.5 59t33 80.5t10.5 87.5q0 84 -34.5 163t-86.5 154.5t-113 148.5t-113 145t-86.5 144t-34.5 147q0 61 24.5 105.5t65 73 t92 42t106.5 13.5q67 0 120 -19t90 -55t56.5 -88.5t19.5 -119.5q0 -10 -1 -25t-5 -29.5t-12 -25t-22 -10.5q-20 0 -40 10q-17 9 -27.5 17.5t-16.5 19t-9 23.5t-5 32q-5 36 -13 65t-24 49t-42 31t-67 11q-29 0 -55.5 -6t-46 -20t-31 -36.5t-11.5 -55.5q0 -46 20.5 -94t54 -98 t76 -102.5t87.5 -108.5t87.5 -115.5t76 -123.5t54 -132.5t20.5 -141.5q0 -74 -24 -140t-68.5 -115.5t-107.5 -79t-140 -29.5q-68 0 -125.5 21.5t-99.5 60.5t-65.5 95t-23.5 125z" />
<glyph unicode="T" horiz-adv-x="677" d="M-27 1272q0 35 23 54.5t55 27.5q51 11 104 14.5t106 9.5q0 10 1 19.5t4.5 17t10.5 12.5t20 5q24 0 49 -11t39 -31l166 18q24 3 48 6.5t48 3.5q11 0 21.5 -1t18.5 -5.5t13 -13t5 -22.5q0 -36 -20.5 -59t-55.5 -31q-56 -12 -114.5 -12.5t-115.5 -3.5v-198 q0 -252 15.5 -502.5t50.5 -501.5q3 -15 6.5 -30t3.5 -30q0 -24 -12.5 -35t-35.5 -11q-18 0 -44.5 4.5t-41.5 13.5q-20 12 -25.5 24.5t-8.5 33.5q-11 71 -15 142t-9 142q-12 152 -20 303t-8 303q0 83 1 165t1 167q-62 -6 -124.5 -12t-125.5 -6q-15 0 -24.5 7.5t-9.5 22.5z " />
<glyph unicode="U" horiz-adv-x="833" d="M89 1022v46t0.5 66.5t1.5 75.5t3 74.5t5 62.5t8 39t11.5 17t20.5 5q45 0 71.5 -27.5t26.5 -72.5q0 -66 -3 -132t-3 -132q0 -29 0.5 -85t3.5 -127.5t9 -153.5t16.5 -162.5t26.5 -155t38.5 -131.5t52.5 -91t69 -34q37 0 64.5 29t46 74.5t30 101.5t17.5 110.5t8 101t2 73.5 q0 55 -2.5 122.5t-7 140.5t-12.5 149t-19 147.5t-25.5 136.5t-33.5 116q-3 9 -9.5 23t-6.5 23q0 16 7.5 24t18.5 11.5t24 4t24 0.5q24 0 39.5 -2t36.5 -14q14 -8 26.5 -44t23.5 -91t20.5 -124.5t17.5 -143t14 -146.5t10 -135t6 -109t2 -69q0 -54 -3.5 -121t-14.5 -137 t-32 -136.5t-57 -118.5t-88.5 -83.5t-126.5 -31.5q-41 0 -80 12t-72 36q-52 38 -87.5 109.5t-58.5 161t-35 190t-17.5 197.5t-6.5 183t-1 147z" />
<glyph unicode="V" horiz-adv-x="725" d="M7 1320q0 18 13 23t27 5q29 0 55 -10t41 -34q8 -14 12.5 -37.5t7.5 -38.5q32 -146 66 -290.5t72 -289.5q24 -91 47.5 -180t52.5 -178q50 158 71 323t21 331q0 26 -0.5 65t-1.5 83.5t-3.5 91.5t-6.5 90t-10.5 79.5t-15.5 58.5q-3 8 -6.5 14.5t-3.5 15.5q0 12 9 19t21 11 t25 5t21 1q27 0 47.5 -5.5t40.5 -26.5q9 -9 15 -41t10 -76t6.5 -94.5t3.5 -97.5t1 -84v-55q0 -237 -39.5 -467.5t-132.5 -450.5q3 -7 9 -20t12 -27.5t10.5 -27.5t4.5 -19q0 -14 -8 -21t-20 -10t-24.5 -3h-21.5q-26 0 -46 3t-40 21q-14 12 -32.5 60.5t-40.5 121t-45.5 163.5 t-47 187.5t-45.5 192t-40.5 177.5t-32 145t-20.5 93q-11 51 -24.5 101t-13.5 103z" />
<glyph unicode="W" horiz-adv-x="1045" d="M51 1308q0 21 6 32.5t30 11.5q37 0 57.5 -11.5t31 -31t14 -45.5t5.5 -56q20 -222 49 -442t83 -436q27 139 41.5 278.5t28.5 279.5q3 37 4 75t3.5 76.5t7 76.5t15.5 74q9 32 29 49t55 17q34 0 53 -15t29.5 -37.5t14.5 -50.5t7 -53q24 -181 62.5 -358t91.5 -352 q20 155 25 309t5 311q0 89 -1.5 179t-12.5 181q0 11 -2 20t-2 20q0 21 13 30.5t33 9.5q13 0 28.5 -2.5t31 -7t29 -11.5t21.5 -17q4 -5 6.5 -22t4.5 -41t3 -51t1.5 -52t0.5 -45v-29q0 -122 -2 -244t-9.5 -243.5t-21.5 -242.5t-37 -242l-16 -80q3 -7 10.5 -22.5t15.5 -33 t14 -32.5t6 -20q0 -13 -10.5 -20t-24.5 -10.5t-29 -4.5t-24 -1q-11 0 -21 0.5t-19 3.5q-23 8 -31 18t-19 30q-42 80 -73.5 165.5t-55.5 174t-43 178t-36 178.5q-36 -330 -114 -654q9 -18 20.5 -39.5t11.5 -42.5q0 -14 -9 -22t-22.5 -11t-28 -3.5t-24.5 0.5q-3 -2 -6 -3 t-8 -1q-35 0 -55.5 21t-32.5 51q-35 91 -62 193t-47 207t-34.5 209.5t-24.5 202.5q-14 119 -27 237t-13 239z" />
<glyph unicode="X" horiz-adv-x="655" d="M20 1340q0 9 5.5 14t13.5 8t16.5 3.5t14.5 0.5q42 0 65.5 -18t40.5 -54q45 -100 80 -204l70 -208q18 89 35.5 177t32.5 177q4 19 8 48t8.5 60t10 58.5t13.5 43.5q5 11 10.5 15.5t19.5 4.5q16 0 33 -6t30.5 -17t22 -26t8.5 -33q0 -71 -15 -140t-27 -140 q-23 -125 -44 -249.5t-54 -246.5q48 -145 98 -287t110 -281q8 -17 16 -33.5t8 -36.5q0 -12 -6.5 -19t-15.5 -10t-20 -4t-20 -1q-24 0 -41 0.5t-30 6.5t-23 18.5t-20 36.5q-41 89 -71.5 182.5t-62.5 187.5q-26 -68 -55 -134t-59 -132q-14 -30 -26 -60.5t-30 -59.5 q-9 -14 -17.5 -22t-26.5 -8q-13 0 -30 7t-32.5 18.5t-26.5 26t-11 28.5q0 6 10 31t26 59.5t34.5 75t36 77.5t31 66.5t18.5 42.5q24 56 42.5 112.5t35.5 113.5q-6 18 -19 58t-31 92.5t-39 113.5t-42 123.5t-41 121t-35 105.5t-24 78t-9 38z" />
<glyph unicode="Y" horiz-adv-x="585" d="M-15 1390q0 11 6 18t15 10.5t19 4.5t18 1q26 0 48.5 -2.5t45.5 -17.5q6 -4 19 -37t29 -82t33.5 -106t32.5 -110t27 -94t17 -57q33 128 66.5 254t57.5 256q2 12 4.5 26.5t7 26.5t13.5 20.5t25 8.5q13 0 32.5 -6t37.5 -16.5t31 -24t13 -29.5q0 -21 -13 -76.5t-33 -129 t-45 -156t-49 -158t-44 -134.5t-30 -86q11 -89 15 -177t9 -177q5 -75 9.5 -151t4.5 -151q0 -23 -11.5 -35.5t-34.5 -12.5q-9 0 -24 2.5t-30.5 7t-29 10.5t-18.5 12q-12 14 -15 26.5t-3 29.5q0 155 -3 308t-3 308l-8 8q-6 9 -13.5 25.5t-15 34.5t-13.5 35t-10 27 q-33 92 -62 184t-62 184q-5 16 -16 43.5t-22 57.5t-19.5 56.5t-8.5 40.5z" />
<glyph unicode="Z" horiz-adv-x="625" d="M2 58q0 13 6 34t14.5 43.5t16.5 44.5t13 36l200 584l106 306q18 51 34.5 102.5t39.5 101.5q-32 -2 -64 -3t-64 -1h-31.5t-51 0.5t-60 1t-59 2t-47 3.5t-23.5 5q-14 7 -14 22q0 29 19 45.5t46 24.5t56.5 10t50.5 2q24 0 48 -2t48 -2q50 0 99 4t97 4q17 0 37 -3.5t36.5 -12 t27.5 -22.5t11 -36q0 -18 -7 -32.5t-15 -31.5q-35 -85 -62 -170.5t-56 -171.5q-69 -207 -134.5 -412.5t-133.5 -413.5q41 2 82 3.5t82 4.5q57 5 114 13.5t116 8.5q18 0 32 -8.5t14 -29.5q0 -29 -14.5 -54t-41.5 -36q-9 -4 -39 -6.5t-72 -4.5t-90 -3t-92 -1.5t-78 -0.5h-49 q-6 -11 -17 -18.5t-25 -7.5q-13 0 -31 6.5t-34.5 17.5t-28.5 25t-12 29z" />
<glyph unicode="[" horiz-adv-x="426" d="M49 1448q0 13 1.5 23t6 16t13.5 8t25 1q8 5 38.5 8.5t67.5 5.5t72 3t52 1q15 0 20.5 -9t5.5 -23q0 -27 -7 -48.5t-37 -29.5q-27 -9 -58 -13t-60 -9q9 -174 15 -349t14 -350t21.5 -349.5t37.5 -347.5q15 2 35.5 7t42 9.5t41 8t33.5 3.5q23 0 33.5 -14.5t10.5 -35.5 q0 -24 -10.5 -45.5t-31.5 -32.5q-14 -8 -42 -13.5t-60 -10t-62 -6.5t-46 -2q-33 0 -59.5 11t-34.5 47q-8 35 -10.5 71t-5.5 71q-6 75 -12.5 148.5t-11.5 147.5q-11 152 -15 301.5t-9 300.5q-5 125 -9.5 248t-4.5 248z" />
<glyph unicode="\" horiz-adv-x="474" d="M14 1386q0 16 12 30t29.5 24.5t37 16t33.5 5.5q18 0 28 -10t15 -24.5t7 -30.5t4 -29q26 -151 59 -299t63 -297q32 -148 61 -295t61 -295q8 -35 17 -69t9 -69q0 -18 -8 -33t-21.5 -26t-30 -17t-32.5 -6q-12 0 -18 3.5t-12 14.5q-6 12 -13 40t-13.5 59.5t-12 61.5t-9.5 47 l-198 888q-17 72 -34 143t-32 143q0 6 -1 12t-1 12z" />
<glyph unicode="]" horiz-adv-x="428" d="M-45 1402q0 24 10.5 46t31.5 34q13 7 41.5 12.5t60.5 10t61.5 7t46.5 2.5q33 0 59 -12t35 -48q8 -33 9.5 -69.5t6.5 -72.5q6 -74 12.5 -148t11.5 -148q11 -151 15 -301t9 -301q5 -124 9.5 -247t4.5 -247q0 -29 -7.5 -40.5t-38.5 -9.5q-8 -5 -38.5 -8t-67.5 -4.5t-72 -2.5 t-52 -1q-15 0 -20.5 9t-5.5 23q0 25 6.5 47t35.5 31q29 8 59.5 11.5t60.5 8.5q-9 175 -15 350t-14 349.5t-21.5 349t-37.5 347.5q-16 -2 -37 -7t-42 -9.5t-40.5 -8t-32.5 -3.5q-24 0 -34 14.5t-10 35.5z" />
<glyph unicode="^" horiz-adv-x="248" d="M-30 926q0 3 6 33t14.5 73.5t18.5 93t19 92t15.5 71.5t6.5 31q9 17 21.5 26.5t32.5 9.5q15 0 25.5 -6t18 -16t12 -22t8.5 -24q5 -14 15 -47.5t22.5 -76.5t25 -91t23 -89.5t17.5 -72.5t7 -41q0 -17 -14 -22.5t-26 -5.5q-18 0 -38.5 6.5t-31.5 21.5q-3 3 -7.5 20.5 t-10.5 41.5t-12 52.5t-12 54.5t-11 46t-7 29q-1 -6 -5.5 -25.5t-10 -45.5t-12.5 -55t-13 -54t-10.5 -42.5t-6.5 -19.5l-8.5 -8.5t-11.5 -3.5q-11 0 -22 6.5t-19.5 16t-13.5 21t-5 22.5z" />
<glyph unicode="_" horiz-adv-x="386" d="M-15 -160q0 24 17 42.5t41 23.5q20 3 40 3.5t40 2.5q57 3 114 6.5t116 3.5q7 0 15.5 -0.5t16 -3t12 -8.5t4.5 -16q0 -14 -6 -26q-6 -17 -11.5 -28t-13.5 -17t-19.5 -8.5t-29.5 -2.5h-272q-7 0 -17.5 0.5t-21 3t-18 8t-7.5 16.5z" />
<glyph unicode="`" horiz-adv-x="218" d="M-30 1286v8q0 10 6.5 23t17 23.5t23 18t23.5 7.5q15 0 28 -11.5t24 -20.5l84 -86q7 -7 19.5 -16.5t24 -20.5t20 -23t8.5 -22t-5.5 -19t-14.5 -16t-19 -11t-19 -4q-12 0 -23.5 5t-20.5 13q-32 23 -47 34.5t-26.5 21t-25.5 21.5t-45 37q-9 8 -18 17t-14 21z" />
<glyph unicode="a" horiz-adv-x="489" d="M13 165q0 68 13.5 147.5t37.5 159t56 153t70 128.5v-1l6 9q11 15 25.5 32.5t34.5 17.5q19 0 33 -16.5t20 -34.5q26 -5 42 -12.5t25 -18.5t12 -25.5t3 -31.5v-15t-1 -16t-1 -19v-20q0 -10 3.5 -26t7.5 -33l7 -37q5 -29 8.5 -66t8.5 -74q4 -38 8 -73.5t8 -65.5l24 -148 l3 -17q2 -13 4.5 -24t2.5 -25q0 -20 -10 -27.5t-28 -7.5q-47 0 -67.5 25t-30.5 66q-3 14 -6 28.5t-5 28.5q-2 13 -4 18t-4 19q-12 -29 -29.5 -60.5t-40.5 -58t-51.5 -43.5t-62.5 -17q-36 0 -60 17.5t-37.5 44t-19 58.5t-5.5 61zM150 140q0 -4 1 -8v-1q24 37 41.5 97.5 t29.5 127t17.5 129t5.5 103.5q0 2 -1 6.5t-2 9.5q-23 -49 -40.5 -106.5t-29 -117t-17 -119t-5.5 -112.5v-9z" />
<glyph unicode="b" horiz-adv-x="531" d="M43 794v56t0.5 91t1 107t1.5 105t3 84.5t4 45.5q4 14 11 23t24 9q47 0 67.5 -29.5t20.5 -72.5v-257v-84.5t0.5 -73t1.5 -73t3 -83.5q12 27 29.5 53t39.5 47t49 34t60 13q48 0 77.5 -21t45 -53.5t21 -72.5t5.5 -77q0 -41 -4 -90.5t-12 -102.5t-21.5 -106.5t-32.5 -102.5 t-44.5 -90.5t-57.5 -69.5q-23 -20 -51.5 -32.5t-58.5 -12.5q-11 0 -23 3.5t-18 16.5q-22 2 -43.5 8.5t-35.5 28.5q-3 7 -5 17t-4 21q-1 5 -2 9.5t-2 8.5q-29 180 -39.5 360t-10.5 363zM233 159q0 -11 0.5 -32.5t3.5 -35.5q39 33 64.5 96.5t41 137t21.5 144.5t6 119 q0 20 -1.5 44t-12.5 42q-9 -7 -15.5 -15t-13.5 -18l-2 -3v1q-28 -46 -45.5 -107t-28 -126.5t-14.5 -130t-4 -116.5z" />
<glyph unicode="c" horiz-adv-x="440" d="M29 304q0 37 3 87.5t11.5 104.5t25 107t42.5 94.5t63.5 67.5t89.5 26q11 0 32 -4t41.5 -11.5t36 -20t15.5 -28.5q0 -15 -13.5 -23t-32 -11.5t-38 -4t-31.5 -0.5h-18q-28 -25 -46 -73.5t-28 -103.5t-14 -108.5t-4 -87.5q0 -48 7.5 -94.5t30.5 -87.5q5 -9 14.5 -20.5 t21.5 -11.5q9 0 18.5 15t17.5 35t13 39t7 28q1 4 1 9v10q0 9 0.5 17.5t2.5 13.5q7 17 18.5 23t28.5 6q15 0 32 -4t32 -13t25 -23t10 -33q0 -21 -7 -43t-16 -42q-12 -29 -29 -56.5t-39 -49t-50 -34.5t-63 -13q-62 0 -103 31t-65 78t-33.5 103t-9.5 106z" />
<glyph unicode="d" horiz-adv-x="518" d="M25 220q0 33 3 75t8 86t12 85.5t15 73.5q10 37 24.5 81.5t37 83t55.5 65.5t79 30q-3 81 -8.5 149.5t-11.5 140.5l-10 111l-4 40q-2 16 -3 32.5t-1 32.5q0 23 12.5 32t32.5 9q44 0 67 -13t32.5 -35t10.5 -51.5t1 -63.5q0 -22 5 -50l5 -37l8 -102l4 -48l4 -48l21 -215 l40 -402l3 -37q4 -41 7.5 -85t13.5 -87q3 -11 5.5 -21t2.5 -21t-5 -18.5t-12.5 -12t-16 -6.5t-16.5 -2q-12 0 -26 3t-28 8.5t-25.5 14t-17.5 19.5t-8.5 27.5t-4.5 33.5q-10 -24 -23.5 -47t-32.5 -40.5t-42.5 -28t-52.5 -10.5q-51 0 -82.5 24t-49 60.5t-23 80t-5.5 83.5z M156 220q0 -14 0.5 -32t3.5 -36.5t9 -35.5t16 -28q15 19 27 58.5t20.5 90t14.5 106.5t9.5 108.5t5 96t1.5 68.5q0 11 -0.5 24.5t-0.5 25.5v27q-7 -10 -18 -27.5t-17 -31.5q-16 -35 -29 -89.5t-22.5 -114t-14.5 -116t-5 -94.5z" />
<glyph unicode="e" horiz-adv-x="433" d="M30 387q0 30 3.5 71t12 85t23.5 87t37.5 77t54 55t72.5 21q32 0 57.5 -13t43 -34.5t27 -49.5t9.5 -58q0 -39 -18 -85t-46.5 -89t-64 -77.5t-70.5 -52.5q2 -18 8 -52.5t16.5 -68.5t25 -59t34.5 -25q10 0 17.5 6t13.5 16t10.5 22t8.5 23l6 14q2 3 2.5 4l1.5 3q7 13 13.5 24 t18.5 19h-1q4 4 8.5 4.5t8.5 0.5q11 0 24 -7t24 -17.5t18 -23t7 -24.5q0 -30 -16.5 -62t-42.5 -58.5t-59.5 -43.5t-66.5 -17q-47 0 -81 18.5t-59 50t-40.5 71.5t-24.5 82.5t-12.5 85t-3.5 77.5zM172 475q26 31 46 70.5t20 78.5q0 10 -1 21t-5 19q-14 -17 -24.5 -40.5 t-17.5 -49t-11.5 -51.5t-6.5 -48z" />
<glyph unicode="f" horiz-adv-x="401" d="M-1 634q0 23 11.5 42t34.5 25q-3 55 -7 122q-3 54 -3 109v28q1 69 11.5 134.5t37.5 116t74 81.5t121 31q15 0 42.5 -5t55.5 -15.5t48.5 -25.5t20.5 -34q0 -11 -9.5 -18.5t-22.5 -12t-26 -6.5t-20 -2q-23 0 -43 7.5t-43 8.5q-33 -9 -59 -40t-41 -90t-17 -148v-21 q0 -83 13 -194q63 13 117.5 22.5t84.5 9.5q24 0 33 -13t9 -33t-4 -37t-21 -28l-209 -32q5 -42 8.5 -84.5t7.5 -83.5q16 -130 27.5 -213t19 -132.5t12 -71t6.5 -29t2.5 -6.5t0.5 -2q0 -21 -13 -29.5t-31 -8.5q-14 0 -29.5 2.5t-30.5 7.5t-27 14t-17 22q-8 68 -19 130t-19 129 q-8 79 -17.5 168t-15.5 170q-4 -1 -8 -0.5t-9 0.5q-16 0 -26.5 7.5t-10.5 27.5z" />
<glyph unicode="g" horiz-adv-x="535" d="M11 169q0 38 4.5 75t10.5 72q10 56 25.5 121.5t38.5 130t53.5 121.5t71.5 97l8 7q13 13 30 25.5t35 12.5q11 0 19.5 -6t14.5 -15.5t9.5 -20.5t3.5 -21q0 -12 -9 -26h2q61 0 82 -56q11 -10 16.5 -24t5.5 -30q0 -8 -1 -17.5t-3 -17.5q-2 -9 -3 -17t-1 -15q0 -23 1 -57 t3 -71t4.5 -72.5t4.5 -61.5q7 9 16.5 16t22.5 7q11 0 25.5 -8t27 -20t21 -25.5t8.5 -24.5q0 -10 -5.5 -23.5t-14 -28t-18.5 -29.5t-19 -27l-15 -21l-15 -26l-13 -24q1 -20 3 -43t4 -44q11 -103 19.5 -210t8.5 -210q0 -55 -9 -111.5t-33.5 -102t-67.5 -74.5t-110 -29 q-46 0 -78 17t-51.5 45.5t-28.5 66.5t-9 79q0 81 19 164t49.5 164t69.5 158.5t79 148.5v4.5t-1 8.5q-13 -24 -29.5 -49.5t-37 -45.5t-45 -33t-54.5 -13q-42 0 -70 20t-44.5 51t-23.5 68t-7 70zM147 179q0 -23 1 -46t10 -45q14 15 23 32.5t17 36.5q22 49 38 114t26 134 t15 135.5t6 119.5q0 6 0.5 13t2.5 15l-7 -9q-8 -9 -15 -17t-13 -17q-26 -38 -45.5 -98.5t-32.5 -127t-19.5 -130.5t-6.5 -110zM246 -541v-7q0 -23 3 -49.5t19 -43.5h11q20 0 33.5 13.5t22.5 34.5t14 47t7 52t2.5 49t0.5 37q0 68 -3 127.5t-9 127.5q-18 -43 -36.5 -92.5 t-32.5 -100t-23 -100.5t-9 -95z" />
<glyph unicode="h" horiz-adv-x="562" d="M38 1282q0 20 5.5 36.5t31.5 16.5q27 0 51 -12.5t35 -38.5q2 -4 4 -32.5t4 -73t4 -102t4 -119t4 -123.5t4 -116l5 -148q12 31 30 65t41.5 62t53 46t65.5 18q44 0 69 -23t37.5 -57t15.5 -73t3 -71q0 -20 -0.5 -39t-1.5 -38q-1 -20 -1.5 -39.5t-0.5 -39.5q0 -69 3 -141.5 t15 -142.5l2 -14q2 -6 3 -14t1 -15q0 -20 -13 -29t-32 -9q-12 0 -25 2.5t-25 5.5q-21 6 -32.5 15t-17.5 20.5t-7.5 25.5t-2.5 31q0 5 -0.5 9t-0.5 8q-3 57 -5.5 117t-2.5 117q0 29 0.5 58t1.5 58t1.5 57.5t0.5 57.5q0 6 -0.5 11.5t-1.5 11.5q-26 -38 -45.5 -84.5t-34.5 -96 t-25.5 -99t-17.5 -94.5l-3 -21q-5 -35 -10 -71.5t-5 -72.5q0 -15 5 -33q2 -8 3.5 -15.5t1.5 -18.5q0 -24 -12 -32.5t-32 -8.5q-12 0 -26.5 2t-28 6.5t-25.5 11.5t-19 18q-6 13 -11.5 69t-10 139t-8.5 186.5t-7.5 212.5t-6 216t-4 197t-2.5 156.5t-1 93.5z" />
<glyph unicode="i" horiz-adv-x="254" d="M26 855q0 4 3 22.5t7.5 39.5t8 38t5.5 19v-1q5 8 12 10t14 2q9 0 23.5 -2.5t29 -7t26.5 -11.5t15 -15t3.5 -21.5t-0.5 -24.5q0 -4 -0.5 -9.5t-0.5 -8.5q0 -5 0.5 -10t1.5 -10t1.5 -11t0.5 -13q0 -17 -7.5 -24.5t-27.5 -7.5q-9 0 -28 2.5t-38.5 7.5t-34 14t-14.5 22z M53 490v96v77q0 10 0.5 20t4 17.5t11 12.5t21.5 5q44 0 64.5 -24.5t25.5 -65.5q5 -61 7.5 -121.5t4.5 -122.5q2 -56 3.5 -110.5t6.5 -108.5q1 -11 2 -21t3 -20q2 -20 4 -39.5t2 -40.5q0 -23 -10.5 -32.5t-33.5 -9.5q-12 0 -26.5 3t-28.5 8.5t-26 13.5t-18 18q-4 6 -7 37 t-4.5 77t-3 103t-2 115t-0.5 113z" />
<glyph unicode="j" horiz-adv-x="331" d="M-75 -489q0 79 15.5 157t40.5 154t56.5 149t63.5 144q-15 90 -24 178.5t-15 182.5l-3 48q-2 37 -4.5 74t-2.5 75q0 20 6.5 34.5t29.5 14.5q11 0 21 -2t21 -7v1q19 -9 29 -20.5t15 -24.5t6.5 -28t1.5 -31v-16q3 -70 7.5 -130.5t12.5 -130.5q9 18 21.5 33.5t34.5 15.5 q11 0 26.5 -7t29 -18t23 -24t9.5 -24q0 -6 -9.5 -27.5t-23.5 -49.5t-30 -58.5t-28 -54.5q-6 -12 -10 -21.5t-7 -14.5l9 -54q18 -115 34 -231t16 -234q0 -35 -1.5 -72.5t-9 -73.5t-24 -68.5t-46.5 -56.5q-23 -18 -50 -28.5t-56 -10.5q-55 0 -90.5 23.5t-56.5 60.5t-29.5 82.5 t-8.5 90.5zM16 851q0 4 4.5 25t10.5 45.5t11 45t7 22.5v-1q5 11 10 13t16 2q12 0 28 -2.5t30.5 -9t24.5 -17t10 -26.5q0 -12 -0.5 -23.5t-1.5 -23.5t-1 -24v-24q0 -18 -6 -33t-29 -15q-8 0 -26.5 3t-38 9t-34.5 14.5t-15 19.5zM66 -482q0 -17 1 -37.5t5 -41.5t11 -40t19 -31 q1 -1 6 -1q13 0 22 13.5t15 34.5t9.5 47t5.5 50.5t2.5 45t0.5 30.5q0 66 -6.5 135t-16.5 136q-30 -80 -52 -168.5t-22 -172.5z" />
<glyph unicode="k" horiz-adv-x="481" d="M41 325q0 13 5 23t11 19q-6 123 -6 245q0 101 2.5 200.5t4.5 199.5l3 134q1 10 1 26v34v46t1 45t2 38t4 25v-1q4 15 11 22t24 7q42 0 65 -25t23 -67q0 -67 -0.5 -133.5t-1.5 -133.5t-1.5 -133.5t-0.5 -133.5q0 -24 0.5 -48.5t0.5 -49.5q1 -20 1 -41v-44l108 172v-1l9 18 q3 5 3.5 7t2 5.5t7 11.5t19.5 24q5 5 12 9t18 4t22.5 -6.5t20.5 -16.5t15 -22t6 -22q0 -8 -9 -27.5t-23.5 -47.5t-32.5 -60.5t-37.5 -65.5t-37.5 -64t-32 -55l-26 -42q23 -40 53.5 -88.5t64.5 -97.5t69.5 -94t69.5 -79l10 -8q12 -9 25 -21.5t13 -26.5q0 -11 -12 -20 t-27.5 -15t-31.5 -9.5t-25 -3.5q-17 0 -31 6.5t-26 16.5t-22.5 22t-19.5 24q-35 43 -72 96t-66 101q0 -4 1 -10t2 -10q2 -21 3 -41.5t4 -41.5q1 -12 2.5 -23.5t3.5 -24.5l4 -32t2 -33q0 -21 -12 -28.5t-32 -7.5q-14 0 -30 2t-31 8t-27 16t-18 26q-3 12 -6 45t-5 73.5 t-3.5 81.5t-2.5 68q0 6 -0.5 10t-0.5 8q-8 7 -14 17t-6 19z" />
<glyph unicode="l" horiz-adv-x="281" d="M42 669q0 257 18 509q0 4 0.5 9t0.5 10q1 21 2 48.5t3 54.5t4.5 49.5t5.5 31.5v-1q4 14 11.5 21t24.5 7q36 0 61 -24t25 -60q0 -8 -0.5 -15.5t-1.5 -14.5t-1.5 -13.5t-0.5 -11.5q-3 -39 -4.5 -77.5t-3.5 -77.5q-5 -86 -7.5 -171.5t-2.5 -172.5q0 -37 1 -97t4 -130.5 t8.5 -145.5t14.5 -143t21.5 -123t29.5 -85q9 -4 17.5 -12.5t15 -19t11 -22t4.5 -21.5q0 -14 -7 -23t-17.5 -14.5t-23 -8t-22.5 -2.5q-35 0 -61 20t-45 51.5t-31 72t-20 81t-12 78t-6 64.5q-9 93 -12.5 189t-3.5 190z" />
<glyph unicode="m" horiz-adv-x="874" d="M46 266v123q0 84 7 174.5t15 174.5q0 3 1 7t1 6q1 11 3 24t6.5 23.5t13 17.5t22.5 7q16 0 30.5 -6.5t25.5 -17t17.5 -25.5t6.5 -31q0 -20 -1.5 -41.5t-3.5 -41.5q-2 -14 -2.5 -21t-1.5 -23q12 21 27.5 42.5t34.5 38t41.5 27t48.5 10.5t43 -8.5t27 -23t14 -34.5t4 -42 q0 -14 -0.5 -27t-1.5 -26t-1.5 -25.5t-0.5 -26.5q0 -26 1.5 -49.5t3.5 -49.5q10 33 24.5 75t34 86t43 86.5t51 75.5t59.5 53.5t67 20.5q55 0 77.5 -32t22.5 -82q0 -14 -1 -29.5t-3 -29.5q-5 -54 -7.5 -111t-2.5 -111v-19q0 -70 6 -132t24 -131l8 -27q4 -14 9.5 -31t9.5 -33 t7 -30t3 -22q0 -21 -15 -28t-31 -7q-10 0 -23 0.5t-25.5 3t-24 7.5t-18.5 13v-1q-9 9 -13 22t-6 26l-2 9q-14 54 -23.5 97t-15.5 86t-8.5 89t-2.5 106q0 51 4.5 104t9.5 104q0 5 0.5 11.5t1.5 11.5q-38 -59 -66.5 -129.5t-51 -144.5t-39 -148.5t-29.5 -141.5q0 -1 4.5 -11.5 t9 -24t8.5 -26t4 -16.5q0 -23 -15 -28t-31 -5q-12 0 -26 1t-27.5 5t-25 10.5t-18.5 18.5q-6 10 -14 47.5t-17 88t-17 108.5t-15 110t-11 91t-4 53v15q-32 -69 -53 -148t-32 -155l-4 -18q-2 -8 -3 -15.5t-1 -14.5q0 -11 2.5 -27t6.5 -35q5 -26 8.5 -53.5t3.5 -54.5 q0 -23 -13.5 -30t-32.5 -7q-17 0 -33.5 2.5t-31 9.5t-25 19t-14.5 31q-14 60 -16 117.5t-2 118.5z" />
<glyph unicode="n" horiz-adv-x="545" d="M46 266v123q0 84 7 174.5t15 174.5q0 3 1 7t1 6q1 11 3 24t6.5 23.5t13 17.5t22.5 7q16 0 30.5 -6.5t25.5 -17t17.5 -25.5t6.5 -31q0 -17 -1 -37.5t-3 -38.5q0 -5 -0.5 -11t-1.5 -11q14 28 32 58.5t41.5 56t52 41.5t63.5 16q29 0 48 -9t30.5 -25.5t16 -38.5t4.5 -47 q0 -34 -2 -68.5t-4 -68.5q-3 -35 -5 -69t-2 -69q0 -42 2 -86.5t6 -85t9 -73t10 -50.5q4 -15 8.5 -34.5t9 -40t7.5 -39.5t3 -34q0 -22 -17.5 -28t-34.5 -6t-38.5 2.5t-38.5 11.5q-21 15 -27.5 42t-8.5 53l-3 27q-3 24 -8 63t-9.5 86t-7.5 97.5t-3 98.5q0 43 3.5 83t7.5 81 q2 21 3 34t3 34q-20 -32 -40 -75t-38 -89.5t-32.5 -90.5t-22.5 -77l-6 -22q-5 -16 -8.5 -32t-3.5 -30q0 -18 2 -41.5t5 -44.5q3 -25 7 -51q0 -2 2 -13t4 -26t3.5 -31.5t1.5 -29.5q0 -23 -13.5 -30t-32.5 -7q-17 0 -33.5 2.5t-31 9.5t-25 19t-14.5 31q-14 60 -16 117.5 t-2 118.5z" />
<glyph unicode="o" horiz-adv-x="507" d="M27 349q0 36 3 79t10.5 88t20 89t32.5 82.5t48 69t65 48.5v-1q32 17 64 17q20 0 31 -8.5t10 -28.5q55 -10 89 -53t52.5 -100t25 -117t6.5 -104q0 -87 -14.5 -173.5t-59.5 -163.5q-14 -23 -32 -44.5t-39.5 -39t-47 -28t-53.5 -10.5q-44 0 -76.5 20.5t-56 54t-39 76t-24 87 t-12 86.5t-3.5 74zM160 375q0 -29 3 -74.5t11.5 -91.5t24 -86t40.5 -59q31 18 51.5 57.5t32.5 86.5t16.5 95t4.5 82q0 25 -3 65t-10 81.5t-19.5 77.5t-31.5 54q-9 -3 -22 -3q-17 0 -32 13q-19 -29 -32 -66.5t-20.5 -77t-10.5 -79.5t-3 -75z" />
<glyph unicode="p" horiz-adv-x="560" d="M52 124q0 125 4.5 245.5t9.5 244.5l4 105q0 16 0.5 31.5t3.5 30.5q5 13 12.5 20.5t24.5 7.5q43 0 63 -25.5t23 -62.5q32 44 76.5 70t102.5 26q49 0 82.5 -22t53.5 -56.5t28.5 -77t8.5 -83.5q0 -79 -14 -157.5t-43.5 -152t-74.5 -139t-106 -116.5q-8 -7 -19 -15t-23 -15 t-24.5 -12t-22.5 -5q-11 0 -19 5t-14 12q2 -69 5.5 -143t8.5 -148.5t12.5 -147.5t18.5 -141q3 -13 5.5 -27.5t2.5 -29.5q0 -22 -12 -30t-32 -8q-24 0 -53 7.5t-46 27.5q-5 7 -9.5 41t-8.5 79.5t-7 94t-6 85.5l-4 53q-12 214 -12 428zM185 335q0 -10 0.5 -19.5t0.5 -17.5 q0 -11 0.5 -20.5t0.5 -17.5q0 -48 -1 -88v-16q0 -34 2 -72l18 13l11 7q49 39 85.5 95.5t60.5 120.5t35.5 131.5t11.5 128.5q0 12 -0.5 33.5t-4.5 42.5t-12 36.5t-23 15.5q-24 0 -49 -29t-46.5 -69t-38.5 -80.5t-25 -63.5q0 -1 -0.5 -1t-0.5 -1v-1q-6 -14 -12.5 -30t-8.5 -30 t-3 -31.5t-1 -36.5z" />
<glyph unicode="q" horiz-adv-x="528" d="M9 159q0 59 11 115.5t26 113.5q29 109 75.5 201t129.5 170l8 6h-1q14 14 32.5 28t37.5 14q11 0 19.5 -6.5t14 -16t8 -21t2.5 -21.5l4.5 1.5t4.5 0.5q16 0 34 -5t33 -15t25 -24.5t10 -32.5t-5 -41t-11 -46q-4 -15 -7.5 -30t-5.5 -28q-2 -9 -2 -18v-17q-4 -48 -9 -95.5 t-10 -94.5q-4 -31 -6.5 -55.5t-5.5 -54.5q8 5 17.5 9t16.5 4q12 0 22.5 -8.5t18.5 -20.5t12.5 -25.5t4.5 -23.5q0 -11 -5.5 -21t-14 -18.5t-18.5 -15.5t-18 -11q61 -116 99 -241t38 -257q0 -39 -4 -87t-19 -89.5t-45.5 -69.5t-84.5 -28q-44 0 -75 16t-52 43t-33 61.5 t-18.5 71.5t-8.5 74t-2 69q0 222 24 437q-29 -32 -63 -52t-81 -20q-36 0 -60 16t-38 41.5t-19.5 56.5t-5.5 61zM143 141q0 -7 1 -16t3 -17q13 11 24 26t21 29v-1l4 7q30 52 53 115t40 129.5t28 133.5t18 127q1 3 1 8l-8 -9q-18 -20 -35.5 -42t-31.5 -48q-26 -43 -48 -98.5 t-37.5 -114.5t-24 -118.5t-8.5 -110.5zM388 -288v-57q0 -21 1 -57.5t5.5 -75.5t14 -73t25.5 -50q7 13 11 34t6 43t2.5 43t0.5 35q0 78 -17 157t-45 152q-2 -38 -3 -75.5t-1 -75.5z" />
<glyph unicode="r" horiz-adv-x="493" d="M40 56q0 28 2.5 55.5t5.5 54.5v-1l6 67q3 36 5 79t3.5 87.5t2.5 87.5t1 79q0 21 -0.5 42.5t-0.5 43.5q-1 19 -1 42.5v43.5q0 21 5.5 34.5t31.5 13.5q23 0 48.5 -12t35.5 -34h-1q5 -11 7.5 -35.5t3.5 -43.5q17 26 38.5 55t46.5 53.5t53 40.5t60 16q42 0 64 -21t32 -52.5 t11 -67t1 -64.5v-8q0 -12 -0.5 -23.5t-4 -21t-12 -15.5t-23.5 -6q-16 0 -34 4.5t-33.5 13.5t-26.5 22.5t-12 31.5v16t1 16q0 5 0.5 12.5t0.5 14.5q-32 -32 -56.5 -79t-44 -100t-33.5 -106.5t-23 -96.5v-3q-3 -31 -4.5 -61t-2.5 -62q-1 -36 -3 -73t-5 -72q-2 -19 -11.5 -29.5 t-31.5 -10.5q-15 0 -32.5 4t-33 13t-26 22.5t-10.5 32.5z" />
<glyph unicode="s" horiz-adv-x="428" d="M13 620q0 43 19 77.5t49.5 59.5t69 38.5t77.5 13.5q13 0 40 -5.5t53 -15.5t46 -24t20 -31q0 -12 -8.5 -20t-20.5 -13.5t-24.5 -7.5t-20.5 -2q-12 0 -23 2.5t-22 5.5t-21 5.5t-21 2.5q-15 0 -30 -5t-27 -14t-19.5 -22t-7.5 -29q0 -24 10 -47.5t26.5 -47.5t38 -48.5 t45.5 -49.5q29 -32 58.5 -65t53 -69t38.5 -76t15 -84q0 -38 -12.5 -68t-35 -51t-54 -32.5t-68.5 -11.5q-10 0 -30.5 4t-46.5 11.5t-53.5 16.5t-50 19.5t-37 21t-14.5 19.5q0 12 11 24.5t26 23t31.5 17.5t27.5 7q15 0 31.5 -7t33.5 -16q19 -10 38.5 -18t40.5 -8q16 0 18.5 11 t2.5 25q0 35 -12 66.5t-31 61.5t-44 58.5t-50 56.5q-26 28 -50.5 56t-43.5 57.5t-30.5 60.5t-11.5 66z" />
<glyph unicode="t" horiz-adv-x="399" d="M-15 699q0 25 11 40t28 23t37 12t39 6q3 0 4 0.5t4 0.5q1 12 2 29.5t2 38.5q1 33 3 70.5t4 72t5 61t6 37.5q5 13 11.5 21t24.5 8q40 0 62 -26t22 -64q0 -44 -2 -88t-5 -89l-3 -51q25 3 50 9q24 5 48.5 9t47.5 4q20 0 31 -10.5t11 -30.5q0 -22 -8 -43t-28 -31h1 q-4 -2 -24 -6t-45.5 -7t-50 -6t-36.5 -4h-1q-2 -56 -3 -110.5t-1 -110.5q0 -77 4.5 -163.5t15.5 -164.5l8 -45q4 -17 7 -33.5t3 -32.5q0 -11 -5 -18.5t-12.5 -11.5t-16 -5.5t-16.5 -1.5q-11 0 -25.5 2.5t-28.5 7.5t-25.5 12.5t-17.5 18.5q-6 10 -10.5 37.5t-7.5 64t-5 78 t-3.5 79.5t-2 68.5t-0.5 45.5q0 70 2.5 135.5t5.5 134.5q-5 0 -10 -1t-10 -1q-13 -2 -26.5 -3t-27.5 -1q-17 0 -30 6t-13 27z" />
<glyph unicode="u" horiz-adv-x="536" d="M44 238q0 114 7.5 226t16.5 225q0 3 0.5 8t0.5 8q1 14 2 26t5 23v-1q4 16 11.5 23t23.5 7q15 0 30 -5.5t27 -15t19.5 -22.5t7.5 -29v-19t-1 -19q0 -7 -0.5 -17.5t-0.5 -17.5q-8 -96 -12 -190.5t-4 -191.5q0 -27 0.5 -54t5.5 -54q33 42 57 107.5t40.5 139t27 146 t15.5 128.5q0 3 0.5 7t0.5 7q1 11 2 21t7 19q0 9 1 19t5 18.5t11.5 13.5t21.5 5q40 0 63 -24.5t25 -62.5q5 -8 7.5 -15.5t2.5 -16.5q0 -10 -2 -21t-4 -20q-2 -11 -4 -20.5t-2 -18.5q0 -93 3.5 -186.5t19.5 -187.5q5 -36 12 -70t16 -69l2 -6v2q3 -7 5.5 -14.5t2.5 -15.5 q0 -11 -5.5 -18t-13.5 -11t-17.5 -5t-17.5 -1q-33 0 -52.5 7.5t-31.5 21t-17.5 32.5t-9.5 42l-3 18q-4 14 -5 30q-1 8 -1.5 7.5t-1.5 7.5q-14 -25 -32.5 -53.5t-42 -53t-50.5 -41t-58 -16.5q-43 0 -66.5 26t-34.5 63.5t-13 78t-2 70.5z" />
<glyph unicode="v" horiz-adv-x="445" d="M1 725q0 19 12.5 25.5t28.5 6.5q32 0 56.5 -14t35.5 -46q6 -17 10.5 -36t7.5 -38q17 -66 32.5 -139.5t26.5 -141.5l9 -51q1 -5 1 -8t0.5 -5t1 -5l1.5 -9q22 106 37 212.5t15 214.5q0 22 -2.5 43t-5.5 44q-3 21 -5.5 43.5t-2.5 45.5q0 21 13 29t32 8q23 0 42 -3t33 -11.5 t23 -24t12 -40.5q2 -23 2.5 -49.5t0.5 -50.5q0 -138 -21.5 -272t-51.5 -267q-4 -13 -5 -22q-6 -29 -12.5 -59.5t-20.5 -60.5q-13 -25 -35.5 -43.5t-49.5 -18.5q-11 0 -23 5t-26 13q-20 14 -30 38.5t-17 50.5l-2 7v-1q-17 65 -28.5 130t-22.5 131q-6 41 -12 81.5t-14 80.5 l-14 59q-5 20 -10.5 43.5t-10.5 44.5t-8 37.5t-3 22.5z" />
<glyph unicode="w" horiz-adv-x="653" d="M51 565v166q0 9 1 19t4.5 18.5t11 13.5t21.5 5q37 0 61 -22t27 -58q3 -48 4.5 -97t2.5 -97q1 -55 1.5 -106.5t6.5 -108.5q12 39 23 81t19.5 85t14 85.5t5.5 82.5q0 5 -0.5 8.5t-0.5 8.5q-1 5 -1 10v10q0 25 11 37t38 12q10 0 24.5 -3t29 -9t26.5 -15t16 -20h-1 q5 -10 6 -19t1 -20v-15.5t-2 -14.5q15 -54 27.5 -108.5t24.5 -108.5q6 61 10.5 122.5t4.5 122.5q0 60 -4 122.5t-20 119.5l-4 14q-2 5 -3 11t-1 12q0 11 5.5 17.5t13.5 9.5t18 4t18 1q25 0 52 -6q18 -5 29 -14.5t16.5 -22.5t7.5 -28.5t3 -31.5q0 -2 0.5 -4t0.5 -4 q5 -44 7.5 -88.5t2.5 -87.5q0 -134 -15.5 -267t-37.5 -264q-3 -20 -8.5 -41t-15.5 -39t-26 -29.5t-40 -11.5q-27 0 -44 12.5t-27.5 32t-15.5 43.5t-8 47q-2 11 -3.5 20t-3.5 17l-28 124q-8 -28 -21.5 -70.5t-29 -85.5t-31 -78t-25.5 -48q-11 -13 -28 -20.5t-34 -7.5 q-30 0 -52 19q-20 20 -26 46t-9 52q0 2 -0.5 5t-0.5 5q-15 110 -22 223.5t-7 226.5z" />
<glyph unicode="x" horiz-adv-x="465" d="M5 41q0 10 4 20.5t9 20.5h-1q38 82 71.5 161.5t66.5 160.5q-7 16 -19.5 49t-27.5 73t-31 84t-28.5 82.5t-21 68t-8.5 41.5q0 20 12.5 25.5t28.5 5.5q32 0 55.5 -13t36.5 -44q5 -13 10.5 -27.5t9.5 -28.5l9 -25q12 -32 21.5 -58t23.5 -57q25 64 46.5 132.5t31.5 137.5 l3 27q0 14 4 30q5 14 11.5 21t23.5 7q16 0 31 -5t27 -14.5t19.5 -23t7.5 -31.5q0 -28 -6.5 -65.5t-17.5 -79t-24.5 -85.5t-28 -85.5t-28 -78t-23.5 -63.5l61 -129q18 -38 37.5 -79t35.5 -75.5t26.5 -58.5t10.5 -27q0 -12 -8.5 -18.5t-19.5 -9.5t-23 -4t-19 -1q-15 0 -27 1 t-22.5 5t-19.5 12t-18 22q-17 31 -31.5 64t-28.5 65q-7 18 -11.5 29t-12.5 28q-22 -57 -44.5 -111t-46.5 -108q-7 -14 -15.5 -27.5t-29.5 -13.5q-11 0 -26.5 6.5t-30 17t-25 23.5t-10.5 26z" />
<glyph unicode="y" horiz-adv-x="493" d="M-111 -606q0 6 3 12q0 2 0.5 3.5t0.5 2.5q7 20 16 32t20.5 18.5t27 9t35.5 4.5q64 3 121 30v-1q65 32 102.5 79.5t57 105t24.5 121.5t5 129v22v12.5v12.5t-1 22q-35 -27 -73 -27q-44 0 -74.5 24.5t-51 64t-32 90t-17 103t-7 102.5t-1.5 89v42q0 53 0.5 104t3.5 102v15v24 t2 23q4 16 11.5 23t24.5 7q8 0 15.5 -1t15.5 -3q19 -8 30 -16.5t16.5 -20t7 -26.5t1.5 -35v-134q0 -24 0.5 -59.5t2.5 -77.5t5 -87t9 -87t14 -77t20 -58q18 39 31 91.5t21.5 113t13 124.5t7 125t3 115.5t0.5 95.5q0 10 0.5 21.5t4.5 21t11.5 15.5t22.5 6q7 0 15.5 -2 t14.5 -4q2 0 4.5 -0.5t4.5 -0.5q14 -5 27 -10t22.5 -12.5t15 -19.5t5.5 -31q0 -23 -0.5 -52.5t-2 -61.5t-3.5 -62.5t-4 -54.5l-4 -35q-2 -14 -3 -28t-1 -26q0 -64 1 -127.5t3 -127.5t3 -127.5t1 -127.5q0 -41 -3 -86t-10 -90.5t-19 -89.5t-30 -82q-30 -56 -75.5 -98.5 t-99.5 -71.5t-115 -44t-123 -15q-9 0 -21.5 1t-24.5 4.5t-20 11.5t-8 22z" />
<glyph unicode="z" horiz-adv-x="458" d="M-10 120q0 9 7 16t16 10q10 24 21 48t22 47l15 35q53 104 98.5 206t90.5 211l-40 -2l-49 -3l-33 -4q-14 -2 -26.5 -3t-25.5 -1q-38 0 -38 37q0 17 4 30.5t15 24.5q5 6 26.5 12t50.5 10t62.5 8t64.5 7t55.5 4.5t34.5 1.5q18 0 33.5 -5t15.5 -30q0 -14 -7 -30.5t-15 -29.5 q2 -5 2 -15q0 -11 -8 -37t-21.5 -63t-31.5 -82t-37.5 -92t-39.5 -94t-38 -88l-56 -130q17 -4 39 -4q45 0 85.5 17t69.5 34q17 9 30 15.5t21 6.5q13 0 24.5 -7.5t20 -19t13 -24.5t4.5 -25q0 -18 -15 -33t-38.5 -26.5t-53 -20.5t-57.5 -14.5t-51.5 -8.5t-36.5 -3q-25 0 -53 4 t-55 12.5t-51 22t-41 32.5v-1q-8 8 -15.5 19t-7.5 25z" />
<glyph unicode="{" horiz-adv-x="502" d="M-5 658q0 29 9 45.5t22 26.5t29 18t29 21t22 35.5t9 61.5q0 49 -14.5 97t-32.5 96.5t-32.5 99t-14.5 105.5q0 52 16.5 95.5t47 74t73 47.5t95.5 17q12 0 37.5 -4t51.5 -12t45.5 -20t19.5 -28q0 -13 -13.5 -22.5t-31.5 -15.5t-36.5 -9t-28.5 -3q-9 0 -18 1t-18 1 q-50 0 -72 -29.5t-22 -76.5q0 -56 16 -109t35.5 -105t36 -105t16.5 -109q0 -50 -18 -95.5t-54 -80.5q30 -35 45 -89t21 -116.5t6 -128t2 -124.5t8.5 -105.5t25.5 -70.5q15 -20 36.5 -31t47.5 -11q19 0 34 6t27.5 13t23.5 13t23 6q13 0 24.5 -9t20 -22.5t13 -28.5t4.5 -26 q0 -23 -19.5 -39t-46.5 -25.5t-55 -13.5t-45 -4q-48 0 -96 15.5t-86 48.5q-30 25 -47.5 54t-26.5 61t-11.5 66.5t-2.5 72.5q-2 74 -3 148t-7 148q-2 16 -3 33t-4 34t-8 33t-15 30q-11 -3 -22 -5.5t-22 -2.5q-29 0 -37.5 13t-8.5 39z" />
<glyph unicode="|" horiz-adv-x="293" d="M46 -102q0 9 2 20q6 149 11 298t13 298q8 157 13 311t5 311v141t-2 141l-4 96t-2 96q0 21 6 31.5t30 10.5q13 0 28.5 -3.5t29 -10.5t24.5 -17.5t16 -24.5q4 -14 7 -56.5t5.5 -100.5t4.5 -124.5t3 -127t1.5 -109t0.5 -70.5q0 -146 -4.5 -291t-9.5 -290t-9.5 -289.5 t-4.5 -289.5q0 -24 -8.5 -42t-37.5 -18q-15 0 -34 5t-34 11q-29 12 -39.5 28t-10.5 48v18z" />
<glyph unicode="}" horiz-adv-x="510" d="M-51 1416q0 23 19.5 39t46.5 25.5t55 13.5t45 4q50 0 97 -15.5t85 -48.5q30 -26 47.5 -55.5t26.5 -61t12 -66t4 -71.5q2 -75 2 -148.5t6 -147.5q1 -16 2.5 -33t4.5 -34t8 -33.5t15 -29.5q12 3 23 5.5t23 2.5q27 0 35.5 -14t8.5 -38q0 -30 -8.5 -46t-22 -26t-28.5 -18 t-28.5 -21t-22 -35.5t-8.5 -61.5q0 -50 14.5 -97.5t31.5 -96t31.5 -99t14.5 -105.5q0 -53 -16.5 -96t-47 -73.5t-73.5 -47.5t-95 -17q-12 0 -37.5 4t-51 12t-44.5 19.5t-19 26.5q0 13 13 22.5t31 15.5t36 9t28 3h38q48 0 70 29.5t22 76.5q0 56 -16.5 109t-36 105t-35.5 105 t-16 109q0 50 18 94.5t54 79.5q-30 35 -44.5 89.5t-20.5 117t-6.5 128.5t-2.5 125t-8.5 105.5t-25.5 70.5q-14 20 -36 31t-46 11q-20 0 -35 -6t-27.5 -13t-24 -13t-23.5 -6q-13 0 -24 9t-19.5 22.5t-13.5 28.5t-5 26z" />
<glyph unicode="~" horiz-adv-x="464" d="M17 814q0 28 6.5 54t21 46.5t36.5 33t54 12.5q34 0 56 -12.5t36 -33t21.5 -47t11.5 -55t7 -57t8 -51.5q2 -9 5 -21.5t17 -12.5q13 0 21 9t12.5 22t5.5 27t1 24q0 39 -10 67t-22 48t-22 34t-10 25q0 9 8 16.5t19.5 13.5t23 9t19.5 3q28 0 47.5 -25.5t31.5 -60t17.5 -70.5 t5.5 -58q0 -34 -8.5 -67.5t-26.5 -60.5t-46 -43.5t-67 -16.5q-55 0 -80.5 28.5t-36 70t-13.5 88t-12 83.5q-3 6 -6 16t-12 10t-14 -6t-7 -15t-2.5 -18t-0.5 -15q0 -29 5 -57t13 -57q3 -12 9.5 -29t6.5 -29q0 -17 -12 -21.5t-26 -4.5q-27 0 -42.5 16t-23.5 40 q-12 35 -19 72.5t-7 75.5z" />
<glyph unicode="&#xa1;" horiz-adv-x="347" d="M67 760q0 42 40 42q12 0 29.5 -2.5t35.5 -8t32.5 -14t20.5 -19.5q8 -14 8 -29.5v-32.5q6 -222 15.5 -441.5t18.5 -442.5l4 -96t2 -96q0 -21 -5 -32.5t-31 -11.5q-14 0 -28.5 3.5t-28 10t-24 16t-15.5 22.5q-3 7 -7.5 52.5t-9.5 116t-10 159t-10.5 183t-10.5 188.5 t-9.5 174t-8 140t-6.5 87q0 8 -1 16t-1 16zM81 934q0 4 0.5 21t1 36t1.5 34t3 17q6 11 19 12.5t25 1.5q30 0 45 -3.5t21.5 -12.5t8.5 -25t7 -41q2 -12 6 -24t4 -26q0 -11 -7 -16.5t-17.5 -7.5t-21.5 -2h-18q-10 0 -23.5 0.5t-25.5 4t-20.5 10.5t-8.5 21z" />
<glyph unicode="&#xa2;" horiz-adv-x="483" d="M49 654q0 32 1 73.5t5.5 85t15 86.5t29 78.5t46.5 60.5t69 34q-4 24 -7.5 51.5t-6.5 56t-4.5 56.5t-1.5 52q0 20 11.5 26t28.5 6q18 0 36.5 -4t35.5 -10q15 -6 21 -19t7.5 -29t0.5 -32.5t-1 -29.5v-69t-2 -67q18 -8 38 -24.5t37 -37t28 -43t11 -43.5q0 -17 -10 -22.5 t-24 -5.5q-38 0 -58.5 15.5t-35 33.5t-28.5 33.5t-38 15.5q-15 0 -23.5 -12t-14.5 -24q-15 -30 -23 -61.5t-11 -63.5t-3.5 -64.5t-0.5 -64.5q0 -36 0.5 -73t3.5 -73.5t10 -72t20 -69.5q3 -8 9.5 -20t15.5 -22.5t19 -18t20 -7.5q13 0 21.5 12t13 28.5t6 33t1.5 26.5 q0 9 -2 18t-2 20q0 17 11.5 23.5t26.5 6.5q17 0 35.5 -2.5t33.5 -10t25 -20.5t10 -35q0 -35 -8 -68.5t-25.5 -60.5t-44.5 -46.5t-64 -26.5q3 -15 2.5 -31t1.5 -33q3 -32 8.5 -63.5t5.5 -64.5q0 -20 -8 -27t-28 -7q-11 0 -28 2t-33 7t-28.5 14t-14.5 23q-2 11 -2 21v21 q0 38 1 75t3 75q-51 23 -80 72t-43 108t-17.5 120t-3.5 108z" />
<glyph unicode="&#xa3;" horiz-adv-x="562" d="M58 298q0 7 5 16.5t12.5 19.5t14.5 19t12 17q30 48 42 106.5t12 115.5q0 18 -1 37t-3 37q-14 -2 -26 -3t-26 -1q-24 0 -24 24q0 17 4.5 27.5t13.5 16.5t21 9.5t27 6.5q-7 36 -17 72.5t-19 72.5t-15.5 72.5t-6.5 72.5q0 44 14 79t39.5 59t61 37t79.5 13q66 0 106 -34 t60 -94q5 -14 8.5 -27t3.5 -27t-6.5 -23t-21.5 -9q-25 0 -39.5 10t-24 25t-16 33t-15 33t-21 25t-34.5 10q-47 0 -68.5 -30t-21.5 -74q0 -35 6.5 -70.5t15.5 -70.5t19 -70t17 -69q26 5 54 11.5t54 6.5q18 0 24 -9.5t6 -26.5q0 -25 -7 -37t-19 -17.5t-28.5 -6.5t-35.5 -3 l-34 -2q6 -48 6 -94q0 -59 -11 -116t-37 -110q27 0 53 -2t53 -2q13 0 31 1.5t34.5 7.5t27.5 16.5t11 28.5q0 12 -4 24t-9 23t-9 20.5t-4 16.5q0 9 5.5 15t13.5 9t17 4.5t16 1.5q25 0 41.5 -8.5t26.5 -23t14 -33.5t4 -41q0 -40 -19 -67.5t-49 -44.5t-65.5 -24.5t-68.5 -7.5 q-39 0 -78 4t-78 4h-14q-9 -12 -22 -28t-30 -16q-9 0 -19 6.5t-19 15.5t-14.5 20t-5.5 20z" />
<glyph unicode="&#xa4;" horiz-adv-x="478" d="M20 984q0 8 5.5 13t13.5 8t16.5 4t14.5 1q23 0 41 -6t33 -24q11 -13 21 -28t20 -31q13 3 29 3q17 0 32 -3l24 47q4 8 9.5 21t13 25t16.5 21t21 9q10 0 21.5 -6t21 -15t15.5 -20t6 -21q0 -11 -14.5 -45.5t-32.5 -75.5q25 -30 38 -70t13 -83q0 -25 -7 -48t-18 -44 q16 -27 31 -53.5t27 -49t19.5 -38.5t7.5 -21q0 -11 -7.5 -17t-18 -9t-22 -3.5t-18.5 -0.5h-14q-23 1 -37 8t-23.5 18.5t-16.5 27t-17 32.5q-3 5 -6 10.5t-5 11.5q-26 -10 -57 -10q-17 0 -32 3l-20 -41q-8 -17 -15.5 -34t-24.5 -26q-3 -3 -7 -3.5t-7 -0.5q-11 0 -25.5 6.5 t-27 17t-21 23.5t-8.5 25q0 20 11.5 38.5t20.5 35.5q4 6 7 12.5t7 13.5q-21 27 -32.5 61t-11.5 71q0 40 13.5 76.5t38.5 64.5q-12 21 -23 40.5t-20 36t-14 28t-5 14.5zM140 728q0 -14 5.5 -28t14.5 -24.5t22 -17t28 -6.5q30 0 42 11t16.5 26t7.5 32t16 29q-15 26 -29.5 41 t-44.5 15q-33 0 -55.5 -22.5t-22.5 -55.5z" />
<glyph unicode="&#xa5;" horiz-adv-x="505" d="M20 1150q0 6 7.5 6h12.5q20 0 40 -0.5t40 -9.5q3 -2 13.5 -25.5t24 -58.5t29 -76t29 -78.5t24 -66.5t14.5 -39q30 92 61 183t51 185q2 9 3.5 16.5t6.5 15.5t16 8q7 0 19.5 -1.5t25 -5.5t22 -10t9.5 -15q0 -15 -9 -46.5t-23 -72.5t-31.5 -86.5t-34 -88t-30 -76.5 t-20.5 -52q18 2 37 2h37h16t10 -8q0 -3 -1 -7t-3 -9q-8 -21 -15.5 -27.5t-30.5 -6.5h-72q3 -18 4.5 -37t3.5 -37q24 0 46.5 1t45.5 1q5 0 15.5 -1t10.5 -9q0 -11 -10.5 -27t-21.5 -19q-6 -3 -12 -3.5t-12 -0.5q-15 0 -28.5 1t-27.5 3q3 -72 8.5 -144t5.5 -144 q0 -11 -6 -13.5t-14 -2.5q-5 0 -15.5 1.5t-22 4t-21 5.5t-13.5 7q-6 5 -8 10.5t-2 13.5q0 66 -1 131t-1 131q-21 -2 -42 -2h-42h-13.5t-8.5 6q0 19 11.5 28t28 12t34.5 3t30 1v80h-56h-11t-16 1t-14.5 2.5t-6.5 4.5q0 13 8 21t19.5 12.5t24 6t22.5 2.5q-32 69 -59 139 t-59 139l-13.5 27t-17 35.5t-15 35t-6.5 24.5z" />
<glyph unicode="&#xa6;" horiz-adv-x="286" d="M60 17v63v98v59.5t0.5 96t1 112t1.5 109t2.5 87t4.5 44.5q3 14 10.5 18t21.5 4q45 0 72 -24.5t30 -69.5q8 -148 8 -295t8 -295q2 -30 5 -59t3 -59q0 -27 -13 -36.5t-37 -9.5q-10 0 -24 2.5t-29 7t-27.5 10t-19.5 12.5q-12 14 -14 29t-2 33q-2 32 -2 63zM66 902 q0 72 3 144t3 144q0 88 -2 174.5t-2 175.5q0 10 0.5 19.5t3.5 17t10.5 11.5t21.5 4q10 0 24 -3t27.5 -8.5t24.5 -14t16 -18.5q6 -13 10.5 -59t8.5 -109.5t6 -137t4 -141t2.5 -122t0.5 -79.5v-28.5t-4 -26t-13.5 -18.5t-28.5 -7t-39.5 4.5t-37.5 14.5t-28 25.5t-11 37.5z" />
<glyph unicode="&#xa7;" horiz-adv-x="708" d="M27 1330q0 56 24.5 99t63.5 72t88.5 44t99.5 15q67 0 117.5 -21.5t84 -60.5t50 -92.5t16.5 -117.5q0 -11 -1 -27.5t-2.5 -34.5t-4 -34t-6.5 -24q-5 -11 -11.5 -15.5t-18.5 -4.5q-14 0 -29 5t-28.5 14t-23.5 21t-13 26q-2 8 -2 15v15q0 35 -1.5 74t-13.5 72t-37.5 54.5 t-73.5 21.5q-24 0 -47.5 -8t-41.5 -23t-29.5 -36t-11.5 -47q0 -27 11.5 -51t30 -44t41 -36t45.5 -27q70 -36 132 -78t112 -106q39 -53 62.5 -115.5t23.5 -128.5q0 -60 -20.5 -114.5t-61.5 -99.5q29 -31 52.5 -63t40 -67t25 -74t8.5 -82q0 -73 -25 -130t-69.5 -96.5 t-105 -60.5t-130.5 -21q-68 0 -124 19t-95.5 55.5t-61 90t-21.5 123.5q0 16 2.5 42.5t7 54t10.5 52.5t14 39q8 12 15.5 18t22.5 6q13 0 32 -6.5t35.5 -17t28.5 -25.5t12 -31q0 -14 -3 -30.5t-7 -35t-7 -38.5t-3 -40q0 -72 35.5 -112t110.5 -40q44 0 77 14t55 39.5t33 60.5 t11 78q0 32 -6 62.5t-20 59.5q-15 32 -39.5 57t-48.5 49q-42 39 -89 82t-86 91t-65 102.5t-26 116.5q0 54 23.5 104t62.5 88q-38 20 -75 46t-66 59t-47 72.5t-18 86.5zM287 876q0 -38 14 -71.5t36.5 -63.5t50 -56t53.5 -49q18 26 26 55t8 61q0 37 -10.5 72t-28.5 66.5 t-42.5 59t-52.5 50.5q-11 -16 -20.5 -29.5t-17 -27.5t-12 -30t-4.5 -37z" />
<glyph unicode="&#xa8;" horiz-adv-x="342" d="M-30 1308q0 10 7 15.5t17.5 8t21 2.5h18.5q10 0 23.5 -0.5t25.5 -4t20.5 -11t8.5 -20.5q0 -5 -0.5 -21.5t-1 -35.5t-1 -34.5t-1.5 -16.5q-8 -11 -20.5 -12.5t-23.5 -1.5q-31 0 -46 3t-22 12t-8.5 25t-5.5 42q-3 12 -7.5 24t-4.5 26zM230 1308q0 10 7 15.5t17.5 8t21 2.5 h18.5q10 0 23.5 -0.5t25.5 -4t20.5 -11t8.5 -20.5q0 -5 -0.5 -21.5t-1 -35.5t-1 -34.5t-1.5 -16.5q-8 -11 -20.5 -12.5t-23.5 -1.5q-31 0 -46 3t-22 12t-8.5 25t-5.5 42q-3 12 -7.5 24t-4.5 26z" />
<glyph unicode="&#xa9;" horiz-adv-x="688" d="M30 736q0 46 7.5 99.5t23.5 107t41 102.5t60 87t80 61t102 23q53 0 97 -22t79 -59t60.5 -85t43 -101t26 -107t8.5 -102q0 -54 -9.5 -110t-28 -108.5t-45 -99.5t-61.5 -82t-77 -55.5t-91 -20.5q-55 0 -100 22.5t-80 59.5t-60.5 85.5t-42.5 101t-25 105.5t-8 98zM132 748 q0 -44 9 -100t28.5 -109.5t51 -96.5t77.5 -62q11 -5 22 -6.5t22 -1.5q23 0 43.5 8.5t38.5 22t32.5 31t25.5 34.5q41 63 54.5 134.5t13.5 143.5q0 11 1.5 20t12.5 14q-3 23 -6 45t-8 43q-8 37 -24.5 80.5t-42 81t-60.5 63t-79 25.5q-34 0 -64 -18q-41 -23 -69 -65 t-45.5 -91.5t-25.5 -101t-8 -94.5zM180 776q0 45 7 90t27 86q10 22 26 43.5t36 38t44 26.5t50 10q24 0 47.5 -11.5t42.5 -30t30.5 -42t11.5 -48.5q0 -22 -24 -22q-26 0 -38.5 11.5t-21.5 25.5t-18 25.5t-28 11.5q-9 0 -18.5 -3.5t-17.5 -8.5q-23 -14 -37 -37t-22.5 -49.5 t-11.5 -54t-3 -51.5q0 -21 3.5 -62t13.5 -82t28 -71.5t47 -30.5q25 0 37 20.5t19 45.5t13.5 45.5t22.5 20.5q10 0 21 -5t20 -12.5t15 -18t6 -20.5q0 -18 -7.5 -35.5t-16.5 -34.5q-20 -38 -52 -66t-76 -28q-38 0 -65.5 16t-47 43t-32 61t-19.5 70t-9.5 71t-2.5 63z" />
<glyph unicode="&#xaa;" horiz-adv-x="428" d="M25 648q0 8 2 10q4 15 11.5 24t18 14t23 7.5t25.5 4.5q53 9 104 18t104 18q14 2 28 5t28 3q17 0 26.5 -6.5t9.5 -23.5q0 -12 -4 -23.5t-10 -20.5q-12 -17 -30.5 -19.5t-35.5 -4.5q-42 -3 -82.5 -8t-81.5 -10q-26 -3 -52 -7.5t-52 -4.5q-12 0 -22 5t-10 19zM27 916 q0 53 14.5 106.5t38.5 104t54.5 97t62.5 86.5q6 7 14 17t17.5 19t19.5 15.5t21 6.5q12 0 21.5 -10.5t14.5 -21.5q4 2 12 2q20 0 33 -7t20.5 -19t10 -27.5t2.5 -32.5q0 -39 -3 -77t-3 -77q0 -53 1 -108t13 -108q1 -5 5 -13.5t7.5 -17.5t6.5 -16.5t3 -10.5q0 -10 -8.5 -16 t-20 -9t-24 -4t-19.5 -1q-25 0 -38.5 15.5t-20 37.5t-8.5 46.5t-3 42.5q-11 -23 -26 -46t-34.5 -42.5t-42.5 -31.5t-51 -12q-24 0 -41 9.5t-28 25.5t-16 36t-5 41zM127 896q25 23 43.5 64t32 87.5t23 92.5t15.5 80q-20 -28 -35 -54.5t-26 -53.5t-20 -55.5t-17 -60.5 q-6 -21 -11 -41t-5 -41v-18z" />
<glyph unicode="&#xab;" horiz-adv-x="568" d="M-5 354q0 13 5.5 26t14 25t17.5 24t17 23l86 130q5 8 12 20.5t16 24t19 19.5t21 8q10 0 20 -6t18.5 -15.5t14 -21t5.5 -21.5q0 -7 -8.5 -25t-22 -41.5t-29.5 -50.5t-31 -51t-27.5 -43.5t-17.5 -28.5q23 -48 59 -93.5t69 -86.5q12 -14 23.5 -26.5t22.5 -27.5q4 -8 4 -14 q0 -11 -11.5 -18.5t-27 -12t-31 -7t-22.5 -2.5q-9 0 -17.5 1.5t-16.5 6.5q-10 5 -29 28.5t-39.5 52t-38.5 55t-25 38.5q-17 24 -33.5 52t-16.5 58zM255 354q0 13 5.5 26t14 25t17.5 24t17 23l86 130q5 8 12 20.5t16 24t19 19.5t21 8q10 0 20 -6t18.5 -15.5t14 -21t5.5 -21.5 q0 -7 -8.5 -25t-22 -41.5t-29.5 -50.5t-31 -51t-27.5 -43.5t-17.5 -28.5q23 -48 59 -93.5t69 -86.5q12 -14 23.5 -26.5t22.5 -27.5q4 -8 4 -14q0 -11 -11.5 -18.5t-27 -12t-31 -7t-22.5 -2.5q-9 0 -17.5 1.5t-16.5 6.5q-10 5 -29 28.5t-39.5 52t-38.5 55t-25 38.5 q-17 24 -33.5 52t-16.5 58z" />
<glyph unicode="&#xac;" horiz-adv-x="493" d="M28 666q0 12 5 25.5t13 22.5q11 14 27 17t33 5q53 6 105 10t105 10q8 0 16 1t16 1q30 0 48 -15.5t27 -38.5t12 -50t3 -50q0 -9 -1 -28t-2.5 -40t-3.5 -39t-5 -25q-10 -16 -26 -16q-13 0 -26.5 5.5t-25 15t-19 21.5t-7.5 26q0 26 5 50t5 50q0 8 -1 15t-3 15 q-65 -5 -130.5 -9.5t-131.5 -4.5q-14 0 -26 4.5t-12 21.5z" />
<glyph unicode="&#xad;" horiz-adv-x="436" d="M10 720q0 24 17 42.5t41 23.5q20 3 40 3.5t40 2.5q57 3 114 6.5t116 3.5q7 0 15.5 -0.5t16 -3t12 -8.5t4.5 -16q0 -14 -6 -26q-6 -17 -11.5 -28t-13.5 -17t-19.5 -8.5t-29.5 -2.5h-272q-7 0 -17.5 0.5t-21 3t-18 8t-7.5 16.5z" />
<glyph unicode="&#xae;" horiz-adv-x="676" d="M30 756q0 45 7.5 96.5t23.5 102.5t40.5 98.5t59 83.5t78.5 57.5t99 21.5q51 0 93.5 -19.5t76.5 -53.5t59.5 -78.5t42.5 -95.5t25.5 -104.5t8.5 -104.5q0 -88 -22 -170t-62 -145t-96 -101t-124 -38q-57 0 -106.5 28t-87.5 70q-31 36 -53 78t-36 87.5t-20.5 92.5t-6.5 94z M132 768q0 -29 4.5 -66t15 -76.5t26.5 -77.5t38.5 -67.5t52 -48t67.5 -18.5q36 0 65.5 17.5t50.5 44.5q-15 12 -26.5 28.5t-25.5 31.5l-54 60t-54 62q2 -32 3.5 -63t6.5 -63q2 -11 5 -22.5t3 -23.5q0 -26 -28 -26q-20 0 -38 6q-18 8 -23.5 20t-8.5 32q-6 59 -7 118t-1 118 l-2 2h2q2 59 4 117t10 117q-11 -2 -21 -4.5t-19 -5.5q-21 -47 -33.5 -104t-12.5 -108zM236 1072q11 2 22 2h22q39 0 76 -9.5t66 -29.5t46.5 -51.5t17.5 -75.5q0 -32 -10 -60.5t-28 -52.5t-42 -44t-52 -35q36 -39 73 -79t73 -79q11 26 18 49.5t10.5 46t4.5 46t1 50.5 q0 14 3 27t15 21q-2 8 -2 14t-2 12q-4 27 -11 59.5t-19 65.5t-29 63.5t-39 54.5t-49.5 38.5t-60.5 14.5q-32 0 -57.5 -13.5t-46.5 -34.5zM282 994q12 -24 12 -52q0 -17 -2 -33t-2 -33q-2 -24 -2 -47v-47q21 8 41.5 19.5t37 27t27 35t10.5 44.5t-11.5 41.5t-29.5 26 t-39.5 13.5t-41.5 5z" />
<glyph unicode="&#xaf;" horiz-adv-x="340" d="M-30 1152q0 18 10.5 38t27.5 26q5 2 28 5t55 5.5t69 4.5t70.5 3.5t59.5 2.5t36 1q18 0 31 -5.5t13 -26.5q0 -38 -17.5 -60t-56.5 -22q-65 0 -128 1t-128 1h-20t-23 2t-19 7.5t-8 16.5z" />
<glyph unicode="&#xb0;" horiz-adv-x="358" d="M-5 1214q0 39 13.5 75t37.5 64t58 44.5t75 16.5q45 0 79.5 -18.5t57.5 -48.5t35 -69t12 -80q0 -37 -14.5 -70.5t-39 -59t-58 -41t-70.5 -15.5q-41 0 -75.5 16.5t-59 44.5t-38 64.5t-13.5 76.5zM105 1218q0 -14 5.5 -28t14.5 -24.5t22 -17t28 -6.5q30 0 42 11t16.5 26 t7.5 32t16 29q-15 26 -29.5 41t-44.5 15q-33 0 -55.5 -22.5t-22.5 -55.5z" />
<glyph unicode="&#xb1;" horiz-adv-x="550" d="M27 674q0 28 19 43t45.5 21t55 7t48.5 3q1 23 0.5 58t-0.5 71t1.5 69.5t6.5 53.5q3 14 10 20t22 6q35 0 52.5 -15t24 -37.5t6.5 -49.5t1 -52l2 -116q39 3 79 5.5t79 2.5q17 0 30.5 -5t13.5 -25q0 -14 -7 -30.5t-15 -27.5q-14 -20 -36 -22t-42 -2l-100 -2q0 -57 1 -115 t13 -115q0 -5 1 -9.5t1 -10.5q0 -20 -16 -25t-32 -5q-45 0 -71.5 15.5t-26.5 66.5v198q-32 -2 -64.5 -2h-65.5q-12 0 -24 5.5t-12 20.5zM67 180q0 24 17 42.5t41 23.5q20 3 40 3.5t40 2.5q57 3 114 6.5t116 3.5q7 0 15.5 -0.5t16 -3t12 -8.5t4.5 -16q0 -14 -6 -26 q-6 -17 -11.5 -28t-13.5 -17t-19.5 -8.5t-29.5 -2.5h-272q-7 0 -17.5 0.5t-21 3t-18 8t-7.5 16.5z" />
<glyph unicode="&#xb2;" horiz-adv-x="348" d="M-3 1132q0 15 6 28.5t14 27.5q26 51 68 82.5t102 31.5q37 0 63 -12t42.5 -33t24.5 -50t8 -63q0 -53 -17 -114.5t-42 -124.5t-52.5 -123.5t-48.5 -111.5q33 5 66 9.5t66 4.5q15 0 24.5 -7.5t9.5 -24.5q0 -19 -8 -32q-5 -11 -17.5 -16.5t-27 -7t-29 -1.5t-24.5 -1 q-24 0 -48 -2l-48 -4q-12 -12 -30 -12q-9 0 -21.5 3.5t-24.5 10t-20 16t-8 20.5q0 12 6.5 23.5t11.5 22.5q12 25 30 63t37.5 82t38.5 91t34 91.5t24.5 83t9.5 65.5q0 9 -0.5 22t-3.5 25t-9.5 20.5t-18.5 8.5q-17 0 -31.5 -12t-26 -28.5t-19 -35.5t-11.5 -32q-5 -14 -11 -23 t-23 -9q-11 0 -22.5 3t-21 9t-16 15t-6.5 21z" />
<glyph unicode="&#xb3;" horiz-adv-x="398" d="M9 714q0 17 10.5 24.5t25.5 7.5q30 0 47 -7t26.5 -17t14 -22t9.5 -22t14.5 -17t28.5 -7q28 0 46.5 22t29.5 52.5t15.5 63t4.5 54.5q0 19 -3 39.5t-12 37t-24.5 26.5t-40.5 9q-11 -11 -23 -22.5t-27 -11.5q-11 0 -22 4.5t-20 12t-14.5 18t-5.5 21.5t20.5 32t45.5 49.5 t45.5 62t20.5 70.5q0 50 -50 50q-29 0 -38 -15t-13.5 -33t-10 -33t-26.5 -15q-11 0 -22.5 2.5t-22 8.5t-17 15t-6.5 22q0 30 15 53t38 39t51 24t54 8q30 0 58.5 -7.5t50.5 -23t35.5 -39.5t13.5 -58q0 -47 -20.5 -88.5t-49.5 -77.5q34 -8 58.5 -26.5t40 -44t22.5 -56t7 -63.5 q0 -48 -11.5 -95.5t-36 -85.5t-64 -61.5t-94.5 -23.5q-30 0 -61 10t-56 28.5t-41 45t-16 60.5z" />
<glyph unicode="&#xb4;" horiz-adv-x="234" d="M-30 1162q0 10 8.5 22t20 23t23.5 20.5t20 16.5l98 90q12 9 25.5 20.5t28.5 11.5q10 0 22.5 -7.5t23 -18t17.5 -23.5t7 -23v-4t-2 -4q-3 -12 -12 -21t-20 -17q-31 -25 -47.5 -37.5t-30.5 -23t-31.5 -22.5t-48.5 -35q-11 -8 -21.5 -13t-22.5 -5q-9 0 -19 4t-19 11 t-14.5 16t-5.5 19z" />
<glyph unicode="&#xb5;" horiz-adv-x="626" d="M55 -338q0 151 6 298t24 296q6 48 13 97t15 97q5 23 9 46t7 46q1 18 2 44.5t2 54.5t2.5 53t5.5 40q6 18 15.5 22.5t26.5 1.5q4 2 12 2q29 0 52.5 -20.5t23.5 -49.5q0 -38 -8.5 -78t-13.5 -78q-3 -21 -2.5 -43t0.5 -43q0 -33 1.5 -74.5t5 -83.5t10 -82t17.5 -70 q17 20 31.5 56.5t26.5 81.5t22 94.5t17.5 97t12.5 88.5t8 68l2 36t6 33t16 26.5t34 16.5q5 2 10.5 2h11.5q30 0 49.5 -17t22.5 -49t2.5 -65.5t-0.5 -66.5q0 -56 -1 -112.5t-1 -113.5q0 -54 3 -109.5t17 -108.5q3 -12 7.5 -24t4.5 -26q0 -18 -15.5 -24t-30.5 -6 q-38 0 -59.5 7.5t-32 22.5t-14 39t-6.5 57q-11 -20 -26 -44t-34 -44.5t-42 -34t-48 -13.5q-26 0 -45.5 12t-34.5 30q-6 -111 -6 -226q0 -72 5 -145t5 -147q0 -17 -14 -21.5t-28 -4.5q-9 0 -22.5 2t-27 6.5t-25 11t-17.5 14.5q-4 7 -6 24t-3 36.5t-1 37.5v26z" />
<glyph unicode="&#xb6;" horiz-adv-x="801" d="M18 894q0 64 16 135.5t47.5 136.5t77.5 117.5t107 80.5q41 20 87 27t91 7t90 -6q9 -2 27 -5t39.5 -8.5t44 -12t41 -14.5t30.5 -17t12 -19t-5.5 -18.5t-14 -16t-18.5 -13t-18 -8.5q4 -109 7.5 -227t7.5 -238t9 -237.5t12 -225.5q1 -26 3 -62t4 -73.5t4.5 -73t6.5 -61.5 q2 -11 3 -21t1 -21q0 -21 -13 -28.5t-31 -7.5q-20 0 -44 7.5t-36 24.5q-8 11 -11 26.5t-4 32t-0.5 33t-0.5 30.5q-2 32 -3.5 74t-3 86t-3 86.5t-2.5 75.5q-17 -6 -33.5 -8t-34.5 -4q1 -45 1.5 -99.5t1 -111.5t1 -111.5t0.5 -99.5q0 -18 -6.5 -33t-29.5 -15q-12 0 -27.5 5.5 t-26.5 10.5q-26 14 -33 31.5t-7 46.5v89.5v100.5t0.5 100.5t1.5 89.5q-83 12 -150.5 51.5t-116 98.5t-75 134t-26.5 158zM138 902q0 -59 17 -112.5t48.5 -97t77.5 -73t105 -39.5q0 79 0.5 167t1 178t0 177.5t-1.5 165.5v10q-61 -9 -107 -47t-77.5 -92t-47.5 -116.5 t-16 -120.5zM494 1282q4 -31 6 -68.5t2 -76.5t-0.5 -77.5t0.5 -69.5q2 -98 3 -205t3 -205q17 2 32 6.5t32 7.5q-3 77 -5.5 164t-4 176t-2 176t-0.5 164q-17 3 -33 5.5t-33 2.5z" />
<glyph unicode="&#xb7;" horiz-adv-x="232" d="M41 708q0 10 7 15.5t17.5 8t21 2.5h18.5q10 0 23.5 -0.5t25.5 -4t20.5 -11t8.5 -20.5q0 -5 -0.5 -21.5t-1 -35.5t-1 -34.5t-1.5 -16.5q-8 -11 -20.5 -12.5t-23.5 -1.5q-31 0 -46 3t-22 12t-8.5 25t-5.5 42q-3 12 -7.5 24t-4.5 26z" />
<glyph unicode="&#xb8;" horiz-adv-x="262" d="M-30 -202q0 8 8.5 14.5t19.5 11t22.5 6.5t17.5 2q13 0 25 -4t24 -9t24 -9t25 -4q14 0 30 8.5t16 25.5q0 9 -8.5 12.5t-17.5 3.5q-11 0 -21 -2t-21 -2q-30 0 -52 18t-22 50q0 9 4.5 32.5t11 49.5t14 48t12.5 28q6 8 12 10t14 2q10 0 23.5 -5t25 -13.5t19.5 -19.5t8 -22 q0 -8 -1.5 -19t-4 -23t-5.5 -22.5t-5 -15.5q22 -3 44 -11.5t40 -22t29 -32t11 -42.5q0 -28 -14 -50.5t-36 -38.5t-48 -24.5t-50 -8.5q-30 0 -59.5 9t-56.5 23q-6 2 -16 7t-19 11.5t-16 13.5t-7 14z" />
<glyph unicode="&#xb9;" horiz-adv-x="202" d="M33 1276q0 15 7 23.5t25 8.5q17 0 37 -7.5t29 -24.5q3 -5 4.5 -15t1.5 -20.5v-21v-17.5q5 -128 11 -256t23 -256q2 -18 5 -35.5t3 -34.5q0 -18 -13 -24t-27 -6q-23 0 -47.5 7t-32.5 31q-2 9 -2 18v18q-9 154 -16.5 306t-7.5 306z" />
<glyph unicode="&#xba;" horiz-adv-x="410" d="M29 684q0 27 18 39t42 17t48 7t48 5q45 6 91 15t93 9q14 0 23 -6.5t9 -21.5q0 -60 -56 -66q-47 -6 -92 -8.5t-92 -5.5l-48 -4t-50 -2q-12 0 -23 4t-11 18zM29 1070q0 60 12.5 121t47.5 111q4 7 11 16t15.5 17t17.5 13.5t18 5.5q12 0 18 -6q23 10 44 10q20 0 37.5 -7 t32.5 -19q29 -24 46 -57t26 -70t11.5 -75.5t2.5 -73.5q0 -43 -8.5 -85t-28.5 -75t-53.5 -53.5t-83.5 -20.5q-48 0 -80 24t-51 61t-27 80.5t-8 82.5zM131 1098q0 -15 2.5 -47t9.5 -65t19.5 -57.5t32.5 -24.5q24 0 37.5 19t19.5 45.5t7.5 54.5t1.5 45q0 20 -2 46t-7 52 t-13.5 49.5t-21.5 40.5q-5 -15 -10.5 -24.5t-23.5 -9.5q-13 0 -28 6q-12 -27 -18 -63.5t-6 -66.5z" />
<glyph unicode="&#xbb;" horiz-adv-x="568" d="M5 614q0 10 11.5 18t27 12.5t31.5 7t24 2.5q9 0 17 -2.5t17 -7.5q10 -5 28.5 -28t39 -51t38.5 -54.5t26 -38.5q15 -24 31.5 -52t16.5 -58q0 -14 -5.5 -27t-13.5 -25t-17 -24t-16 -22l-88 -132q-5 -8 -12 -19.5t-15.5 -23t-18.5 -19.5t-20 -8q-11 0 -21.5 6t-19 15t-14 20 t-5.5 21q0 7 8.5 25.5t22 42.5t29.5 51t31 51t27.5 43.5t17.5 28.5q-21 48 -57 92.5t-71 85.5q-11 15 -23 28t-21 28q-6 6 -6 14zM265 614q0 10 11.5 18t27 12.5t31.5 7t24 2.5q9 0 17 -2.5t17 -7.5q10 -5 28.5 -28t39 -51t38.5 -54.5t26 -38.5q15 -24 31.5 -52t16.5 -58 q0 -14 -5.5 -27t-13.5 -25t-17 -24t-16 -22l-88 -132q-5 -8 -12 -19.5t-15.5 -23t-18.5 -19.5t-20 -8q-11 0 -21.5 6t-19 15t-14 20t-5.5 21q0 7 8.5 25.5t22 42.5t29.5 51t31 51t27.5 43.5t17.5 28.5q-21 48 -57 92.5t-71 85.5q-11 15 -23 28t-21 28q-6 6 -6 14z" />
<glyph unicode="&#xbc;" horiz-adv-x="786" d="M71 1276q0 15 7 23.5t25 8.5q17 0 37 -7.5t29 -24.5q3 -5 4.5 -15t1.5 -20.5v-21v-17.5q5 -128 11 -256t23 -256q2 -18 5 -35.5t3 -34.5q0 -18 -13 -24t-27 -6q-23 0 -47.5 7t-32.5 31q-2 9 -2 18v18q-9 154 -16.5 306t-7.5 306zM101 150q0 9 11.5 45t31 91t44.5 123 t52 140t54 143t50 131t40 105.5t25 65.5l52 134l12 34t14 32q5 9 11 15.5t17 6.5q23 0 38.5 -18.5t15.5 -39.5q0 -23 -9.5 -45t-18.5 -43q-80 -210 -154.5 -419.5t-145.5 -420.5q-3 -9 -8.5 -28t-11.5 -39t-12 -37t-10 -22q-7 -10 -20 -10q-10 0 -23.5 4.5t-25.5 12 t-20.5 18t-8.5 21.5zM391 358q0 12 8.5 41.5t22.5 68t30 81.5t32 83t28.5 72t18.5 48q-2 15 -4 28.5t-2 27.5q0 18 13.5 24t28.5 6q10 0 24 -3t26.5 -9.5t21.5 -16.5t10 -23q0 -2 -1 -4.5t-1 -5.5q0 -29 2 -57t4 -57l16 -266q17 2 33 4t33 2q14 0 25 -6.5t11 -21.5 q0 -23 -9 -35.5t-23 -18.5t-31.5 -7.5t-34.5 -2.5q3 -48 7.5 -98t4.5 -100q0 -17 -7.5 -23.5t-24.5 -6.5q-18 0 -37.5 7t-30.5 25q-3 6 -6 32.5t-6 58t-5 60t-3 39.5h-40q-14 0 -36.5 1.5t-44 7t-37.5 16t-16 29.5zM509 386h10q11 0 20 1t20 1l-8 122q-12 -30 -23 -61 t-19 -63z" />
<glyph unicode="&#xbd;" horiz-adv-x="799" d="M59 1276q0 15 7 23.5t25 8.5q17 0 37 -7.5t29 -24.5q3 -5 4.5 -15t1.5 -20.5v-21v-17.5q5 -128 11 -256t23 -256q2 -18 5 -35.5t3 -34.5q0 -18 -13 -24t-27 -6q-23 0 -47.5 7t-32.5 31q-2 9 -2 18v18q-9 154 -16.5 306t-7.5 306zM89 150q0 9 11.5 45t31 91t44.5 123 t52 140t54 143t50 131t40 105.5t25 65.5l52 134l12 34t14 32q5 9 11 15.5t17 6.5q23 0 38.5 -18.5t15.5 -39.5q0 -23 -9.5 -45t-18.5 -43q-80 -210 -154.5 -419.5t-145.5 -420.5q-3 -9 -8.5 -28t-11.5 -39t-12 -37t-10 -22q-7 -10 -20 -10q-10 0 -23.5 4.5t-25.5 12 t-20.5 18t-8.5 21.5zM439 632q0 15 6 28.5t14 27.5q26 51 68 82.5t102 31.5q37 0 63 -12t42.5 -33t24.5 -50t8 -63q0 -53 -17 -114.5t-42 -124.5t-52.5 -123.5t-48.5 -111.5q33 5 66 9.5t66 4.5q15 0 24.5 -7.5t9.5 -24.5q0 -19 -8 -32q-5 -11 -17.5 -16.5t-27 -7t-29 -1.5 t-24.5 -1q-24 0 -48 -2l-48 -4q-12 -12 -30 -12q-9 0 -21.5 3.5t-24.5 10t-20 16t-8 20.5q0 12 6.5 23.5t11.5 22.5q12 25 30 63t37.5 82t38.5 91t34 91.5t24.5 83t9.5 65.5q0 9 -0.5 22t-3.5 25t-9.5 20.5t-18.5 8.5q-17 0 -31.5 -12t-26 -28.5t-19 -35.5t-11.5 -32 q-5 -14 -11 -23t-23 -9q-11 0 -22.5 3t-21 9t-16 15t-6.5 21z" />
<glyph unicode="&#xbe;" horiz-adv-x="958" d="M33 714q0 17 10.5 24.5t25.5 7.5q30 0 47 -7t26.5 -17t14 -22t9.5 -22t14.5 -17t28.5 -7q28 0 46.5 22t29.5 52.5t15.5 63t4.5 54.5q0 19 -3 39.5t-12 37t-24.5 26.5t-40.5 9q-11 -11 -23 -22.5t-27 -11.5q-11 0 -22 4.5t-20 12t-14.5 18t-5.5 21.5t20.5 32t45.5 49.5 t45.5 62t20.5 70.5q0 50 -50 50q-29 0 -38 -15t-13.5 -33t-10 -33t-26.5 -15q-11 0 -22.5 2.5t-22 8.5t-17 15t-6.5 22q0 30 15 53t38 39t51 24t54 8q30 0 58.5 -7.5t50.5 -23t35.5 -39.5t13.5 -58q0 -47 -20.5 -88.5t-49.5 -77.5q34 -8 58.5 -26.5t40 -44t22.5 -56t7 -63.5 q0 -48 -11.5 -95.5t-36 -85.5t-64 -61.5t-94.5 -23.5q-30 0 -61 10t-56 28.5t-41 45t-16 60.5zM273 150q0 9 11.5 45t31 91t44.5 123t52 140t54 143t50 131t40 105.5t25 65.5l52 134l12 34t14 32q5 9 11 15.5t17 6.5q23 0 38.5 -18.5t15.5 -39.5q0 -23 -9.5 -45t-18.5 -43 q-80 -210 -154.5 -419.5t-145.5 -420.5q-3 -9 -8.5 -28t-11.5 -39t-12 -37t-10 -22q-7 -10 -20 -10q-10 0 -23.5 4.5t-25.5 12t-20.5 18t-8.5 21.5zM563 358q0 12 8.5 41.5t22.5 68t30 81.5t32 83t28.5 72t18.5 48q-2 15 -4 28.5t-2 27.5q0 18 13.5 24t28.5 6q10 0 24 -3 t26.5 -9.5t21.5 -16.5t10 -23q0 -2 -1 -4.5t-1 -5.5q0 -29 2 -57t4 -57l16 -266q17 2 33 4t33 2q14 0 25 -6.5t11 -21.5q0 -23 -9 -35.5t-23 -18.5t-31.5 -7.5t-34.5 -2.5q3 -48 7.5 -98t4.5 -100q0 -17 -7.5 -23.5t-24.5 -6.5q-18 0 -37.5 7t-30.5 25q-3 6 -6 32.5t-6 58 t-5 60t-3 39.5h-40q-14 0 -36.5 1.5t-44 7t-37.5 16t-16 29.5zM681 386h10q11 0 20 1t20 1l-8 122q-12 -30 -23 -61t-19 -63z" />
<glyph unicode="&#xbf;" horiz-adv-x="640" d="M76 -18q0 80 8.5 161.5t37.5 156.5q18 46 47.5 97t57.5 103t48.5 103.5t20.5 100.5v44q0 27 9 44.5t39 17.5q17 0 41 -6t39 -14q24 -12 31 -28.5t7 -43.5q0 -53 -15 -101t-37.5 -93.5t-49.5 -89.5t-50 -88q-48 -88 -66 -185t-18 -197q0 -20 2.5 -48t8.5 -58t15.5 -60 t24.5 -53.5t35.5 -38t47.5 -14.5q33 0 54.5 21t33.5 51t17 63.5t5 58.5q0 28 -9 57.5t-20 54.5t-20 42.5t-9 21.5q0 10 8.5 16t20 9.5t23.5 5t20 1.5q38 0 62.5 -23t38 -56.5t18.5 -71.5t5 -67q0 -56 -14 -110t-44 -96t-75.5 -68t-108.5 -26q-87 0 -143 36.5t-89 94.5 t-45.5 130.5t-12.5 144.5zM296 960q0 4 0.5 21t1.5 36t2 34t2 17q8 11 20 12.5t24 1.5q30 0 45 -3.5t21.5 -12.5t8.5 -25t7 -41q2 -12 7 -24t5 -26q0 -11 -7 -16.5t-17.5 -7.5t-22 -2h-19.5q-10 0 -23.5 0.5t-25.5 4t-20.5 10.5t-8.5 21z" />
<glyph unicode="&#xc0;" d="M8 1656v8q0 10 6.5 23t17 23.5t23 18t23.5 7.5q15 0 28 -11.5t24 -20.5l84 -86q7 -7 19.5 -16.5t24 -20.5t20 -23t8.5 -22t-5.5 -19t-14.5 -16t-19 -11t-19 -4q-12 0 -23.5 5t-20.5 13q-32 23 -47 34.5t-26.5 21t-25.5 21.5t-45 37q-9 8 -18 17t-14 21zM42 436 q0 10 7.5 18.5t18 16t21.5 13t19 8.5q21 140 40 279t34 281q4 38 7 77t6.5 78t9 77t15.5 76q9 36 30 58t62 22q12 0 23.5 -2t20.5 -8q26 -13 54 -71t56 -140.5t53.5 -178.5t46.5 -186t36 -162.5t22 -107.5q21 3 42 5.5t42 2.5q10 0 23 -1t24.5 -5.5t19 -13t7.5 -22.5 q0 -21 -15 -44t-33 -34q-5 -3 -17 -6t-25.5 -5.5t-26 -5t-19.5 -3.5l24 -148q11 -69 16.5 -138.5t25.5 -137.5q2 -6 4 -11t2 -13q0 -13 -7.5 -20t-18 -10.5t-22.5 -4.5t-22 -1h-14q-31 0 -47.5 5t-25.5 17t-12 30.5t-7 45.5q-24 183 -54 366q-62 -8 -124.5 -15t-125.5 -13 l-32 -196q-2 -18 -5.5 -49t-8 -63.5t-10 -60.5t-12.5 -41q-6 -12 -11 -17t-19 -5q-18 0 -35.5 6.5t-31 18t-21.5 27.5t-8 36t4.5 40t7.5 40q11 66 20 131.5t20 130.5q-7 1 -16 3.5t-17.5 6.5t-14.5 10t-6 14zM256 520q54 8 106.5 17.5t105.5 20.5q-26 142 -56.5 281.5 t-71.5 278.5q-18 -151 -39 -300t-45 -298z" />
<glyph unicode="&#xc1;" d="M42 436q0 10 7.5 18.5t18 16t21.5 13t19 8.5q21 140 40 279t34 281q4 38 7 77t6.5 78t9 77t15.5 76q9 36 30 58t62 22q12 0 23.5 -2t20.5 -8q26 -13 54 -71t56 -140.5t53.5 -178.5t46.5 -186t36 -162.5t22 -107.5q21 3 42 5.5t42 2.5q10 0 23 -1t24.5 -5.5t19 -13 t7.5 -22.5q0 -21 -15 -44t-33 -34q-5 -3 -17 -6t-25.5 -5.5t-26 -5t-19.5 -3.5l24 -148q11 -69 16.5 -138.5t25.5 -137.5q2 -6 4 -11t2 -13q0 -13 -7.5 -20t-18 -10.5t-22.5 -4.5t-22 -1h-14q-31 0 -47.5 5t-25.5 17t-12 30.5t-7 45.5q-24 183 -54 366q-62 -8 -124.5 -15 t-125.5 -13l-32 -196q-2 -18 -5.5 -49t-8 -63.5t-10 -60.5t-12.5 -41q-6 -12 -11 -17t-19 -5q-18 0 -35.5 6.5t-31 18t-21.5 27.5t-8 36t4.5 40t7.5 40q11 66 20 131.5t20 130.5q-7 1 -16 3.5t-17.5 6.5t-14.5 10t-6 14zM256 520q54 8 106.5 17.5t105.5 20.5 q-26 142 -56.5 281.5t-71.5 278.5q-18 -151 -39 -300t-45 -298zM272 1540q0 10 8.5 22t20 23t23.5 20.5t20 16.5l98 90q12 9 25.5 20.5t28.5 11.5q10 0 22.5 -7.5t23 -18t17.5 -23.5t7 -23v-4t-2 -4q-3 -12 -12 -21t-20 -17q-31 -25 -47.5 -37.5t-30.5 -23t-31.5 -22.5 t-48.5 -35q-11 -8 -21.5 -13t-22.5 -5q-9 0 -19 4t-19 11t-14.5 16t-5.5 19z" />
<glyph unicode="&#xc2;" d="M42 436q0 10 7.5 18.5t18 16t21.5 13t19 8.5q21 140 40 279t34 281q4 38 7 77t6.5 78t9 77t15.5 76q9 36 30 58t62 22q12 0 23.5 -2t20.5 -8q26 -13 54 -71t56 -140.5t53.5 -178.5t46.5 -186t36 -162.5t22 -107.5q21 3 42 5.5t42 2.5q10 0 23 -1t24.5 -5.5t19 -13 t7.5 -22.5q0 -21 -15 -44t-33 -34q-5 -3 -17 -6t-25.5 -5.5t-26 -5t-19.5 -3.5l24 -148q11 -69 16.5 -138.5t25.5 -137.5q2 -6 4 -11t2 -13q0 -13 -7.5 -20t-18 -10.5t-22.5 -4.5t-22 -1h-14q-31 0 -47.5 5t-25.5 17t-12 30.5t-7 45.5q-24 183 -54 366q-62 -8 -124.5 -15 t-125.5 -13l-32 -196q-2 -18 -5.5 -49t-8 -63.5t-10 -60.5t-12.5 -41q-6 -12 -11 -17t-19 -5q-18 0 -35.5 6.5t-31 18t-21.5 27.5t-8 36t4.5 40t7.5 40q11 66 20 131.5t20 130.5q-7 1 -16 3.5t-17.5 6.5t-14.5 10t-6 14zM146 1540q0 7 9.5 35.5t22 63t24 65.5t16.5 42 q9 20 21.5 31t36.5 11q28 0 50 -22q18 -18 30 -41.5t24 -46.5q4 -8 16.5 -32.5t25 -51.5t22.5 -50t10 -28q0 -8 -6 -13t-14 -7.5t-17 -3t-15 -0.5q-9 0 -19.5 0.5t-18.5 5.5q-14 6 -19.5 16.5t-10.5 21.5q-12 32 -24 62t-26 60q-14 -35 -28 -69t-28 -69q-3 -9 -6.5 -15.5 t-11.5 -12.5q-2 -2 -10 -2t-17.5 4.5t-17.5 11.5t-13.5 16t-5.5 18zM256 520q54 8 106.5 17.5t105.5 20.5q-26 142 -56.5 281.5t-71.5 278.5q-18 -151 -39 -300t-45 -298z" />
<glyph unicode="&#xc3;" d="M42 436q0 10 7.5 18.5t18 16t21.5 13t19 8.5q21 140 40 279t34 281q4 38 7 77t6.5 78t9 77t15.5 76q9 36 30 58t62 22q12 0 23.5 -2t20.5 -8q26 -13 54 -71t56 -140.5t53.5 -178.5t46.5 -186t36 -162.5t22 -107.5q21 3 42 5.5t42 2.5q10 0 23 -1t24.5 -5.5t19 -13 t7.5 -22.5q0 -21 -15 -44t-33 -34q-5 -3 -17 -6t-25.5 -5.5t-26 -5t-19.5 -3.5l24 -148q11 -69 16.5 -138.5t25.5 -137.5q2 -6 4 -11t2 -13q0 -13 -7.5 -20t-18 -10.5t-22.5 -4.5t-22 -1h-14q-31 0 -47.5 5t-25.5 17t-12 30.5t-7 45.5q-24 183 -54 366q-62 -8 -124.5 -15 t-125.5 -13l-32 -196q-2 -18 -5.5 -49t-8 -63.5t-10 -60.5t-12.5 -41q-6 -12 -11 -17t-19 -5q-18 0 -35.5 6.5t-31 18t-21.5 27.5t-8 36t4.5 40t7.5 40q11 66 20 131.5t20 130.5q-7 1 -16 3.5t-17.5 6.5t-14.5 10t-6 14zM94 1632q0 50 35.5 75t88.5 25q39 0 70.5 -18.5 t43.5 -53.5q2 -7 4 -23t6 -32.5t10.5 -29.5t17.5 -13q5 0 8 4.5t4.5 10t1.5 10.5v7q0 21 -4 42.5t-12 41.5q-3 9 -7.5 16.5t-4.5 15.5q0 13 14.5 17.5t25.5 4.5q28 0 46 -12t28.5 -31t14 -42.5t3.5 -46.5q0 -50 -30 -80t-86 -30q-43 0 -67 12.5t-36.5 32t-16.5 41.5 t-7.5 41.5t-9 32t-19.5 12.5q-30 0 -30 -26q0 -20 8 -41t17 -40t17 -33.5t8 -19.5q0 -12 -14.5 -16t-23.5 -4q-26 0 -41 10t-27 30q-14 26 -25 53.5t-11 56.5zM256 520q54 8 106.5 17.5t105.5 20.5q-26 142 -56.5 281.5t-71.5 278.5q-18 -151 -39 -300t-45 -298z" />
<glyph unicode="&#xc4;" d="M42 436q0 10 7.5 18.5t18 16t21.5 13t19 8.5q21 140 40 279t34 281q4 38 7 77t6.5 78t9 77t15.5 76q9 36 30 58t62 22q12 0 23.5 -2t20.5 -8q26 -13 54 -71t56 -140.5t53.5 -178.5t46.5 -186t36 -162.5t22 -107.5q21 3 42 5.5t42 2.5q10 0 23 -1t24.5 -5.5t19 -13 t7.5 -22.5q0 -21 -15 -44t-33 -34q-5 -3 -17 -6t-25.5 -5.5t-26 -5t-19.5 -3.5l24 -148q11 -69 16.5 -138.5t25.5 -137.5q2 -6 4 -11t2 -13q0 -13 -7.5 -20t-18 -10.5t-22.5 -4.5t-22 -1h-14q-31 0 -47.5 5t-25.5 17t-12 30.5t-7 45.5q-24 183 -54 366q-62 -8 -124.5 -15 t-125.5 -13l-32 -196q-2 -18 -5.5 -49t-8 -63.5t-10 -60.5t-12.5 -41q-6 -12 -11 -17t-19 -5q-18 0 -35.5 6.5t-31 18t-21.5 27.5t-8 36t4.5 40t7.5 40q11 66 20 131.5t20 130.5q-7 1 -16 3.5t-17.5 6.5t-14.5 10t-6 14zM96 1624q0 10 7 15.5t17.5 8t21 2.5h18.5 q10 0 23.5 -0.5t25.5 -4t20.5 -11t8.5 -20.5q0 -5 -0.5 -21.5t-1 -35.5t-1 -34.5t-1.5 -16.5q-8 -11 -20.5 -12.5t-23.5 -1.5q-31 0 -46 3t-22 12t-8.5 25t-5.5 42q-3 12 -7.5 24t-4.5 26zM256 520q54 8 106.5 17.5t105.5 20.5q-26 142 -56.5 281.5t-71.5 278.5 q-18 -151 -39 -300t-45 -298zM356 1624q0 10 7 15.5t17.5 8t21 2.5h18.5q10 0 23.5 -0.5t25.5 -4t20.5 -11t8.5 -20.5q0 -5 -0.5 -21.5t-1 -35.5t-1 -34.5t-1.5 -16.5q-8 -11 -20.5 -12.5t-23.5 -1.5q-31 0 -46 3t-22 12t-8.5 25t-5.5 42q-3 12 -7.5 24t-4.5 26z" />
<glyph unicode="&#xc5;" d="M42 436q0 10 7.5 18.5t18 16t21.5 13t19 8.5q21 140 40 279t34 281q4 38 7 77t6.5 78t9 77t15.5 76q9 36 30 58t62 22q12 0 23.5 -2t20.5 -8q26 -13 54 -71t56 -140.5t53.5 -178.5t46.5 -186t36 -162.5t22 -107.5q21 3 42 5.5t42 2.5q10 0 23 -1t24.5 -5.5t19 -13 t7.5 -22.5q0 -21 -15 -44t-33 -34q-5 -3 -17 -6t-25.5 -5.5t-26 -5t-19.5 -3.5l24 -148q11 -69 16.5 -138.5t25.5 -137.5q2 -6 4 -11t2 -13q0 -13 -7.5 -20t-18 -10.5t-22.5 -4.5t-22 -1h-14q-31 0 -47.5 5t-25.5 17t-12 30.5t-7 45.5q-24 183 -54 366q-62 -8 -124.5 -15 t-125.5 -13l-32 -196q-2 -18 -5.5 -49t-8 -63.5t-10 -60.5t-12.5 -41q-6 -12 -11 -17t-19 -5q-18 0 -35.5 6.5t-31 18t-21.5 27.5t-8 36t4.5 40t7.5 40q11 66 20 131.5t20 130.5q-7 1 -16 3.5t-17.5 6.5t-14.5 10t-6 14zM158 1592q0 27 13 47.5t34 34.5t46 21t49 7 q27 0 52.5 -7.5t45.5 -22.5t32 -37t12 -51q0 -26 -13.5 -45t-34.5 -32.5t-45.5 -20t-46.5 -6.5q-24 0 -49.5 7t-46.5 21t-34.5 35t-13.5 49zM254 1594q0 -17 14.5 -25.5t29.5 -8.5q19 0 26.5 5.5t10.5 13t4.5 16t8.5 13.5q-11 12 -19 17t-25 5q-15 0 -32.5 -9t-17.5 -27z M256 520q54 8 106.5 17.5t105.5 20.5q-26 142 -56.5 281.5t-71.5 278.5q-18 -151 -39 -300t-45 -298z" />
<glyph unicode="&#xc6;" horiz-adv-x="1164" d="M-9 44q0 7 7.5 33t18.5 61.5t25 76.5t27 78.5t23.5 67t14.5 41.5q-15 3 -31.5 9.5t-16.5 24.5q0 8 9.5 17t22 17t25 14t19.5 8q47 140 91.5 279t86.5 281q22 76 40.5 155t51.5 153q17 35 41.5 57.5t66.5 22.5q36 0 51 -16t27 -48q26 9 53.5 11.5t54.5 2.5q66 0 132 -1 t132 -1q20 0 39.5 1.5t40.5 -3.5q12 -2 21 -6.5t9 -19.5q0 -30 -16.5 -47t-40.5 -25t-51.5 -10t-49.5 -2q-45 0 -90 1t-90 1h-40.5t-39.5 -2q-6 -15 -8 -31t-2 -33q0 -109 6.5 -215t11.5 -215q62 5 123 12t121 16q8 0 15.5 1t16.5 1q21 0 29.5 -11t8.5 -31q0 -14 -1.5 -26 t-6.5 -24q-8 -20 -24 -29.5t-36 -13t-41.5 -3t-38.5 -0.5l-162 -6l3 -63t4.5 -94t6 -109t7.5 -106.5t8.5 -86.5t10.5 -49q11 -21 24 -27.5t36 -6.5q38 0 79 14.5t80 37t74.5 49.5t62.5 53q9 9 21 18.5t27 9.5q14 0 28 -8.5t24.5 -22t17 -29.5t6.5 -30q0 -17 -13.5 -33 t-32 -31t-38 -27.5t-32.5 -20.5q-35 -22 -68.5 -41t-69 -33t-73 -22t-79.5 -8l-14 -2q-66 -1 -109 18t-68.5 51.5t-37.5 75.5t-17 91t-5.5 98.5t-2.5 97.5q-69 -3 -138 -12.5t-140 -15.5l-68 -196q-6 -19 -15 -49.5t-19.5 -62.5t-21 -60.5t-20.5 -41.5q-8 -11 -14 -16.5 t-20 -5.5q-32 0 -56 19.5t-24 52.5zM289 520q54 8 109 17.5t109 20.5v48q0 128 -5.5 256t-20.5 256q-45 -151 -93.5 -300t-98.5 -298z" />
<glyph unicode="&#xc7;" horiz-adv-x="810" d="M52 788q0 61 5.5 126t19.5 128.5t38 123t60 110t85.5 89.5t115.5 61q24 9 50 12.5t52 3.5q52 0 99 -17t82.5 -48t56 -75t20.5 -98q0 -18 -8 -27t-28 -9q-37 0 -57.5 12t-33.5 30t-21.5 39t-20.5 39t-32 30t-55 12t-65.5 -13.5t-56 -35.5t-46 -49.5t-36.5 -55.5 q-42 -78 -59 -166.5t-17 -177.5q0 -30 2.5 -77.5t8 -104.5t15.5 -120.5t24.5 -124.5t35 -117t47 -98t60 -67t75.5 -25q43 0 76 22.5t56.5 57t39 75t24.5 75.5q3 10 5.5 18t7 14t11.5 9t20 3q14 0 33.5 -5.5t37 -15.5t29.5 -24t12 -31q0 -15 -4.5 -29.5t-9.5 -28.5 q-22 -56 -53 -103t-71.5 -82t-91.5 -56t-112 -23l-6 -24q22 -3 44 -11.5t40 -22t29 -32t11 -42.5q0 -28 -14 -50.5t-36 -38.5t-48 -24.5t-50 -8.5q-30 0 -59.5 9t-56.5 23q-6 2 -16 7t-19 11.5t-16 13.5t-7 14q0 8 8.5 14.5t19.5 11t22.5 6.5t17.5 2q13 0 25 -4t24 -9t24 -9 t25 -4q14 0 30 8.5t16 25.5q0 9 -8.5 12.5t-17.5 3.5q-11 0 -21 -2t-21 -2q-30 0 -52 18t-22 50q0 9 3 29.5t9 44.5q-56 20 -97.5 60.5t-71.5 92t-51 110.5t-34 117q-24 103 -37 206.5t-13 207.5z" />
<glyph unicode="&#xc8;" horiz-adv-x="745" d="M80 1168q0 60 7 102t28 69t60.5 39t104.5 12t130.5 -1t131.5 -1q20 0 40 1.5t40 -3.5q12 -2 21 -6.5t9 -19.5q0 -36 -24 -53.5t-57 -23.5t-68.5 -5.5t-58.5 0.5h-130h-40t-40 -2q-6 -15 -8 -31t-2 -33q0 -109 5.5 -215t10.5 -215q62 5 123 12t123 16q9 0 16.5 1t15.5 1 q21 0 29.5 -11t8.5 -31q0 -14 -1.5 -26t-6.5 -24q-7 -20 -23 -29t-36 -12.5t-41.5 -3.5t-37.5 -1q-42 -2 -82.5 -3t-81.5 -3l3 -63l4.5 -94.5t6 -108.5t7.5 -105.5t9 -86.5t10 -50q11 -21 25 -27.5t37 -6.5q37 0 78 14.5t80 37t74.5 49.5t61.5 53q11 9 22 18.5t26 9.5t29 -9 t25 -22.5t17.5 -29.5t6.5 -29q0 -17 -13.5 -33t-32.5 -31t-39 -27.5t-33 -20.5q-34 -22 -67.5 -41t-69 -33t-73 -22t-78.5 -8l-16 -2q-33 0 -65.5 7.5t-60.5 23t-50 39.5t-34 58q-9 27 -14 64t-7.5 77t-4 78.5t-2.5 68.5q-15 306 -24 612q-2 35 -3 70t-1 70zM146 1624v8 q0 10 6.5 23t17 23.5t23 18t23.5 7.5q15 0 28 -11.5t24 -20.5l84 -86q7 -7 19.5 -16.5t24 -20.5t20 -23t8.5 -22t-5.5 -19t-14.5 -16t-19 -11t-19 -4q-12 0 -23.5 5t-20.5 13q-32 23 -47 34.5t-26.5 21t-25.5 21.5t-45 37q-9 8 -18 17t-14 21z" />
<glyph unicode="&#xc9;" horiz-adv-x="745" d="M80 1168q0 60 7 102t28 69t60.5 39t104.5 12t130.5 -1t131.5 -1q20 0 40 1.5t40 -3.5q12 -2 21 -6.5t9 -19.5q0 -36 -24 -53.5t-57 -23.5t-68.5 -5.5t-58.5 0.5h-130h-40t-40 -2q-6 -15 -8 -31t-2 -33q0 -109 5.5 -215t10.5 -215q62 5 123 12t123 16q9 0 16.5 1t15.5 1 q21 0 29.5 -11t8.5 -31q0 -14 -1.5 -26t-6.5 -24q-7 -20 -23 -29t-36 -12.5t-41.5 -3.5t-37.5 -1q-42 -2 -82.5 -3t-81.5 -3l3 -63l4.5 -94.5t6 -108.5t7.5 -105.5t9 -86.5t10 -50q11 -21 25 -27.5t37 -6.5q37 0 78 14.5t80 37t74.5 49.5t61.5 53q11 9 22 18.5t26 9.5t29 -9 t25 -22.5t17.5 -29.5t6.5 -29q0 -17 -13.5 -33t-32.5 -31t-39 -27.5t-33 -20.5q-34 -22 -67.5 -41t-69 -33t-73 -22t-78.5 -8l-16 -2q-33 0 -65.5 7.5t-60.5 23t-50 39.5t-34 58q-9 27 -14 64t-7.5 77t-4 78.5t-2.5 68.5q-15 306 -24 612q-2 35 -3 70t-1 70zM298 1496 q0 10 8.5 22t20 23t23.5 20.5t20 16.5l98 90q12 9 25.5 20.5t28.5 11.5q10 0 22.5 -7.5t23 -18t17.5 -23.5t7 -23v-4t-2 -4q-3 -12 -12 -21t-20 -17q-31 -25 -47.5 -37.5t-30.5 -23t-31.5 -22.5t-48.5 -35q-11 -8 -21.5 -13t-22.5 -5q-9 0 -19 4t-19 11t-14.5 16t-5.5 19z " />
<glyph unicode="&#xca;" horiz-adv-x="745" d="M80 1168q0 60 7 102t28 69t60.5 39t104.5 12t130.5 -1t131.5 -1q20 0 40 1.5t40 -3.5q12 -2 21 -6.5t9 -19.5q0 -36 -24 -53.5t-57 -23.5t-68.5 -5.5t-58.5 0.5h-130h-40t-40 -2q-6 -15 -8 -31t-2 -33q0 -109 5.5 -215t10.5 -215q62 5 123 12t123 16q9 0 16.5 1t15.5 1 q21 0 29.5 -11t8.5 -31q0 -14 -1.5 -26t-6.5 -24q-7 -20 -23 -29t-36 -12.5t-41.5 -3.5t-37.5 -1q-42 -2 -82.5 -3t-81.5 -3l3 -63l4.5 -94.5t6 -108.5t7.5 -105.5t9 -86.5t10 -50q11 -21 25 -27.5t37 -6.5q37 0 78 14.5t80 37t74.5 49.5t61.5 53q11 9 22 18.5t26 9.5t29 -9 t25 -22.5t17.5 -29.5t6.5 -29q0 -17 -13.5 -33t-32.5 -31t-39 -27.5t-33 -20.5q-34 -22 -67.5 -41t-69 -33t-73 -22t-78.5 -8l-16 -2q-33 0 -65.5 7.5t-60.5 23t-50 39.5t-34 58q-9 27 -14 64t-7.5 77t-4 78.5t-2.5 68.5q-15 306 -24 612q-2 35 -3 70t-1 70zM200 1508 q0 7 9.5 35.5t22 63t24 65.5t16.5 42q9 20 21.5 31t36.5 11q28 0 50 -22q18 -18 30 -41.5t24 -46.5q4 -8 16.5 -32.5t25 -51.5t22.5 -50t10 -28q0 -8 -6 -13t-14 -7.5t-17 -3t-15 -0.5q-9 0 -19.5 0.5t-18.5 5.5q-14 6 -19.5 16.5t-10.5 21.5q-12 32 -24 62t-26 60 q-14 -35 -28 -69t-28 -69q-3 -9 -6.5 -15.5t-11.5 -12.5q-2 -2 -10 -2t-17.5 4.5t-17.5 11.5t-13.5 16t-5.5 18z" />
<glyph unicode="&#xcb;" horiz-adv-x="745" d="M80 1168q0 60 7 102t28 69t60.5 39t104.5 12t130.5 -1t131.5 -1q20 0 40 1.5t40 -3.5q12 -2 21 -6.5t9 -19.5q0 -36 -24 -53.5t-57 -23.5t-68.5 -5.5t-58.5 0.5h-130h-40t-40 -2q-6 -15 -8 -31t-2 -33q0 -109 5.5 -215t10.5 -215q62 5 123 12t123 16q9 0 16.5 1t15.5 1 q21 0 29.5 -11t8.5 -31q0 -14 -1.5 -26t-6.5 -24q-7 -20 -23 -29t-36 -12.5t-41.5 -3.5t-37.5 -1q-42 -2 -82.5 -3t-81.5 -3l3 -63l4.5 -94.5t6 -108.5t7.5 -105.5t9 -86.5t10 -50q11 -21 25 -27.5t37 -6.5q37 0 78 14.5t80 37t74.5 49.5t61.5 53q11 9 22 18.5t26 9.5t29 -9 t25 -22.5t17.5 -29.5t6.5 -29q0 -17 -13.5 -33t-32.5 -31t-39 -27.5t-33 -20.5q-34 -22 -67.5 -41t-69 -33t-73 -22t-78.5 -8l-16 -2q-33 0 -65.5 7.5t-60.5 23t-50 39.5t-34 58q-9 27 -14 64t-7.5 77t-4 78.5t-2.5 68.5q-15 306 -24 612q-2 35 -3 70t-1 70zM132 1594 q0 10 7 15.5t17.5 8t21 2.5h18.5q10 0 23.5 -0.5t25.5 -4t20.5 -11t8.5 -20.5q0 -5 -0.5 -21.5t-1 -35.5t-1 -34.5t-1.5 -16.5q-8 -11 -20.5 -12.5t-23.5 -1.5q-31 0 -46 3t-22 12t-8.5 25t-5.5 42q-3 12 -7.5 24t-4.5 26zM392 1594q0 10 7 15.5t17.5 8t21 2.5h18.5 q10 0 23.5 -0.5t25.5 -4t20.5 -11t8.5 -20.5q0 -5 -0.5 -21.5t-1 -35.5t-1 -34.5t-1.5 -16.5q-8 -11 -20.5 -12.5t-23.5 -1.5q-31 0 -46 3t-22 12t-8.5 25t-5.5 42q-3 12 -7.5 24t-4.5 26z" />
<glyph unicode="&#xcc;" horiz-adv-x="664" d="M-7 1274q0 19 8 33.5t21.5 24t29.5 15.5t33 9q43 8 87.5 13.5l89 11t89 11.5t88.5 16q42 9 84 23.5t86 14.5q24 0 32 -17.5t8 -38.5q0 -17 -3.5 -32.5t-14.5 -29.5q-6 -8 -26.5 -15.5t-49 -13.5t-61 -11.5t-63 -10t-55.5 -7.5t-37 -4q11 -139 15.5 -278t7.5 -278l6 -278 t11 -278q57 9 115 17.5t117 8.5q17 0 32.5 -7.5t15.5 -28.5q0 -29 -15 -54.5t-41 -37.5q-8 -4 -39 -7.5t-67 -6.5t-68.5 -6t-45.5 -4q-3 -17 -16 -23.5t-28 -6.5q-17 0 -39 5t-39 11q-45 -6 -91 -13t-93 -7q-36 0 -36 34t19 52t46 27t58 12t55 7q-5 284 -10.5 564t-5.5 564 q-41 -3 -80 -5.5t-78 -2.5q-8 0 -17 0.5t-16.5 3t-13 8t-5.5 16.5zM17 1620v8q0 10 6.5 23t17 23.5t23 18t23.5 7.5q15 0 28 -11.5t24 -20.5l84 -86q7 -7 19.5 -16.5t24 -20.5t20 -23t8.5 -22t-5.5 -19t-14.5 -16t-19 -11t-19 -4q-12 0 -23.5 5t-20.5 13q-32 23 -47 34.5 t-26.5 21t-25.5 21.5t-45 37q-9 8 -18 17t-14 21z" />
<glyph unicode="&#xcd;" horiz-adv-x="660" d="M-10 1274q0 19 8 33.5t21.5 24t29.5 15.5t33 9q43 8 87.5 13.5l89 11t89 11.5t88.5 16q42 9 84 23.5t86 14.5q24 0 32 -17.5t8 -38.5q0 -17 -3.5 -32.5t-14.5 -29.5q-6 -8 -26.5 -15.5t-49 -13.5t-61 -11.5t-63 -10t-55.5 -7.5t-37 -4q11 -139 15.5 -278t7.5 -278l6 -278 t11 -278q57 9 115 17.5t117 8.5q17 0 32.5 -7.5t15.5 -28.5q0 -29 -15 -54.5t-41 -37.5q-8 -4 -39 -7.5t-67 -6.5t-68.5 -6t-45.5 -4q-3 -17 -16 -23.5t-28 -6.5q-17 0 -39 5t-39 11q-45 -6 -91 -13t-93 -7q-36 0 -36 34t19 52t46 27t58 12t55 7q-5 284 -10.5 564t-5.5 564 q-41 -3 -80 -5.5t-78 -2.5q-8 0 -17 0.5t-16.5 3t-13 8t-5.5 16.5zM229 1496q0 10 8.5 22t20 23t23.5 20.5t20 16.5l98 90q12 9 25.5 20.5t28.5 11.5q10 0 22.5 -7.5t23 -18t17.5 -23.5t7 -23v-4t-2 -4q-3 -12 -12 -21t-20 -17q-31 -25 -47.5 -37.5t-30.5 -23t-31.5 -22.5 t-48.5 -35q-11 -8 -21.5 -13t-22.5 -5q-9 0 -19 4t-19 11t-14.5 16t-5.5 19z" />
<glyph unicode="&#xce;" horiz-adv-x="664" d="M-7 1274q0 19 8 33.5t21.5 24t29.5 15.5t33 9q43 8 87.5 13.5l89 11t89 11.5t88.5 16q42 9 84 23.5t86 14.5q24 0 32 -17.5t8 -38.5q0 -17 -3.5 -32.5t-14.5 -29.5q-6 -8 -26.5 -15.5t-49 -13.5t-61 -11.5t-63 -10t-55.5 -7.5t-37 -4q11 -139 15.5 -278t7.5 -278l6 -278 t11 -278q57 9 115 17.5t117 8.5q17 0 32.5 -7.5t15.5 -28.5q0 -29 -15 -54.5t-41 -37.5q-8 -4 -39 -7.5t-67 -6.5t-68.5 -6t-45.5 -4q-3 -17 -16 -23.5t-28 -6.5q-17 0 -39 5t-39 11q-45 -6 -91 -13t-93 -7q-36 0 -36 34t19 52t46 27t58 12t55 7q-5 284 -10.5 564t-5.5 564 q-41 -3 -80 -5.5t-78 -2.5q-8 0 -17 0.5t-16.5 3t-13 8t-5.5 16.5zM109 1504q0 7 9.5 35.5t22 63t24 65.5t16.5 42q9 20 21.5 31t36.5 11q28 0 50 -22q18 -18 30 -41.5t24 -46.5q4 -8 16.5 -32.5t25 -51.5t22.5 -50t10 -28q0 -8 -6 -13t-14 -7.5t-17 -3t-15 -0.5 q-9 0 -19.5 0.5t-18.5 5.5q-14 6 -19.5 16.5t-10.5 21.5q-12 32 -24 62t-26 60q-14 -35 -28 -69t-28 -69q-3 -9 -6.5 -15.5t-11.5 -12.5q-2 -2 -10 -2t-17.5 4.5t-17.5 11.5t-13.5 16t-5.5 18z" />
<glyph unicode="&#xcf;" horiz-adv-x="664" d="M-7 1274q0 19 8 33.5t21.5 24t29.5 15.5t33 9q43 8 87.5 13.5l89 11t89 11.5t88.5 16q42 9 84 23.5t86 14.5q24 0 32 -17.5t8 -38.5q0 -17 -3.5 -32.5t-14.5 -29.5q-6 -8 -26.5 -15.5t-49 -13.5t-61 -11.5t-63 -10t-55.5 -7.5t-37 -4q11 -139 15.5 -278t7.5 -278l6 -278 t11 -278q57 9 115 17.5t117 8.5q17 0 32.5 -7.5t15.5 -28.5q0 -29 -15 -54.5t-41 -37.5q-8 -4 -39 -7.5t-67 -6.5t-68.5 -6t-45.5 -4q-3 -17 -16 -23.5t-28 -6.5q-17 0 -39 5t-39 11q-45 -6 -91 -13t-93 -7q-36 0 -36 34t19 52t46 27t58 12t55 7q-5 284 -10.5 564t-5.5 564 q-41 -3 -80 -5.5t-78 -2.5q-8 0 -17 0.5t-16.5 3t-13 8t-5.5 16.5zM41 1602q0 10 7 15.5t17.5 8t21 2.5h18.5q10 0 23.5 -0.5t25.5 -4t20.5 -11t8.5 -20.5q0 -5 -0.5 -21.5t-1 -35.5t-1 -34.5t-1.5 -16.5q-8 -11 -20.5 -12.5t-23.5 -1.5q-31 0 -46 3t-22 12t-8.5 25t-5.5 42 q-3 12 -7.5 24t-4.5 26zM301 1602q0 10 7 15.5t17.5 8t21 2.5h18.5q10 0 23.5 -0.5t25.5 -4t20.5 -11t8.5 -20.5q0 -5 -0.5 -21.5t-1 -35.5t-1 -34.5t-1.5 -16.5q-8 -11 -20.5 -12.5t-23.5 -1.5q-31 0 -46 3t-22 12t-8.5 25t-5.5 42q-3 12 -7.5 24t-4.5 26z" />
<glyph unicode="&#xd0;" horiz-adv-x="841" d="M12 662q0 14 6 26q10 27 21.5 39t26.5 16t34 2.5t44 -1.5q-2 59 -2 116v114q0 94 2 185t2 185q-11 0 -20.5 6t-9.5 18q0 16 8.5 29.5t21.5 23.5t28.5 15.5t29.5 5.5t26 -2.5t26 -5.5q133 -32 237 -97t175.5 -157.5t108.5 -210t37 -253.5q0 -108 -19.5 -210.5t-63 -192.5 t-114 -163t-173.5 -122q-26 -12 -57 -22t-64 -17t-65 -11t-60 -4q-11 0 -24.5 0.5t-25.5 4t-20 11.5t-8 22q0 12 5 25t13.5 25t19.5 21.5t22 14.5q-6 9 -10.5 48t-8.5 93.5t-6.5 117t-4 119.5t-3 100.5t-1.5 59.5q-21 -2 -42 -2h-42q-8 0 -17 0.5t-16.5 3t-12 8t-4.5 16.5z M284 1304q0 -281 12 -560q9 0 30.5 1t44 -0.5t40 -8t17.5 -20.5q0 -27 -13 -41.5t-32.5 -20.5t-41.5 -7t-41 -1q5 -92 9.5 -182.5t10.5 -181.5q3 -79 12 -154q94 31 158 96t102.5 148.5t55 178t16.5 183.5q0 100 -24 189t-71.5 162.5t-119 130t-165.5 92.5v-4z" />
<glyph unicode="&#xd1;" horiz-adv-x="797" d="M100 140q0 281 1 557t1 555v142q0 23 8.5 38.5t37.5 15.5q20 0 41 -5.5t37.5 -16.5t27 -28.5t10.5 -41.5q42 -80 70.5 -165t55.5 -171q39 -125 77 -250t77 -252q-6 189 -12.5 377.5t-25.5 376.5q-5 41 -11.5 80t-6.5 80q0 21 14 28.5t32 7.5q31 0 53 -5t37 -17t23 -32.5 t13 -51.5q6 -54 9.5 -108.5t6.5 -107.5q9 -134 13 -266t7 -266q3 -133 7.5 -265.5t4.5 -266.5q0 -18 -3.5 -35.5t-12 -31t-22.5 -21.5t-36 -8q-27 0 -43.5 11.5t-30.5 32.5q-19 27 -34 62.5t-27 73t-22.5 75t-20.5 69.5q-54 168 -100.5 335t-99.5 335q-5 -217 -7.5 -432 t-2.5 -432q0 -11 -1 -25t-5 -26.5t-12.5 -21.5t-23.5 -9q-51 0 -77.5 27.5t-26.5 78.5zM162 1652q0 50 35.5 75t88.5 25q39 0 70.5 -18.5t43.5 -53.5q2 -7 4 -23t6 -32.5t10.5 -29.5t17.5 -13q5 0 8 4.5t4.5 10t1.5 10.5v7q0 21 -4 42.5t-12 41.5q-3 9 -7.5 16.5t-4.5 15.5 q0 13 14.5 17.5t25.5 4.5q28 0 46 -12t28.5 -31t14 -42.5t3.5 -46.5q0 -50 -30 -80t-86 -30q-43 0 -67 12.5t-36.5 32t-16.5 41.5t-7.5 41.5t-9 32t-19.5 12.5q-30 0 -30 -26q0 -20 8 -41t17 -40t17 -33.5t8 -19.5q0 -12 -14.5 -16t-23.5 -4q-26 0 -41 10t-27 30 q-14 26 -25 53.5t-11 56.5z" />
<glyph unicode="&#xd2;" horiz-adv-x="788" d="M59 776q0 74 6.5 155t24.5 160.5t49 153.5t80 133q5 6 12.5 14t16.5 15.5t18.5 13t18.5 5.5t17.5 -5t14.5 -13q21 12 44.5 17t47.5 5q73 0 125.5 -34.5t87.5 -90.5t56 -127t32 -145t14 -143t3 -122q0 -42 -1.5 -97.5t-7 -118.5t-16 -129t-27.5 -129t-42 -119t-60 -98 t-81 -66.5t-105 -24.5t-107 27.5t-81 72.5q-27 36 -47.5 88.5t-36 114.5t-26.5 129t-17.5 132t-9.5 123.5t-3 102.5zM145 1676v8q0 10 6.5 23t17 23.5t23 18t23.5 7.5q15 0 28 -11.5t24 -20.5l84 -86q7 -7 19.5 -16.5t24 -20.5t20 -23t8.5 -22t-5.5 -19t-14.5 -16t-19 -11 t-19 -4q-12 0 -23.5 5t-20.5 13q-32 23 -47 34.5t-26.5 21t-25.5 21.5t-45 37q-9 8 -18 17t-14 21zM203 816q0 -21 2 -63t6 -96t11 -116t17 -123.5t23.5 -118t31.5 -100t40 -69.5t49 -26q15 0 27 8.5t23 17.5q30 27 52 71t37 97t25 111.5t15 115.5t7 108.5t2 90.5 q0 26 -1.5 79.5t-7.5 118t-16.5 132.5t-28.5 123.5t-44.5 91t-63.5 35.5q-15 0 -27 -14t-23 -36t-20 -48t-18 -50t-17 -43t-17 -27q-3 -3 -9.5 -3.5t-12.5 -0.5q-17 0 -32 6q-17 -68 -23.5 -135.5t-6.5 -136.5z" />
<glyph unicode="&#xd3;" horiz-adv-x="788" d="M59 776q0 74 6.5 155t24.5 160.5t49 153.5t80 133q5 6 12.5 14t16.5 15.5t18.5 13t18.5 5.5t17.5 -5t14.5 -13q21 12 44.5 17t47.5 5q73 0 125.5 -34.5t87.5 -90.5t56 -127t32 -145t14 -143t3 -122q0 -42 -1.5 -97.5t-7 -118.5t-16 -129t-27.5 -129t-42 -119t-60 -98 t-81 -66.5t-105 -24.5t-107 27.5t-81 72.5q-27 36 -47.5 88.5t-36 114.5t-26.5 129t-17.5 132t-9.5 123.5t-3 102.5zM203 816q0 -21 2 -63t6 -96t11 -116t17 -123.5t23.5 -118t31.5 -100t40 -69.5t49 -26q15 0 27 8.5t23 17.5q30 27 52 71t37 97t25 111.5t15 115.5t7 108.5 t2 90.5q0 26 -1.5 79.5t-7.5 118t-16.5 132.5t-28.5 123.5t-44.5 91t-63.5 35.5q-15 0 -27 -14t-23 -36t-20 -48t-18 -50t-17 -43t-17 -27q-3 -3 -9.5 -3.5t-12.5 -0.5q-17 0 -32 6q-17 -68 -23.5 -135.5t-6.5 -136.5zM339 1536q0 10 8.5 22t20 23t23.5 20.5t20 16.5l98 90 q12 9 25.5 20.5t28.5 11.5q10 0 22.5 -7.5t23 -18t17.5 -23.5t7 -23v-4t-2 -4q-3 -12 -12 -21t-20 -17q-31 -25 -47.5 -37.5t-30.5 -23t-31.5 -22.5t-48.5 -35q-11 -8 -21.5 -13t-22.5 -5q-9 0 -19 4t-19 11t-14.5 16t-5.5 19z" />
<glyph unicode="&#xd4;" horiz-adv-x="788" d="M59 776q0 74 6.5 155t24.5 160.5t49 153.5t80 133q5 6 12.5 14t16.5 15.5t18.5 13t18.5 5.5t17.5 -5t14.5 -13q21 12 44.5 17t47.5 5q73 0 125.5 -34.5t87.5 -90.5t56 -127t32 -145t14 -143t3 -122q0 -42 -1.5 -97.5t-7 -118.5t-16 -129t-27.5 -129t-42 -119t-60 -98 t-81 -66.5t-105 -24.5t-107 27.5t-81 72.5q-27 36 -47.5 88.5t-36 114.5t-26.5 129t-17.5 132t-9.5 123.5t-3 102.5zM203 816q0 -21 2 -63t6 -96t11 -116t17 -123.5t23.5 -118t31.5 -100t40 -69.5t49 -26q15 0 27 8.5t23 17.5q30 27 52 71t37 97t25 111.5t15 115.5t7 108.5 t2 90.5q0 26 -1.5 79.5t-7.5 118t-16.5 132.5t-28.5 123.5t-44.5 91t-63.5 35.5q-15 0 -27 -14t-23 -36t-20 -48t-18 -50t-17 -43t-17 -27q-3 -3 -9.5 -3.5t-12.5 -0.5q-17 0 -32 6q-17 -68 -23.5 -135.5t-6.5 -136.5zM225 1530q0 7 9.5 35.5t22 63t24 65.5t16.5 42 q9 20 21.5 31t36.5 11q28 0 50 -22q18 -18 30 -41.5t24 -46.5q4 -8 16.5 -32.5t25 -51.5t22.5 -50t10 -28q0 -8 -6 -13t-14 -7.5t-17 -3t-15 -0.5q-9 0 -19.5 0.5t-18.5 5.5q-14 6 -19.5 16.5t-10.5 21.5q-12 32 -24 62t-26 60q-14 -35 -28 -69t-28 -69q-3 -9 -6.5 -15.5 t-11.5 -12.5q-2 -2 -10 -2t-17.5 4.5t-17.5 11.5t-13.5 16t-5.5 18z" />
<glyph unicode="&#xd5;" horiz-adv-x="788" d="M59 776q0 74 6.5 155t24.5 160.5t49 153.5t80 133q5 6 12.5 14t16.5 15.5t18.5 13t18.5 5.5t17.5 -5t14.5 -13q21 12 44.5 17t47.5 5q73 0 125.5 -34.5t87.5 -90.5t56 -127t32 -145t14 -143t3 -122q0 -42 -1.5 -97.5t-7 -118.5t-16 -129t-27.5 -129t-42 -119t-60 -98 t-81 -66.5t-105 -24.5t-107 27.5t-81 72.5q-27 36 -47.5 88.5t-36 114.5t-26.5 129t-17.5 132t-9.5 123.5t-3 102.5zM165 1624q0 50 35.5 75t88.5 25q39 0 70.5 -18.5t43.5 -53.5q2 -7 4 -23t6 -32.5t10.5 -29.5t17.5 -13q5 0 8 4.5t4.5 10t1.5 10.5v7q0 21 -4 42.5 t-12 41.5q-3 9 -7.5 16.5t-4.5 15.5q0 13 14.5 17.5t25.5 4.5q28 0 46 -12t28.5 -31t14 -42.5t3.5 -46.5q0 -50 -30 -80t-86 -30q-43 0 -67 12.5t-36.5 32t-16.5 41.5t-7.5 41.5t-9 32t-19.5 12.5q-30 0 -30 -26q0 -20 8 -41t17 -40t17 -33.5t8 -19.5q0 -12 -14.5 -16 t-23.5 -4q-26 0 -41 10t-27 30q-14 26 -25 53.5t-11 56.5zM203 816q0 -21 2 -63t6 -96t11 -116t17 -123.5t23.5 -118t31.5 -100t40 -69.5t49 -26q15 0 27 8.5t23 17.5q30 27 52 71t37 97t25 111.5t15 115.5t7 108.5t2 90.5q0 26 -1.5 79.5t-7.5 118t-16.5 132.5t-28.5 123.5 t-44.5 91t-63.5 35.5q-15 0 -27 -14t-23 -36t-20 -48t-18 -50t-17 -43t-17 -27q-3 -3 -9.5 -3.5t-12.5 -0.5q-17 0 -32 6q-17 -68 -23.5 -135.5t-6.5 -136.5z" />
<glyph unicode="&#xd6;" horiz-adv-x="788" d="M59 776q0 74 6.5 155t24.5 160.5t49 153.5t80 133q5 6 12.5 14t16.5 15.5t18.5 13t18.5 5.5t17.5 -5t14.5 -13q21 12 44.5 17t47.5 5q73 0 125.5 -34.5t87.5 -90.5t56 -127t32 -145t14 -143t3 -122q0 -42 -1.5 -97.5t-7 -118.5t-16 -129t-27.5 -129t-42 -119t-60 -98 t-81 -66.5t-105 -24.5t-107 27.5t-81 72.5q-27 36 -47.5 88.5t-36 114.5t-26.5 129t-17.5 132t-9.5 123.5t-3 102.5zM187 1620q0 10 7 15.5t17.5 8t21 2.5h18.5q10 0 23.5 -0.5t25.5 -4t20.5 -11t8.5 -20.5q0 -5 -0.5 -21.5t-1 -35.5t-1 -34.5t-1.5 -16.5 q-8 -11 -20.5 -12.5t-23.5 -1.5q-31 0 -46 3t-22 12t-8.5 25t-5.5 42q-3 12 -7.5 24t-4.5 26zM203 816q0 -21 2 -63t6 -96t11 -116t17 -123.5t23.5 -118t31.5 -100t40 -69.5t49 -26q15 0 27 8.5t23 17.5q30 27 52 71t37 97t25 111.5t15 115.5t7 108.5t2 90.5q0 26 -1.5 79.5 t-7.5 118t-16.5 132.5t-28.5 123.5t-44.5 91t-63.5 35.5q-15 0 -27 -14t-23 -36t-20 -48t-18 -50t-17 -43t-17 -27q-3 -3 -9.5 -3.5t-12.5 -0.5q-17 0 -32 6q-17 -68 -23.5 -135.5t-6.5 -136.5zM447 1620q0 10 7 15.5t17.5 8t21 2.5h18.5q10 0 23.5 -0.5t25.5 -4t20.5 -11 t8.5 -20.5q0 -5 -0.5 -21.5t-1 -35.5t-1 -34.5t-1.5 -16.5q-8 -11 -20.5 -12.5t-23.5 -1.5q-31 0 -46 3t-22 12t-8.5 25t-5.5 42q-3 12 -7.5 24t-4.5 26z" />
<glyph unicode="&#xd7;" horiz-adv-x="513" d="M45 934q0 8 5.5 13t13.5 8t16.5 4t14.5 1q23 0 41 -6t33 -24q21 -24 38.5 -54.5t35.5 -59.5l52 102q4 8 9.5 21t13 25t16.5 21t21 9q10 0 21.5 -6t21 -15t15.5 -20t6 -21q0 -7 -6.5 -24.5t-16.5 -41.5t-22 -50.5t-23 -50.5t-20 -43t-12 -26q6 -10 20.5 -33.5t32.5 -53.5 t38 -63.5t36 -62.5t26.5 -51t10.5 -28q0 -11 -7.5 -17t-18 -9t-22 -3.5t-18.5 -0.5h-14q-23 1 -37 8t-23.5 18.5t-16.5 27t-17 32.5q-14 27 -27.5 52.5t-28.5 51.5q-15 -33 -31 -65t-33 -65q-8 -17 -15.5 -34t-24.5 -26q-3 -3 -7 -3.5t-7 -0.5q-11 0 -25.5 6.5t-27 17 t-21 23.5t-8.5 25q0 20 11.5 38.5t20.5 35.5q24 44 47.5 88.5t46.5 89.5q-4 7 -15.5 26.5t-26.5 45t-31 53t-29.5 52t-22.5 41.5t-9 22z" />
<glyph unicode="&#xd8;" horiz-adv-x="792" d="M59 776q0 74 6.5 155t24.5 160.5t49 153.5t80 133q5 6 12.5 14t16.5 15.5t18.5 13t18.5 5.5t17.5 -5t14.5 -13q21 12 44.5 17t47.5 5q31 0 58 -6q3 12 6 18q6 11 12 15.5t18 4.5q16 0 32.5 -6.5t30 -17.5t21.5 -26t8 -32q0 -9 -1 -16.5t-1 -15.5q30 -36 52 -82t37 -97.5 t24 -106t13.5 -107t6 -100.5t1.5 -87q0 -42 -1.5 -97.5t-7 -118.5t-16 -129t-27.5 -129t-42 -119t-60 -98t-81 -66.5t-105 -24.5q-39 0 -72 12q-6 -15 -16 -25.5t-28 -10.5q-14 0 -33.5 5.5t-37 15t-29.5 23t-12 30.5q0 6 1 12t1 12q3 17 7 32t7 32q-22 40 -39 93t-30 111.5 t-22 120.5t-14.5 121t-8 112t-2.5 94zM203 816q0 -22 2 -64.5t6.5 -98t11.5 -118.5t18 -125l184 824q2 11 5.5 27.5t6.5 36.5q-12 6 -28 6q-15 0 -27 -14t-23 -36t-20 -48t-18 -50t-17 -43t-17 -27q-3 -3 -9.5 -3.5t-12.5 -0.5q-17 0 -32 6q-17 -68 -23.5 -135.5 t-6.5 -136.5zM337 128q21 -24 46 -24q15 0 27 8.5t23 17.5q30 27 52 71t37 97t25 111.5t15 115.5t7 108.5t2 90.5q0 22 -1 62.5t-4.5 91t-10 107t-16.5 109.5q-24 -112 -46 -222t-46 -222q-27 -131 -55.5 -261t-54.5 -261z" />
<glyph unicode="&#xd9;" horiz-adv-x="833" d="M89 1022v46t0.5 66.5t1.5 75.5t3 74.5t5 62.5t8 39t11.5 17t20.5 5q45 0 71.5 -27.5t26.5 -72.5q0 -66 -3 -132t-3 -132q0 -29 0.5 -85t3.5 -127.5t9 -153.5t16.5 -162.5t26.5 -155t38.5 -131.5t52.5 -91t69 -34q37 0 64.5 29t46 74.5t30 101.5t17.5 110.5t8 101t2 73.5 q0 55 -2.5 122.5t-7 140.5t-12.5 149t-19 147.5t-25.5 136.5t-33.5 116q-3 9 -9.5 23t-6.5 23q0 16 7.5 24t18.5 11.5t24 4t24 0.5q24 0 39.5 -2t36.5 -14q14 -8 26.5 -44t23.5 -91t20.5 -124.5t17.5 -143t14 -146.5t10 -135t6 -109t2 -69q0 -54 -3.5 -121t-14.5 -137 t-32 -136.5t-57 -118.5t-88.5 -83.5t-126.5 -31.5q-41 0 -80 12t-72 36q-52 38 -87.5 109.5t-58.5 161t-35 190t-17.5 197.5t-6.5 183t-1 147zM111 1664v8q0 10 6.5 23t17 23.5t23 18t23.5 7.5q15 0 28 -11.5t24 -20.5l84 -86q7 -7 19.5 -16.5t24 -20.5t20 -23t8.5 -22 t-5.5 -19t-14.5 -16t-19 -11t-19 -4q-12 0 -23.5 5t-20.5 13q-32 23 -47 34.5t-26.5 21t-25.5 21.5t-45 37q-9 8 -18 17t-14 21z" />
<glyph unicode="&#xda;" horiz-adv-x="833" d="M89 1022v46t0.5 66.5t1.5 75.5t3 74.5t5 62.5t8 39t11.5 17t20.5 5q45 0 71.5 -27.5t26.5 -72.5q0 -66 -3 -132t-3 -132q0 -29 0.5 -85t3.5 -127.5t9 -153.5t16.5 -162.5t26.5 -155t38.5 -131.5t52.5 -91t69 -34q37 0 64.5 29t46 74.5t30 101.5t17.5 110.5t8 101t2 73.5 q0 55 -2.5 122.5t-7 140.5t-12.5 149t-19 147.5t-25.5 136.5t-33.5 116q-3 9 -9.5 23t-6.5 23q0 16 7.5 24t18.5 11.5t24 4t24 0.5q24 0 39.5 -2t36.5 -14q14 -8 26.5 -44t23.5 -91t20.5 -124.5t17.5 -143t14 -146.5t10 -135t6 -109t2 -69q0 -54 -3.5 -121t-14.5 -137 t-32 -136.5t-57 -118.5t-88.5 -83.5t-126.5 -31.5q-41 0 -80 12t-72 36q-52 38 -87.5 109.5t-58.5 161t-35 190t-17.5 197.5t-6.5 183t-1 147zM321 1552q0 10 8.5 22t20 23t23.5 20.5t20 16.5l98 90q12 9 25.5 20.5t28.5 11.5q10 0 22.5 -7.5t23 -18t17.5 -23.5t7 -23v-4 t-2 -4q-3 -12 -12 -21t-20 -17q-31 -25 -47.5 -37.5t-30.5 -23t-31.5 -22.5t-48.5 -35q-11 -8 -21.5 -13t-22.5 -5q-9 0 -19 4t-19 11t-14.5 16t-5.5 19z" />
<glyph unicode="&#xdb;" horiz-adv-x="833" d="M89 1022v46t0.5 66.5t1.5 75.5t3 74.5t5 62.5t8 39t11.5 17t20.5 5q45 0 71.5 -27.5t26.5 -72.5q0 -66 -3 -132t-3 -132q0 -29 0.5 -85t3.5 -127.5t9 -153.5t16.5 -162.5t26.5 -155t38.5 -131.5t52.5 -91t69 -34q37 0 64.5 29t46 74.5t30 101.5t17.5 110.5t8 101t2 73.5 q0 55 -2.5 122.5t-7 140.5t-12.5 149t-19 147.5t-25.5 136.5t-33.5 116q-3 9 -9.5 23t-6.5 23q0 16 7.5 24t18.5 11.5t24 4t24 0.5q24 0 39.5 -2t36.5 -14q14 -8 26.5 -44t23.5 -91t20.5 -124.5t17.5 -143t14 -146.5t10 -135t6 -109t2 -69q0 -54 -3.5 -121t-14.5 -137 t-32 -136.5t-57 -118.5t-88.5 -83.5t-126.5 -31.5q-41 0 -80 12t-72 36q-52 38 -87.5 109.5t-58.5 161t-35 190t-17.5 197.5t-6.5 183t-1 147zM201 1576q0 7 9.5 35.5t22 63t24 65.5t16.5 42q9 20 21.5 31t36.5 11q28 0 50 -22q18 -18 30 -41.5t24 -46.5q4 -8 16.5 -32.5 t25 -51.5t22.5 -50t10 -28q0 -8 -6 -13t-14 -7.5t-17 -3t-15 -0.5q-9 0 -19.5 0.5t-18.5 5.5q-14 6 -19.5 16.5t-10.5 21.5q-12 32 -24 62t-26 60q-14 -35 -28 -69t-28 -69q-3 -9 -6.5 -15.5t-11.5 -12.5q-2 -2 -10 -2t-17.5 4.5t-17.5 11.5t-13.5 16t-5.5 18z" />
<glyph unicode="&#xdc;" horiz-adv-x="833" d="M89 1022v46t0.5 66.5t1.5 75.5t3 74.5t5 62.5t8 39t11.5 17t20.5 5q45 0 71.5 -27.5t26.5 -72.5q0 -66 -3 -132t-3 -132q0 -29 0.5 -85t3.5 -127.5t9 -153.5t16.5 -162.5t26.5 -155t38.5 -131.5t52.5 -91t69 -34q37 0 64.5 29t46 74.5t30 101.5t17.5 110.5t8 101t2 73.5 q0 55 -2.5 122.5t-7 140.5t-12.5 149t-19 147.5t-25.5 136.5t-33.5 116q-3 9 -9.5 23t-6.5 23q0 16 7.5 24t18.5 11.5t24 4t24 0.5q24 0 39.5 -2t36.5 -14q14 -8 26.5 -44t23.5 -91t20.5 -124.5t17.5 -143t14 -146.5t10 -135t6 -109t2 -69q0 -54 -3.5 -121t-14.5 -137 t-32 -136.5t-57 -118.5t-88.5 -83.5t-126.5 -31.5q-41 0 -80 12t-72 36q-52 38 -87.5 109.5t-58.5 161t-35 190t-17.5 197.5t-6.5 183t-1 147zM155 1690q0 10 7 15.5t17.5 8t21 2.5h18.5q10 0 23.5 -0.5t25.5 -4t20.5 -11t8.5 -20.5q0 -5 -0.5 -21.5t-1 -35.5t-1 -34.5 t-1.5 -16.5q-8 -11 -20.5 -12.5t-23.5 -1.5q-31 0 -46 3t-22 12t-8.5 25t-5.5 42q-3 12 -7.5 24t-4.5 26zM415 1690q0 10 7 15.5t17.5 8t21 2.5h18.5q10 0 23.5 -0.5t25.5 -4t20.5 -11t8.5 -20.5q0 -5 -0.5 -21.5t-1 -35.5t-1 -34.5t-1.5 -16.5q-8 -11 -20.5 -12.5 t-23.5 -1.5q-31 0 -46 3t-22 12t-8.5 25t-5.5 42q-3 12 -7.5 24t-4.5 26z" />
<glyph unicode="&#xdd;" horiz-adv-x="585" d="M-15 1390q0 11 6 18t15 10.5t19 4.5t18 1q26 0 48.5 -2.5t45.5 -17.5q6 -4 19 -37t29 -82t33.5 -106t32.5 -110t27 -94t17 -57q33 128 66.5 254t57.5 256q2 12 4.5 26.5t7 26.5t13.5 20.5t25 8.5q13 0 32.5 -6t37.5 -16.5t31 -24t13 -29.5q0 -21 -13 -76.5t-33 -129 t-45 -156t-49 -158t-44 -134.5t-30 -86q11 -89 15 -177t9 -177q5 -75 9.5 -151t4.5 -151q0 -23 -11.5 -35.5t-34.5 -12.5q-9 0 -24 2.5t-30.5 7t-29 10.5t-18.5 12q-12 14 -15 26.5t-3 29.5q0 155 -3 308t-3 308l-8 8q-6 9 -13.5 25.5t-15 34.5t-13.5 35t-10 27 q-33 92 -62 184t-62 184q-5 16 -16 43.5t-22 57.5t-19.5 56.5t-8.5 40.5zM227 1542q0 10 8.5 22t20 23t23.5 20.5t20 16.5l98 90q12 9 25.5 20.5t28.5 11.5q10 0 22.5 -7.5t23 -18t17.5 -23.5t7 -23v-4t-2 -4q-3 -12 -12 -21t-20 -17q-31 -25 -47.5 -37.5t-30.5 -23 t-31.5 -22.5t-48.5 -35q-11 -8 -21.5 -13t-22.5 -5q-9 0 -19 4t-19 11t-14.5 16t-5.5 19z" />
<glyph unicode="&#xde;" horiz-adv-x="713" d="M54 1128q0 30 15 43.5t41 24.5v172q0 11 1 23.5t5 23t12 17t22 6.5q23 0 43.5 -7t34.5 -25q7 -11 8.5 -38.5t1.5 -56.5t-1.5 -52.5t-0.5 -24.5q35 6 68 11t68 5q79 0 141 -26.5t105 -74t65.5 -112.5t22.5 -141q0 -99 -31.5 -199t-88 -187t-135.5 -155t-173 -103l36 -150 q3 -15 6.5 -31t3.5 -33q0 -26 -13 -35t-37 -9q-17 0 -41 4t-41 12q-20 11 -26.5 22.5t-9.5 31.5q-8 42 -13.5 72t-9.5 50q-4 23 -7 38q-20 2 -33 10.5t-13 29.5q0 20 11.5 42t26.5 34q-9 186 -7.5 369t-0.5 369q-5 -2 -9 -3t-9 -1q-11 0 -18 5.5t-11.5 13.5t-6.5 17.5 t-2 17.5zM252 1118q0 -183 2.5 -363t13.5 -361q64 33 117 92t91 130.5t59 149t21 148.5q0 46 -12 86.5t-36 70t-61 46.5t-87 17q-27 0 -54.5 -4t-53.5 -12z" />
<glyph unicode="&#xdf;" horiz-adv-x="686" d="M-17 535q0 10 1 23.5t5.5 26t12 23t21.5 13.5h-1q4 2 15 2h26h33.5t24.5 -1q0 89 3.5 176.5t14.5 174.5q7 54 20.5 114.5t40.5 111.5t71.5 84.5t113.5 33.5q55 0 99 -20.5t75 -55.5t48 -82t17 -100q0 -62 -18 -124.5t-50 -115.5q-17 -27 -41 -59q-29 -38 -53 -79.5 t-24 -86.5q0 -30 11 -57t28.5 -52t40.5 -48t47 -45q25 -24 48.5 -48t42 -49.5t30 -53.5t11.5 -60q0 -45 -21.5 -81.5t-55.5 -62t-75.5 -39.5t-81.5 -14q-55 0 -106 18.5t-96 48.5q1 -11 1 -21v-21q0 -20 -6.5 -34.5t-32.5 -14.5q-43 0 -64 23.5t-26 65.5q-9 103 -10.5 207 t-1.5 208v45q-26 -3 -54 -5t-55 -2q-17 0 -23 8.5t-6 24.5zM252 574q0 -112 0.5 -224t4.5 -224q14 8 33 14t34 6q16 0 32.5 -6.5t31.5 -14.5q16 -8 35.5 -16t43.5 -8q15 0 31 7t29 18t21.5 26t8.5 31q0 15 -8 30.5t-21 32t-30.5 33.5t-35.5 35q-28 27 -57 57t-52.5 64 t-38.5 72.5t-15 82.5q0 33 7.5 62t20 54.5t28 49.5t31.5 48q18 26 36 53.5t32 59t22.5 68t8.5 80.5q0 21 -5.5 46t-17.5 46t-31 35t-46 14q-25 0 -44.5 -23t-33.5 -62t-23.5 -89.5t-15.5 -105t-9.5 -109.5t-5 -103t-1.5 -85v-55z" />
<glyph unicode="&#xe0;" horiz-adv-x="489" d="M13 165q0 68 13.5 147.5t37.5 159t56 153t70 128.5v-1l6 9q11 15 25.5 32.5t34.5 17.5q19 0 33 -16.5t20 -34.5q26 -5 42 -12.5t25 -18.5t12 -25.5t3 -31.5v-15t-1 -16t-1 -19v-20q0 -10 3.5 -26t7.5 -33l7 -37q5 -29 8.5 -66t8.5 -74q4 -38 8 -73.5t8 -65.5l24 -148 l3 -17q2 -13 4.5 -24t2.5 -25q0 -20 -10 -27.5t-28 -7.5q-47 0 -67.5 25t-30.5 66q-3 14 -6 28.5t-5 28.5q-2 13 -4 18t-4 19q-12 -29 -29.5 -60.5t-40.5 -58t-51.5 -43.5t-62.5 -17q-36 0 -60 17.5t-37.5 44t-19 58.5t-5.5 61zM21 1051v8q0 10 6.5 23t17 23.5t23 18 t23.5 7.5q15 0 28 -11.5t24 -20.5l84 -86q7 -7 19.5 -16.5t24 -20.5t20 -23t8.5 -22t-5.5 -19t-14.5 -16t-19 -11t-19 -4q-12 0 -23.5 5t-20.5 13q-32 23 -47 34.5t-26.5 21t-25.5 21.5t-45 37q-9 8 -18 17t-14 21zM150 140q0 -4 1 -8v-1q24 37 41.5 97.5t29.5 127t17.5 129 t5.5 103.5q0 2 -1 6.5t-2 9.5q-23 -49 -40.5 -106.5t-29 -117t-17 -119t-5.5 -112.5v-9z" />
<glyph unicode="&#xe1;" horiz-adv-x="489" d="M13 165q0 68 13.5 147.5t37.5 159t56 153t70 128.5v-1l6 9q11 15 25.5 32.5t34.5 17.5q19 0 33 -16.5t20 -34.5q26 -5 42 -12.5t25 -18.5t12 -25.5t3 -31.5v-15t-1 -16t-1 -19v-20q0 -10 3.5 -26t7.5 -33l7 -37q5 -29 8.5 -66t8.5 -74q4 -38 8 -73.5t8 -65.5l24 -148 l3 -17q2 -13 4.5 -24t2.5 -25q0 -20 -10 -27.5t-28 -7.5q-47 0 -67.5 25t-30.5 66q-3 14 -6 28.5t-5 28.5q-2 13 -4 18t-4 19q-12 -29 -29.5 -60.5t-40.5 -58t-51.5 -43.5t-62.5 -17q-36 0 -60 17.5t-37.5 44t-19 58.5t-5.5 61zM150 140q0 -4 1 -8v-1q24 37 41.5 97.5 t29.5 127t17.5 129t5.5 103.5q0 2 -1 6.5t-2 9.5q-23 -49 -40.5 -106.5t-29 -117t-17 -119t-5.5 -112.5v-9zM231 941q0 10 8.5 22t20 23t23.5 20.5t20 16.5l98 90q12 9 25.5 20.5t28.5 11.5q10 0 22.5 -7.5t23 -18t17.5 -23.5t7 -23v-4t-2 -4q-3 -12 -12 -21t-20 -17 q-31 -25 -47.5 -37.5t-30.5 -23t-31.5 -22.5t-48.5 -35q-11 -8 -21.5 -13t-22.5 -5q-9 0 -19 4t-19 11t-14.5 16t-5.5 19z" />
<glyph unicode="&#xe2;" horiz-adv-x="489" d="M13 165q0 68 13.5 147.5t37.5 159t56 153t70 128.5v-1l6 9q11 15 25.5 32.5t34.5 17.5q19 0 33 -16.5t20 -34.5q26 -5 42 -12.5t25 -18.5t12 -25.5t3 -31.5v-15t-1 -16t-1 -19v-20q0 -10 3.5 -26t7.5 -33l7 -37q5 -29 8.5 -66t8.5 -74q4 -38 8 -73.5t8 -65.5l24 -148 l3 -17q2 -13 4.5 -24t2.5 -25q0 -20 -10 -27.5t-28 -7.5q-47 0 -67.5 25t-30.5 66q-3 14 -6 28.5t-5 28.5q-2 13 -4 18t-4 19q-12 -29 -29.5 -60.5t-40.5 -58t-51.5 -43.5t-62.5 -17q-36 0 -60 17.5t-37.5 44t-19 58.5t-5.5 61zM87 891q0 7 9.5 35.5t22 63t24 65.5t16.5 42 q9 20 21.5 31t36.5 11q28 0 50 -22q18 -18 30 -41.5t24 -46.5q4 -8 16.5 -32.5t25 -51.5t22.5 -50t10 -28q0 -8 -6 -13t-14 -7.5t-17 -3t-15 -0.5q-9 0 -19.5 0.5t-18.5 5.5q-14 6 -19.5 16.5t-10.5 21.5q-12 32 -24 62t-26 60q-14 -35 -28 -69t-28 -69q-3 -9 -6.5 -15.5 t-11.5 -12.5q-2 -2 -10 -2t-17.5 4.5t-17.5 11.5t-13.5 16t-5.5 18zM150 140q0 -4 1 -8v-1q24 37 41.5 97.5t29.5 127t17.5 129t5.5 103.5q0 2 -1 6.5t-2 9.5q-23 -49 -40.5 -106.5t-29 -117t-17 -119t-5.5 -112.5v-9z" />
<glyph unicode="&#xe3;" horiz-adv-x="489" d="M13 165q0 68 13.5 147.5t37.5 159t56 153t70 128.5v-1l6 9q11 15 25.5 32.5t34.5 17.5q19 0 33 -16.5t20 -34.5q26 -5 42 -12.5t25 -18.5t12 -25.5t3 -31.5v-15t-1 -16t-1 -19v-20q0 -10 3.5 -26t7.5 -33l7 -37q5 -29 8.5 -66t8.5 -74q4 -38 8 -73.5t8 -65.5l24 -148 l3 -17q2 -13 4.5 -24t2.5 -25q0 -20 -10 -27.5t-28 -7.5q-47 0 -67.5 25t-30.5 66q-3 14 -6 28.5t-5 28.5q-2 13 -4 18t-4 19q-12 -29 -29.5 -60.5t-40.5 -58t-51.5 -43.5t-62.5 -17q-36 0 -60 17.5t-37.5 44t-19 58.5t-5.5 61zM47 997q0 50 35.5 75t88.5 25 q39 0 70.5 -18.5t43.5 -53.5q2 -7 4 -23t6 -32.5t10.5 -29.5t17.5 -13q5 0 8 4.5t4.5 10t1.5 10.5v7q0 21 -4 42.5t-12 41.5q-3 9 -7.5 16.5t-4.5 15.5q0 13 14.5 17.5t25.5 4.5q28 0 46 -12t28.5 -31t14 -42.5t3.5 -46.5q0 -50 -30 -80t-86 -30q-43 0 -67 12.5t-36.5 32 t-16.5 41.5t-7.5 41.5t-9 32t-19.5 12.5q-30 0 -30 -26q0 -20 8 -41t17 -40t17 -33.5t8 -19.5q0 -12 -14.5 -16t-23.5 -4q-26 0 -41 10t-27 30q-14 26 -25 53.5t-11 56.5zM150 140q0 -4 1 -8v-1q24 37 41.5 97.5t29.5 127t17.5 129t5.5 103.5q0 2 -1 6.5t-2 9.5 q-23 -49 -40.5 -106.5t-29 -117t-17 -119t-5.5 -112.5v-9z" />
<glyph unicode="&#xe4;" horiz-adv-x="489" d="M13 165q0 68 13.5 147.5t37.5 159t56 153t70 128.5v-1l6 9q11 15 25.5 32.5t34.5 17.5q19 0 33 -16.5t20 -34.5q26 -5 42 -12.5t25 -18.5t12 -25.5t3 -31.5v-15t-1 -16t-1 -19v-20q0 -10 3.5 -26t7.5 -33l7 -37q5 -29 8.5 -66t8.5 -74q4 -38 8 -73.5t8 -65.5l24 -148 l3 -17q2 -13 4.5 -24t2.5 -25q0 -20 -10 -27.5t-28 -7.5q-47 0 -67.5 25t-30.5 66q-3 14 -6 28.5t-5 28.5q-2 13 -4 18t-4 19q-12 -29 -29.5 -60.5t-40.5 -58t-51.5 -43.5t-62.5 -17q-36 0 -60 17.5t-37.5 44t-19 58.5t-5.5 61zM43 989q0 10 7 15.5t17.5 8t21 2.5h18.5 q10 0 23.5 -0.5t25.5 -4t20.5 -11t8.5 -20.5q0 -5 -0.5 -21.5t-1 -35.5t-1 -34.5t-1.5 -16.5q-8 -11 -20.5 -12.5t-23.5 -1.5q-31 0 -46 3t-22 12t-8.5 25t-5.5 42q-3 12 -7.5 24t-4.5 26zM150 140q0 -4 1 -8v-1q24 37 41.5 97.5t29.5 127t17.5 129t5.5 103.5q0 2 -1 6.5 t-2 9.5q-23 -49 -40.5 -106.5t-29 -117t-17 -119t-5.5 -112.5v-9zM303 989q0 10 7 15.5t17.5 8t21 2.5h18.5q10 0 23.5 -0.5t25.5 -4t20.5 -11t8.5 -20.5q0 -5 -0.5 -21.5t-1 -35.5t-1 -34.5t-1.5 -16.5q-8 -11 -20.5 -12.5t-23.5 -1.5q-31 0 -46 3t-22 12t-8.5 25t-5.5 42 q-3 12 -7.5 24t-4.5 26z" />
<glyph unicode="&#xe5;" horiz-adv-x="489" d="M13 165q0 68 13.5 147.5t37.5 159t56 153t70 128.5v-1l6 9q11 15 25.5 32.5t34.5 17.5q19 0 33 -16.5t20 -34.5q26 -5 42 -12.5t25 -18.5t12 -25.5t3 -31.5v-15t-1 -16t-1 -19v-20q0 -10 3.5 -26t7.5 -33l7 -37q5 -29 8.5 -66t8.5 -74q4 -38 8 -73.5t8 -65.5l24 -148 l3 -17q2 -13 4.5 -24t2.5 -25q0 -20 -10 -27.5t-28 -7.5q-47 0 -67.5 25t-30.5 66q-3 14 -6 28.5t-5 28.5q-2 13 -4 18t-4 19q-12 -29 -29.5 -60.5t-40.5 -58t-51.5 -43.5t-62.5 -17q-36 0 -60 17.5t-37.5 44t-19 58.5t-5.5 61zM115 965q0 27 13 47.5t34 34.5t46 21t49 7 q27 0 52.5 -7.5t45.5 -22.5t32 -37t12 -51q0 -26 -13.5 -45t-34.5 -32.5t-45.5 -20t-46.5 -6.5q-24 0 -49.5 7t-46.5 21t-34.5 35t-13.5 49zM150 140q0 -4 1 -8v-1q24 37 41.5 97.5t29.5 127t17.5 129t5.5 103.5q0 2 -1 6.5t-2 9.5q-23 -49 -40.5 -106.5t-29 -117t-17 -119 t-5.5 -112.5v-9zM211 967q0 -17 14.5 -25.5t29.5 -8.5q19 0 26.5 5.5t10.5 13t4.5 16t8.5 13.5q-11 12 -19 17t-25 5q-15 0 -32.5 -9t-17.5 -27z" />
<glyph unicode="&#xe6;" horiz-adv-x="736" d="M11 165q0 68 14 141t38 145t56 139.5t69 123.5q5 9 12 19t15.5 18.5t18 14t19.5 5.5q21 0 35 -15.5t19 -33.5q16 -3 32.5 -9.5t29.5 -17.5q22 31 52 49.5t70 18.5q32 0 57.5 -13t43 -34.5t27 -49.5t9.5 -58q0 -39 -18 -85t-47 -88.5t-64.5 -77.5t-70.5 -52 q2 -20 8.5 -54.5t17 -68t25.5 -58.5t33 -25q12 0 27 11.5t28.5 28t24 33.5t15.5 28q2 4 4 6l1 1q7 13 13.5 24t18.5 19h-1q4 4 8 4.5t10 0.5q11 0 26.5 -7t30 -17.5t25 -23t10.5 -24.5q0 -3 -0.5 -6t-2.5 -8h1q-11 -34 -36.5 -67.5t-59 -60t-72 -43t-75.5 -16.5 q-40 0 -71 14.5t-54.5 39t-40 56t-26.5 66.5q-12 -28 -29.5 -59t-40 -56.5t-51 -42t-62.5 -16.5q-36 0 -60 17.5t-37.5 44t-19 58.5t-5.5 61zM148 140q0 -4 1 -8v-2q24 35 41.5 89.5t29.5 113.5t17.5 116.5t5.5 99.5q0 2 -1 6.5t-2 9.5q-46 -97 -69 -202t-23 -214v-9z M430 455q26 31 46 70.5t20 78.5q0 10 -1 21t-5 20q-14 -17 -24 -40t-16.5 -49t-11.5 -52t-8 -49z" />
<glyph unicode="&#xe7;" horiz-adv-x="440" d="M29 304q0 37 3 87.5t11.5 104.5t25 107t42.5 94.5t63.5 67.5t89.5 26q11 0 32 -4t41.5 -11.5t36 -20t15.5 -28.5q0 -15 -13.5 -23t-32 -11.5t-38 -4t-31.5 -0.5h-18q-28 -25 -46 -73.5t-28 -103.5t-14 -108.5t-4 -87.5q0 -48 7.5 -94.5t30.5 -87.5q5 -9 14.5 -20.5 t21.5 -11.5q9 0 18.5 15t17.5 35t13 39t7 28q1 4 1 9v10q0 9 0.5 17.5t2.5 13.5q7 17 18.5 23t28.5 6q15 0 32 -4t32 -13t25 -23t10 -33q0 -21 -7 -43t-16 -42q-10 -23 -22.5 -45.5t-28 -42t-35 -34.5t-43.5 -22q-2 -14 -5.5 -27.5t-6.5 -21.5q22 -4 43.5 -13t38.5 -23 t28 -32.5t11 -42.5q0 -29 -14.5 -52t-36.5 -39.5t-49 -25.5t-51 -9q-30 0 -59.5 9.5t-57.5 23.5v-1q-6 2 -16.5 7.5t-20 12.5t-16.5 14.5t-7 15.5q0 9 9 16.5t21 12.5t24 7.5t18 2.5q14 0 26 -4t24 -9t24 -9t23 -4q12 0 26 7.5t14 21.5q0 6 -6.5 8.5t-13.5 2.5 q-5 0 -10 -0.5t-10 -1.5t-10.5 -1.5t-11.5 -0.5q-32 0 -55 19.5t-23 52.5q0 10 5 37.5t12 54.5q-38 18 -63 51.5t-40 75t-21 87t-6 86.5z" />
<glyph unicode="&#xe8;" horiz-adv-x="433" d="M-4 1001v8q0 10 6.5 23t17 23.5t23 18t23.5 7.5q15 0 28 -11.5t24 -20.5l84 -86q7 -7 19.5 -16.5t24 -20.5t20 -23t8.5 -22t-5.5 -19t-14.5 -16t-19 -11t-19 -4q-12 0 -23.5 5t-20.5 13q-32 23 -47 34.5t-26.5 21t-25.5 21.5t-45 37q-9 8 -18 17t-14 21zM30 387 q0 30 3.5 71t12 85t23.5 87t37.5 77t54 55t72.5 21q32 0 57.5 -13t43 -34.5t27 -49.5t9.5 -58q0 -39 -18 -85t-46.5 -89t-64 -77.5t-70.5 -52.5q2 -18 8 -52.5t16.5 -68.5t25 -59t34.5 -25q10 0 17.5 6t13.5 16t10.5 22t8.5 23l6 14q2 3 2.5 4l1.5 3q7 13 13.5 24t18.5 19 h-1q4 4 8.5 4.5t8.5 0.5q11 0 24 -7t24 -17.5t18 -23t7 -24.5q0 -30 -16.5 -62t-42.5 -58.5t-59.5 -43.5t-66.5 -17q-47 0 -81 18.5t-59 50t-40.5 71.5t-24.5 82.5t-12.5 85t-3.5 77.5zM172 475q26 31 46 70.5t20 78.5q0 10 -1 21t-5 19q-14 -17 -24.5 -40.5t-17.5 -49 t-11.5 -51.5t-6.5 -48z" />
<glyph unicode="&#xe9;" horiz-adv-x="433" d="M30 387q0 30 3.5 71t12 85t23.5 87t37.5 77t54 55t72.5 21q32 0 57.5 -13t43 -34.5t27 -49.5t9.5 -58q0 -39 -18 -85t-46.5 -89t-64 -77.5t-70.5 -52.5q2 -18 8 -52.5t16.5 -68.5t25 -59t34.5 -25q10 0 17.5 6t13.5 16t10.5 22t8.5 23l6 14q2 3 2.5 4l1.5 3q7 13 13.5 24 t18.5 19h-1q4 4 8.5 4.5t8.5 0.5q11 0 24 -7t24 -17.5t18 -23t7 -24.5q0 -30 -16.5 -62t-42.5 -58.5t-59.5 -43.5t-66.5 -17q-47 0 -81 18.5t-59 50t-40.5 71.5t-24.5 82.5t-12.5 85t-3.5 77.5zM172 475q26 31 46 70.5t20 78.5q0 10 -1 21t-5 19q-14 -17 -24.5 -40.5 t-17.5 -49t-11.5 -51.5t-6.5 -48zM192 879q0 10 8.5 22t20 23t23.5 20.5t20 16.5l98 90q12 9 25.5 20.5t28.5 11.5q10 0 22.5 -7.5t23 -18t17.5 -23.5t7 -23v-4t-2 -4q-3 -12 -12 -21t-20 -17q-31 -25 -47.5 -37.5t-30.5 -23t-31.5 -22.5t-48.5 -35q-11 -8 -21.5 -13 t-22.5 -5q-9 0 -19 4t-19 11t-14.5 16t-5.5 19z" />
<glyph unicode="&#xea;" horiz-adv-x="433" d="M30 387q0 30 3.5 71t12 85t23.5 87t37.5 77t54 55t72.5 21q32 0 57.5 -13t43 -34.5t27 -49.5t9.5 -58q0 -39 -18 -85t-46.5 -89t-64 -77.5t-70.5 -52.5q2 -18 8 -52.5t16.5 -68.5t25 -59t34.5 -25q10 0 17.5 6t13.5 16t10.5 22t8.5 23l6 14q2 3 2.5 4l1.5 3q7 13 13.5 24 t18.5 19h-1q4 4 8.5 4.5t8.5 0.5q11 0 24 -7t24 -17.5t18 -23t7 -24.5q0 -30 -16.5 -62t-42.5 -58.5t-59.5 -43.5t-66.5 -17q-47 0 -81 18.5t-59 50t-40.5 71.5t-24.5 82.5t-12.5 85t-3.5 77.5zM76 865q0 7 9.5 35.5t22 63t24 65.5t16.5 42q9 20 21.5 31t36.5 11 q28 0 50 -22q18 -18 30 -41.5t24 -46.5q4 -8 16.5 -32.5t25 -51.5t22.5 -50t10 -28q0 -8 -6 -13t-14 -7.5t-17 -3t-15 -0.5q-9 0 -19.5 0.5t-18.5 5.5q-14 6 -19.5 16.5t-10.5 21.5q-12 32 -24 62t-26 60q-14 -35 -28 -69t-28 -69q-3 -9 -6.5 -15.5t-11.5 -12.5 q-2 -2 -10 -2t-17.5 4.5t-17.5 11.5t-13.5 16t-5.5 18zM172 475q26 31 46 70.5t20 78.5q0 10 -1 21t-5 19q-14 -17 -24.5 -40.5t-17.5 -49t-11.5 -51.5t-6.5 -48z" />
<glyph unicode="&#xeb;" horiz-adv-x="433" d="M8 949q0 10 7 15.5t17.5 8t21 2.5h18.5q10 0 23.5 -0.5t25.5 -4t20.5 -11t8.5 -20.5q0 -5 -0.5 -21.5t-1 -35.5t-1 -34.5t-1.5 -16.5q-8 -11 -20.5 -12.5t-23.5 -1.5q-31 0 -46 3t-22 12t-8.5 25t-5.5 42q-3 12 -7.5 24t-4.5 26zM30 387q0 30 3.5 71t12 85t23.5 87 t37.5 77t54 55t72.5 21q32 0 57.5 -13t43 -34.5t27 -49.5t9.5 -58q0 -39 -18 -85t-46.5 -89t-64 -77.5t-70.5 -52.5q2 -18 8 -52.5t16.5 -68.5t25 -59t34.5 -25q10 0 17.5 6t13.5 16t10.5 22t8.5 23l6 14q2 3 2.5 4l1.5 3q7 13 13.5 24t18.5 19h-1q4 4 8.5 4.5t8.5 0.5 q11 0 24 -7t24 -17.5t18 -23t7 -24.5q0 -30 -16.5 -62t-42.5 -58.5t-59.5 -43.5t-66.5 -17q-47 0 -81 18.5t-59 50t-40.5 71.5t-24.5 82.5t-12.5 85t-3.5 77.5zM172 475q26 31 46 70.5t20 78.5q0 10 -1 21t-5 19q-14 -17 -24.5 -40.5t-17.5 -49t-11.5 -51.5t-6.5 -48z M268 949q0 10 7 15.5t17.5 8t21 2.5h18.5q10 0 23.5 -0.5t25.5 -4t20.5 -11t8.5 -20.5q0 -5 -0.5 -21.5t-1 -35.5t-1 -34.5t-1.5 -16.5q-8 -11 -20.5 -12.5t-23.5 -1.5q-31 0 -46 3t-22 12t-8.5 25t-5.5 42q-3 12 -7.5 24t-4.5 26z" />
<glyph unicode="&#xec;" horiz-adv-x="254" d="M-118 941v8q0 10 6.5 23t17 23.5t23 18t23.5 7.5q15 0 28 -11.5t24 -20.5l84 -86q7 -7 19.5 -16.5t24 -20.5t20 -23t8.5 -22t-5.5 -19t-14.5 -16t-19 -11t-19 -4q-12 0 -23.5 5t-20.5 13q-32 23 -47 34.5t-26.5 21t-25.5 21.5t-45 37q-9 8 -18 17t-14 21zM53 490v96v77 q0 10 0.5 20t4 17.5t11 12.5t21.5 5q44 0 64.5 -24.5t25.5 -65.5q5 -61 7.5 -121.5t4.5 -122.5q2 -56 3.5 -110.5t6.5 -108.5q1 -11 2 -21t3 -20q2 -20 4 -39.5t2 -40.5q0 -23 -10.5 -32.5t-33.5 -9.5q-12 0 -26.5 3t-28.5 8.5t-26 13.5t-18 18q-4 6 -7 37t-4.5 77t-3 103 t-2 115t-0.5 113z" />
<glyph unicode="&#xed;" horiz-adv-x="256" d="M53 490v96v77q0 10 0.5 20t4 17.5t11 12.5t21.5 5q44 0 64.5 -24.5t25.5 -65.5q5 -61 7.5 -121.5t4.5 -122.5q2 -56 3.5 -110.5t6.5 -108.5q1 -11 2 -21t3 -20q2 -20 4 -39.5t2 -40.5q0 -23 -10.5 -32.5t-33.5 -9.5q-12 0 -26.5 3t-28.5 8.5t-26 13.5t-18 18q-4 6 -7 37 t-4.5 77t-3 103t-2 115t-0.5 113zM78 821q0 10 8.5 22t20 23t23.5 20.5t20 16.5l98 90q12 9 25.5 20.5t28.5 11.5q10 0 22.5 -7.5t23 -18t17.5 -23.5t7 -23v-4t-2 -4q-3 -12 -12 -21t-20 -17q-31 -25 -47.5 -37.5t-30.5 -23t-31.5 -22.5t-48.5 -35q-11 -8 -21.5 -13 t-22.5 -5q-9 0 -19 4t-19 11t-14.5 16t-5.5 19z" />
<glyph unicode="&#xee;" horiz-adv-x="255" d="M-39 808q0 7 9.5 35.5t22 63t24 65.5t16.5 42q9 20 21.5 31t36.5 11q28 0 50 -22q18 -18 30 -41.5t24 -46.5q4 -8 16.5 -32.5t25 -51.5t22.5 -50t10 -28q0 -8 -6 -13t-14 -7.5t-17 -3t-15 -0.5q-9 0 -19.5 0.5t-18.5 5.5q-14 6 -19.5 16.5t-10.5 21.5q-12 32 -24 62 t-26 60q-14 -35 -28 -69t-28 -69q-3 -9 -6.5 -15.5t-11.5 -12.5q-2 -2 -10 -2t-17.5 4.5t-17.5 11.5t-13.5 16t-5.5 18zM53 490v96v77q0 10 0.5 20t4 17.5t11 12.5t21.5 5q44 0 64.5 -24.5t25.5 -65.5q5 -61 7.5 -121.5t4.5 -122.5q2 -56 3.5 -110.5t6.5 -108.5q1 -11 2 -21 t3 -20q2 -20 4 -39.5t2 -40.5q0 -23 -10.5 -32.5t-33.5 -9.5q-12 0 -26.5 3t-28.5 8.5t-26 13.5t-18 18q-4 6 -7 37t-4.5 77t-3 103t-2 115t-0.5 113z" />
<glyph unicode="&#xef;" horiz-adv-x="256" d="M-87 917q0 10 7 15.5t17.5 8t21 2.5h18.5q10 0 23.5 -0.5t25.5 -4t20.5 -11t8.5 -20.5q0 -5 -0.5 -21.5t-1 -35.5t-1 -34.5t-1.5 -16.5q-8 -11 -20.5 -12.5t-23.5 -1.5q-31 0 -46 3t-22 12t-8.5 25t-5.5 42q-3 12 -7.5 24t-4.5 26zM53 490v96v77q0 10 0.5 20t4 17.5 t11 12.5t21.5 5q44 0 64.5 -24.5t25.5 -65.5q5 -61 7.5 -121.5t4.5 -122.5q2 -56 3.5 -110.5t6.5 -108.5q1 -11 2 -21t3 -20q2 -20 4 -39.5t2 -40.5q0 -23 -10.5 -32.5t-33.5 -9.5q-12 0 -26.5 3t-28.5 8.5t-26 13.5t-18 18q-4 6 -7 37t-4.5 77t-3 103t-2 115t-0.5 113z M173 917q0 10 7 15.5t17.5 8t21 2.5h18.5q10 0 23.5 -0.5t25.5 -4t20.5 -11t8.5 -20.5q0 -5 -0.5 -21.5t-1 -35.5t-1 -34.5t-1.5 -16.5q-8 -11 -20.5 -12.5t-23.5 -1.5q-31 0 -46 3t-22 12t-8.5 25t-5.5 42q-3 12 -7.5 24t-4.5 26z" />
<glyph unicode="&#xf0;" horiz-adv-x="509" d="M27 348q0 36 3 79.5t10.5 88t20 89t32.5 83t47.5 69t64.5 47.5q32 16 62 16h6q-3 11 -5 21t-5 21q-8 39 -21.5 87t-28.5 99q-29 -2 -57.5 -3t-58.5 -1q-8 0 -16 0.5t-15.5 3t-12 8t-4.5 16.5q0 14 6 26q6 17 11.5 28t13.5 17t19.5 8.5t29.5 2.5h52q-9 36 -18 68.5 t-14 61.5q-2 10 -4 19.5t-1.5 17t5.5 12.5t16 7q18 5 44 -1.5t38 -24.5q8 -12 23.5 -54.5t36.5 -105.5h94q7 0 17.5 -0.5t21 -3t18 -8.5t7.5 -16q0 -26 -17 -43.5t-41 -22.5q-17 -3 -34 -3.5t-34 -0.5q25 -82 50 -174t45 -180.5t32.5 -165t12.5 -126.5q0 -88 -14.5 -174.5 t-59.5 -163.5q-14 -23 -31.5 -44.5t-39 -39t-46.5 -28t-53 -10.5q-44 0 -76 20.5t-55 54t-38 76.5t-23.5 87t-12 86t-3.5 74zM151 374q0 -30 3.5 -76.5t12.5 -94.5t25.5 -89t42.5 -60q33 18 54.5 58.5t34.5 89t18 98t5 84.5q0 26 -3 68t-10.5 85t-20.5 80.5t-34 54.5 q-6 -2 -12 -3t-12 -1q-19 0 -32 16q-21 -30 -35 -68.5t-22 -80.5t-11.5 -83.5t-3.5 -77.5z" />
<glyph unicode="&#xf1;" horiz-adv-x="545" d="M46 266v123q0 84 7 174.5t15 174.5q0 3 1 7t1 6q1 11 3 24t6.5 23.5t13 17.5t22.5 7q16 0 30.5 -6.5t25.5 -17t17.5 -25.5t6.5 -31q0 -17 -1 -37.5t-3 -38.5q0 -5 -0.5 -11t-1.5 -11q14 28 32 58.5t41.5 56t52 41.5t63.5 16q29 0 48 -9t30.5 -25.5t16 -38.5t4.5 -47 q0 -34 -2 -68.5t-4 -68.5q-3 -35 -5 -69t-2 -69q0 -42 2 -86.5t6 -85t9 -73t10 -50.5q4 -15 8.5 -34.5t9 -40t7.5 -39.5t3 -34q0 -22 -17.5 -28t-34.5 -6t-38.5 2.5t-38.5 11.5q-21 15 -27.5 42t-8.5 53l-3 27q-3 24 -8 63t-9.5 86t-7.5 97.5t-3 98.5q0 43 3.5 83t7.5 81 q2 21 3 34t3 34q-20 -32 -40 -75t-38 -89.5t-32.5 -90.5t-22.5 -77l-6 -22q-5 -16 -8.5 -32t-3.5 -30q0 -18 2 -41.5t5 -44.5q3 -25 7 -51q0 -2 2 -13t4 -26t3.5 -31.5t1.5 -29.5q0 -23 -13.5 -30t-32.5 -7q-17 0 -33.5 2.5t-31 9.5t-25 19t-14.5 31q-14 60 -16 117.5 t-2 118.5zM82 1025q0 50 35.5 75t88.5 25q39 0 70.5 -18.5t43.5 -53.5q2 -7 4 -23t6 -32.5t10.5 -29.5t17.5 -13q5 0 8 4.5t4.5 10t1.5 10.5v7q0 21 -4 42.5t-12 41.5q-3 9 -7.5 16.5t-4.5 15.5q0 13 14.5 17.5t25.5 4.5q28 0 46 -12t28.5 -31t14 -42.5t3.5 -46.5 q0 -50 -30 -80t-86 -30q-43 0 -67 12.5t-36.5 32t-16.5 41.5t-7.5 41.5t-9 32t-19.5 12.5q-30 0 -30 -26q0 -20 8 -41t17 -40t17 -33.5t8 -19.5q0 -12 -14.5 -16t-23.5 -4q-26 0 -41 10t-27 30q-14 26 -25 53.5t-11 56.5z" />
<glyph unicode="&#xf2;" horiz-adv-x="507" d="M27 349q0 36 3 79t10.5 88t20 89t32.5 82.5t48 69t65 48.5v-1q32 17 64 17q20 0 31 -8.5t10 -28.5q55 -10 89 -53t52.5 -100t25 -117t6.5 -104q0 -87 -14.5 -173.5t-59.5 -163.5q-14 -23 -32 -44.5t-39.5 -39t-47 -28t-53.5 -10.5q-44 0 -76.5 20.5t-56 54t-39 76t-24 87 t-12 86.5t-3.5 74zM45 1057v8q0 10 6.5 23t17 23.5t23 18t23.5 7.5q15 0 28 -11.5t24 -20.5l84 -86q7 -7 19.5 -16.5t24 -20.5t20 -23t8.5 -22t-5.5 -19t-14.5 -16t-19 -11t-19 -4q-12 0 -23.5 5t-20.5 13q-32 23 -47 34.5t-26.5 21t-25.5 21.5t-45 37q-9 8 -18 17t-14 21z M160 375q0 -29 3 -74.5t11.5 -91.5t24 -86t40.5 -59q31 18 51.5 57.5t32.5 86.5t16.5 95t4.5 82q0 25 -3 65t-10 81.5t-19.5 77.5t-31.5 54q-9 -3 -22 -3q-17 0 -32 13q-19 -29 -32 -66.5t-20.5 -77t-10.5 -79.5t-3 -75z" />
<glyph unicode="&#xf3;" horiz-adv-x="507" d="M27 349q0 36 3 79t10.5 88t20 89t32.5 82.5t48 69t65 48.5v-1q32 17 64 17q20 0 31 -8.5t10 -28.5q55 -10 89 -53t52.5 -100t25 -117t6.5 -104q0 -87 -14.5 -173.5t-59.5 -163.5q-14 -23 -32 -44.5t-39.5 -39t-47 -28t-53.5 -10.5q-44 0 -76.5 20.5t-56 54t-39 76t-24 87 t-12 86.5t-3.5 74zM160 375q0 -29 3 -74.5t11.5 -91.5t24 -86t40.5 -59q31 18 51.5 57.5t32.5 86.5t16.5 95t4.5 82q0 25 -3 65t-10 81.5t-19.5 77.5t-31.5 54q-9 -3 -22 -3q-17 0 -32 13q-19 -29 -32 -66.5t-20.5 -77t-10.5 -79.5t-3 -75zM215 927q0 10 8.5 22t20 23 t23.5 20.5t20 16.5l98 90q12 9 25.5 20.5t28.5 11.5q10 0 22.5 -7.5t23 -18t17.5 -23.5t7 -23v-4t-2 -4q-3 -12 -12 -21t-20 -17q-31 -25 -47.5 -37.5t-30.5 -23t-31.5 -22.5t-48.5 -35q-11 -8 -21.5 -13t-22.5 -5q-9 0 -19 4t-19 11t-14.5 16t-5.5 19z" />
<glyph unicode="&#xf4;" horiz-adv-x="507" d="M27 349q0 36 3 79t10.5 88t20 89t32.5 82.5t48 69t65 48.5v-1q32 17 64 17q20 0 31 -8.5t10 -28.5q55 -10 89 -53t52.5 -100t25 -117t6.5 -104q0 -87 -14.5 -173.5t-59.5 -163.5q-14 -23 -32 -44.5t-39.5 -39t-47 -28t-53.5 -10.5q-44 0 -76.5 20.5t-56 54t-39 76t-24 87 t-12 86.5t-3.5 74zM103 899q0 7 9.5 35.5t22 63t24 65.5t16.5 42q9 20 21.5 31t36.5 11q28 0 50 -22q18 -18 30 -41.5t24 -46.5q4 -8 16.5 -32.5t25 -51.5t22.5 -50t10 -28q0 -8 -6 -13t-14 -7.5t-17 -3t-15 -0.5q-9 0 -19.5 0.5t-18.5 5.5q-14 6 -19.5 16.5t-10.5 21.5 q-12 32 -24 62t-26 60q-14 -35 -28 -69t-28 -69q-3 -9 -6.5 -15.5t-11.5 -12.5q-2 -2 -10 -2t-17.5 4.5t-17.5 11.5t-13.5 16t-5.5 18zM160 375q0 -29 3 -74.5t11.5 -91.5t24 -86t40.5 -59q31 18 51.5 57.5t32.5 86.5t16.5 95t4.5 82q0 25 -3 65t-10 81.5t-19.5 77.5 t-31.5 54q-9 -3 -22 -3q-17 0 -32 13q-19 -29 -32 -66.5t-20.5 -77t-10.5 -79.5t-3 -75z" />
<glyph unicode="&#xf5;" horiz-adv-x="507" d="M27 349q0 36 3 79t10.5 88t20 89t32.5 82.5t48 69t65 48.5v-1q32 17 64 17q20 0 31 -8.5t10 -28.5q55 -10 89 -53t52.5 -100t25 -117t6.5 -104q0 -87 -14.5 -173.5t-59.5 -163.5q-14 -23 -32 -44.5t-39.5 -39t-47 -28t-53.5 -10.5q-44 0 -76.5 20.5t-56 54t-39 76t-24 87 t-12 86.5t-3.5 74zM59 1015q0 50 35.5 75t88.5 25q39 0 70.5 -18.5t43.5 -53.5q2 -7 4 -23t6 -32.5t10.5 -29.5t17.5 -13q5 0 8 4.5t4.5 10t1.5 10.5v7q0 21 -4 42.5t-12 41.5q-3 9 -7.5 16.5t-4.5 15.5q0 13 14.5 17.5t25.5 4.5q28 0 46 -12t28.5 -31t14 -42.5t3.5 -46.5 q0 -50 -30 -80t-86 -30q-43 0 -67 12.5t-36.5 32t-16.5 41.5t-7.5 41.5t-9 32t-19.5 12.5q-30 0 -30 -26q0 -20 8 -41t17 -40t17 -33.5t8 -19.5q0 -12 -14.5 -16t-23.5 -4q-26 0 -41 10t-27 30q-14 26 -25 53.5t-11 56.5zM160 375q0 -29 3 -74.5t11.5 -91.5t24 -86t40.5 -59 q31 18 51.5 57.5t32.5 86.5t16.5 95t4.5 82q0 25 -3 65t-10 81.5t-19.5 77.5t-31.5 54q-9 -3 -22 -3q-17 0 -32 13q-19 -29 -32 -66.5t-20.5 -77t-10.5 -79.5t-3 -75z" />
<glyph unicode="&#xf6;" horiz-adv-x="507" d="M27 349q0 36 3 79t10.5 88t20 89t32.5 82.5t48 69t65 48.5v-1q32 17 64 17q20 0 31 -8.5t10 -28.5q55 -10 89 -53t52.5 -100t25 -117t6.5 -104q0 -87 -14.5 -173.5t-59.5 -163.5q-14 -23 -32 -44.5t-39.5 -39t-47 -28t-53.5 -10.5q-44 0 -76.5 20.5t-56 54t-39 76t-24 87 t-12 86.5t-3.5 74zM59 993q0 10 7 15.5t17.5 8t21 2.5h18.5q10 0 23.5 -0.5t25.5 -4t20.5 -11t8.5 -20.5q0 -5 -0.5 -21.5t-1 -35.5t-1 -34.5t-1.5 -16.5q-8 -11 -20.5 -12.5t-23.5 -1.5q-31 0 -46 3t-22 12t-8.5 25t-5.5 42q-3 12 -7.5 24t-4.5 26zM160 375q0 -29 3 -74.5 t11.5 -91.5t24 -86t40.5 -59q31 18 51.5 57.5t32.5 86.5t16.5 95t4.5 82q0 25 -3 65t-10 81.5t-19.5 77.5t-31.5 54q-9 -3 -22 -3q-17 0 -32 13q-19 -29 -32 -66.5t-20.5 -77t-10.5 -79.5t-3 -75zM319 993q0 10 7 15.5t17.5 8t21 2.5h18.5q10 0 23.5 -0.5t25.5 -4t20.5 -11 t8.5 -20.5q0 -5 -0.5 -21.5t-1 -35.5t-1 -34.5t-1.5 -16.5q-8 -11 -20.5 -12.5t-23.5 -1.5q-31 0 -46 3t-22 12t-8.5 25t-5.5 42q-3 12 -7.5 24t-4.5 26z" />
<glyph unicode="&#xf7;" horiz-adv-x="552" d="M29 674q0 29 19 44t45.5 21t55 6.5t48.5 2.5l284 16h6q15 2 26.5 -5.5t11.5 -24.5q0 -14 -7 -30.5t-15 -27.5q-15 -20 -36 -22t-42 -2q-91 -2 -180 -3t-180 -1q-12 0 -24 5.5t-12 20.5zM203 560q0 15 14.5 18.5t25.5 3.5h18q7 0 18 -0.5t20.5 -3.5t16.5 -9.5t7 -18.5 q0 -4 -0.5 -18t-1 -29.5t-1 -28.5t-1.5 -14q-6 -9 -16.5 -10.5t-21.5 -1.5q-26 0 -38 2.5t-17.5 10t-7 21t-5.5 34.5q-3 12 -6.5 22t-3.5 22zM203 920q0 15 14.5 18.5t25.5 3.5h18q7 0 18 -0.5t20.5 -3.5t16.5 -9.5t7 -18.5q0 -4 -0.5 -18t-1 -29.5t-1 -28.5t-1.5 -14 q-6 -9 -16.5 -10.5t-21.5 -1.5q-26 0 -38 2.5t-17.5 10t-7 21t-5.5 34.5q-3 12 -6.5 22t-3.5 22z" />
<glyph unicode="&#xf8;" horiz-adv-x="503" d="M25 349q0 55 6.5 123t26 133t54.5 119t92 81v-1q32 17 64 17q14 0 25 -5.5t13 -17.5q4 17 12 31.5t27 14.5q11 0 24 -3.5t24 -10.5t18.5 -17.5t7.5 -24.5q0 -13 -4 -28.5t-8 -30.5l-1 -8q22 -30 36.5 -68.5t23.5 -80.5t12.5 -84t3.5 -78q0 -87 -14.5 -173.5t-59.5 -163.5 q-14 -23 -32 -44.5t-39.5 -39t-47 -28t-53.5 -10.5h-12.5t-11.5 1q-3 -17 -12 -29t-29 -12q-9 0 -24.5 3.5t-30 10.5t-25 16.5t-10.5 21.5t3 25.5t8 25.5v-1q2 5 3.5 9.5t2.5 9.5q-21 31 -35 71t-22.5 82t-12 84.5t-3.5 79.5zM158 375q0 -26 1 -52t4 -53l108 391 q-2 -1 -7 -1h-8q-8 0 -16.5 4t-14.5 9q-20 -29 -33 -66.5t-20.5 -77t-10.5 -79.5t-3 -75zM236 63l2 1q30 20 50 60t32 86.5t17 93.5t5 81q0 19 -0.5 36.5t-2.5 38.5l-39 -148q-17 -63 -33 -124.5t-31 -124.5z" />
<glyph unicode="&#xf9;" horiz-adv-x="536" d="M38 989v8q0 10 6.5 23t17 23.5t23 18t23.5 7.5q15 0 28 -11.5t24 -20.5l84 -86q7 -7 19.5 -16.5t24 -20.5t20 -23t8.5 -22t-5.5 -19t-14.5 -16t-19 -11t-19 -4q-12 0 -23.5 5t-20.5 13q-32 23 -47 34.5t-26.5 21t-25.5 21.5t-45 37q-9 8 -18 17t-14 21zM44 238 q0 114 7.5 226t16.5 225q0 3 0.5 8t0.5 8q1 14 2 26t5 23v-1q4 16 11.5 23t23.5 7q15 0 30 -5.5t27 -15t19.5 -22.5t7.5 -29v-19t-1 -19q0 -7 -0.5 -17.5t-0.5 -17.5q-8 -96 -12 -190.5t-4 -191.5q0 -27 0.5 -54t5.5 -54q33 42 57 107.5t40.5 139t27 146t15.5 128.5 q0 3 0.5 7t0.5 7q1 11 2 21t7 19q0 9 1 19t5 18.5t11.5 13.5t21.5 5q40 0 63 -24.5t25 -62.5q5 -8 7.5 -15.5t2.5 -16.5q0 -10 -2 -21t-4 -20q-2 -11 -4 -20.5t-2 -18.5q0 -93 3.5 -186.5t19.5 -187.5q5 -36 12 -70t16 -69l2 -6v2q3 -7 5.5 -14.5t2.5 -15.5q0 -11 -5.5 -18 t-13.5 -11t-17.5 -5t-17.5 -1q-33 0 -52.5 7.5t-31.5 21t-17.5 32.5t-9.5 42l-3 18q-4 14 -5 30q-1 8 -1.5 7.5t-1.5 7.5q-14 -25 -32.5 -53.5t-42 -53t-50.5 -41t-58 -16.5q-43 0 -66.5 26t-34.5 63.5t-13 78t-2 70.5z" />
<glyph unicode="&#xfa;" horiz-adv-x="537" d="M44 238q0 114 7.5 226t16.5 225q0 3 0.5 8t0.5 8q1 14 2 26t5 23v-1q4 16 11.5 23t23.5 7q15 0 30 -5.5t27 -15t19.5 -22.5t7.5 -29v-19t-1 -19q0 -7 -0.5 -17.5t-0.5 -17.5q-8 -96 -12 -190.5t-4 -191.5q0 -27 0.5 -54t5.5 -54q33 42 57 107.5t40.5 139t27 146 t15.5 128.5q0 3 0.5 7t0.5 7q1 11 2 21t7 19q0 9 1 19t5 18.5t11.5 13.5t21.5 5q40 0 63 -24.5t25 -62.5q5 -8 7.5 -15.5t2.5 -16.5q0 -10 -2 -21t-4 -20q-2 -11 -4 -20.5t-2 -18.5q0 -93 3.5 -186.5t19.5 -187.5q5 -36 12 -70t16 -69l2 -6v2q3 -7 5.5 -14.5t2.5 -15.5 q0 -11 -5.5 -18t-13.5 -11t-17.5 -5t-17.5 -1q-33 0 -52.5 7.5t-31.5 21t-17.5 32.5t-9.5 42l-3 18q-4 14 -5 30q-1 8 -1.5 7.5t-1.5 7.5q-14 -25 -32.5 -53.5t-42 -53t-50.5 -41t-58 -16.5q-43 0 -66.5 26t-34.5 63.5t-13 78t-2 70.5zM230 869q0 10 8.5 22t20 23t23.5 20.5 t20 16.5l98 90q12 9 25.5 20.5t28.5 11.5q10 0 22.5 -7.5t23 -18t17.5 -23.5t7 -23v-4t-2 -4q-3 -12 -12 -21t-20 -17q-31 -25 -47.5 -37.5t-30.5 -23t-31.5 -22.5t-48.5 -35q-11 -8 -21.5 -13t-22.5 -5q-9 0 -19 4t-19 11t-14.5 16t-5.5 19z" />
<glyph unicode="&#xfb;" horiz-adv-x="536" d="M44 238q0 114 7.5 226t16.5 225q0 3 0.5 8t0.5 8q1 14 2 26t5 23v-1q4 16 11.5 23t23.5 7q15 0 30 -5.5t27 -15t19.5 -22.5t7.5 -29v-19t-1 -19q0 -7 -0.5 -17.5t-0.5 -17.5q-8 -96 -12 -190.5t-4 -191.5q0 -27 0.5 -54t5.5 -54q33 42 57 107.5t40.5 139t27 146 t15.5 128.5q0 3 0.5 7t0.5 7q1 11 2 21t7 19q0 9 1 19t5 18.5t11.5 13.5t21.5 5q40 0 63 -24.5t25 -62.5q5 -8 7.5 -15.5t2.5 -16.5q0 -10 -2 -21t-4 -20q-2 -11 -4 -20.5t-2 -18.5q0 -93 3.5 -186.5t19.5 -187.5q5 -36 12 -70t16 -69l2 -6v2q3 -7 5.5 -14.5t2.5 -15.5 q0 -11 -5.5 -18t-13.5 -11t-17.5 -5t-17.5 -1q-33 0 -52.5 7.5t-31.5 21t-17.5 32.5t-9.5 42l-3 18q-4 14 -5 30q-1 8 -1.5 7.5t-1.5 7.5q-14 -25 -32.5 -53.5t-42 -53t-50.5 -41t-58 -16.5q-43 0 -66.5 26t-34.5 63.5t-13 78t-2 70.5zM106 891q0 7 9.5 35.5t22 63t24 65.5 t16.5 42q9 20 21.5 31t36.5 11q28 0 50 -22q18 -18 30 -41.5t24 -46.5q4 -8 16.5 -32.5t25 -51.5t22.5 -50t10 -28q0 -8 -6 -13t-14 -7.5t-17 -3t-15 -0.5q-9 0 -19.5 0.5t-18.5 5.5q-14 6 -19.5 16.5t-10.5 21.5q-12 32 -24 62t-26 60q-14 -35 -28 -69t-28 -69 q-3 -9 -6.5 -15.5t-11.5 -12.5q-2 -2 -10 -2t-17.5 4.5t-17.5 11.5t-13.5 16t-5.5 18z" />
<glyph unicode="&#xfc;" horiz-adv-x="536" d="M44 238q0 114 7.5 226t16.5 225q0 3 0.5 8t0.5 8q1 14 2 26t5 23v-1q4 16 11.5 23t23.5 7q15 0 30 -5.5t27 -15t19.5 -22.5t7.5 -29v-19t-1 -19q0 -7 -0.5 -17.5t-0.5 -17.5q-8 -96 -12 -190.5t-4 -191.5q0 -27 0.5 -54t5.5 -54q33 42 57 107.5t40.5 139t27 146 t15.5 128.5q0 3 0.5 7t0.5 7q1 11 2 21t7 19q0 9 1 19t5 18.5t11.5 13.5t21.5 5q40 0 63 -24.5t25 -62.5q5 -8 7.5 -15.5t2.5 -16.5q0 -10 -2 -21t-4 -20q-2 -11 -4 -20.5t-2 -18.5q0 -93 3.5 -186.5t19.5 -187.5q5 -36 12 -70t16 -69l2 -6v2q3 -7 5.5 -14.5t2.5 -15.5 q0 -11 -5.5 -18t-13.5 -11t-17.5 -5t-17.5 -1q-33 0 -52.5 7.5t-31.5 21t-17.5 32.5t-9.5 42l-3 18q-4 14 -5 30q-1 8 -1.5 7.5t-1.5 7.5q-14 -25 -32.5 -53.5t-42 -53t-50.5 -41t-58 -16.5q-43 0 -66.5 26t-34.5 63.5t-13 78t-2 70.5zM64 979q0 10 7 15.5t17.5 8t21 2.5 h18.5q10 0 23.5 -0.5t25.5 -4t20.5 -11t8.5 -20.5q0 -5 -0.5 -21.5t-1 -35.5t-1 -34.5t-1.5 -16.5q-8 -11 -20.5 -12.5t-23.5 -1.5q-31 0 -46 3t-22 12t-8.5 25t-5.5 42q-3 12 -7.5 24t-4.5 26zM324 979q0 10 7 15.5t17.5 8t21 2.5h18.5q10 0 23.5 -0.5t25.5 -4t20.5 -11 t8.5 -20.5q0 -5 -0.5 -21.5t-1 -35.5t-1 -34.5t-1.5 -16.5q-8 -11 -20.5 -12.5t-23.5 -1.5q-31 0 -46 3t-22 12t-8.5 25t-5.5 42q-3 12 -7.5 24t-4.5 26z" />
<glyph unicode="&#xfd;" horiz-adv-x="493" d="M-111 -606q0 6 3 12q0 2 0.5 3.5t0.5 2.5q7 20 16 32t20.5 18.5t27 9t35.5 4.5q64 3 121 30v-1q65 32 102.5 79.5t57 105t24.5 121.5t5 129v22v12.5v12.5t-1 22q-35 -27 -73 -27q-44 0 -74.5 24.5t-51 64t-32 90t-17 103t-7 102.5t-1.5 89v42q0 53 0.5 104t3.5 102v15v24 t2 23q4 16 11.5 23t24.5 7q8 0 15.5 -1t15.5 -3q19 -8 30 -16.5t16.5 -20t7 -26.5t1.5 -35v-134q0 -24 0.5 -59.5t2.5 -77.5t5 -87t9 -87t14 -77t20 -58q18 39 31 91.5t21.5 113t13 124.5t7 125t3 115.5t0.5 95.5q0 10 0.5 21.5t4.5 21t11.5 15.5t22.5 6q7 0 15.5 -2 t14.5 -4q2 0 4.5 -0.5t4.5 -0.5q14 -5 27 -10t22.5 -12.5t15 -19.5t5.5 -31q0 -23 -0.5 -52.5t-2 -61.5t-3.5 -62.5t-4 -54.5l-4 -35q-2 -14 -3 -28t-1 -26q0 -64 1 -127.5t3 -127.5t3 -127.5t1 -127.5q0 -41 -3 -86t-10 -90.5t-19 -89.5t-30 -82q-30 -56 -75.5 -98.5 t-99.5 -71.5t-115 -44t-123 -15q-9 0 -21.5 1t-24.5 4.5t-20 11.5t-8 22zM176 915q0 10 8.5 22t20 23t23.5 20.5t20 16.5l98 90q12 9 25.5 20.5t28.5 11.5q10 0 22.5 -7.5t23 -18t17.5 -23.5t7 -23v-4t-2 -4q-3 -12 -12 -21t-20 -17q-31 -25 -47.5 -37.5t-30.5 -23 t-31.5 -22.5t-48.5 -35q-11 -8 -21.5 -13t-22.5 -5q-9 0 -19 4t-19 11t-14.5 16t-5.5 19z" />
<glyph unicode="&#xfe;" horiz-adv-x="557" d="M52 120q0 38 1.5 96.5t4 131.5t5.5 157t7 172.5t8.5 178t9.5 174t10 160t10 136.5q2 15 1.5 30t2.5 30q5 14 11.5 20t20.5 6q41 0 59 -22.5t21 -57.5q0 -1 -1 -28t-3.5 -71t-6 -99t-7 -113t-6.5 -113.5t-6 -99.5t-4.5 -71.5t-1.5 -28.5q33 50 78.5 79t107.5 29 q49 0 81.5 -21.5t52 -56t28 -76.5t8.5 -82q0 -81 -12.5 -160.5t-41 -153t-74 -138t-110.5 -116.5q-8 -7 -19 -15t-23 -15t-24 -11.5t-22 -4.5q-14 0 -23 9.5t-15 18.5q5 -151 13.5 -303t32.5 -301q3 -14 5.5 -27.5t2.5 -28.5q0 -20 -11 -27t-29 -7q-24 0 -52.5 6.5 t-43.5 27.5q-4 4 -7.5 29t-7 60t-6.5 76.5t-5.5 79.5t-4.5 67.5t-3 41.5q-12 216 -12 432zM177 332.5q0 -19.5 0.5 -39t0.5 -35.5v-95t2 -95q8 9 16.5 14.5t19.5 13.5q53 39 90.5 96t61.5 122.5t35 134.5t11 133q0 12 -0.5 34.5t-5 44.5t-14 38.5t-26.5 16.5 q-18 0 -36 -14.5t-34.5 -37.5t-32 -51t-28 -55.5t-21.5 -51.5t-14 -38q-6 -14 -13 -31.5t-9 -32.5q-2 -14 -2.5 -33t-0.5 -38.5z" />
<glyph unicode="&#xff;" horiz-adv-x="493" d="M-111 -606q0 6 3 12q0 2 0.5 3.5t0.5 2.5q7 20 16 32t20.5 18.5t27 9t35.5 4.5q64 3 121 30v-1q65 32 102.5 79.5t57 105t24.5 121.5t5 129v22v12.5v12.5t-1 22q-35 -27 -73 -27q-44 0 -74.5 24.5t-51 64t-32 90t-17 103t-7 102.5t-1.5 89v42q0 53 0.5 104t3.5 102v15v24 t2 23q4 16 11.5 23t24.5 7q8 0 15.5 -1t15.5 -3q19 -8 30 -16.5t16.5 -20t7 -26.5t1.5 -35v-134q0 -24 0.5 -59.5t2.5 -77.5t5 -87t9 -87t14 -77t20 -58q18 39 31 91.5t21.5 113t13 124.5t7 125t3 115.5t0.5 95.5q0 10 0.5 21.5t4.5 21t11.5 15.5t22.5 6q7 0 15.5 -2 t14.5 -4q2 0 4.5 -0.5t4.5 -0.5q14 -5 27 -10t22.5 -12.5t15 -19.5t5.5 -31q0 -23 -0.5 -52.5t-2 -61.5t-3.5 -62.5t-4 -54.5l-4 -35q-2 -14 -3 -28t-1 -26q0 -64 1 -127.5t3 -127.5t3 -127.5t1 -127.5q0 -41 -3 -86t-10 -90.5t-19 -89.5t-30 -82q-30 -56 -75.5 -98.5 t-99.5 -71.5t-115 -44t-123 -15q-9 0 -21.5 1t-24.5 4.5t-20 11.5t-8 22zM36 1059q0 10 7 15.5t17.5 8t21 2.5h18.5q10 0 23.5 -0.5t25.5 -4t20.5 -11t8.5 -20.5q0 -5 -0.5 -21.5t-1 -35.5t-1 -34.5t-1.5 -16.5q-8 -11 -20.5 -12.5t-23.5 -1.5q-31 0 -46 3t-22 12t-8.5 25 t-5.5 42q-3 12 -7.5 24t-4.5 26zM296 1059q0 10 7 15.5t17.5 8t21 2.5h18.5q10 0 23.5 -0.5t25.5 -4t20.5 -11t8.5 -20.5q0 -5 -0.5 -21.5t-1 -35.5t-1 -34.5t-1.5 -16.5q-8 -11 -20.5 -12.5t-23.5 -1.5q-31 0 -46 3t-22 12t-8.5 25t-5.5 42q-3 12 -7.5 24t-4.5 26z" />
<glyph unicode="&#x152;" horiz-adv-x="1244" d="M59 776q0 74 6.5 155t24.5 160.5t49 153.5t80 133q5 6 12.5 14t16.5 15.5t18.5 13t18.5 5.5t17.5 -5t14.5 -13q21 12 44.5 17t47.5 5q66 0 114.5 -27.5t83.5 -72.5q20 32 60.5 46t111.5 14q65 0 130.5 -1t131.5 -1q20 0 40 1.5t40 -3.5q12 -2 21 -6.5t9 -19.5 q0 -36 -24 -53.5t-57 -23.5t-68.5 -5.5t-58.5 0.5h-130h-40t-40 -2q-6 -15 -8 -31t-2 -33q0 -109 5.5 -215t10.5 -215q62 5 123 12t123 16q9 0 16.5 1t15.5 1q21 0 29.5 -11t8.5 -31q0 -14 -1.5 -26t-6.5 -24q-7 -20 -23 -29t-36 -12.5t-41.5 -3.5t-37.5 -1q-42 -2 -82.5 -3 t-81.5 -3l3 -63l4.5 -94.5t6 -108.5t7.5 -105.5t8.5 -86.5t10.5 -50q11 -21 25 -27.5t37 -6.5q37 0 78 14.5t80 37t74.5 49.5t61.5 53q11 9 22 18.5t26 9.5t29 -9t25 -22.5t17.5 -29.5t6.5 -29q0 -17 -13.5 -33t-32.5 -31t-39 -27.5t-33 -20.5q-34 -22 -67.5 -41t-69 -33 t-73 -22t-78.5 -8l-16 -2q-33 0 -65.5 7.5t-60.5 23t-50 39.5t-34 58q-3 8 -4.5 16.5t-3.5 17.5q-39 -78 -97.5 -127t-142.5 -49q-59 0 -107 27.5t-81 72.5q-27 36 -47.5 88.5t-36 114.5t-26.5 129t-17.5 132t-9.5 123.5t-3 102.5zM203 816q0 -21 2 -63t6 -96t11 -116 t17 -123.5t23.5 -118t31.5 -100t40 -69.5t49 -26q15 0 27 8.5t23 17.5q30 27 52 71t37 97t25 111.5t15 115.5t7 108.5t2 90.5q0 26 -1.5 79.5t-7.5 118t-16.5 132.5t-28.5 123.5t-44.5 91t-63.5 35.5q-15 0 -27 -14t-23 -36t-20 -48t-18 -50t-17 -43t-17 -27 q-3 -3 -9.5 -3.5t-12.5 -0.5q-17 0 -32 6q-17 -68 -23.5 -135.5t-6.5 -136.5z" />
<glyph unicode="&#x153;" horiz-adv-x="791" d="M27 349q0 36 3 79t10.5 88t20 89t32.5 82.5t48 69t65 48.5v-1q32 17 63 17q43 0 42 -37q38 -7 66 -30t49 -59q20 29 51 48.5t69 19.5q32 0 57.5 -13t43.5 -34.5t27.5 -49.5t9.5 -58q0 -39 -18 -85t-47 -88.5t-64.5 -77.5t-70.5 -52q2 -19 8.5 -53.5t17 -68.5t25 -59 t33.5 -25q12 0 27 11.5t28.5 28t24 33.5t15.5 28q2 4 4 6l1 1q7 13 13.5 24t18.5 19h-1q4 4 8.5 4.5t8.5 0.5q11 0 27 -7t30.5 -17.5t24.5 -23t10 -24.5q0 -3 -0.5 -6t-2.5 -8h1q-11 -34 -36 -67.5t-58.5 -60t-72 -43t-75.5 -16.5q-54 0 -91.5 25t-62.5 66 q-14 -23 -32 -44.5t-39.5 -39t-47 -28t-53.5 -10.5q-44 0 -76.5 20.5t-56 54t-39 76t-24 87t-12 86.5t-3.5 74zM160 375q0 -29 3 -74.5t11.5 -91.5t24 -86t40.5 -59q31 18 51.5 57.5t32.5 86.5t16.5 95t4.5 82q0 25 -3 65t-10 81.5t-19.5 77.5t-31.5 54q-11 -3 -22 -3 q-17 0 -32 13q-19 -29 -32 -66.5t-20.5 -77t-10.5 -79.5t-3 -75zM485 455q26 31 46 70.5t20 78.5q0 10 -1 21t-5 20q-14 -17 -24 -40.5t-17 -49.5t-11.5 -52t-7.5 -48z" />
<glyph unicode="&#x178;" horiz-adv-x="585" d="M-15 1390q0 11 6 18t15 10.5t19 4.5t18 1q26 0 48.5 -2.5t45.5 -17.5q6 -4 19 -37t29 -82t33.5 -106t32.5 -110t27 -94t17 -57q33 128 66.5 254t57.5 256q2 12 4.5 26.5t7 26.5t13.5 20.5t25 8.5q13 0 32.5 -6t37.5 -16.5t31 -24t13 -29.5q0 -21 -13 -76.5t-33 -129 t-45 -156t-49 -158t-44 -134.5t-30 -86q11 -89 15 -177t9 -177q5 -75 9.5 -151t4.5 -151q0 -23 -11.5 -35.5t-34.5 -12.5q-9 0 -24 2.5t-30.5 7t-29 10.5t-18.5 12q-12 14 -15 26.5t-3 29.5q0 155 -3 308t-3 308l-8 8q-6 9 -13.5 25.5t-15 34.5t-13.5 35t-10 27 q-33 92 -62 184t-62 184q-5 16 -16 43.5t-22 57.5t-19.5 56.5t-8.5 40.5zM57 1700q0 10 7 15.5t17.5 8t21 2.5h18.5q10 0 23.5 -0.5t25.5 -4t20.5 -11t8.5 -20.5q0 -5 -0.5 -21.5t-1 -35.5t-1 -34.5t-1.5 -16.5q-8 -11 -20.5 -12.5t-23.5 -1.5q-31 0 -46 3t-22 12t-8.5 25 t-5.5 42q-3 12 -7.5 24t-4.5 26zM317 1700q0 10 7 15.5t17.5 8t21 2.5h18.5q10 0 23.5 -0.5t25.5 -4t20.5 -11t8.5 -20.5q0 -5 -0.5 -21.5t-1 -35.5t-1 -34.5t-1.5 -16.5q-8 -11 -20.5 -12.5t-23.5 -1.5q-31 0 -46 3t-22 12t-8.5 25t-5.5 42q-3 12 -7.5 24t-4.5 26z" />
<glyph unicode="&#x2c6;" horiz-adv-x="248" d="M-30 1072q0 7 9.5 35.5t22 63t24 65.5t16.5 42q9 20 21.5 31t36.5 11q28 0 50 -22q18 -18 30 -41.5t24 -46.5q4 -8 16.5 -32.5t25 -51.5t22.5 -50t10 -28q0 -8 -6 -13t-14 -7.5t-17 -3t-15 -0.5q-9 0 -19.5 0.5t-18.5 5.5q-14 6 -19.5 16.5t-10.5 21.5q-12 32 -24 62 t-26 60q-14 -35 -28 -69t-28 -69q-3 -9 -6.5 -15.5t-11.5 -12.5q-2 -2 -10 -2t-17.5 4.5t-17.5 11.5t-13.5 16t-5.5 18z" />
<glyph unicode="&#x2dc;" horiz-adv-x="334" d="M-30 1188q0 50 35.5 75t88.5 25q39 0 70.5 -18.5t43.5 -53.5q2 -7 4 -23t6 -32.5t10.5 -29.5t17.5 -13q5 0 8 4.5t4.5 10t1.5 10.5v7q0 21 -4 42.5t-12 41.5q-3 9 -7.5 16.5t-4.5 15.5q0 13 14.5 17.5t25.5 4.5q28 0 46 -12t28.5 -31t14 -42.5t3.5 -46.5q0 -50 -30 -80 t-86 -30q-43 0 -67 12.5t-36.5 32t-16.5 41.5t-7.5 41.5t-9 32t-19.5 12.5q-30 0 -30 -26q0 -20 8 -41t17 -40t17 -33.5t8 -19.5q0 -12 -14.5 -16t-23.5 -4q-26 0 -41 10t-27 30q-14 26 -25 53.5t-11 56.5z" />
<glyph unicode="&#x2000;" horiz-adv-x="912" />
<glyph unicode="&#x2001;" horiz-adv-x="1824" />
<glyph unicode="&#x2002;" horiz-adv-x="912" />
<glyph unicode="&#x2003;" horiz-adv-x="1824" />
<glyph unicode="&#x2004;" horiz-adv-x="608" />
<glyph unicode="&#x2005;" horiz-adv-x="456" />
<glyph unicode="&#x2006;" horiz-adv-x="304" />
<glyph unicode="&#x2007;" horiz-adv-x="304" />
<glyph unicode="&#x2008;" horiz-adv-x="228" />
<glyph unicode="&#x2009;" horiz-adv-x="364" />
<glyph unicode="&#x200a;" horiz-adv-x="101" />
<glyph unicode="&#x2010;" horiz-adv-x="436" d="M10 720q0 24 17 42.5t41 23.5q20 3 40 3.5t40 2.5q57 3 114 6.5t116 3.5q7 0 15.5 -0.5t16 -3t12 -8.5t4.5 -16q0 -14 -6 -26q-6 -17 -11.5 -28t-13.5 -17t-19.5 -8.5t-29.5 -2.5h-272q-7 0 -17.5 0.5t-21 3t-18 8t-7.5 16.5z" />
<glyph unicode="&#x2011;" horiz-adv-x="436" d="M10 720q0 24 17 42.5t41 23.5q20 3 40 3.5t40 2.5q57 3 114 6.5t116 3.5q7 0 15.5 -0.5t16 -3t12 -8.5t4.5 -16q0 -14 -6 -26q-6 -17 -11.5 -28t-13.5 -17t-19.5 -8.5t-29.5 -2.5h-272q-7 0 -17.5 0.5t-21 3t-18 8t-7.5 16.5z" />
<glyph unicode="&#x2012;" horiz-adv-x="436" d="M10 720q0 24 17 42.5t41 23.5q20 3 40 3.5t40 2.5q57 3 114 6.5t116 3.5q7 0 15.5 -0.5t16 -3t12 -8.5t4.5 -16q0 -14 -6 -26q-6 -17 -11.5 -28t-13.5 -17t-19.5 -8.5t-29.5 -2.5h-272q-7 0 -17.5 0.5t-21 3t-18 8t-7.5 16.5z" />
<glyph unicode="&#x2013;" horiz-adv-x="820" d="M10 720q0 24 17 42.5t41 23.5q20 3 40 3.5t40 2.5q19 1 66.5 2t109 2t130.5 2.5t130.5 2t109 1t66.5 0.5q8 0 17 -0.5t16.5 -3t12 -8.5t4.5 -16q0 -14 -6 -26q-6 -17 -11.5 -28t-13.5 -17t-20 -8.5t-31 -2.5h-654q-7 0 -17.5 0.5t-21 3t-18 8t-7.5 16.5z" />
<glyph unicode="&#x2014;" horiz-adv-x="1620" d="M10 720q0 24 17 42.5t41 23.5q20 3 40 3.5t40 2.5q11 1 56 1.5t113 1t155 1.5t184 1.5t198 1t198 1t184 1t155 1t113 0.5h56q8 0 17 -0.5t16.5 -3t12 -8.5t4.5 -16q0 -14 -6 -26q-6 -17 -11.5 -28t-13.5 -17t-20 -8.5t-31 -2.5h-1454q-7 0 -17.5 0.5t-21 3t-18 8 t-7.5 16.5z" />
<glyph unicode="&#x2018;" horiz-adv-x="196" d="M1 1098q0 63 20 120.5t56 107.5q4 7 10 15t13 15.5t15 12.5t16 5q11 0 25.5 -8.5t27 -20.5t21 -26t8.5 -25q0 -8 -6 -18t-13.5 -20.5t-15 -20.5t-11.5 -17q-14 -23 -21 -43t-10.5 -39.5t-5 -41t-5.5 -46.5q-2 -17 -11.5 -22.5t-24.5 -5.5q-42 0 -65 16.5t-23 61.5z" />
<glyph unicode="&#x2019;" horiz-adv-x="194" d="M-15 1100q0 8 6 18.5t13.5 21t15.5 20.5t13 18q13 23 20 43t10 39.5t4.5 40t5.5 45.5q2 18 11.5 23t26.5 5q41 0 63.5 -15.5t22.5 -62.5q0 -62 -20 -119.5t-56 -108.5q-5 -6 -10.5 -14.5t-12.5 -16t-15 -12.5t-16 -5q-11 0 -25.5 8.5t-27 20.5t-21 26t-8.5 25z" />
<glyph unicode="&#x201a;" horiz-adv-x="194" d="M-41 -100q0 8 6 18.5t13.5 21t15.5 20.5t13 18q13 23 20 43t10 39.5t4.5 40t5.5 45.5q2 18 11.5 23t26.5 5q41 0 63.5 -15.5t22.5 -62.5q0 -62 -20 -119.5t-56 -108.5q-5 -6 -10.5 -14.5t-12.5 -16t-15 -12.5t-16 -5q-11 0 -25.5 8.5t-27 20.5t-21 26t-8.5 25z" />
<glyph unicode="&#x201c;" horiz-adv-x="396" d="M1 1098q0 63 20 120.5t56 107.5q4 7 10 15t13 15.5t15 12.5t16 5q11 0 25.5 -8.5t27 -20.5t21 -26t8.5 -25q0 -8 -6 -18t-13.5 -20.5t-15 -20.5t-11.5 -17q-14 -23 -21 -43t-10.5 -39.5t-5 -41t-5.5 -46.5q-2 -17 -11.5 -22.5t-24.5 -5.5q-42 0 -65 16.5t-23 61.5z M201 1098q0 63 20 120.5t56 107.5q4 7 10 15t13 15.5t15 12.5t16 5q11 0 25.5 -8.5t27 -20.5t21 -26t8.5 -25q0 -8 -6 -18t-13.5 -20.5t-15 -20.5t-11.5 -17q-14 -23 -21 -43t-10.5 -39.5t-5 -41t-5.5 -46.5q-2 -17 -11.5 -22.5t-24.5 -5.5q-42 0 -65 16.5t-23 61.5z" />
<glyph unicode="&#x201d;" horiz-adv-x="394" d="M-15 1100q0 8 6 18.5t13.5 21t15.5 20.5t13 18q13 23 20 43t10 39.5t4.5 40t5.5 45.5q2 18 11.5 23t26.5 5q41 0 63.5 -15.5t22.5 -62.5q0 -62 -20 -119.5t-56 -108.5q-5 -6 -10.5 -14.5t-12.5 -16t-15 -12.5t-16 -5q-11 0 -25.5 8.5t-27 20.5t-21 26t-8.5 25zM185 1100 q0 8 6 18.5t13.5 21t15.5 20.5t13 18q13 23 20 43t10 39.5t4.5 40t5.5 45.5q2 18 11.5 23t26.5 5q41 0 63.5 -15.5t22.5 -62.5q0 -62 -20 -119.5t-56 -108.5q-5 -6 -10.5 -14.5t-12.5 -16t-15 -12.5t-16 -5q-11 0 -25.5 8.5t-27 20.5t-21 26t-8.5 25z" />
<glyph unicode="&#x201e;" horiz-adv-x="394" d="M-41 -100q0 8 6 18.5t13.5 21t15.5 20.5t13 18q13 23 20 43t10 39.5t4.5 40t5.5 45.5q2 18 11.5 23t26.5 5q41 0 63.5 -15.5t22.5 -62.5q0 -62 -20 -119.5t-56 -108.5q-5 -6 -10.5 -14.5t-12.5 -16t-15 -12.5t-16 -5q-11 0 -25.5 8.5t-27 20.5t-21 26t-8.5 25zM159 -100 q0 8 6 18.5t13.5 21t15.5 20.5t13 18q13 23 20 43t10 39.5t4.5 40t5.5 45.5q2 18 11.5 23t26.5 5q41 0 63.5 -15.5t22.5 -62.5q0 -62 -20 -119.5t-56 -108.5q-5 -6 -10.5 -14.5t-12.5 -16t-15 -12.5t-16 -5q-11 0 -25.5 8.5t-27 20.5t-21 26t-8.5 25z" />
<glyph unicode="&#x2022;" horiz-adv-x="320" d="M39 714q0 25 8.5 49t24.5 42.5t38.5 29.5t50.5 11q29 0 51.5 -12t37.5 -32t23 -45.5t8 -52.5q0 -24 -9.5 -46t-26 -39t-38 -27t-46.5 -10q-27 0 -49.5 11t-38.5 29t-25 42t-9 50z" />
<glyph unicode="&#x2026;" horiz-adv-x="838" d="M35 108q0 10 7 15.5t17.5 8t21 2.5h18.5q10 0 23.5 -0.5t25.5 -4t20.5 -11t8.5 -20.5q0 -5 -0.5 -21.5t-1 -35.5t-1 -34.5t-1.5 -16.5q-8 -11 -20.5 -12.5t-23.5 -1.5q-31 0 -46 3t-22 12t-8.5 25t-5.5 42q-3 12 -7.5 24t-4.5 26zM335 108q0 10 7 15.5t17.5 8t21 2.5 h18.5q10 0 23.5 -0.5t25.5 -4t20.5 -11t8.5 -20.5q0 -5 -0.5 -21.5t-1 -35.5t-1 -34.5t-1.5 -16.5q-8 -11 -20.5 -12.5t-23.5 -1.5q-31 0 -46 3t-22 12t-8.5 25t-5.5 42q-3 12 -7.5 24t-4.5 26zM655 108q0 10 7 15.5t17.5 8t21 2.5h18.5q10 0 23.5 -0.5t25.5 -4t20.5 -11 t8.5 -20.5q0 -5 -0.5 -21.5t-1 -35.5t-1 -34.5t-1.5 -16.5q-8 -11 -20.5 -12.5t-23.5 -1.5q-31 0 -46 3t-22 12t-8.5 25t-5.5 42q-3 12 -7.5 24t-4.5 26z" />
<glyph unicode="&#x202f;" horiz-adv-x="364" />
<glyph unicode="&#x2039;" horiz-adv-x="308" d="M-5 354q0 13 5.5 26t14 25t17.5 24t17 23l86 130q5 8 12 20.5t16 24t19 19.5t21 8q10 0 20 -6t18.5 -15.5t14 -21t5.5 -21.5q0 -7 -8.5 -25t-22 -41.5t-29.5 -50.5t-31 -51t-27.5 -43.5t-17.5 -28.5q23 -48 59 -93.5t69 -86.5q12 -14 23.5 -26.5t22.5 -27.5q4 -8 4 -14 q0 -11 -11.5 -18.5t-27 -12t-31 -7t-22.5 -2.5q-9 0 -17.5 1.5t-16.5 6.5q-10 5 -29 28.5t-39.5 52t-38.5 55t-25 38.5q-17 24 -33.5 52t-16.5 58z" />
<glyph unicode="&#x203a;" horiz-adv-x="308" d="M5 614q0 10 11.5 18t27 12.5t31.5 7t24 2.5q9 0 17 -2.5t17 -7.5q10 -5 28.5 -28t39 -51t38.5 -54.5t26 -38.5q15 -24 31.5 -52t16.5 -58q0 -14 -5.5 -27t-13.5 -25t-17 -24t-16 -22l-88 -132q-5 -8 -12 -19.5t-15.5 -23t-18.5 -19.5t-20 -8q-11 0 -21.5 6t-19 15t-14 20 t-5.5 21q0 7 8.5 25.5t22 42.5t29.5 51t31 51t27.5 43.5t17.5 28.5q-21 48 -57 92.5t-71 85.5q-11 15 -23 28t-21 28q-6 6 -6 14z" />
<glyph unicode="&#x205f;" horiz-adv-x="456" />
<glyph unicode="&#x20ac;" horiz-adv-x="651" d="M15 674q0 32 13.5 47t34.5 19.5t45.5 3.5t46.5 0v8q-20 -2 -38 -4t-36 -2q-32 0 -32 28q0 26 9 40t23.5 20.5t33 7.5t38.5 2q2 55 14 117.5t39 116t72.5 89t114.5 35.5q59 0 102 -30.5t66 -83.5q5 -14 9.5 -26.5t4.5 -27.5q0 -28 -28 -28q-24 0 -38 8.5t-23.5 22 t-17 28.5t-17 28.5t-23.5 22t-37 8.5q-27 0 -47 -15t-34.5 -39t-23.5 -53.5t-15 -60t-8.5 -58t-3.5 -46.5q27 2 54 3t56 1q11 0 22.5 -3.5t11.5 -18.5q0 -24 -16.5 -36.5t-39 -18.5t-47.5 -7.5t-41 -3.5l2 -20q17 2 34.5 2h35.5q12 0 26 -3t14 -19q0 -20 -11 -32t-27 -18 t-34 -7.5t-32 -2.5q2 -17 6 -46t11 -63t16.5 -69.5t23.5 -64.5t32 -47t41 -18q20 0 36.5 16t28.5 38.5t20 46.5t11 41q2 12 3 27.5t13 24.5q3 3 8 3.5t10 0.5q12 0 26 -3.5t26 -11t20 -18.5t8 -25q0 -21 -7 -40.5t-15 -37.5q-14 -32 -31 -59t-39.5 -47.5t-51.5 -32 t-66 -11.5q-48 0 -82.5 18.5t-59 49.5t-40.5 71t-26.5 82.5t-16 85t-9.5 77.5q-29 -3 -58 -5.5t-58 -2.5q-14 0 -23 5.5t-9 20.5z" />
<glyph unicode="&#x2122;" horiz-adv-x="855" d="M19 1268q0 18 11.5 27.5t28.5 12.5q26 6 52 7.5t52 4.5q0 11 3 19.5t15 8.5t24 -5.5t20 -16.5l84 10q12 2 23 3t23 1t21 -3t9 -17q0 -18 -10.5 -29.5t-27.5 -16.5q-29 -6 -58 -6t-56 -2v-98q0 -127 7 -252t25 -250q2 -8 3 -15t1 -15q0 -24 -24 -24q-9 0 -21.5 2.5 t-20.5 7.5q-9 6 -12.5 11.5t-5.5 16.5q-5 36 -7 71.5t-5 70.5q-5 77 -9.5 152t-4.5 152q0 42 1 83t1 83q-32 -3 -63 -6.5t-63 -3.5q-16 0 -16 16zM409 924q0 11 0.5 44t1.5 75.5t2 90t2.5 88t3.5 69t4 33.5q2 10 16 10q18 0 30.5 -8t17.5 -28q7 -10 16 -37.5t19 -64.5 t20.5 -80t19.5 -82.5t16.5 -72.5t12.5 -51q15 86 29.5 171t28.5 173q3 14 5.5 27.5t2.5 28.5q0 9 -2 16.5t-2 15.5q0 11 6 13.5t14 2.5t19.5 -2.5t22 -7.5t17.5 -12.5t7 -17.5q0 -9 -1 -18t-3 -18q20 -85 31 -169.5t19 -172.5q5 -74 8.5 -146t9.5 -146q0 -5 1 -9t1 -7 q0 -11 -4.5 -17.5t-15.5 -6.5q-14 0 -26 6q-13 3 -20 6t-11 7.5t-5 12t-2 20.5q-3 103 -7.5 204t-16.5 204q-6 -36 -12 -70.5t-14 -69.5q-8 -38 -14 -76t-18 -74q-6 -15 -14 -23.5t-26 -8.5q-11 0 -18.5 5t-15.5 13q-6 7 -13.5 27t-15.5 46.5t-16 57t-15 59t-12.5 51.5 t-7.5 35v-68q0 -66 2 -132t8 -132q2 -14 4 -28.5t2 -29.5q0 -12 -8.5 -16t-19.5 -4q-29 0 -43.5 12t-14.5 42q0 60 -3 120t-3 120z" />
<glyph unicode="&#x25fc;" horiz-adv-x="935" d="M0 0v935h935v-935h-935z" />
</font>
</defs>
</svg>
