<?xml version="1.0" standalone="no"?>
<!DOCTYPE svg PUBLIC "-//W3C//DTD SVG 1.1//EN" "http://www.w3.org/Graphics/SVG/1.1/DTD/svg11.dtd" >
<svg>
<metadata>
Created by FontForge 20090622 at Mon Oct 15 13:18:03 2018
 By deploy user
Copyright 2014 Indian Type Foundry. All rights reserved.
</metadata>
<defs>
<font id="Teko-Light" horiz-adv-x="179" >
  <font-face 
    font-family="Teko Light"
    font-weight="300"
    font-stretch="normal"
    units-per-em="1000"
    panose-1="2 0 0 0 0 0 0 0 0 0"
    ascent="800"
    descent="-200"
    x-height="485"
    cap-height="622"
    bbox="-356 -373 1523 860"
    underline-thickness="50"
    underline-position="-50"
    unicode-range="U+000D-U+FB02"
  />
<missing-glyph horiz-adv-x="510" 
d="M251 302h-4l-100 -209h-60l134 260l-134 255h60l105 -206h4l100 206h60l-135 -261l135 -254h-60zM51 652v-603h400v603h-400zM0 0v701h502v-701h-502z" />
    <glyph glyph-name=".notdef" horiz-adv-x="510" 
d="M251 302h-4l-100 -209h-60l134 260l-134 255h60l105 -206h4l100 206h60l-135 -261l135 -254h-60zM51 652v-603h400v603h-400zM0 0v701h502v-701h-502z" />
    <glyph glyph-name=".null" horiz-adv-x="0" 
 />
    <glyph glyph-name="nonmarkingreturn" horiz-adv-x="333" 
 />
    <glyph glyph-name="NULL" horiz-adv-x="0" 
 />
    <glyph glyph-name="NULL" horiz-adv-x="0" 
 />
    <glyph glyph-name="CR" unicode="&#xd;" horiz-adv-x="0" 
 />
    <glyph glyph-name="space" unicode=" " horiz-adv-x="130" 
 />
    <glyph glyph-name="exclam" unicode="!" horiz-adv-x="185" 
d="M51 0v112h82v-112h-82zM50 622h85l-13 -426h-59z" />
    <glyph glyph-name="quotedbl" unicode="&#x22;" horiz-adv-x="254" 
d="M155 622h64v-212h-64v212zM35 622h64v-212h-64v212z" />
    <glyph glyph-name="numbersign" unicode="#" horiz-adv-x="448" 
d="M418 398h-58l-29 -174h57v-58h-67l-27 -166h-63l27 166h-117l-27 -166h-63l27 166h-48v58h58l29 174h-57v58h67l27 166h63l-27 -166h117l27 166h63l-27 -166h48v-58zM268 224l29 174h-117l-29 -174h117z" />
    <glyph glyph-name="dollar" unicode="$" horiz-adv-x="327" 
d="M140 350h68q79 0 79 -79v-192q0 -79 -79 -79h-12v-75h-65v75h-10q-79 0 -79 79v96h69v-85q0 -20 5.5 -25.5t25.5 -5.5h45q19 0 25 5.5t6 25.5v170q0 20 -6 25.5t-25 5.5h-68q-79 0 -79 79v173q0 79 79 79h12v75h65v-75h11q79 0 79 -79v-96h-69v85q0 20 -5.5 25.5
t-25.5 5.5h-46q-20 0 -25.5 -5.5t-5.5 -25.5v-151q0 -19 5.5 -25t25.5 -6z" />
    <glyph glyph-name="percent" unicode="%" horiz-adv-x="573" 
d="M392 622h61l-273 -622h-60zM487 80v166q0 19 -5 24.5t-23 5.5h-23q-18 0 -23 -5.5t-5 -24.5v-166q0 -19 5 -24.5t23 -5.5h23q18 0 23 5.5t5 24.5zM165 376v166q0 19 -5 24.5t-23 5.5h-23q-18 0 -23 -5.5t-5 -24.5v-166q0 -19 5 -24.5t23 -5.5h23q18 0 23 5.5t5 24.5z
M543 255v-184q0 -71 -67 -71h-57q-67 0 -67 71v184q0 71 67 71h57q67 0 67 -71zM221 551v-184q0 -71 -67 -71h-57q-67 0 -67 71v184q0 71 67 71h57q67 0 67 -71z" />
    <glyph glyph-name="ampersand" unicode="&#x26;" horiz-adv-x="418" 
d="M311 0h-192q-79 0 -79 79v116q0 28 11.5 47t40.5 39l34 26q-23 30 -33.5 45t-21.5 40.5t-11 47.5v103q0 79 79 79h92q79 0 79 -79v-99q0 -50 -16.5 -80t-52.5 -53l-24 -17l117 -149v79h56v-151l85 -108h-75l-38 48q-19 -13 -51 -13zM128 532v-98q0 -32 48 -88l9 7
q31 22 44 41t13 50v88q0 20 -6 25.5t-25 5.5h-52q-19 0 -25 -5.5t-6 -25.5zM139 59h164q10 0 20 2l-157 196l-27 -19q-18 -12 -24.5 -24t-6.5 -37v-87q0 -20 6 -25.5t25 -5.5z" />
    <glyph glyph-name="quotesingle" unicode="'" horiz-adv-x="139" 
d="M35 622h69v-212h-69v212z" />
    <glyph glyph-name="parenleft" unicode="(" horiz-adv-x="245" 
d="M49 342q0 449 206 449h16v-57l-14 -1q-78 -6 -109.5 -108t-31.5 -282v-73q0 -180 31.5 -282t109.5 -108l14 -1v-57h-16q-206 0 -206 449v71z" />
    <glyph glyph-name="parenright" unicode=")" horiz-adv-x="245" 
d="M193 271q0 -449 -206 -449h-16v57l14 1q78 6 109.5 108t31.5 282v73q0 180 -31.5 282t-109.5 108l-14 1v57h16q206 0 206 -449v-71z" />
    <glyph glyph-name="asterisk" unicode="*" horiz-adv-x="302" 
d="M120 581v41h62v-41q0 -33 -5 -56q27 14 90 34l20 -59q-69 -21 -94 -24q20 -18 37 -43l24 -33l-50 -37q-44 63 -53 82q-12 -26 -29 -49l-24 -33l-51 37q44 58 62 75q-30 5 -94 26l19 59l39 -13q23 -7 52 -23q-5 25 -5 57z" />
    <glyph glyph-name="plus" unicode="+" horiz-adv-x="380" 
d="M355 341v-60h-130v-150h-70v150h-130v60h130v150h70v-150h130z" />
    <glyph glyph-name="comma" unicode="," horiz-adv-x="142" 
d="M30 112h82v-58l-55 -191h-27v249z" />
    <glyph glyph-name="hyphen" unicode="-" horiz-adv-x="307" 
d="M55 263v58h196v-58h-196z" />
    <glyph glyph-name="period" unicode="." horiz-adv-x="142" 
d="M30 0v112h82v-112h-82z" />
    <glyph glyph-name="slash" unicode="/" horiz-adv-x="384" 
d="M272 699h68l-264 -835h-68z" />
    <glyph glyph-name="zero" unicode="0" horiz-adv-x="361" 
d="M242 90v442q0 20 -6 25.5t-25 5.5h-61q-20 0 -25.5 -5.5t-5.5 -25.5v-442q0 -20 5.5 -25.5t25.5 -5.5h61q19 0 25 5.5t6 25.5zM311 543v-464q0 -79 -79 -79h-103q-79 0 -79 79v464q0 79 79 79h103q79 0 79 -79z" />
    <glyph glyph-name="one" unicode="1" horiz-adv-x="211" 
d="M156 622v-622h-68v563h-68v59h136z" />
    <glyph glyph-name="two" unicode="2" horiz-adv-x="290" 
d="M93 532v-110h-68v121q0 79 79 79h77q79 0 79 -79v-55q0 -69 -26 -130l-137 -299h168v-59h-239v58l142 311q23 54 23 123v40q0 20 -5.5 25.5t-25.5 5.5h-36q-20 0 -25.5 -5.5t-5.5 -25.5z" />
    <glyph glyph-name="three" unicode="3" horiz-adv-x="322" 
d="M98 532v-102h-68v113q0 79 79 79h84q79 0 79 -79v-179q0 -45 -37 -48q37 -6 37 -47v-190q0 -79 -79 -79h-84q-79 0 -79 79v112h68v-101q0 -20 6 -25.5t25 -5.5h44q19 0 25 5.5t6 25.5v164q0 20 -6 25.5t-25 5.5h-73v60h73q19 0 25 5.5t6 25.5v156q0 20 -6 25.5t-25 5.5
h-44q-19 0 -25 -5.5t-6 -25.5z" />
    <glyph glyph-name="four" unicode="4" horiz-adv-x="325" 
d="M325 186v-59h-53v-127h-66v127h-201v53l164 442h67l-161 -436h131v118h66v-118h53z" />
    <glyph glyph-name="five" unicode="5" horiz-adv-x="321" 
d="M284 563h-175v-180h96q79 0 79 -79v-225q0 -79 -79 -79h-86q-79 0 -79 79v113h69v-102q0 -20 5.5 -25.5t25.5 -5.5h44q20 0 25.5 5.5t5.5 25.5v203q0 19 -5.5 25t-25.5 6h-144v298h244v-59z" />
    <glyph glyph-name="six" unicode="6" horiz-adv-x="352" 
d="M119 353h109q79 0 79 -79v-195q0 -79 -79 -79h-99q-79 0 -79 79v464q0 79 79 79h98q79 0 79 -79v-117h-68v106q0 20 -6 25.5t-25 5.5h-57q-20 0 -25.5 -5.5t-5.5 -25.5v-179zM238 90v173q0 19 -6 25t-25 6h-88v-204q0 -20 5.5 -25.5t25.5 -5.5h57q19 0 25 5.5t6 25.5z
" />
    <glyph glyph-name="seven" unicode="7" horiz-adv-x="256" 
d="M251 622v-46l-161 -576h-68l155 563h-172v59h246z" />
    <glyph glyph-name="eight" unicode="8" horiz-adv-x="360" 
d="M310 543v-183q0 -45 -37 -48q37 -6 37 -47v-186q0 -79 -79 -79h-102q-79 0 -79 79v186q0 41 37 47q-37 3 -37 48v183q0 79 79 79h102q79 0 79 -79zM242 90v162q0 20 -6 25.5t-25 5.5h-62q-19 0 -25 -5.5t-6 -25.5v-162q0 -20 6 -25.5t25 -5.5h62q19 0 25 5.5t6 25.5z
M242 374v158q0 20 -6 25.5t-25 5.5h-62q-19 0 -25 -5.5t-6 -25.5v-158q0 -20 6 -25.5t25 -5.5h62q19 0 25 5.5t6 25.5z" />
    <glyph glyph-name="nine" unicode="9" horiz-adv-x="347" 
d="M119 622h99q79 0 79 -79v-464q0 -79 -79 -79h-98q-79 0 -79 79v117h68v-106q0 -20 5.5 -25.5t25.5 -5.5h57q19 0 25 5.5t6 25.5v169h-109q-79 0 -79 79v205q0 79 79 79zM140 318h88v214q0 20 -6 25.5t-25 5.5h-57q-20 0 -25.5 -5.5t-5.5 -25.5v-183q0 -19 5.5 -25
t25.5 -6z" />
    <glyph glyph-name="colon" unicode=":" horiz-adv-x="142" 
d="M30 373v112h82v-112h-82zM30 0v112h82v-112h-82z" />
    <glyph glyph-name="semicolon" unicode=";" horiz-adv-x="142" 
d="M30 373v112h82v-112h-82zM30 112h82v-58l-55 -191h-27v249z" />
    <glyph glyph-name="less" unicode="&#x3c;" horiz-adv-x="390" 
d="M360 399l-267 -88l267 -88v-66l-330 115v78l330 115v-66z" />
    <glyph glyph-name="equal" unicode="=" horiz-adv-x="390" 
d="M30 194v62h330v-62h-330zM30 366v62h330v-62h-330z" />
    <glyph glyph-name="greater" unicode="&#x3e;" horiz-adv-x="390" 
d="M297 311l-267 88v66l330 -115v-78l-330 -115v66z" />
    <glyph glyph-name="question" unicode="?" horiz-adv-x="308" 
d="M99 622h85q79 0 79 -77v-204q0 -78 -79 -78h-18l-3 -67h-57l-6 126h66q18 0 23 6.5t5 25.5v177q0 19 -5 26t-23 7h-48q-19 0 -24 -7t-5 -26v-72h-69v86q0 77 79 77zM93 0v112h82v-112h-82z" />
    <glyph glyph-name="at" unicode="@" horiz-adv-x="651" 
d="M298 337v-166q0 -19 6 -25t25 -6h30q18 0 26 8t8 28v156q0 20 -8 28t-26 8h-30q-19 0 -25 -6t-6 -25zM229 348q0 79 79 79h30q44 0 55 -34v34h68v-287h45q20 0 25.5 6t5.5 25v300q0 20 -6 26t-25 6h-321q-19 0 -25 -6t-6 -26v-440q0 -19 6 -25t25 -6h277v-61h-298
q-79 0 -79 79v467q0 79 79 79h362q79 0 79 -79v-325q0 -79 -79 -79h-126v49q-5 -49 -62 -49h-30q-79 0 -79 79v188z" />
    <glyph glyph-name="A" unicode="A" horiz-adv-x="343" 
d="M259 0l-26 158h-126l-23 -158h-69l97 622h109l107 -622h-69zM115 217h109l-58 357z" />
    <glyph glyph-name="B" unicode="B" horiz-adv-x="381" 
d="M262 378v154q0 20 -6 25.5t-25 5.5h-107v-216h107q19 0 25 5.5t6 25.5zM262 90v167q0 19 -6 25t-25 6h-107v-229h107q19 0 25 5.5t6 25.5zM55 622h197q79 0 79 -79v-179q0 -46 -37 -49q37 -6 37 -46v-190q0 -79 -79 -79h-197v622z" />
    <glyph glyph-name="C" unicode="C" horiz-adv-x="345" 
d="M305 438h-69v94q0 20 -6 25.5t-25 5.5h-55q-20 0 -25.5 -5.5t-5.5 -25.5v-443q0 -19 5.5 -25t25.5 -6h55q19 0 25 6t6 25v94h69v-105q0 -79 -79 -79h-97q-79 0 -79 79v465q0 79 79 79h97q79 0 79 -79v-105z" />
    <glyph glyph-name="D" unicode="D" horiz-adv-x="381" 
d="M55 622h197q79 0 79 -79v-464q0 -79 -79 -79h-197v622zM262 90v442q0 20 -6 25.5t-25 5.5h-107v-504h107q19 0 25 5.5t6 25.5z" />
    <glyph glyph-name="E" unicode="E" horiz-adv-x="315" 
d="M124 59h171v-59h-240v622h233v-59h-164v-210h134v-59h-134v-235z" />
    <glyph glyph-name="F" unicode="F" horiz-adv-x="303" 
d="M298 563h-174v-220h134v-59h-134v-284h-69v622h243v-59z" />
    <glyph glyph-name="G" unicode="G" horiz-adv-x="350" 
d="M305 448h-69v84q0 20 -6 25.5t-25 5.5h-55q-20 0 -25.5 -5.5t-5.5 -25.5v-443q0 -19 5.5 -25t25.5 -6h55q19 0 25 6t6 25v165h-50v59h119v-235q0 -79 -79 -79h-97q-79 0 -79 79v465q0 79 79 79h97q79 0 79 -79v-95z" />
    <glyph glyph-name="H" unicode="H" horiz-adv-x="382" 
d="M258 622h69v-622h-69v281h-134v-281h-69v622h69v-282h134v282z" />
    <glyph glyph-name="I" unicode="I" horiz-adv-x="198" 
d="M65 622h68v-622h-68v622z" />
    <glyph glyph-name="J" unicode="J" horiz-adv-x="301" 
d="M15 192h69v-102q0 -20 6 -25.5t25 -5.5h34q19 0 25 5.5t6 25.5v532h69v-543q0 -79 -79 -79h-76q-79 0 -79 79v113z" />
    <glyph glyph-name="K" unicode="K" horiz-adv-x="345" 
d="M335 622l-134 -314l132 -308h-74l-129 308l131 314h74zM55 0v622h68v-622h-68z" />
    <glyph glyph-name="L" unicode="L" horiz-adv-x="271" 
d="M123 59h143v-59h-211v622h68v-563z" />
    <glyph glyph-name="M" unicode="M" horiz-adv-x="475" 
d="M114 0h-59v622h75l107 -400l108 400h75v-622h-59v471l-87 -336h-73l-87 336v-471z" />
    <glyph glyph-name="N" unicode="N" horiz-adv-x="377" 
d="M259 622h63v-622h-75l-129 482v-482h-63v622h80l124 -465v465z" />
    <glyph glyph-name="O" unicode="O" horiz-adv-x="360" 
d="M129 622h102q79 0 79 -79v-464q0 -79 -79 -79h-102q-79 0 -79 79v464q0 79 79 79zM242 90v442q0 20 -6 25.5t-25 5.5h-62q-19 0 -25 -5.5t-6 -25.5v-442q0 -20 6 -25.5t25 -5.5h62q19 0 25 5.5t6 25.5z" />
    <glyph glyph-name="P" unicode="P" horiz-adv-x="345" 
d="M55 622h181q79 0 79 -79v-214q0 -79 -79 -79h-113v-250h-68v622zM247 340v192q0 20 -5.5 25.5t-25.5 5.5h-93v-254h93q20 0 25.5 5.5t5.5 25.5z" />
    <glyph glyph-name="Q" unicode="Q" horiz-adv-x="360" 
d="M129 0q-79 0 -79 79v464q0 79 79 79h102q79 0 79 -79v-464q0 -71 -62 -78l65 -98h-68l-63 97h-53zM118 532v-442q0 -20 6 -25.5t25 -5.5h62q19 0 25 5.5t6 25.5v442q0 20 -6 25.5t-25 5.5h-62q-19 0 -25 -5.5t-6 -25.5z" />
    <glyph glyph-name="R" unicode="R" horiz-adv-x="364" 
d="M123 260v-260h-68v622h181q79 0 79 -79v-204q0 -71 -62 -78l94 -261h-74l-91 260h-59zM123 563v-244h93q20 0 25.5 5.5t5.5 25.5v182q0 20 -5.5 25.5t-25.5 5.5h-93z" />
    <glyph glyph-name="S" unicode="S" horiz-adv-x="327" 
d="M218 90v170q0 20 -6 25.5t-25 5.5h-68q-79 0 -79 79v173q0 79 79 79h88q79 0 79 -79v-96h-69v85q0 20 -5.5 25.5t-25.5 5.5h-46q-20 0 -25.5 -5.5t-5.5 -25.5v-151q0 -19 5.5 -25t25.5 -6h68q79 0 79 -79v-192q0 -79 -79 -79h-87q-79 0 -79 79v96h69v-85q0 -20 5.5 -25.5
t25.5 -5.5h45q19 0 25 5.5t6 25.5z" />
    <glyph glyph-name="T" unicode="T" horiz-adv-x="278" 
d="M273 622v-59h-100v-563h-68v563h-100v59h268z" />
    <glyph glyph-name="U" unicode="U" horiz-adv-x="364" 
d="M244 622h68v-543q0 -79 -79 -79h-102q-79 0 -79 79v543h68v-532q0 -20 6 -25.5t25 -5.5h62q19 0 25 5.5t6 25.5v532z" />
    <glyph glyph-name="V" unicode="V" horiz-adv-x="319" 
d="M245 622h69l-100 -622h-109l-100 622h69l85 -574z" />
    <glyph glyph-name="W" unicode="W" horiz-adv-x="549" 
d="M470 622h69l-91 -622h-104l-70 493l-69 -493h-104l-91 622h69l75 -574l79 574h82l79 -574z" />
    <glyph glyph-name="X" unicode="X" horiz-adv-x="334" 
d="M203 318l126 -318h-74l-88 253l-88 -253h-74l126 318l-116 304h74l78 -242l78 242h74z" />
    <glyph glyph-name="Y" unicode="Y" horiz-adv-x="319" 
d="M196 0h-68v190l-123 432h69l88 -365l83 365h69l-118 -432v-190z" />
    <glyph glyph-name="Z" unicode="Z" horiz-adv-x="273" 
d="M268 623v-59l-195 -505h190v-59h-258v59l195 505h-185v59h253z" />
    <glyph glyph-name="bracketleft" unicode="[" horiz-adv-x="309" 
d="M233 722h-101v-830h101v-59h-170v948h170v-59z" />
    <glyph glyph-name="backslash" unicode="\" horiz-adv-x="385" 
d="M44 699h69l264 -835h-69z" />
    <glyph glyph-name="bracketright" unicode="]" horiz-adv-x="309" 
d="M223 781v-948h-170v59h101v830h-101v59h170z" />
    <glyph glyph-name="asciicircum" unicode="^" horiz-adv-x="443" 
d="M180 671h83l135 -344h-72l-105 277l-104 -277h-72z" />
    <glyph glyph-name="underscore" unicode="_" horiz-adv-x="474" 
d="M0 -103v59h474v-59h-474z" />
    <glyph glyph-name="grave" unicode="`" horiz-adv-x="400" 
d="M203 643l78 -127h-62l-98 127h82z" />
    <glyph glyph-name="a" unicode="a" horiz-adv-x="328" 
d="M214 485h69v-485h-69v33q-11 -33 -55 -33h-40q-79 0 -79 79v327q0 79 79 79h40q44 0 55 -33v33zM140 59h40q18 0 26 8t8 28v295q0 20 -8 28t-26 8h-40q-20 0 -25.5 -6t-5.5 -25v-305q0 -20 5.5 -25.5t25.5 -5.5z" />
    <glyph glyph-name="b" unicode="b" horiz-adv-x="328" 
d="M169 486h40q79 0 79 -79v-328q0 -79 -79 -79h-40q-44 0 -55 33v-33h-69v669h69v-216q11 33 55 33zM219 90v306q0 20 -5.5 25.5t-25.5 5.5h-40q-18 0 -26 -8t-8 -28v-296q0 -20 8 -28t26 -8h40q20 0 25.5 5.5t5.5 25.5z" />
    <glyph glyph-name="c" unicode="c" horiz-adv-x="325" 
d="M290 341h-69v54q0 19 -5.5 25t-25.5 6h-50q-20 0 -25.5 -6t-5.5 -25v-305q0 -20 5.5 -25.5t25.5 -5.5h50q20 0 25.5 5.5t5.5 25.5v54h69v-65q0 -79 -79 -79h-92q-79 0 -79 79v327q0 79 79 79h92q79 0 79 -79v-65z" />
    <glyph glyph-name="d" unicode="d" horiz-adv-x="328" 
d="M214 669h69v-669h-69v33q-11 -33 -55 -33h-40q-79 0 -79 79v328q0 79 79 79h40q44 0 55 -33v216zM140 59h40q18 0 26 8t8 28v296q0 20 -8 28t-26 8h-40q-20 0 -25.5 -5.5t-5.5 -25.5v-306q0 -20 5.5 -25.5t25.5 -5.5z" />
    <glyph glyph-name="e" unicode="e" horiz-adv-x="330" 
d="M124 485h92q79 0 79 -79v-187h-181v-129q0 -20 6 -25.5t25 -5.5h47q20 0 25.5 5.5t5.5 25.5v44h69v-55q0 -79 -79 -79h-89q-79 0 -79 79v327q0 79 79 79zM114 278h112v117q0 19 -6 25t-25 6h-50q-19 0 -25 -6t-6 -25v-117z" />
    <glyph glyph-name="f" unicode="f" horiz-adv-x="197" 
d="M192 605h-39q-19 0 -25 -5.5t-6 -25.5v-89h70v-59h-70v-426h-69v426h-48v59h48v105q0 79 79 79h60v-64z" />
    <glyph glyph-name="g" unicode="g" horiz-adv-x="328" 
d="M214 485h69v-547q0 -79 -79 -79h-149v59h128q19 0 25 6t6 25v84q-11 -33 -55 -33h-40q-79 0 -79 79v327q0 79 79 79h40q44 0 55 -33v33zM140 59h40q18 0 26 8t8 28v295q0 20 -8 28t-26 8h-40q-20 0 -25.5 -6t-5.5 -25v-305q0 -20 5.5 -25.5t25.5 -5.5z" />
    <glyph glyph-name="h" unicode="h" horiz-adv-x="333" 
d="M169 485h40q79 0 79 -79v-406h-69v395q0 19 -5.5 25t-25.5 6h-40q-18 0 -26 -8t-8 -28v-390h-69v669h69v-217q11 33 55 33z" />
    <glyph glyph-name="i" unicode="i" horiz-adv-x="159" 
d="M43 589v81h73v-81h-73zM114 0h-69v485h69v-485z" />
    <glyph glyph-name="j" unicode="j" horiz-adv-x="159" 
d="M43 589v81h73v-81h-73zM45 -51v536h69v-547q0 -79 -79 -79h-35v59h14q20 0 25.5 6t5.5 25z" />
    <glyph glyph-name="k" unicode="k" horiz-adv-x="325" 
d="M320 485l-113 -229l113 -256h-74l-110 256l110 229h74zM45 0v669h69v-669h-69z" />
    <glyph glyph-name="l" unicode="l" horiz-adv-x="159" 
d="M114 0h-69v669h69v-669z" />
    <glyph glyph-name="m" unicode="m" horiz-adv-x="502" 
d="M343 485h40q79 0 79 -79v-406h-69v395q0 19 -5.5 25t-25.5 6h-40q-18 0 -26 -8t-8 -28v-390h-69v395q0 19 -5.5 25t-25.5 6h-40q-18 0 -26 -8t-8 -28v-390h-69v485h69v-33q11 33 55 33h40q57 0 73 -40q10 40 61 40z" />
    <glyph glyph-name="n" unicode="n" horiz-adv-x="333" 
d="M169 485h40q79 0 79 -79v-406h-69v395q0 19 -5.5 25t-25.5 6h-40q-18 0 -26 -8t-8 -28v-390h-69v485h69v-33q11 33 55 33z" />
    <glyph glyph-name="o" unicode="o" horiz-adv-x="340" 
d="M119 485h102q79 0 79 -79v-327q0 -79 -79 -79h-102q-79 0 -79 79v327q0 79 79 79zM232 90v305q0 19 -6 25t-25 6h-62q-19 0 -25 -6t-6 -25v-305q0 -20 6 -25.5t25 -5.5h62q19 0 25 5.5t6 25.5z" />
    <glyph glyph-name="p" unicode="p" horiz-adv-x="328" 
d="M169 485h40q79 0 79 -79v-327q0 -79 -79 -79h-40q-44 0 -55 33v-174h-69v626h69v-33q11 33 55 33zM219 90v305q0 19 -5.5 25t-25.5 6h-40q-18 0 -26 -8t-8 -28v-295q0 -20 8 -28t26 -8h40q20 0 25.5 5.5t5.5 25.5z" />
    <glyph glyph-name="q" unicode="q" horiz-adv-x="328" 
d="M214 485h69v-626h-69v174q-11 -33 -55 -33h-40q-79 0 -79 79v327q0 79 79 79h40q44 0 55 -33v33zM140 59h40q18 0 26 8t8 28v295q0 20 -8 28t-26 8h-40q-20 0 -25.5 -6t-5.5 -25v-305q0 -20 5.5 -25.5t25.5 -5.5z" />
    <glyph glyph-name="r" unicode="r" horiz-adv-x="212" 
d="M186 485h21v-60h-30q-63 0 -63 -75v-350h-69v485h69v-56q8 23 26.5 39.5t45.5 16.5z" />
    <glyph glyph-name="s" unicode="s" horiz-adv-x="297" 
d="M194 89v92q0 19 -6 25t-25 6h-49q-79 0 -79 79v115q0 79 79 79h68q79 0 79 -79v-49h-68v39q0 20 -5.5 25.5t-25.5 5.5h-28q-20 0 -25.5 -5.5t-5.5 -25.5v-95q0 -19 5.5 -25t25.5 -6h49q79 0 79 -79v-112q0 -79 -79 -79h-67q-79 0 -79 79v49h68v-39q0 -19 5.5 -25t25.5 -6
h27q19 0 25 6t6 25z" />
    <glyph glyph-name="t" unicode="t" horiz-adv-x="197" 
d="M187 426h-69v-331q0 -19 6 -25t25 -6h38v-64h-59q-79 0 -79 79v347h-44v59h44v79h69v-79h69v-59z" />
    <glyph glyph-name="u" unicode="u" horiz-adv-x="333" 
d="M219 485h69v-485h-69v33q-11 -33 -55 -33h-40q-79 0 -79 79v406h69v-395q0 -20 6 -25.5t25 -5.5h40q18 0 26 8t8 28v390z" />
    <glyph glyph-name="v" unicode="v" horiz-adv-x="279" 
d="M74 485l65 -437l66 437h69l-80 -485h-109l-80 485h69z" />
    <glyph glyph-name="w" unicode="w" horiz-adv-x="507" 
d="M436 485h66l-86 -485h-105l-58 389l-57 -389h-105l-86 485h66l72 -437l63 437h95l62 -437z" />
    <glyph glyph-name="x" unicode="x" horiz-adv-x="314" 
d="M188 248l121 -248h-74l-78 175l-78 -175h-74l121 248l-111 237h74l69 -165l67 165h74z" />
    <glyph glyph-name="y" unicode="y" horiz-adv-x="309" 
d="M107 -141h-54v59h33q43 0 50 31l12 51h-45l-93 485h69l78 -437l73 437h69l-97 -547q-15 -79 -95 -79z" />
    <glyph glyph-name="z" unicode="z" horiz-adv-x="266" 
d="M251 485v-59l-167 -367h167v-59h-236v59l167 367h-157v59h226z" />
    <glyph glyph-name="braceleft" unicode="{" horiz-adv-x="271" 
d="M180 689v-261q0 -111 -75 -120q75 -10 75 -119v-263q0 -18 7.5 -25.5t26.5 -7.5h50v-59h-83q-40 0 -54.5 19.5t-14.5 58.5v251q0 60 -21 88t-67 28h-19v58h19q46 0 67 28t21 89v249q0 39 15 58.5t54 19.5h83v-59h-50q-19 0 -26.5 -7.5t-7.5 -25.5z" />
    <glyph glyph-name="bar" unicode="|" 
d="M55 719h69v-817h-69v817z" />
    <glyph glyph-name="braceright" unicode="}" horiz-adv-x="271" 
d="M90 428v261q0 18 -7.5 25.5t-26.5 7.5h-50v59h83q39 0 54 -19.5t15 -58.5v-249q0 -61 21 -89t67 -28h19v-58h-19q-46 0 -67 -28t-21 -88v-251q0 -39 -14.5 -58.5t-54.5 -19.5h-83v59h50q19 0 26.5 7.5t7.5 25.5v263q0 109 75 119q-75 9 -75 120z" />
    <glyph glyph-name="asciitilde" unicode="~" horiz-adv-x="472" 
d="M318 216q-32 0 -57 13t-39 28q-36 41 -76 41q-18 0 -24 -8.5t-6 -25.5v-47h-64v60q0 76 77 76h29q27 0 50 -13t37 -28t37 -28t44.5 -13t26.5 8t5 27v46h64v-60q0 -76 -78 -76h-26z" />
    <glyph glyph-name="uni00A0" unicode="&#xa0;" horiz-adv-x="130" 
 />
    <glyph glyph-name="exclamdown" unicode="&#xa1;" horiz-adv-x="185" 
d="M135 -137h-85l13 426h59zM51 373v112h82v-112h-82z" />
    <glyph glyph-name="cent" unicode="&#xa2;" horiz-adv-x="325" 
d="M290 341h-69v54q0 19 -5.5 25t-25.5 6h-50q-20 0 -25.5 -6t-5.5 -25v-305q0 -20 5.5 -25.5t25.5 -5.5h50q20 0 25.5 5.5t5.5 25.5v54h69v-65q0 -79 -79 -79h-10v-75h-65v75h-17q-79 0 -79 79v327q0 79 79 79h17v76h65v-76h10q79 0 79 -79v-65z" />
    <glyph glyph-name="sterling" unicode="&#xa3;" horiz-adv-x="355" 
d="M330 59v-59h-295v59q26 0 37.5 23.5t11.5 74.5v116h-49v59h49v211q0 79 79 79h84q79 0 79 -79v-91h-68v80q0 20 -6 25.5t-25 5.5h-43q-20 0 -25.5 -5.5t-5.5 -25.5v-200h127v-59h-127v-131q0 -67 -26 -83h203z" />
    <glyph glyph-name="currency" unicode="&#xa4;" horiz-adv-x="454" 
d="M368 407v-217q0 -22 -6 -37l41 -40l-46 -46l-46 46q-14 -2 -22 -2h-102q-16 0 -28 3l-48 -47l-46 46l47 46q-4 12 -4 31v217q0 20 4 32l-47 47l46 46l49 -49q12 3 27 3h102q14 0 20 -1l48 47l46 -46l-41 -41q6 -15 6 -38zM207 170h62q19 0 25 6t6 25v195q0 20 -6 25.5
t-25 5.5h-62q-19 0 -25 -5.5t-6 -25.5v-195q0 -19 6 -25t25 -6z" />
    <glyph glyph-name="yen" unicode="&#xa5;" horiz-adv-x="344" 
d="M327 340v-59h-95l-19 -66h114v-56h-121v-159h-68v159h-121v56h114l-19 66h-95v59h78l-80 282h68l89 -347l89 347h68l-80 -282h78z" />
    <glyph glyph-name="brokenbar" unicode="&#xa6;" 
d="M124 374h-69v345h69v-345zM55 247h69v-345h-69v345z" />
    <glyph glyph-name="section" unicode="&#xa7;" horiz-adv-x="387" 
d="M190 454h68q79 0 79 -79v-83q0 -75 -48 -87q8 -18 8 -42v-115q0 -79 -79 -79h-88q-79 0 -79 79v49h69v-38q0 -19 6 -25t25 -6h46q19 0 25 6t6 25v93q0 20 -6 25.5t-25 5.5h-68q-79 0 -79 79v83q0 75 48 87q-8 18 -8 42v115q0 79 79 79h88q79 0 79 -79v-49h-69v38
q0 20 -5.5 25.5t-25.5 5.5h-46q-20 0 -25.5 -5.5t-5.5 -25.5v-93q0 -19 5.5 -25t25.5 -6zM150 242h87q19 0 25 6t6 25v91q0 20 -6 25.5t-25 5.5h-87q-20 0 -25.5 -5.5t-5.5 -25.5v-91q0 -19 5.5 -25t25.5 -6z" />
    <glyph glyph-name="dieresis" unicode="&#xa8;" horiz-adv-x="400" 
d="M244 541v84h88v-84h-88zM68 541v84h88v-84h-88z" />
    <glyph glyph-name="copyright" unicode="&#xa9;" horiz-adv-x="682" 
d="M406 240v24h69v-35q0 -79 -79 -79h-92q-79 0 -79 79v177q0 79 79 79h92q79 0 79 -79v-35h-69v24q0 19 -6 25t-25 6h-50q-19 0 -25 -6t-6 -25v-155q0 -20 6 -25.5t25 -5.5h50q19 0 25 5.5t6 25.5zM257 60h186q141 0 141 210v73q0 221 -141 221h-186q-141 0 -141 -221v-73
q0 -210 141 -210zM651 342v-71q0 -139 -49.5 -205t-156.5 -66h-190q-107 0 -156.5 66t-49.5 205v71q0 141 50 210.5t156 69.5h190q106 0 156 -69.5t50 -210.5z" />
    <glyph glyph-name="ordfeminine" unicode="&#xaa;" horiz-adv-x="236" 
d="M157 622h49v-342h-49v24q-8 -24 -39 -24h-37q-56 0 -56 56v230q0 56 56 56h37q31 0 39 -24v24zM96 323h37q13 0 18.5 5.5t5.5 19.5v206q0 26 -24 26h-37q-14 0 -18.5 -4t-4.5 -18v-213q0 -14 4.5 -18t18.5 -4z" />
    <glyph glyph-name="guillemotleft" unicode="&#xab;" horiz-adv-x="487" 
d="M364 106l-121 156l121 156h77l-124 -157l124 -155h-77zM164 106l-121 156l121 156h77l-124 -157l124 -155h-77z" />
    <glyph glyph-name="logicalnot" unicode="&#xac;" horiz-adv-x="432" 
d="M392 395v-218h-59v150h-303v68h362z" />
    <glyph glyph-name="uni00AD" unicode="&#xad;" horiz-adv-x="307" 
d="M55 263v58h196v-58h-196z" />
    <glyph glyph-name="registered" unicode="&#xae;" horiz-adv-x="397" 
d="M216 527v60q0 7 -6 7h-27v-73h27q6 0 6 6zM152 620h64q31 0 31 -30v-66q0 -26 -21 -30l32 -87h-32l-31 86h-12v-86h-31v213zM148 376h102q76 0 76 113v40q0 121 -76 121h-102q-76 0 -76 -121v-40q0 -113 76 -113zM362 529v-39q0 -75 -27 -111t-85 -36h-103q-58 0 -85 36
t-27 111v39q0 152 112 152h103q112 0 112 -152z" />
    <glyph glyph-name="macron" unicode="&#xaf;" horiz-adv-x="400" 
d="M82 550v58h236v-58h-236z" />
    <glyph glyph-name="degree" unicode="&#xb0;" horiz-adv-x="356" 
d="M228 439v97q0 19 -6 24.5t-25 5.5h-44q-19 0 -25 -5.5t-6 -24.5v-97q0 -19 6 -24.5t25 -5.5h44q19 0 25 5.5t6 24.5zM292 545v-115q0 -77 -77 -77h-80q-77 0 -77 77v115q0 77 77 77h80q77 0 77 -77z" />
    <glyph glyph-name="plusminus" unicode="&#xb1;" horiz-adv-x="390" 
d="M230 409h130v-60h-130v-80h-70v80h-130v60h130v80h70v-80zM30 179v60h330v-60h-330z" />
    <glyph glyph-name="twosuperior" unicode="&#xb2;" 
d="M61 563v-51h-47v67q0 43 43 43h63q43 0 43 -43v-31q0 -46 -16 -77l-79 -146h98v-45h-152v44l86 158q15 28 15 69v12q0 11 -3.5 14t-13.5 3h-20q-10 0 -13.5 -3t-3.5 -14z" />
    <glyph glyph-name="threesuperior" unicode="&#xb3;" horiz-adv-x="196" 
d="M64 563v-46h-48v62q0 43 44 43h66q44 0 44 -43v-99q0 -24 -21 -26q21 -3 21 -26v-105q0 -43 -44 -43h-66q-44 0 -44 43v62h48v-45q0 -11 3 -14.5t14 -3.5h24q11 0 14 3.5t3 14.5v75q0 11 -3 14t-14 3h-30v43h30q11 0 14 3.5t3 13.5v71q0 11 -3 14t-14 3h-24q-11 0 -14 -3
t-3 -14z" />
    <glyph glyph-name="acute" unicode="&#xb4;" horiz-adv-x="400" 
d="M118 516l78 127h82l-98 -127h-62z" />
    <glyph glyph-name="uni00B5" unicode="&#xb5;" horiz-adv-x="339" 
d="M214 485h69v-485h-69v33q-11 -33 -55 -33h-50v-141h-69v626h69v-395q0 -20 5.5 -25.5t25.5 -5.5h40q18 0 26 8t8 28v390z" />
    <glyph glyph-name="paragraph" unicode="&#xb6;" horiz-adv-x="490" 
d="M357 622h68v-763h-68v763zM275 622v-763h-68v371h-73q-79 0 -79 79v234q0 79 79 79h141z" />
    <glyph glyph-name="periodcentered" unicode="&#xb7;" horiz-adv-x="202" 
d="M30 259v112h82v-112h-82z" />
    <glyph glyph-name="cedilla" unicode="&#xb8;" horiz-adv-x="400" 
d="M208 -73v22h65v-28q0 -44 -23.5 -66.5t-65.5 -22.5h-48v58h37q19 0 27 8.5t8 28.5z" />
    <glyph glyph-name="onesuperior" unicode="&#xb9;" horiz-adv-x="126" 
d="M96 622v-342h-48v300h-37v42h85z" />
    <glyph glyph-name="ordmasculine" unicode="&#xba;" horiz-adv-x="226" 
d="M82 622h62q56 0 56 -56v-230q0 -56 -56 -56h-62q-56 0 -56 56v230q0 56 56 56zM152 344v214q0 14 -4.5 18t-18.5 4h-33q-14 0 -18 -4t-4 -18v-214q0 -14 4 -18t18 -4h33q14 0 18.5 4t4.5 18z" />
    <glyph glyph-name="guillemotright" unicode="&#xbb;" horiz-adv-x="487" 
d="M441 262l-121 -156h-77l124 155l-124 157h77zM241 262l-121 -156h-77l124 155l-124 157h77z" />
    <glyph glyph-name="questiondown" unicode="&#xbf;" horiz-adv-x="308" 
d="M194 26h69v-86q0 -77 -79 -77h-85q-79 0 -79 77v204q0 78 79 78h18l3 67h57l6 -126h-66q-18 0 -23 -6.5t-5 -25.5v-177q0 -19 5 -26t23 -7h48q19 0 24 7t5 26v72zM190 485v-112h-82v112h82z" />
    <glyph glyph-name="Agrave" unicode="&#xc0;" horiz-adv-x="343" 
d="M259 0l-26 158h-126l-23 -158h-69l97 622h109l107 -622h-69zM115 217h109l-58 357zM191 653h-62l-98 127h82z" />
    <glyph glyph-name="Aacute" unicode="&#xc1;" horiz-adv-x="343" 
d="M259 0l-26 158h-126l-23 -158h-69l97 622h109l107 -622h-69zM115 217h109l-58 357zM295 780l-98 -127h-62l78 127h82z" />
    <glyph glyph-name="Acircumflex" unicode="&#xc2;" horiz-adv-x="343" 
d="M259 0l-26 158h-126l-23 -158h-69l97 622h109l107 -622h-69zM115 217h109l-58 357zM166 737l-52 -84h-76l85 127h87l85 -127h-76z" />
    <glyph glyph-name="Atilde" unicode="&#xc3;" horiz-adv-x="343" 
d="M259 0l-26 158h-126l-23 -158h-69l97 622h109l107 -622h-69zM115 217h109l-58 357zM103 664v-11h-62v14q0 37 16.5 56.5t55.5 19.5h6q23 0 52 -17.5t39.5 -17.5t14.5 5t4 20v10h62v-14q0 -37 -15.5 -56.5t-55.5 -19.5h-5q-24 0 -54.5 17.5t-40.5 17.5q-17 0 -17 -24z" />
    <glyph glyph-name="Adieresis" unicode="&#xc4;" horiz-adv-x="343" 
d="M259 0l-26 158h-126l-23 -158h-69l97 622h109l107 -622h-69zM115 217h109l-58 357zM122 737v-84h-88v84h88zM298 737v-84h-88v84h88z" />
    <glyph glyph-name="Aring" unicode="&#xc5;" horiz-adv-x="343" 
d="M259 0l-26 158h-126l-23 -158h-69l97 622h109l107 -622h-69zM115 217h109l-58 357zM196 653h-60q-65 0 -65 65v17q0 65 65 65h60q65 0 65 -65v-17q0 -65 -65 -65zM122 729v-5q0 -17 5 -22t23 -5h32q18 0 23 5t5 22v5q0 17 -5 22t-23 5h-32q-18 0 -23 -5t-5 -22z" />
    <glyph glyph-name="AE" unicode="&#xc6;" horiz-adv-x="528" 
d="M333 59h171v-59h-240v158h-125l-56 -158h-69l226 622h257v-59h-164v-210h134v-59h-134v-235zM264 217v292l-104 -292h104z" />
    <glyph glyph-name="Ccedilla" unicode="&#xc7;" horiz-adv-x="345" 
d="M305 438h-69v94q0 20 -6 25.5t-25 5.5h-55q-20 0 -25.5 -5.5t-5.5 -25.5v-443q0 -19 5.5 -25t25.5 -6h55q19 0 25 6t6 25v94h69v-105q0 -79 -79 -79h-97q-79 0 -79 79v465q0 79 79 79h97q79 0 79 -79v-105zM149 -73v22h65v-28q0 -44 -23.5 -66.5t-65.5 -22.5h-48v58h37
q19 0 27 8.5t8 28.5z" />
    <glyph glyph-name="Egrave" unicode="&#xc8;" horiz-adv-x="315" 
d="M124 59h171v-59h-240v622h233v-59h-164v-210h134v-59h-134v-235zM202 653h-62l-98 127h82z" />
    <glyph glyph-name="Eacute" unicode="&#xc9;" horiz-adv-x="315" 
d="M124 294v-235h171v-59h-240v622h233v-59h-164v-210h134v-59h-134zM296 780l-98 -127h-62l78 127h82z" />
    <glyph glyph-name="Ecircumflex" unicode="&#xca;" horiz-adv-x="315" 
d="M124 294v-235h171v-59h-240v622h233v-59h-164v-210h134v-59h-134zM172 737l-52 -84h-76l85 127h87l85 -127h-76z" />
    <glyph glyph-name="Edieresis" unicode="&#xcb;" horiz-adv-x="315" 
d="M213 737h88v-84h-88v84zM124 294v-235h171v-59h-240v622h233v-59h-164v-210h134v-59h-134zM125 737v-84h-88v84h88z" />
    <glyph glyph-name="Igrave" unicode="&#xcc;" horiz-adv-x="198" 
d="M52 780l78 -127h-62l-98 127h82zM65 622h68v-622h-68v622z" />
    <glyph glyph-name="Iacute" unicode="&#xcd;" horiz-adv-x="198" 
d="M72 653l78 127h82l-98 -127h-62zM65 622h68v-622h-68v622z" />
    <glyph glyph-name="Icircumflex" unicode="&#xce;" horiz-adv-x="198" 
d="M-28 653l85 127h87l85 -127h-76l-53 84l-52 -84h-76zM65 622h68v-622h-68v622z" />
    <glyph glyph-name="Idieresis" unicode="&#xcf;" horiz-adv-x="198" 
d="M65 622h68v-622h-68v622zM141 653v84h88v-84h-88zM-35 653v84h88v-84h-88z" />
    <glyph glyph-name="Eth" unicode="&#xd0;" horiz-adv-x="381" 
d="M55 622h197q79 0 79 -79v-464q0 -79 -79 -79h-197v283h-50v59h50v280zM262 90v442q0 20 -6 25.5t-25 5.5h-107v-221h80v-59h-80v-224h107q19 0 25 5.5t6 25.5z" />
    <glyph glyph-name="Ntilde" unicode="&#xd1;" horiz-adv-x="377" 
d="M237 653q-24 0 -54.5 17.5t-40.5 17.5q-17 0 -17 -24v-11h-62v14q0 37 16.5 56.5t55.5 19.5h6q23 0 52 -17.5t39.5 -17.5t14.5 5t4 20v10h62v-14q0 -37 -15.5 -56.5t-55.5 -19.5h-5zM259 622h63v-622h-75l-129 482v-482h-63v622h80l124 -465v465z" />
    <glyph glyph-name="Ograve" unicode="&#xd2;" horiz-adv-x="360" 
d="M129 622h102q79 0 79 -79v-464q0 -79 -79 -79h-102q-79 0 -79 79v464q0 79 79 79zM242 90v442q0 20 -6 25.5t-25 5.5h-62q-19 0 -25 -5.5t-6 -25.5v-442q0 -20 6 -25.5t25 -5.5h62q19 0 25 5.5t6 25.5zM200 653h-62l-98 127h82z" />
    <glyph glyph-name="Oacute" unicode="&#xd3;" horiz-adv-x="360" 
d="M129 622h102q79 0 79 -79v-464q0 -79 -79 -79h-102q-79 0 -79 79v464q0 79 79 79zM242 90v442q0 20 -6 25.5t-25 5.5h-62q-19 0 -25 -5.5t-6 -25.5v-442q0 -20 6 -25.5t25 -5.5h62q19 0 25 5.5t6 25.5zM300 780l-98 -127h-62l78 127h82z" />
    <glyph glyph-name="Ocircumflex" unicode="&#xd4;" horiz-adv-x="360" 
d="M129 622h102q79 0 79 -79v-464q0 -79 -79 -79h-102q-79 0 -79 79v464q0 79 79 79zM242 90v442q0 20 -6 25.5t-25 5.5h-62q-19 0 -25 -5.5t-6 -25.5v-442q0 -20 6 -25.5t25 -5.5h62q19 0 25 5.5t6 25.5zM179 737l-52 -84h-76l85 127h87l85 -127h-76z" />
    <glyph glyph-name="Otilde" unicode="&#xd5;" horiz-adv-x="360" 
d="M129 622h102q79 0 79 -79v-464q0 -79 -79 -79h-102q-79 0 -79 79v464q0 79 79 79zM242 90v442q0 20 -6 25.5t-25 5.5h-62q-19 0 -25 -5.5t-6 -25.5v-442q0 -20 6 -25.5t25 -5.5h62q19 0 25 5.5t6 25.5zM116 664v-11h-62v14q0 37 16.5 56.5t55.5 19.5h6q23 0 52 -17.5
t39.5 -17.5t14.5 5t4 20v10h62v-14q0 -37 -15.5 -56.5t-55.5 -19.5h-5q-24 0 -54.5 17.5t-40.5 17.5q-17 0 -17 -24z" />
    <glyph glyph-name="Odieresis" unicode="&#xd6;" horiz-adv-x="360" 
d="M224 737h88v-84h-88v84zM129 622h102q79 0 79 -79v-464q0 -79 -79 -79h-102q-79 0 -79 79v464q0 79 79 79zM242 90v442q0 20 -6 25.5t-25 5.5h-62q-19 0 -25 -5.5t-6 -25.5v-442q0 -20 6 -25.5t25 -5.5h62q19 0 25 5.5t6 25.5zM136 737v-84h-88v84h88z" />
    <glyph glyph-name="multiply" unicode="&#xd7;" horiz-adv-x="350" 
d="M325 416l-105 -105l105 -105l-45 -45l-105 105l-105 -105l-45 45l105 105l-105 105l45 45l105 -105l105 105z" />
    <glyph glyph-name="Oslash" unicode="&#xd8;" horiz-adv-x="370" 
d="M315 543v-464q0 -79 -79 -79h-102q-10 0 -24 2l-7 -22h-48l15 45q-15 19 -15 54v464q0 79 79 79h102q10 0 24 -2l7 22h48l-15 -45q15 -19 15 -54zM122 535v-346l119 372q-6 5 -25 5h-63q-19 0 -25 -6t-6 -25zM248 87v346l-119 -372q5 -5 24 -5h63q20 0 26 5.5t6 25.5z
" />
    <glyph glyph-name="Ugrave" unicode="&#xd9;" horiz-adv-x="364" 
d="M244 622h68v-543q0 -79 -79 -79h-102q-79 0 -79 79v543h68v-532q0 -20 6 -25.5t25 -5.5h62q19 0 25 5.5t6 25.5v532zM213 653h-62l-98 127h82z" />
    <glyph glyph-name="Uacute" unicode="&#xda;" horiz-adv-x="364" 
d="M244 622h68v-543q0 -79 -79 -79h-102q-79 0 -79 79v543h68v-532q0 -20 6 -25.5t25 -5.5h62q19 0 25 5.5t6 25.5v532zM310 780l-98 -127h-62l78 127h82z" />
    <glyph glyph-name="Ucircumflex" unicode="&#xdb;" horiz-adv-x="364" 
d="M244 622h68v-543q0 -79 -79 -79h-102q-79 0 -79 79v543h68v-532q0 -20 6 -25.5t25 -5.5h62q19 0 25 5.5t6 25.5v532zM181 737l-52 -84h-76l85 127h87l85 -127h-76z" />
    <glyph glyph-name="Udieresis" unicode="&#xdc;" horiz-adv-x="364" 
d="M226 737h88v-84h-88v84zM244 90v532h68v-543q0 -79 -79 -79h-102q-79 0 -79 79v543h68v-532q0 -20 6 -25.5t25 -5.5h62q19 0 25 5.5t6 25.5zM138 737v-84h-88v84h88z" />
    <glyph glyph-name="Yacute" unicode="&#xdd;" horiz-adv-x="319" 
d="M196 0h-68v190l-123 432h69l88 -365l83 365h69l-118 -432v-190zM291 780l-98 -127h-62l78 127h82z" />
    <glyph glyph-name="Thorn" unicode="&#xde;" horiz-adv-x="345" 
d="M123 497h113q79 0 79 -79v-214q0 -79 -79 -79h-113v-125h-68v622h68v-125zM247 215v192q0 19 -5.5 25t-25.5 6h-93v-254h93q20 0 25.5 6t5.5 25z" />
    <glyph glyph-name="germandbls" unicode="&#xdf;" horiz-adv-x="424" 
d="M184 148h67v-59q0 -19 5.5 -25t25.5 -6h9q19 0 25 6t6 25v92q0 19 -6 25t-25 6h-30q-79 0 -79 79v65q0 79 75 79q26 0 33 4.5t7 20.5v35q0 20 -6 26t-25 6h-121q-19 0 -25.5 -6.5t-6.5 -25.5v-495h-68v510q0 79 79 79h160q79 0 79 -79v-68q0 -31 -18 -48t-50 -17h-15
q-20 0 -26 -6t-6 -25v-45q0 -19 6 -25t26 -6h30q79 0 79 -79v-112q0 -79 -79 -79h-47q-79 0 -79 79v69z" />
    <glyph glyph-name="agrave" unicode="&#xe0;" horiz-adv-x="328" 
d="M214 485h69v-485h-69v33q-11 -33 -55 -33h-40q-79 0 -79 79v327q0 79 79 79h40q44 0 55 -33v33zM140 59h40q18 0 26 8t8 28v295q0 20 -8 28t-26 8h-40q-20 0 -25.5 -6t-5.5 -25v-305q0 -20 5.5 -25.5t25.5 -5.5zM221 516h-62l-98 127h82z" />
    <glyph glyph-name="aacute" unicode="&#xe1;" horiz-adv-x="328" 
d="M214 485h69v-485h-69v33q-11 -33 -55 -33h-40q-79 0 -79 79v327q0 79 79 79h40q44 0 55 -33v33zM140 59h40q18 0 26 8t8 28v295q0 20 -8 28t-26 8h-40q-20 0 -25.5 -6t-5.5 -25v-305q0 -20 5.5 -25.5t25.5 -5.5zM298 643l-98 -127h-62l78 127h82z" />
    <glyph glyph-name="acircumflex" unicode="&#xe2;" horiz-adv-x="328" 
d="M214 485h69v-485h-69v33q-11 -33 -55 -33h-40q-79 0 -79 79v327q0 79 79 79h40q44 0 55 -33v33zM140 59h40q18 0 26 8t8 28v295q0 20 -8 28t-26 8h-40q-20 0 -25.5 -6t-5.5 -25v-305q0 -20 5.5 -25.5t25.5 -5.5zM166 600l-52 -84h-76l85 127h87l85 -127h-76z" />
    <glyph glyph-name="atilde" unicode="&#xe3;" horiz-adv-x="328" 
d="M222 624h62v-14q0 -37 -15.5 -56.5t-55.5 -19.5h-5q-24 0 -54.5 17.5t-40.5 17.5q-17 0 -17 -24v-11h-62v14q0 37 16.5 56.5t55.5 19.5h6q23 0 52 -17.5t39.5 -17.5t14.5 5t4 20v10zM214 485h69v-485h-69v33q-11 -33 -55 -33h-40q-79 0 -79 79v327q0 79 79 79h40
q44 0 55 -33v33zM140 59h40q18 0 26 8t8 28v295q0 20 -8 28t-26 8h-40q-20 0 -25.5 -6t-5.5 -25v-305q0 -20 5.5 -25.5t25.5 -5.5z" />
    <glyph glyph-name="adieresis" unicode="&#xe4;" horiz-adv-x="328" 
d="M204 625h88v-84h-88v84zM214 485h69v-485h-69v33q-11 -33 -55 -33h-40q-79 0 -79 79v327q0 79 79 79h40q44 0 55 -33v33zM140 59h40q18 0 26 8t8 28v295q0 20 -8 28t-26 8h-40q-20 0 -25.5 -6t-5.5 -25v-305q0 -20 5.5 -25.5t25.5 -5.5zM116 625v-84h-88v84h88z" />
    <glyph glyph-name="aring" unicode="&#xe5;" horiz-adv-x="328" 
d="M214 485h69v-485h-69v33q-11 -33 -55 -33h-40q-79 0 -79 79v327q0 79 79 79h40q44 0 55 -33v33zM140 59h40q18 0 26 8t8 28v295q0 20 -8 28t-26 8h-40q-20 0 -25.5 -6t-5.5 -25v-305q0 -20 5.5 -25.5t25.5 -5.5zM198 527h-60q-65 0 -65 65v17q0 65 65 65h60q65 0 65 -65
v-17q0 -65 -65 -65zM124 603v-5q0 -17 5 -22t23 -5h32q18 0 23 5t5 22v5q0 17 -5 22t-23 5h-32q-18 0 -23 -5t-5 -22z" />
    <glyph glyph-name="ae" unicode="&#xe6;" horiz-adv-x="509" 
d="M288 219v-129q0 -20 6 -25.5t25 -5.5h47q20 0 25.5 5.5t5.5 25.5v44h69v-55q0 -79 -79 -79h-80q-20 0 -35.5 11.5t-19.5 26.5q-4 -15 -19.5 -26.5t-37.5 -11.5h-71q-79 0 -79 79v121l174 71v125q-3 30 -34 30h-40q-19 0 -25 -6t-6 -25v-83h-69v94q0 79 79 79h71
q22 0 37.5 -11.5t19.5 -26.5q4 15 19.5 26.5t35.5 11.5h83q79 0 79 -79v-187h-181zM369 426h-50q-19 0 -25 -6t-6 -25v-117h112v117q0 19 -6 25t-25 6zM145 59h40q17 0 25 6.5t9 23.5v119l-105 -42v-76q0 -20 6 -25.5t25 -5.5z" />
    <glyph glyph-name="ccedilla" unicode="&#xe7;" horiz-adv-x="325" 
d="M290 341h-69v54q0 19 -5.5 25t-25.5 6h-50q-20 0 -25.5 -6t-5.5 -25v-305q0 -20 5.5 -25.5t25.5 -5.5h50q20 0 25.5 5.5t5.5 25.5v54h69v-65q0 -79 -79 -79h-92q-79 0 -79 79v327q0 79 79 79h92q79 0 79 -79v-65zM136 -73v22h65v-28q0 -44 -23.5 -66.5t-65.5 -22.5h-48
v58h37q19 0 27 8.5t8 28.5z" />
    <glyph glyph-name="egrave" unicode="&#xe8;" horiz-adv-x="330" 
d="M124 485h92q79 0 79 -79v-187h-181v-129q0 -20 6 -25.5t25 -5.5h47q20 0 25.5 5.5t5.5 25.5v44h69v-55q0 -79 -79 -79h-89q-79 0 -79 79v327q0 79 79 79zM114 278h112v117q0 19 -6 25t-25 6h-50q-19 0 -25 -6t-6 -25v-117zM197 516h-62l-98 127h82z" />
    <glyph glyph-name="eacute" unicode="&#xe9;" horiz-adv-x="330" 
d="M124 485h92q79 0 79 -79v-187h-181v-129q0 -20 6 -25.5t25 -5.5h47q20 0 25.5 5.5t5.5 25.5v44h69v-55q0 -79 -79 -79h-89q-79 0 -79 79v327q0 79 79 79zM114 278h112v117q0 19 -6 25t-25 6h-50q-19 0 -25 -6t-6 -25v-117zM298 643l-98 -127h-62l78 127h82z" />
    <glyph glyph-name="ecircumflex" unicode="&#xea;" horiz-adv-x="328" 
d="M124 485h92q79 0 79 -79v-187h-181v-129q0 -20 6 -25.5t25 -5.5h47q20 0 25.5 5.5t5.5 25.5v44h69v-55q0 -79 -79 -79h-89q-79 0 -79 79v327q0 79 79 79zM114 278h112v117q0 19 -6 25t-25 6h-50q-19 0 -25 -6t-6 -25v-117zM171 600l-52 -84h-76l85 127h87l85 -127h-76z
" />
    <glyph glyph-name="edieresis" unicode="&#xeb;" horiz-adv-x="328" 
d="M208 625h88v-84h-88v84zM124 485h92q79 0 79 -79v-187h-181v-129q0 -20 6 -25.5t25 -5.5h47q20 0 25.5 5.5t5.5 25.5v44h69v-55q0 -79 -79 -79h-89q-79 0 -79 79v327q0 79 79 79zM114 278h112v117q0 19 -6 25t-25 6h-50q-19 0 -25 -6t-6 -25v-117zM120 625v-84h-88v84h88
z" />
    <glyph glyph-name="igrave" unicode="&#xec;" horiz-adv-x="159" 
d="M32 643l78 -127h-62l-98 127h82zM114 0h-69v485h69v-485z" />
    <glyph glyph-name="iacute" unicode="&#xed;" horiz-adv-x="159" 
d="M45 516l78 127h82l-98 -127h-62zM114 0h-69v485h69v-485z" />
    <glyph glyph-name="icircumflex" unicode="&#xee;" horiz-adv-x="159" 
d="M-48 516l85 127h87l85 -127h-76l-53 84l-52 -84h-76zM114 0h-69v485h69v-485z" />
    <glyph glyph-name="idieresis" unicode="&#xef;" horiz-adv-x="159" 
d="M124 541v84h88v-84h-88zM-52 541v84h88v-84h-88zM114 0h-69v485h69v-485z" />
    <glyph glyph-name="eth" unicode="&#xf0;" horiz-adv-x="347" 
d="M297 309v-230q0 -79 -79 -79h-99q-79 0 -79 79v255q0 79 79 79h93q-19 61 -51 108l-92 -35v48l65 25q-28 35 -63 63h95q19 -19 34 -38l89 34v-48l-62 -24q70 -108 70 -237zM228 90v208q0 32 -4 56h-84q-20 0 -25.5 -6t-5.5 -25v-233q0 -20 5.5 -25.5t25.5 -5.5h57
q19 0 25 5.5t6 25.5z" />
    <glyph glyph-name="ntilde" unicode="&#xf1;" horiz-adv-x="333" 
d="M169 485h40q79 0 79 -79v-406h-69v395q0 19 -5.5 25t-25.5 6h-40q-18 0 -26 -8t-8 -28v-390h-69v485h69v-33q11 33 55 33zM96 545v-11h-62v14q0 37 16.5 56.5t55.5 19.5h6q23 0 52 -17.5t39.5 -17.5t14.5 5t4 20v10h62v-14q0 -37 -15.5 -56.5t-55.5 -19.5h-5
q-24 0 -54.5 17.5t-40.5 17.5q-17 0 -17 -24z" />
    <glyph glyph-name="ograve" unicode="&#xf2;" horiz-adv-x="340" 
d="M119 485h102q79 0 79 -79v-327q0 -79 -79 -79h-102q-79 0 -79 79v327q0 79 79 79zM232 90v305q0 19 -6 25t-25 6h-62q-19 0 -25 -6t-6 -25v-305q0 -20 6 -25.5t25 -5.5h62q19 0 25 5.5t6 25.5zM198 516h-62l-98 127h82z" />
    <glyph glyph-name="oacute" unicode="&#xf3;" horiz-adv-x="340" 
d="M119 485h102q79 0 79 -79v-327q0 -79 -79 -79h-102q-79 0 -79 79v327q0 79 79 79zM232 90v305q0 19 -6 25t-25 6h-62q-19 0 -25 -6t-6 -25v-305q0 -20 6 -25.5t25 -5.5h62q19 0 25 5.5t6 25.5zM294 643l-98 -127h-62l78 127h82z" />
    <glyph glyph-name="ocircumflex" unicode="&#xf4;" horiz-adv-x="340" 
d="M119 485h102q79 0 79 -79v-327q0 -79 -79 -79h-102q-79 0 -79 79v327q0 79 79 79zM232 90v305q0 19 -6 25t-25 6h-62q-19 0 -25 -6t-6 -25v-305q0 -20 6 -25.5t25 -5.5h62q19 0 25 5.5t6 25.5zM167 600l-52 -84h-76l85 127h87l85 -127h-76z" />
    <glyph glyph-name="otilde" unicode="&#xf5;" horiz-adv-x="340" 
d="M119 485h102q79 0 79 -79v-327q0 -79 -79 -79h-102q-79 0 -79 79v327q0 79 79 79zM232 90v305q0 19 -6 25t-25 6h-62q-19 0 -25 -6t-6 -25v-305q0 -20 6 -25.5t25 -5.5h62q19 0 25 5.5t6 25.5zM100 545v-11h-62v14q0 37 16.5 56.5t55.5 19.5h6q23 0 52 -17.5t39.5 -17.5
t14.5 5t4 20v10h62v-14q0 -37 -15.5 -56.5t-55.5 -19.5h-5q-24 0 -54.5 17.5t-40.5 17.5q-17 0 -17 -24z" />
    <glyph glyph-name="odieresis" unicode="&#xf6;" horiz-adv-x="340" 
d="M213 625h88v-84h-88v84zM119 485h102q79 0 79 -79v-327q0 -79 -79 -79h-102q-79 0 -79 79v327q0 79 79 79zM232 90v305q0 19 -6 25t-25 6h-62q-19 0 -25 -6t-6 -25v-305q0 -20 6 -25.5t25 -5.5h62q19 0 25 5.5t6 25.5zM125 625v-84h-88v84h88z" />
    <glyph glyph-name="divide" unicode="&#xf7;" horiz-adv-x="380" 
d="M155 211h70v-80h-70v80zM155 491h70v-80h-70v80zM25 281v60h330v-60h-330z" />
    <glyph glyph-name="oslash" unicode="&#xf8;" horiz-adv-x="350" 
d="M305 406v-327q0 -79 -79 -79h-102q-8 0 -22 2l-9 -22h-48l17 42q-17 20 -17 57v327q0 79 79 79h102q8 0 22 -2l9 22h48l-17 -42q17 -20 17 -57zM111 400v-257l116 287q-10 2 -20 2h-64q-20 0 -26 -6t-6 -26zM239 85v257l-116 -287q10 -2 20 -2h64q20 0 26 6t6 26z" />
    <glyph glyph-name="ugrave" unicode="&#xf9;" horiz-adv-x="333" 
d="M219 485h69v-485h-69v33q-11 -33 -55 -33h-40q-79 0 -79 79v406h69v-395q0 -20 6 -25.5t25 -5.5h40q18 0 26 8t8 28v390zM200 516h-62l-98 127h82z" />
    <glyph glyph-name="uacute" unicode="&#xfa;" horiz-adv-x="333" 
d="M219 485h69v-485h-69v33q-11 -33 -55 -33h-40q-79 0 -79 79v406h69v-395q0 -20 6 -25.5t25 -5.5h40q18 0 26 8t8 28v390zM297 643l-98 -127h-62l78 127h82z" />
    <glyph glyph-name="ucircumflex" unicode="&#xfb;" horiz-adv-x="328" 
d="M219 485h69v-485h-69v33q-11 -33 -55 -33h-40q-79 0 -79 79v406h69v-395q0 -20 6 -25.5t25 -5.5h40q18 0 26 8t8 28v390zM161 600l-52 -84h-76l85 127h87l85 -127h-76z" />
    <glyph glyph-name="udieresis" unicode="&#xfc;" horiz-adv-x="328" 
d="M205 625h88v-84h-88v84zM219 485h69v-485h-69v33q-11 -33 -55 -33h-40q-79 0 -79 79v406h69v-395q0 -20 6 -25.5t25 -5.5h40q18 0 26 8t8 28v390zM117 625v-84h-88v84h88z" />
    <glyph glyph-name="yacute" unicode="&#xfd;" horiz-adv-x="309" 
d="M128 516l78 127h82l-98 -127h-62zM107 -141h-54v59h33q43 0 50 31l12 51h-45l-93 485h69l78 -437l73 437h69l-97 -547q-15 -79 -95 -79z" />
    <glyph glyph-name="thorn" unicode="&#xfe;" horiz-adv-x="328" 
d="M169 485h40q79 0 79 -79v-327q0 -79 -79 -79h-40q-44 0 -55 33v-174h-69v810h69v-217q11 33 55 33zM219 90v305q0 19 -5.5 25t-25.5 6h-40q-18 0 -26 -8t-8 -28v-295q0 -20 8 -28t26 -8h40q20 0 25.5 5.5t5.5 25.5z" />
    <glyph glyph-name="ydieresis" unicode="&#xff;" horiz-adv-x="309" 
d="M107 -141h-54v59h33q43 0 50 31l12 51h-45l-93 485h69l78 -437l73 437h69l-97 -547q-15 -79 -95 -79zM197 541v84h88v-84h-88zM21 541v84h88v-84h-88z" />
    <glyph glyph-name="Amacron" unicode="&#x100;" horiz-adv-x="343" 
d="M259 0l-26 158h-126l-23 -158h-69l97 622h109l107 -622h-69zM115 217h109l-58 357zM284 711v-58h-236v58h236z" />
    <glyph glyph-name="amacron" unicode="&#x101;" horiz-adv-x="328" 
d="M214 485h69v-485h-69v33q-11 -33 -55 -33h-40q-79 0 -79 79v327q0 79 79 79h40q44 0 55 -33v33zM140 59h40q18 0 26 8t8 28v295q0 20 -8 28t-26 8h-40q-20 0 -25.5 -6t-5.5 -25v-305q0 -20 5.5 -25.5t25.5 -5.5zM278 608v-58h-236v58h236z" />
    <glyph glyph-name="Abreve" unicode="&#x102;" horiz-adv-x="343" 
d="M259 0l-26 158h-126l-23 -158h-69l97 622h109l107 -622h-69zM115 217h109l-58 357zM217 653h-102q-79 0 -79 79v48h66v-40q0 -20 6 -25.5t25 -5.5h66q19 0 25 5.5t6 25.5v40h66v-48q0 -79 -79 -79z" />
    <glyph glyph-name="abreve" unicode="&#x103;" horiz-adv-x="328" 
d="M226 643h66v-48q0 -79 -79 -79h-102q-79 0 -79 79v48h66v-40q0 -19 6 -25t25 -6h66q19 0 25 6t6 25v40zM214 485h69v-485h-69v33q-11 -33 -55 -33h-40q-79 0 -79 79v327q0 79 79 79h40q44 0 55 -33v33zM140 59h40q18 0 26 8t8 28v295q0 20 -8 28t-26 8h-40
q-20 0 -25.5 -6t-5.5 -25v-305q0 -20 5.5 -25.5t25.5 -5.5z" />
    <glyph glyph-name="Aogonek" unicode="&#x104;" horiz-adv-x="343" 
d="M267 -158h78v-54h-92q-79 0 -79 79v29q0 79 79 79h8v25h-2l-26 158h-126l-23 -158h-69l97 622h109l105 -612h1v-4l1 -6h-1v-78h-60q-20 0 -26 -5.5t-6 -24.5v-20q0 -19 6 -24.5t26 -5.5zM115 217h109l-58 357z" />
    <glyph glyph-name="aogonek" unicode="&#x105;" horiz-adv-x="328" 
d="M223 -158h78v-54h-92q-79 0 -79 79v29q0 79 79 79h8v25h-3v33q-11 -33 -55 -33h-40q-79 0 -79 79v327q0 79 79 79h40q44 0 55 -33v33h69v-563h-60q-20 0 -26 -5.5t-6 -24.5v-20q0 -19 6 -24.5t26 -5.5zM140 59h40q18 0 26 8t8 28v295q0 20 -8 28t-26 8h-40
q-20 0 -25.5 -6t-5.5 -25v-305q0 -20 5.5 -25.5t25.5 -5.5z" />
    <glyph glyph-name="Cacute" unicode="&#x106;" horiz-adv-x="345" 
d="M129 622h97q79 0 79 -79v-105h-69v94q0 20 -6 25.5t-25 5.5h-55q-20 0 -25.5 -5.5t-5.5 -25.5v-443q0 -19 5.5 -25t25.5 -6h55q19 0 25 6t6 25v94h69v-105q0 -79 -79 -79h-97q-79 0 -79 79v465q0 79 79 79zM306 780l-98 -127h-62l78 127h82z" />
    <glyph glyph-name="cacute" unicode="&#x107;" horiz-adv-x="325" 
d="M119 485h92q79 0 79 -79v-65h-69v54q0 19 -5.5 25t-25.5 6h-50q-20 0 -25.5 -6t-5.5 -25v-305q0 -20 5.5 -25.5t25.5 -5.5h50q20 0 25.5 5.5t5.5 25.5v54h69v-65q0 -79 -79 -79h-92q-79 0 -79 79v327q0 79 79 79zM291 643l-98 -127h-62l78 127h82z" />
    <glyph glyph-name="Ccaron" unicode="&#x10c;" horiz-adv-x="345" 
d="M129 622h97q79 0 79 -79v-105h-69v94q0 20 -6 25.5t-25 5.5h-55q-20 0 -25.5 -5.5t-5.5 -25.5v-443q0 -19 5.5 -25t25.5 -6h55q19 0 25 6t6 25v94h69v-105q0 -79 -79 -79h-97q-79 0 -79 79v465q0 79 79 79zM222 653h-87l-85 127h76l52 -84l53 84h76z" />
    <glyph glyph-name="ccaron" unicode="&#x10d;" horiz-adv-x="325" 
d="M119 485h92q79 0 79 -79v-65h-69v54q0 19 -5.5 25t-25.5 6h-50q-20 0 -25.5 -6t-5.5 -25v-305q0 -20 5.5 -25.5t25.5 -5.5h50q20 0 25.5 5.5t5.5 25.5v54h69v-65q0 -79 -79 -79h-92q-79 0 -79 79v327q0 79 79 79zM210 516h-87l-85 127h76l52 -84l53 84h76z" />
    <glyph glyph-name="Dcaron" unicode="&#x10e;" horiz-adv-x="381" 
d="M55 622h197q79 0 79 -79v-464q0 -79 -79 -79h-197v622zM262 90v442q0 20 -6 25.5t-25 5.5h-107v-504h107q19 0 25 5.5t6 25.5zM231 653h-87l-85 127h76l52 -84l53 84h76z" />
    <glyph glyph-name="dcaron" unicode="&#x10f;" horiz-adv-x="354" 
d="M328 669h62v-39l-35 -121h-27v160zM214 669h69v-669h-69v33q-11 -33 -55 -33h-40q-79 0 -79 79v328q0 79 79 79h40q44 0 55 -33v216zM140 59h40q18 0 26 8t8 28v296q0 20 -8 28t-26 8h-40q-20 0 -25.5 -5.5t-5.5 -25.5v-306q0 -20 5.5 -25.5t25.5 -5.5z" />
    <glyph glyph-name="Dcroat" unicode="&#x110;" horiz-adv-x="381" 
d="M55 622h197q79 0 79 -79v-464q0 -79 -79 -79h-197v283h-50v59h50v280zM262 90v442q0 20 -6 25.5t-25 5.5h-107v-221h80v-59h-80v-224h107q19 0 25 5.5t6 25.5z" />
    <glyph glyph-name="dcroat" unicode="&#x111;" horiz-adv-x="333" 
d="M333 603v-59h-45v-544h-69v33q-11 -33 -55 -33h-40q-79 0 -79 79v327q0 79 79 79h40q44 0 55 -33v92h-85v59h85v66h69v-66h45zM145 59h40q18 0 26 8t8 28v295q0 20 -8 28t-26 8h-40q-19 0 -25 -6t-6 -25v-305q0 -20 6 -25.5t25 -5.5z" />
    <glyph glyph-name="Emacron" unicode="&#x112;" horiz-adv-x="315" 
d="M124 59h171v-59h-240v622h233v-59h-164v-210h134v-59h-134v-235zM289 728v-58h-236v58h236z" />
    <glyph glyph-name="emacron" unicode="&#x113;" horiz-adv-x="330" 
d="M124 485h92q79 0 79 -79v-187h-181v-129q0 -20 6 -25.5t25 -5.5h47q20 0 25.5 5.5t5.5 25.5v44h69v-55q0 -79 -79 -79h-89q-79 0 -79 79v327q0 79 79 79zM114 278h112v117q0 19 -6 25t-25 6h-50q-19 0 -25 -6t-6 -25v-117zM283 608v-58h-236v58h236z" />
    <glyph glyph-name="Edotaccent" unicode="&#x116;" horiz-adv-x="315" 
d="M124 59h171v-59h-240v622h233v-59h-164v-210h134v-59h-134v-235zM226 739v-86h-92v86h92z" />
    <glyph glyph-name="edotaccent" unicode="&#x117;" horiz-adv-x="330" 
d="M124 485h92q79 0 79 -79v-187h-181v-129q0 -20 6 -25.5t25 -5.5h47q20 0 25.5 5.5t5.5 25.5v44h69v-55q0 -79 -79 -79h-89q-79 0 -79 79v327q0 79 79 79zM114 278h112v117q0 19 -6 25t-25 6h-50q-19 0 -25 -6t-6 -25v-117zM220 622v-86h-92v86h92z" />
    <glyph glyph-name="Eogonek" unicode="&#x118;" horiz-adv-x="315" 
d="M235 -158h78v-54h-92q-79 0 -79 79v29q0 79 79 79h8v25h-174v622h233v-59h-164v-210h134v-59h-134v-235h171v-137h-60q-20 0 -26 -5.5t-6 -24.5v-20q0 -19 6 -24.5t26 -5.5z" />
    <glyph glyph-name="eogonek" unicode="&#x119;" horiz-adv-x="330" 
d="M124 485h92q79 0 79 -79v-187h-181v-129q0 -20 6 -25.5t25 -5.5h47q20 0 25.5 5.5t5.5 25.5v44h69v-55q0 -79 -79 -79h-6v-78h-60q-20 0 -26 -5.5t-6 -24.5v-20q0 -19 6 -24.5t26 -5.5h78v-54h-92q-79 0 -79 79v29q0 79 79 79h8v25h-17q-79 0 -79 79v327q0 79 79 79z
M114 278h112v117q0 19 -6 25t-25 6h-50q-19 0 -25 -6t-6 -25v-117z" />
    <glyph glyph-name="Ecaron" unicode="&#x11a;" horiz-adv-x="315" 
d="M124 294v-235h171v-59h-240v622h233v-59h-164v-210h134v-59h-134zM213 653h-87l-85 127h76l52 -84l53 84h76z" />
    <glyph glyph-name="ecaron" unicode="&#x11b;" horiz-adv-x="330" 
d="M124 485h92q79 0 79 -79v-187h-181v-129q0 -20 6 -25.5t25 -5.5h47q20 0 25.5 5.5t5.5 25.5v44h69v-55q0 -79 -79 -79h-89q-79 0 -79 79v327q0 79 79 79zM114 278h112v117q0 19 -6 25t-25 6h-50q-19 0 -25 -6t-6 -25v-117zM213 516h-87l-85 127h76l52 -84l53 84h76z" />
    <glyph glyph-name="Gbreve" unicode="&#x11e;" horiz-adv-x="350" 
d="M242 780h66v-48q0 -79 -79 -79h-102q-79 0 -79 79v48h66v-40q0 -20 6 -25.5t25 -5.5h66q19 0 25 5.5t6 25.5v40zM129 622h97q79 0 79 -79v-95h-69v84q0 20 -6 25.5t-25 5.5h-55q-20 0 -25.5 -5.5t-5.5 -25.5v-443q0 -19 5.5 -25t25.5 -6h55q19 0 25 6t6 25v165h-50v59
h119v-235q0 -79 -79 -79h-97q-79 0 -79 79v465q0 79 79 79z" />
    <glyph glyph-name="gbreve" unicode="&#x11f;" horiz-adv-x="328" 
d="M228 643h66v-48q0 -79 -79 -79h-102q-79 0 -79 79v48h66v-40q0 -19 6 -25t25 -6h66q19 0 25 6t6 25v40zM214 485h69v-547q0 -79 -79 -79h-149v59h128q19 0 25 6t6 25v84q-11 -33 -55 -33h-40q-79 0 -79 79v327q0 79 79 79h40q44 0 55 -33v33zM140 59h40q18 0 26 8t8 28
v295q0 20 -8 28t-26 8h-40q-20 0 -25.5 -6t-5.5 -25v-305q0 -20 5.5 -25.5t25.5 -5.5z" />
    <glyph glyph-name="uni0122" unicode="&#x122;" horiz-adv-x="350" 
d="M305 448h-69v84q0 20 -6 25.5t-25 5.5h-55q-20 0 -25.5 -5.5t-5.5 -25.5v-443q0 -19 5.5 -25t25.5 -6h55q19 0 25 6t6 25v165h-50v59h119v-235q0 -79 -79 -79h-97q-79 0 -79 79v465q0 79 79 79h97q79 0 79 -79v-95zM140 -211v160h80v-39l-53 -121h-27z" />
    <glyph glyph-name="uni0123" unicode="&#x123;" horiz-adv-x="328" 
d="M214 485h69v-547q0 -79 -79 -79h-149v59h128q19 0 25 6t6 25v84q-11 -33 -55 -33h-40q-79 0 -79 79v327q0 79 79 79h40q44 0 55 -33v33zM140 59h40q18 0 26 8t8 28v295q0 20 -8 28t-26 8h-40q-20 0 -25.5 -6t-5.5 -25v-305q0 -20 5.5 -25.5t25.5 -5.5zM210 676v-160h-80
v39l53 121h27z" />
    <glyph glyph-name="Imacron" unicode="&#x12a;" horiz-adv-x="198" 
d="M-20 670v58h236v-58h-236zM65 622h68v-622h-68v622z" />
    <glyph glyph-name="imacron" unicode="&#x12b;" horiz-adv-x="159" 
d="M-38 550v58h236v-58h-236zM114 0h-69v485h69v-485z" />
    <glyph glyph-name="Iogonek" unicode="&#x12e;" horiz-adv-x="198" 
d="M73 -158h78v-54h-92q-79 0 -79 79v29q0 79 79 79h8v25h-2v622h68v-700h-60q-20 0 -26 -5.5t-6 -24.5v-20q0 -19 6 -24.5t26 -5.5z" />
    <glyph glyph-name="iogonek" unicode="&#x12f;" horiz-adv-x="159" 
d="M54 -158h78v-54h-92q-79 0 -79 79v29q0 79 79 79h8v25h-3v485h69v-563h-60q-20 0 -26 -5.5t-6 -24.5v-20q0 -19 6 -24.5t26 -5.5zM116 670v-81h-73v81h73z" />
    <glyph glyph-name="Idotaccent" unicode="&#x130;" horiz-adv-x="198" 
d="M52 669v86h92v-86h-92zM65 622h68v-622h-68v622z" />
    <glyph glyph-name="dotlessi" unicode="&#x131;" horiz-adv-x="159" 
d="M114 0h-69v485h69v-485z" />
    <glyph glyph-name="uni0136" unicode="&#x136;" horiz-adv-x="345" 
d="M335 622l-134 -314l132 -308h-74l-129 308l131 314h74zM141 -211v160h80v-39l-53 -121h-27zM55 0v622h68v-622h-68z" />
    <glyph glyph-name="uni0137" unicode="&#x137;" horiz-adv-x="325" 
d="M320 485l-113 -229l113 -256h-74l-110 256l110 229h74zM130 -211v160h80v-39l-53 -121h-27zM45 0v669h69v-669h-69z" />
    <glyph glyph-name="Lacute" unicode="&#x139;" horiz-adv-x="271" 
d="M123 59h143v-59h-211v622h68v-563zM217 780l-98 -127h-62l78 127h82z" />
    <glyph glyph-name="lacute" unicode="&#x13a;" horiz-adv-x="159" 
d="M114 0h-69v669h69v-669zM48 700l78 127h82l-98 -127h-62z" />
    <glyph glyph-name="uni013B" unicode="&#x13b;" horiz-adv-x="271" 
d="M123 59h143v-59h-211v622h68v-563zM119 -211v160h80v-39l-53 -121h-27z" />
    <glyph glyph-name="uni013C" unicode="&#x13c;" horiz-adv-x="159" 
d="M40 -51h80v-39l-53 -121h-27v160zM114 0h-69v669h69v-669z" />
    <glyph glyph-name="Lcaron" unicode="&#x13d;" horiz-adv-x="271" 
d="M123 59h143v-59h-211v622h68v-563zM215 786l-85 -127h-87l-85 127h76l52 -84l53 84h76z" />
    <glyph glyph-name="lcaron" unicode="&#x13e;" horiz-adv-x="186" 
d="M114 0h-69v669h69v-669zM159 669h62v-39l-35 -121h-27v160z" />
    <glyph glyph-name="Lslash" unicode="&#x141;" horiz-adv-x="276" 
d="M123 59h143v-59h-211v257l-73 -34v59l73 34v306h68v-275l97 45v-59l-97 -45v-229z" />
    <glyph glyph-name="lslash" unicode="&#x142;" horiz-adv-x="169" 
d="M119 0h-69v309l-78 -36v59l78 36v301h69v-269l91 42v-59l-91 -42v-341z" />
    <glyph glyph-name="Nacute" unicode="&#x143;" horiz-adv-x="377" 
d="M259 622h63v-622h-75l-129 482v-482h-63v622h80l124 -465v465zM161 653l78 127h82l-98 -127h-62z" />
    <glyph glyph-name="nacute" unicode="&#x144;" horiz-adv-x="333" 
d="M169 485h40q79 0 79 -79v-406h-69v395q0 19 -5.5 25t-25.5 6h-40q-18 0 -26 -8t-8 -28v-390h-69v485h69v-33q11 33 55 33zM296 643l-98 -127h-62l78 127h82z" />
    <glyph glyph-name="uni0145" unicode="&#x145;" horiz-adv-x="377" 
d="M139 -51h80v-39l-53 -121h-27v160zM259 622h63v-622h-75l-129 482v-482h-63v622h80l124 -465v465z" />
    <glyph glyph-name="uni0146" unicode="&#x146;" horiz-adv-x="333" 
d="M169 485h40q79 0 79 -79v-406h-69v395q0 19 -5.5 25t-25.5 6h-40q-18 0 -26 -8t-8 -28v-390h-69v485h69v-33q11 33 55 33zM122 -211v160h80v-39l-53 -121h-27z" />
    <glyph glyph-name="Ncaron" unicode="&#x147;" horiz-adv-x="377" 
d="M259 622h63v-622h-75l-129 482v-482h-63v622h80l124 -465v465zM149 653l-85 127h76l52 -84l53 84h76l-85 -127h-87z" />
    <glyph glyph-name="ncaron" unicode="&#x148;" horiz-adv-x="333" 
d="M169 485h40q79 0 79 -79v-406h-69v395q0 19 -5.5 25t-25.5 6h-40q-18 0 -26 -8t-8 -28v-390h-69v485h69v-33q11 33 55 33zM204 516h-87l-85 127h76l52 -84l53 84h76z" />
    <glyph glyph-name="Omacron" unicode="&#x14c;" horiz-adv-x="360" 
d="M129 622h102q79 0 79 -79v-464q0 -79 -79 -79h-102q-79 0 -79 79v464q0 79 79 79zM242 90v442q0 20 -6 25.5t-25 5.5h-62q-19 0 -25 -5.5t-6 -25.5v-442q0 -20 6 -25.5t25 -5.5h62q19 0 25 5.5t6 25.5zM298 711v-58h-236v58h236z" />
    <glyph glyph-name="omacron" unicode="&#x14d;" horiz-adv-x="340" 
d="M119 485h102q79 0 79 -79v-327q0 -79 -79 -79h-102q-79 0 -79 79v327q0 79 79 79zM232 90v305q0 19 -6 25t-25 6h-62q-19 0 -25 -6t-6 -25v-305q0 -20 6 -25.5t25 -5.5h62q19 0 25 5.5t6 25.5zM287 608v-58h-236v58h236z" />
    <glyph glyph-name="Ohungarumlaut" unicode="&#x150;" horiz-adv-x="360" 
d="M129 622h102q79 0 79 -79v-464q0 -79 -79 -79h-102q-79 0 -79 79v464q0 79 79 79zM242 90v442q0 20 -6 25.5t-25 5.5h-62q-19 0 -25 -5.5t-6 -25.5v-442q0 -20 6 -25.5t25 -5.5h62q19 0 25 5.5t6 25.5zM254 780l-98 -127h-54l78 127h74zM256 653h-54l78 127h74z" />
    <glyph glyph-name="ohungarumlaut" unicode="&#x151;" horiz-adv-x="340" 
d="M119 485h102q79 0 79 -79v-327q0 -79 -79 -79h-102q-79 0 -79 79v327q0 79 79 79zM232 90v305q0 19 -6 25t-25 6h-62q-19 0 -25 -6t-6 -25v-305q0 -20 6 -25.5t25 -5.5h62q19 0 25 5.5t6 25.5zM245 643l-98 -127h-54l78 127h74zM247 516h-54l78 127h74z" />
    <glyph glyph-name="OE" unicode="&#x152;" horiz-adv-x="517" 
d="M321 59h171v-59h-230v19q-18 -19 -56 -19h-77q-79 0 -79 79v464q0 79 79 79h76q39 0 57 -19v19h223v-59h-164v-210h134v-59h-134v-235zM242 90v442q0 20 -6 25.5t-25 5.5h-62q-19 0 -25 -5.5t-6 -25.5v-442q0 -20 6 -25.5t25 -5.5h62q19 0 25 5.5t6 25.5z" />
    <glyph glyph-name="oe" unicode="&#x153;" horiz-adv-x="518" 
d="M307 485h83q79 0 79 -79v-187h-181v-129q0 -20 6 -25.5t25 -5.5h47q20 0 25.5 5.5t5.5 25.5v44h69v-55q0 -79 -79 -79h-80q-20 0 -35.5 11.5t-19.5 26.5q-4 -15 -19.5 -26.5t-37.5 -11.5h-71q-79 0 -79 79v327q0 79 79 79h71q22 0 37.5 -11.5t19.5 -26.5q4 15 19.5 26.5
t35.5 11.5zM185 426h-40q-19 0 -25 -6t-6 -25v-305q0 -20 6 -25.5t25 -5.5h40q17 0 25 6.5t9 23.5v307q-3 30 -34 30zM288 278h112v117q0 19 -6 25t-25 6h-50q-19 0 -25 -6t-6 -25v-117z" />
    <glyph glyph-name="Racute" unicode="&#x154;" horiz-adv-x="364" 
d="M123 260v-260h-68v622h181q79 0 79 -79v-204q0 -71 -62 -78l94 -261h-74l-91 260h-59zM123 563v-244h93q20 0 25.5 5.5t5.5 25.5v182q0 20 -5.5 25.5t-25.5 5.5h-93zM307 780l-98 -127h-62l78 127h82z" />
    <glyph glyph-name="racute" unicode="&#x155;" horiz-adv-x="212" 
d="M114 485v-56q8 23 26.5 39.5t45.5 16.5h21v-60h-30q-63 0 -63 -75v-350h-69v485h69zM259 643l-98 -127h-62l78 127h82z" />
    <glyph glyph-name="uni0156" unicode="&#x156;" horiz-adv-x="364" 
d="M123 260v-260h-68v622h181q79 0 79 -79v-204q0 -71 -62 -78l94 -261h-74l-91 260h-59zM123 563v-244h93q20 0 25.5 5.5t5.5 25.5v182q0 20 -5.5 25.5t-25.5 5.5h-93zM148 -211v160h80v-39l-53 -121h-27z" />
    <glyph glyph-name="uni0157" unicode="&#x157;" horiz-adv-x="212" 
d="M186 485h21v-60h-30q-63 0 -63 -75v-350h-69v485h69v-56q8 23 26.5 39.5t45.5 16.5zM42 -211v160h80v-39l-53 -121h-27z" />
    <glyph glyph-name="Rcaron" unicode="&#x158;" horiz-adv-x="364" 
d="M123 260v-260h-68v622h181q79 0 79 -79v-204q0 -71 -62 -78l94 -261h-74l-91 260h-59zM123 563v-244h93q20 0 25.5 5.5t5.5 25.5v182q0 20 -5.5 25.5t-25.5 5.5h-93zM224 653h-87l-85 127h76l52 -84l53 84h76z" />
    <glyph glyph-name="rcaron" unicode="&#x159;" horiz-adv-x="212" 
d="M114 485v-56q8 23 26.5 39.5t45.5 16.5h21v-60h-30q-63 0 -63 -75v-350h-69v485h69zM170 516h-87l-85 127h76l52 -84l53 84h76z" />
    <glyph glyph-name="Sacute" unicode="&#x15a;" horiz-adv-x="327" 
d="M218 90v170q0 20 -6 25.5t-25 5.5h-68q-79 0 -79 79v173q0 79 79 79h88q79 0 79 -79v-96h-69v85q0 20 -5.5 25.5t-25.5 5.5h-46q-20 0 -25.5 -5.5t-5.5 -25.5v-151q0 -19 5.5 -25t25.5 -6h68q79 0 79 -79v-192q0 -79 -79 -79h-87q-79 0 -79 79v96h69v-85q0 -20 5.5 -25.5
t25.5 -5.5h45q19 0 25 5.5t6 25.5zM128 653l78 127h82l-98 -127h-62z" />
    <glyph glyph-name="sacute" unicode="&#x15b;" horiz-adv-x="297" 
d="M194 89v92q0 19 -6 25t-25 6h-49q-79 0 -79 79v115q0 79 79 79h68q79 0 79 -79v-49h-68v39q0 20 -5.5 25.5t-25.5 5.5h-28q-20 0 -25.5 -5.5t-5.5 -25.5v-95q0 -19 5.5 -25t25.5 -6h49q79 0 79 -79v-112q0 -79 -79 -79h-67q-79 0 -79 79v49h68v-39q0 -19 5.5 -25t25.5 -6
h27q19 0 25 6t6 25zM125 516l78 127h82l-98 -127h-62z" />
    <glyph glyph-name="uni015E" unicode="&#x15e;" horiz-adv-x="327" 
d="M127 -51h80v-39l-53 -121h-27v160zM218 90v170q0 20 -6 25.5t-25 5.5h-68q-79 0 -79 79v173q0 79 79 79h88q79 0 79 -79v-96h-69v85q0 20 -5.5 25.5t-25.5 5.5h-46q-20 0 -25.5 -5.5t-5.5 -25.5v-151q0 -19 5.5 -25t25.5 -6h68q79 0 79 -79v-192q0 -79 -79 -79h-87
q-79 0 -79 79v96h69v-85q0 -20 5.5 -25.5t25.5 -5.5h45q19 0 25 5.5t6 25.5z" />
    <glyph glyph-name="uni015F" unicode="&#x15f;" horiz-adv-x="297" 
d="M108 -51h80v-39l-53 -121h-27v160zM194 89v92q0 19 -6 25t-25 6h-49q-79 0 -79 79v115q0 79 79 79h68q79 0 79 -79v-49h-68v39q0 20 -5.5 25.5t-25.5 5.5h-28q-20 0 -25.5 -5.5t-5.5 -25.5v-95q0 -19 5.5 -25t25.5 -6h49q79 0 79 -79v-112q0 -79 -79 -79h-67
q-79 0 -79 79v49h68v-39q0 -19 5.5 -25t25.5 -6h27q19 0 25 6t6 25z" />
    <glyph glyph-name="Scaron" unicode="&#x160;" horiz-adv-x="327" 
d="M218 90v170q0 20 -6 25.5t-25 5.5h-68q-79 0 -79 79v173q0 79 79 79h88q79 0 79 -79v-96h-69v85q0 20 -5.5 25.5t-25.5 5.5h-46q-20 0 -25.5 -5.5t-5.5 -25.5v-151q0 -19 5.5 -25t25.5 -6h68q79 0 79 -79v-192q0 -79 -79 -79h-87q-79 0 -79 79v96h69v-85q0 -20 5.5 -25.5
t25.5 -5.5h45q19 0 25 5.5t6 25.5zM121 653l-85 127h76l52 -84l53 84h76l-85 -127h-87z" />
    <glyph glyph-name="scaron" unicode="&#x161;" horiz-adv-x="297" 
d="M194 89v92q0 19 -6 25t-25 6h-49q-79 0 -79 79v115q0 79 79 79h68q79 0 79 -79v-49h-68v39q0 20 -5.5 25.5t-25.5 5.5h-28q-20 0 -25.5 -5.5t-5.5 -25.5v-95q0 -19 5.5 -25t25.5 -6h49q79 0 79 -79v-112q0 -79 -79 -79h-67q-79 0 -79 79v49h68v-39q0 -19 5.5 -25t25.5 -6
h27q19 0 25 6t6 25zM103 516l-85 127h76l52 -84l53 84h76l-85 -127h-87z" />
    <glyph glyph-name="uni0162" unicode="&#x162;" horiz-adv-x="278" 
d="M273 622v-59h-100v-563h-68v563h-100v59h268zM97 -211v160h80v-39l-53 -121h-27z" />
    <glyph glyph-name="uni0163" unicode="&#x163;" horiz-adv-x="278" 
d="M273 622v-59h-100v-563h-68v563h-100v59h268zM100 -211v160h80v-39l-53 -121h-27z" />
    <glyph glyph-name="Tcaron" unicode="&#x164;" horiz-adv-x="278" 
d="M273 622v-59h-100v-563h-68v563h-100v59h268zM183 653h-87l-85 127h76l52 -84l53 84h76z" />
    <glyph glyph-name="tcaron" unicode="&#x165;" horiz-adv-x="197" 
d="M160 653h77v-39l-50 -101h-27v140zM118 564v-79h69v-59h-69v-331q0 -19 6 -25t25 -6h38v-64h-59q-79 0 -79 79v347h-44v59h44v79h69z" />
    <glyph glyph-name="Umacron" unicode="&#x16a;" horiz-adv-x="364" 
d="M244 622h68v-543q0 -79 -79 -79h-102q-79 0 -79 79v543h68v-532q0 -20 6 -25.5t25 -5.5h62q19 0 25 5.5t6 25.5v532zM301 711v-58h-236v58h236z" />
    <glyph glyph-name="umacron" unicode="&#x16b;" horiz-adv-x="333" 
d="M219 485h69v-485h-69v33q-11 -33 -55 -33h-40q-79 0 -79 79v406h69v-395q0 -20 6 -25.5t25 -5.5h40q18 0 26 8t8 28v390zM283 608v-58h-236v58h236z" />
    <glyph glyph-name="Uring" unicode="&#x16e;" horiz-adv-x="364" 
d="M244 622h68v-543q0 -79 -79 -79h-102q-79 0 -79 79v543h68v-532q0 -20 6 -25.5t25 -5.5h62q19 0 25 5.5t6 25.5v532zM211 653h-60q-65 0 -65 65v17q0 65 65 65h60q65 0 65 -65v-17q0 -65 -65 -65zM137 729v-5q0 -17 5 -22t23 -5h32q18 0 23 5t5 22v5q0 17 -5 22t-23 5
h-32q-18 0 -23 -5t-5 -22z" />
    <glyph glyph-name="uring" unicode="&#x16f;" horiz-adv-x="333" 
d="M219 485h69v-485h-69v33q-11 -33 -55 -33h-40q-79 0 -79 79v406h69v-395q0 -20 6 -25.5t25 -5.5h40q18 0 26 8t8 28v390zM197 526h-60q-65 0 -65 65v17q0 65 65 65h60q65 0 65 -65v-17q0 -65 -65 -65zM123 602v-5q0 -17 5 -22t23 -5h32q18 0 23 5t5 22v5q0 17 -5 22
t-23 5h-32q-18 0 -23 -5t-5 -22z" />
    <glyph glyph-name="Uhungarumlaut" unicode="&#x170;" horiz-adv-x="364" 
d="M244 90v532h68v-543q0 -79 -79 -79h-102q-79 0 -79 79v543h68v-532q0 -20 6 -25.5t25 -5.5h62q19 0 25 5.5t6 25.5zM254 780l-98 -127h-54l78 127h74zM256 653h-54l78 127h74z" />
    <glyph glyph-name="uhungarumlaut" unicode="&#x171;" horiz-adv-x="333" 
d="M219 485h69v-485h-69v33q-11 -33 -55 -33h-40q-79 0 -79 79v406h69v-395q0 -20 6 -25.5t25 -5.5h40q18 0 26 8t8 28v390zM226 643l-98 -127h-54l78 127h74zM228 516h-54l78 127h74z" />
    <glyph glyph-name="Uogonek" unicode="&#x172;" horiz-adv-x="364" 
d="M244 622h68v-543q0 -79 -79 -79h-11v-78h-60q-20 0 -26 -5.5t-6 -24.5v-20q0 -19 6 -24.5t26 -5.5h78v-54h-92q-79 0 -79 79v29q0 79 79 79h8v25h-25q-79 0 -79 79v543h68v-532q0 -20 6 -25.5t25 -5.5h62q19 0 25 5.5t6 25.5v532z" />
    <glyph glyph-name="uogonek" unicode="&#x173;" horiz-adv-x="333" 
d="M228 -158h78v-54h-92q-79 0 -79 79v29q0 79 79 79h8v25h-3v33q-11 -33 -55 -33h-40q-79 0 -79 79v406h69v-395q0 -20 6 -25.5t25 -5.5h40q18 0 26 8t8 28v390h69v-563h-60q-20 0 -26 -5.5t-6 -24.5v-20q0 -19 6 -24.5t26 -5.5z" />
    <glyph glyph-name="Ydieresis" unicode="&#x178;" horiz-adv-x="319" 
d="M196 0h-68v190l-123 432h69l88 -365l83 365h69l-118 -432v-190zM119 737v-84h-88v84h88zM295 737v-84h-88v84h88z" />
    <glyph glyph-name="Zacute" unicode="&#x179;" horiz-adv-x="273" 
d="M15 564v59h253v-59l-195 -505h190v-59h-258v59l195 505h-185zM276 780l-98 -127h-62l78 127h82z" />
    <glyph glyph-name="zacute" unicode="&#x17a;" horiz-adv-x="266" 
d="M25 426v59h226v-59l-167 -367h167v-59h-236v59l167 367h-157zM276 643l-98 -127h-62l78 127h82z" />
    <glyph glyph-name="Zdotaccent" unicode="&#x17b;" horiz-adv-x="273" 
d="M268 623v-59l-195 -505h190v-59h-258v59l195 505h-185v59h253zM190 739v-86h-92v86h92z" />
    <glyph glyph-name="zdotaccent" unicode="&#x17c;" horiz-adv-x="266" 
d="M251 485v-59l-167 -367h167v-59h-236v59l167 367h-157v59h226zM187 622v-86h-92v86h92z" />
    <glyph glyph-name="Zcaron" unicode="&#x17d;" horiz-adv-x="273" 
d="M268 623v-59l-195 -505h190v-59h-258v59l195 505h-185v59h253zM182 653h-87l-85 127h76l52 -84l53 84h76z" />
    <glyph glyph-name="zcaron" unicode="&#x17e;" horiz-adv-x="266" 
d="M25 426v59h226v-59l-167 -367h167v-59h-236v59l167 367h-157zM180 516h-87l-85 127h76l52 -84l53 84h76z" />
    <glyph glyph-name="florin" unicode="&#x192;" horiz-adv-x="328" 
d="M279 605h-46q-19 0 -24 -5.5t-7 -25.5l-11 -89h88v-59h-96l-61 -488q-5 -41 -23 -60t-56 -19h-67v64h46q19 0 24 5.5t7 25.5l59 472h-65v59h73l13 105q5 41 22.5 60t56.5 19h67v-64z" />
    <glyph glyph-name="uni0218" unicode="&#x218;" horiz-adv-x="327" 
d="M126 -51h80v-39l-53 -121h-27v160zM218 90v170q0 20 -6 25.5t-25 5.5h-68q-79 0 -79 79v173q0 79 79 79h88q79 0 79 -79v-96h-69v85q0 20 -5.5 25.5t-25.5 5.5h-46q-20 0 -25.5 -5.5t-5.5 -25.5v-151q0 -19 5.5 -25t25.5 -6h68q79 0 79 -79v-192q0 -79 -79 -79h-87
q-79 0 -79 79v96h69v-85q0 -20 5.5 -25.5t25.5 -5.5h45q19 0 25 5.5t6 25.5z" />
    <glyph glyph-name="uni0219" unicode="&#x219;" horiz-adv-x="297" 
d="M125 -51h80v-39l-53 -121h-27v160zM194 89v92q0 19 -6 25t-25 6h-49q-79 0 -79 79v115q0 79 79 79h68q79 0 79 -79v-49h-68v39q0 20 -5.5 25.5t-25.5 5.5h-28q-20 0 -25.5 -5.5t-5.5 -25.5v-95q0 -19 5.5 -25t25.5 -6h49q79 0 79 -79v-112q0 -79 -79 -79h-67
q-79 0 -79 79v49h68v-39q0 -19 5.5 -25t25.5 -6h27q19 0 25 6t6 25z" />
    <glyph glyph-name="uni021A" unicode="&#x21a;" horiz-adv-x="278" 
d="M273 622v-59h-100v-563h-68v563h-100v59h268zM101 -211v160h80v-39l-53 -121h-27z" />
    <glyph glyph-name="uni021B" unicode="&#x21b;" horiz-adv-x="197" 
d="M187 426h-69v-331q0 -19 6 -25t25 -6h38v-64h-59q-79 0 -79 79v347h-44v59h44v79h69v-79h69v-59zM78 -211v160h80v-39l-53 -121h-27z" />
    <glyph glyph-name="circumflex" unicode="&#x2c6;" horiz-adv-x="400" 
d="M71 516l85 127h87l85 -127h-76l-53 84l-52 -84h-76z" />
    <glyph glyph-name="caron" unicode="&#x2c7;" horiz-adv-x="400" 
d="M156 516l-85 127h76l52 -84l53 84h76l-85 -127h-87z" />
    <glyph glyph-name="uni02C9" unicode="&#x2c9;" horiz-adv-x="400" 
d="M82 550v58h236v-58h-236z" />
    <glyph glyph-name="breve" unicode="&#x2d8;" horiz-adv-x="400" 
d="M264 643h66v-48q0 -79 -79 -79h-102q-79 0 -79 79v48h66v-40q0 -19 6 -25t25 -6h66q19 0 25 6t6 25v40z" />
    <glyph glyph-name="dotaccent" unicode="&#x2d9;" horiz-adv-x="400" 
d="M154 536v86h92v-86h-92z" />
    <glyph glyph-name="ring" unicode="&#x2da;" horiz-adv-x="400" 
d="M244 577v5q0 17 -5 22t-23 5h-32q-18 0 -23 -5t-5 -22v-5q0 -17 5 -22t23 -5h32q18 0 23 5t5 22zM295 588v-17q0 -65 -65 -65h-60q-65 0 -65 65v17q0 65 65 65h60q65 0 65 -65z" />
    <glyph glyph-name="ogonek" unicode="&#x2db;" horiz-adv-x="400" 
d="M206 -158h78v-54h-92q-79 0 -79 79v29q0 79 79 79h8v35h66v-88h-60q-20 0 -26 -5.5t-6 -24.5v-20q0 -19 6 -24.5t26 -5.5z" />
    <glyph glyph-name="tilde" unicode="&#x2dc;" horiz-adv-x="400" 
d="M249 534q-24 0 -54.5 17.5t-40.5 17.5q-17 0 -17 -24v-11h-62v14q0 37 16.5 56.5t55.5 19.5h6q23 0 52 -17.5t39.5 -17.5t14.5 5t4 20v10h62v-14q0 -37 -15.5 -56.5t-55.5 -19.5h-5z" />
    <glyph glyph-name="hungarumlaut" unicode="&#x2dd;" horiz-adv-x="400" 
d="M74 516l78 127h74l-98 -127h-54zM174 516l78 127h74l-98 -127h-54z" />
    <glyph glyph-name="pi" unicode="&#x3c0;" horiz-adv-x="400" 
d="M400 485v-59h-70v-426h-68v426h-126v-347q0 -79 -79 -79h-57v64h36q20 0 25.5 6t5.5 25v390h333z" />
    <glyph glyph-name="uni0901" unicode="&#x901;" horiz-adv-x="0" 
d="M-124 830h68v-69h-68v69zM-218 791h64v-40q0 -19 6 -25t25 -6h68q19 0 25 6t6 25v40h64v-46q0 -79 -79 -79h-100q-79 0 -79 79v46z" />
    <glyph glyph-name="uni0902" unicode="&#x902;" horiz-adv-x="0" 
d="M-130 813h73v-86h-73v86z" />
    <glyph glyph-name="uni0903" unicode="&#x903;" horiz-adv-x="153" 
d="M40 499h73v-86h-73v86zM40 149h73v-86h-73v86z" />
    <glyph glyph-name="uni0905" unicode="&#x905;" horiz-adv-x="500" 
d="M520 622v-59h-75v-563h-68v289h-106v-132q0 -79 -79 -79h-83q-79 0 -79 79v96h69v-85q0 -20 5.5 -25.5t25.5 -5.5h41q19 0 25 5.5t6 25.5v116q0 20 -7 27t-27 7h-68v59h68q20 0 27 7.5t7 26.5v121q0 20 -6 25.5t-25 5.5h-41q-20 0 -25.5 -5.5t-5.5 -25.5v-85h-69v96
q0 79 79 79h83q79 0 79 -79v-147q0 -44 -37 -47v-2h143v275h143z" />
    <glyph glyph-name="uni0906" unicode="&#x906;" horiz-adv-x="680" 
d="M699 622v-59h-75v-563h-68v563h-111v-563h-68v289h-106v-132q0 -79 -79 -79h-83q-79 0 -79 79v96h69v-85q0 -20 5.5 -25.5t25.5 -5.5h41q19 0 25 5.5t6 25.5v116q0 20 -7 27t-27 7h-68v59h68q20 0 27 7.5t7 26.5v121q0 20 -6 25.5t-25 5.5h-41q-20 0 -25.5 -5.5
t-5.5 -25.5v-85h-69v96q0 79 79 79h83q79 0 79 -79v-147q0 -44 -37 -47v-2h143v275h322z" />
    <glyph glyph-name="uni0907" unicode="&#x907;" horiz-adv-x="340" 
d="M284 426h-149q-19 0 -25 -6t-6 -25v-40q0 -19 6 -25t25 -6h81q79 0 79 -79v-88q0 -79 -79 -79h-99v-78h-69v190h69v-53h78q19 0 25 5.5t6 25.5v66q0 20 -6 25.5t-25 5.5h-81q-79 0 -79 79v62q0 79 79 79h101v78h-235v59h380v-59h-76v-137z" />
    <glyph glyph-name="uni0908" unicode="&#x908;" horiz-adv-x="340" 
d="M284 426h-149q-19 0 -25 -6t-6 -25v-40q0 -19 6 -25t25 -6h81q79 0 79 -79v-88q0 -79 -79 -79h-99v-78h-69v190h69v-53h78q19 0 25 5.5t6 25.5v66q0 20 -6 25.5t-25 5.5h-81q-79 0 -79 79v62q0 79 79 79h101v78h-235v59h235v73q0 78 79 78h55v-59h-34q-20 0 -25.5 -5.5
t-5.5 -24.5v-62h76v-59h-76v-137z" />
    <glyph glyph-name="uni0909" unicode="&#x909;" horiz-adv-x="324" 
d="M344 622v-59h-83q8 -8 8 -27v-130q0 -44 -37 -47v-2q37 -3 37 -46v-232q0 -79 -79 -79h-86q-79 0 -79 79v127h69v-116q0 -20 6 -25.5t25 -5.5h44q19 0 25 5.5t6 25.5v205q0 19 -6 25t-25 6h-85v59h85q19 0 25 5.5t6 25.5v115q0 22 -7 27t-39 5h-174v59h364z" />
    <glyph glyph-name="uni090A" unicode="&#x90a;" horiz-adv-x="456" 
d="M476 622v-59h-215q8 -8 8 -27v-130q0 -44 -37 -47v-2h115q79 0 79 -79v-199q0 -79 -79 -79h-43v59h22q20 0 25.5 5.5t5.5 25.5v177q0 19 -5.5 25t-25.5 6h-57v-219q0 -79 -79 -79h-86q-79 0 -79 79v127h69v-116q0 -20 6 -25.5t25 -5.5h44q19 0 25 5.5t6 25.5v205
q0 19 -6 25t-25 6h-85v59h85q19 0 25 5.5t6 25.5v115q0 22 -7 27t-39 5h-174v59h496z" />
    <glyph glyph-name="uni090B" unicode="&#x90b;" horiz-adv-x="623" 
d="M317 563v-300h81q-12 14 -12 60v84q0 78 79 78h44q79 0 79 -78v-79q0 -41 -7.5 -58.5t-24.5 -23.5v-5q31 -14 31 -58v-105q0 -78 -79 -78h-47q-35 0 -52.5 21.5t-17.5 56.5v61h68v-48q0 -19 5 -25.5t24 -6.5h2q18 0 23 6.5t5 25.5v85q0 17 -5.5 22t-22.5 5h-173v-203h-68
v203h-23l-145 -203h-77l175 245l-61 123q-15 31 -30.5 43t-45.5 12h-37v62h37q54 0 77.5 -13.5t44.5 -54.5l77 -154h8v300h-269v59h663v-59h-326zM454 394v-99q0 -32 25 -32h18q23 0 23 32v99q0 19 -5 25.5t-24 6.5h-8q-19 0 -24 -6.5t-5 -25.5z" />
    <glyph glyph-name="uni090C" unicode="&#x90c;" horiz-adv-x="488" 
d="M440 34h-48q-20 0 -25.5 -6t-5.5 -25v-36q0 -19 5.5 -25t25.5 -6h89v-59h-110q-79 0 -79 79v58q0 79 76 79h3v333h-63q-20 0 -25.5 -6t-5.5 -25v-206h-69v206q0 19 -6 25t-25 6h-32q-19 0 -25 -6t-6 -25v-302q0 -19 6 -25t25 -6h61v-62h-82q-79 0 -79 79v327q0 79 79 79
h72q44 0 47 -37h2q3 37 46 37h80v78h-391v59h528v-59h-68v-529z" />
    <glyph glyph-name="uni090D" unicode="&#x90d;" horiz-adv-x="377" 
d="M397 622v-59h-65v-200q0 -79 -79 -79h-65v59h44q20 0 25.5 5.5t5.5 25.5v189h-139v-473q0 -20 6 -25.5t25 -5.5h74q19 0 25 5.5t6 25.5v106h69v-117q0 -79 -79 -79h-116q-79 0 -79 79v484h-75v59h417zM242 666h-100q-79 0 -79 79v46h64v-40q0 -19 5.5 -25t25.5 -6h68
q20 0 25.5 6t5.5 25v40h64v-46q0 -79 -79 -79z" />
    <glyph glyph-name="uni090E" unicode="&#x90e;" horiz-adv-x="377" 
d="M397 622v-59h-65v-200q0 -79 -79 -79h-65v59h44q20 0 25.5 5.5t5.5 25.5v189h-139v-473q0 -20 6 -25.5t25 -5.5h74q19 0 25 5.5t6 25.5v106h69v-117q0 -79 -79 -79h-116q-79 0 -79 79v484h-75v59h283v35q0 19 -5.5 25t-25.5 6h-69q-79 0 -79 79v46h69v-35
q0 -20 5.5 -25.5t25.5 -5.5h69q79 0 79 -79v-46h65z" />
    <glyph glyph-name="uni090F" unicode="&#x90f;" horiz-adv-x="377" 
d="M397 622v-59h-65v-200q0 -79 -79 -79h-65v59h44q20 0 25.5 5.5t5.5 25.5v189h-139v-473q0 -20 6 -25.5t25 -5.5h74q19 0 25 5.5t6 25.5v106h69v-117q0 -79 -79 -79h-116q-79 0 -79 79v484h-75v59h417z" />
    <glyph glyph-name="uni0910" unicode="&#x910;" horiz-adv-x="377" 
d="M397 622v-59h-65v-200q0 -79 -79 -79h-65v59h44q20 0 25.5 5.5t5.5 25.5v189h-139v-473q0 -20 6 -25.5t25 -5.5h74q19 0 25 5.5t6 25.5v106h69v-117q0 -79 -79 -79h-116q-79 0 -79 79v484h-75v59h269q-34 36 -76 95l-68 96h83l134 -191h75z" />
    <glyph glyph-name="uni0911" unicode="&#x911;" horiz-adv-x="680" 
d="M655 791h64v-46q0 -79 -79 -79h-100q-79 0 -79 79v46h64v-40q0 -19 5.5 -25t25.5 -6h68q20 0 25.5 6t5.5 25v40zM699 622v-59h-75v-563h-68v563h-111v-563h-68v289h-106v-132q0 -79 -79 -79h-83q-79 0 -79 79v96h69v-85q0 -20 5.5 -25.5t25.5 -5.5h41q19 0 25 5.5t6 25.5
v116q0 20 -7 27t-27 7h-68v59h68q20 0 27 7.5t7 26.5v121q0 20 -6 25.5t-25 5.5h-41q-20 0 -25.5 -5.5t-5.5 -25.5v-85h-69v96q0 79 79 79h83q79 0 79 -79v-147q0 -44 -37 -47v-2h143v275h322z" />
    <glyph glyph-name="uni0912" unicode="&#x912;" horiz-adv-x="679" 
d="M699 622v-59h-75v-563h-68v563h-111v-563h-68v289h-106v-132q0 -79 -79 -79h-83q-79 0 -79 79v96h69v-85q0 -20 5.5 -25.5t25.5 -5.5h41q19 0 25 5.5t6 25.5v116q0 20 -7 27t-27 7h-68v59h68q20 0 27 7.5t7 26.5v121q0 20 -6 25.5t-25 5.5h-41q-20 0 -25.5 -5.5
t-5.5 -25.5v-85h-69v96q0 79 79 79h83q79 0 79 -79v-147q0 -44 -37 -47v-2h143v275h178v35q0 19 -5.5 25t-25.5 6h-69q-79 0 -79 79v46h69v-35q0 -20 5.5 -25.5t25.5 -5.5h69q79 0 79 -79v-46h75z" />
    <glyph glyph-name="uni0913" unicode="&#x913;" horiz-adv-x="679" 
d="M699 622v-59h-75v-563h-68v563h-111v-563h-68v289h-106v-132q0 -79 -79 -79h-83q-79 0 -79 79v96h69v-85q0 -20 5.5 -25.5t25.5 -5.5h41q19 0 25 5.5t6 25.5v116q0 20 -7 27t-27 7h-68v59h68q20 0 27 7.5t7 26.5v121q0 20 -6 25.5t-25 5.5h-41q-20 0 -25.5 -5.5
t-5.5 -25.5v-85h-69v96q0 79 79 79h83q79 0 79 -79v-147q0 -44 -37 -47v-2h143v275h176q-34 36 -76 95l-68 96h83l134 -191h73z" />
    <glyph glyph-name="uni0914" unicode="&#x914;" horiz-adv-x="680" 
d="M699 622v-59h-75v-563h-68v563h-111v-563h-68v289h-106v-132q0 -79 -79 -79h-83q-79 0 -79 79v96h69v-85q0 -20 5.5 -25.5t25.5 -5.5h41q19 0 25 5.5t6 25.5v116q0 20 -7 27t-27 7h-68v59h68q20 0 27 7.5t7 26.5v121q0 20 -6 25.5t-25 5.5h-41q-20 0 -25.5 -5.5
t-5.5 -25.5v-85h-69v96q0 79 79 79h83q79 0 79 -79v-147q0 -44 -37 -47v-2h143v275h166q-28 22 -68 59l-140 132h91l42 -46q75 -82 113 -145h4q-20 41 -37 81l-46 110h74l45 -191h78z" />
    <glyph glyph-name="uni0915" unicode="&#x915;" horiz-adv-x="507" 
d="M527 563h-239v-87q10 9 32 9h63q79 0 79 -79v-249q0 -79 -79 -79h-55v59h34q20 0 25.5 5.5t5.5 25.5v227q0 19 -5.5 25t-25.5 6h-40q-20 0 -27 -7t-7 -27v-392h-69v87q-11 -9 -32 -9h-63q-79 0 -79 79v249q0 79 79 79h55v-59h-34q-19 0 -25 -6t-6 -25v-227q0 -20 6 -25.5
t25 -5.5h40q19 0 26.5 7.5t7.5 26.5v392h-239v59h547v-59z" />
    <glyph glyph-name="uni0916" unicode="&#x916;" horiz-adv-x="584" 
d="M604 622v-59h-75v-563h-65v134q-10 -15 -37 -15h-52q-79 0 -79 79v194q0 79 79 79h59v-59h-42q-20 0 -25.5 -6t-5.5 -25v-172q0 -19 5.5 -25t25.5 -6h31q23 0 32 8.5t9 30.5v346h-220q8 -8 8 -26v-212q0 -79 -79 -79h-56v-153q0 -19 5.5 -25t25.5 -6h213v-62h-234
q-79 0 -79 79v392h69v-166h35q20 0 25.5 5.5t5.5 25.5v196q0 20 -5.5 25.5t-25.5 5.5h-172v59h624z" />
    <glyph glyph-name="uni0917" unicode="&#x917;" horiz-adv-x="512" 
d="M532 622v-59h-75v-563h-69v563h-104v-406q0 -79 -79 -79h-91q-79 0 -79 79v190q0 79 79 79h101v137h-235v59h552zM135 137h49q20 0 25.5 5.5t5.5 25.5v199h-80q-19 0 -25 -5.5t-6 -25.5v-168q0 -20 6 -25.5t25 -5.5z" />
    <glyph glyph-name="uni0918" unicode="&#x918;" horiz-adv-x="416" 
d="M436 622v-59h-75v-563h-69v87q-10 -9 -32 -9h-133q-79 0 -79 79v144q0 43 37 46v2q-37 3 -37 47v136q0 23 14 31h-82v59h456zM292 171v392h-143q-20 -1 -26 -6.5t-6 -24.5v-122q0 -20 5.5 -25.5t25.5 -5.5h68v-59h-68q-20 0 -25.5 -6t-5.5 -25v-121q0 -20 5.5 -25.5
t25.5 -5.5h110q20 0 27 7.5t7 26.5z" />
    <glyph glyph-name="uni0919" unicode="&#x919;" horiz-adv-x="351" 
d="M-20 622h391v-59h-90v-137h-121q-20 0 -25.5 -6t-5.5 -25v-70q0 -19 5.5 -25t25.5 -6h52q79 0 79 -79v-136q0 -79 -79 -79h-85q-79 0 -79 79v86h69v-75q0 -20 5.5 -25.5t25.5 -5.5h43q19 0 25 5.5t6 25.5v114q0 20 -6 25.5t-25 5.5h-52q-79 0 -79 79v92q0 79 79 79h73v78
h-232v59zM273 308v86h73v-86h-73z" />
    <glyph glyph-name="uni091A" unicode="&#x91a;" horiz-adv-x="386" 
d="M406 622v-59h-75v-563h-69v87q-10 -9 -32 -9h-83q-79 0 -79 79v243q0 18 8 26h-71v59h204v-59h-40q-20 -1 -26 -6.5t-6 -24.5v-227q0 -20 5.5 -25.5t25.5 -5.5h60q20 0 27 7.5t7 26.5v392h-282v59h426z" />
    <glyph glyph-name="uni091B" unicode="&#x91b;" horiz-adv-x="501" 
d="M521 563h-139v-78q71 -4 71 -79v-327q0 -79 -79 -79h-240q-79 0 -79 79v181q0 43 37 46v2q-37 3 -37 47v182q0 18 8 26h-83v59h541v-59zM318 563h-144l11 -1q-43 2 -52 -2t-9 -28v-163q0 -19 6 -25t25 -6h37v-59h-37q-19 0 -25 -5.5t-6 -25.5v-158q0 -20 6 -25.5t25 -5.5
h203q20 0 25.5 5.5t5.5 25.5v305q0 19 -5.5 25t-25.5 6h-20q-20 0 -25.5 -6t-5.5 -25v-132q0 -19 5.5 -25t25.5 -6h20v-59h-36q-79 0 -79 79v154q0 78 75 79v78z" />
    <glyph glyph-name="uni091C" unicode="&#x91c;" horiz-adv-x="490" 
d="M510 622v-59h-75v-563h-69v426h-87v-269q0 -79 -79 -79h-76q-79 0 -79 79v328h69v-317q0 -20 6 -25.5t25 -5.5h34q19 0 25 5.5t6 25.5v317h156v78h-386v59h530z" />
    <glyph glyph-name="uni091D" unicode="&#x91d;" horiz-adv-x="532" 
d="M552 622v-59h-75v-563h-69v265h-109q1 -6 1 -20v-88q0 -79 -79 -79h-104v-78h-69v190h69v-53h83q20 0 25.5 5.5t5.5 25.5v66q0 20 -5.5 25.5t-25.5 5.5h-75q-79 0 -79 79v62q0 79 79 79h98v78h-243v59h572zM408 324v239h-116v-137h-146q-20 0 -25.5 -6t-5.5 -25v-40
q0 -19 5.5 -25t25.5 -6h262z" />
    <glyph glyph-name="uni091E" unicode="&#x91e;" horiz-adv-x="484" 
d="M504 622v-59h-75v-563h-69v274h-101v-117q0 -79 -79 -79h-71q-79 0 -79 79v99h69v-88q0 -20 5.5 -25.5t25.5 -5.5h29q19 0 25 5.5t6 25.5v227q0 19 -6 25t-25 6h-86v59h107q79 0 79 -79v-73h101v230h-380v59h524z" />
    <glyph glyph-name="uni091F" unicode="&#x91f;" horiz-adv-x="334" 
d="M282 426h-127q-19 0 -25 -6t-6 -25v-305q0 -20 6 -25.5t25 -5.5h34q19 0 25 5.5t6 25.5v104h69v-115q0 -79 -79 -79h-76q-79 0 -79 79v327q0 79 79 79h79v78h-233v59h374v-59h-72v-137z" />
    <glyph glyph-name="uni0920" unicode="&#x920;" horiz-adv-x="368" 
d="M388 563h-166v-78h19q79 0 79 -79v-327q0 -79 -79 -79h-107q-79 0 -79 79v327q0 79 79 79h19v78h-173v59h408v-59zM251 90v305q0 19 -5.5 25t-25.5 6h-65q-19 0 -25 -6t-6 -25v-305q0 -20 6 -25.5t25 -5.5h65q20 0 25.5 5.5t5.5 25.5z" />
    <glyph glyph-name="uni0921" unicode="&#x921;" horiz-adv-x="351" 
d="M281 426h-121q-20 0 -25.5 -6t-5.5 -25v-70q0 -19 5.5 -25t25.5 -6h52q79 0 79 -79v-136q0 -79 -79 -79h-85q-79 0 -79 79v86h69v-75q0 -20 5.5 -25.5t25.5 -5.5h43q19 0 25 5.5t6 25.5v114q0 20 -6 25.5t-25 5.5h-52q-79 0 -79 79v92q0 79 79 79h73v78h-232v59h391v-59
h-90v-137z" />
    <glyph glyph-name="uni0922" unicode="&#x922;" horiz-adv-x="377" 
d="M282 426h-127q-19 0 -25 -6t-6 -25v-305q0 -20 6 -25.5t25 -5.5h67q20 0 25.5 5.5t5.5 25.5v103q0 19 -5.5 25t-25.5 6h-41v59h62q79 0 79 -79v-125q0 -79 -79 -79h-109q-79 0 -79 79v327q0 79 79 79h79v78h-233v59h417v-59h-115v-137z" />
    <glyph glyph-name="uni0923" unicode="&#x923;" horiz-adv-x="490" 
d="M510 622v-59h-75v-563h-69v563h-87v-406q0 -79 -79 -79h-76q-79 0 -79 79v406h-65v59h530zM210 168v395h-96v-395q0 -20 6 -25.5t25 -5.5h34q19 0 25 5.5t6 25.5z" />
    <glyph glyph-name="uni0924" unicode="&#x924;" horiz-adv-x="373" 
d="M393 622v-59h-75v-563h-69v426h-104q-19 0 -25 -6t-6 -25v-302q0 -19 6 -25t25 -6h34v-62h-55q-79 0 -79 79v327q0 79 79 79h125v78h-269v59h413z" />
    <glyph glyph-name="uni0925" unicode="&#x925;" horiz-adv-x="430" 
d="M450 622v-59h-75v-563h-69v87q-10 -9 -32 -9h-149q-79 0 -79 79v195h95q19 0 25 6t6 25v154q0 19 -6 25t-25 6h-5q-20 0 -25.5 -6t-5.5 -25v-45h-52v56q0 79 76 79h33q79 0 79 -79v-176q0 -79 -79 -79h-47v-125q0 -20 5.5 -25.5t25.5 -5.5h126q20 0 27 7.5t7 26.5v451
h144z" />
    <glyph glyph-name="uni0926" unicode="&#x926;" horiz-adv-x="347" 
d="M292 426h-137q-19 0 -25 -6t-6 -25v-227q0 -20 6 -25.5t25 -5.5h41q20 0 27 7.5t7 26.5v95h69v-266h-69v87q-10 -9 -32 -9h-64q-79 0 -79 79v249q0 79 79 79h89v78h-243v59h387v-59h-75v-137z" />
    <glyph glyph-name="uni0927" unicode="&#x927;" horiz-adv-x="444" 
d="M464 622v-59h-75v-563h-69v87q-10 -9 -32 -9h-137q-79 0 -79 79v138q0 43 37 46v2q-37 3 -37 47v158q0 79 79 79h35q79 0 79 -79v-56h-52v45q0 19 -5.5 25t-25.5 6h-10q-20 0 -25.5 -6t-5.5 -25v-133q0 -20 5.5 -25.5t25.5 -5.5h68v-59h-68q-20 0 -25.5 -6t-5.5 -25v-115
q0 -20 5.5 -25.5t25.5 -5.5h114q20 0 27 7.5t7 26.5v451h144z" />
    <glyph glyph-name="uni0928" unicode="&#x928;" horiz-adv-x="476" 
d="M496 622v-59h-75v-563h-69v426h-88v-269q0 -79 -79 -79h-71q-79 0 -79 79v249q0 79 79 79h238v78h-372v59h516zM195 168v258h-60q-19 0 -25 -6t-6 -25v-227q0 -20 6 -25.5t25 -5.5h29q20 0 25.5 5.5t5.5 25.5z" />
    <glyph glyph-name="uni0928093C" unicode="&#x929;" horiz-adv-x="476" 
d="M496 622v-59h-75v-563h-69v426h-88v-269q0 -79 -79 -79h-71q-79 0 -79 79v249q0 79 79 79h238v78h-372v59h516zM195 168v258h-60q-19 0 -25 -6t-6 -25v-227q0 -20 6 -25.5t25 -5.5h29q20 0 25.5 5.5t5.5 25.5zM195 -97v86h73v-86h-73z" />
    <glyph glyph-name="uni092A" unicode="&#x92a;" horiz-adv-x="353" 
d="M373 622v-59h-75v-563h-69v87q-11 -9 -32 -9h-63q-79 0 -79 79v406h-75v59h393zM229 171v392h-105v-395q0 -20 6 -25.5t25 -5.5h40q19 0 26.5 7.5t7.5 26.5z" />
    <glyph glyph-name="uni092B" unicode="&#x92b;" horiz-adv-x="510" 
d="M530 563h-239v-87q11 9 32 9h63q79 0 79 -79v-249q0 -79 -79 -79h-55v59h34q19 0 25 5.5t6 25.5v227q0 19 -6 25t-25 6h-40q-19 0 -26.5 -7t-7.5 -27v-392h-69v87q-10 -9 -32 -9h-63q-79 0 -79 79v406h-68v59h550v-59zM222 171v392h-105v-395q0 -20 5.5 -25.5t25.5 -5.5
h40q20 0 27 7.5t7 26.5z" />
    <glyph glyph-name="uni092C" unicode="&#x92c;" horiz-adv-x="384" 
d="M404 622v-59h-75v-563h-69v87q-11 -9 -32 -9h-99q-79 0 -79 79v249q0 79 79 79h91v-59h-76q104 -191 122 -236q-6 46 -6 135v238h-280v59h424zM150 137h76q15 0 22 4q-103 194 -129 254v-227q0 -20 5.5 -25.5t25.5 -5.5z" />
    <glyph glyph-name="uni092D" unicode="&#x92d;" horiz-adv-x="529" 
d="M549 622v-59h-75v-563h-69v342h-113v-185q0 -79 -79 -79h-89q-79 0 -79 79v165q0 79 79 79h99v131q0 20 -5.5 25.5t-25.5 5.5h-39q-19 0 -25 -5.5t-6 -25.5v-56h-69v67q0 79 79 79h81q79 0 79 -79v-142h113v221h144zM223 168v174h-78q-19 0 -25 -6t-6 -25v-143
q0 -20 6 -25.5t25 -5.5h47q20 0 25.5 5.5t5.5 25.5z" />
    <glyph glyph-name="uni092E" unicode="&#x92e;" horiz-adv-x="519" 
d="M539 622v-59h-75v-563h-69v373h-113v-186q0 -79 -79 -79h-89q-79 0 -79 79v166q0 79 79 79h99v131h-233v59h559zM213 198v175h-78q-19 0 -25 -5.5t-6 -25.5v-144q0 -20 6 -25.5t25 -5.5h47q20 0 25.5 5.5t5.5 25.5zM395 432v131h-113v-131h113z" />
    <glyph glyph-name="uni092F" unicode="&#x92f;" horiz-adv-x="428" 
d="M448 622v-59h-75v-563h-69v87q-10 -9 -32 -9h-158q-79 0 -79 79v217h80q19 0 25 6t6 25v126q0 22 -7 27t-39 5h-140v59h488zM304 171v392h-97q8 -8 8 -27v-142q0 -79 -79 -79h-32v-147q0 -20 6 -25.5t25 -5.5h135q20 0 27 7.5t7 26.5z" />
    <glyph glyph-name="uni0930" unicode="&#x930;" horiz-adv-x="331" 
d="M351 622v-59h-68q8 -8 8 -26v-173q0 -79 -79 -79h-98v-195q0 -20 6 -25.5t25 -5.5h44q19 0 25 5.5t6 25.5v121h69v-132q0 -79 -79 -79h-86q-79 0 -79 79v367h69v-102h77q19 0 25 6t6 25v157q0 20 -6 25.5t-25 5.5h-211v59h371z" />
    <glyph glyph-name="uni0930093C" unicode="&#x931;" horiz-adv-x="331" 
d="M351 622v-59h-68q8 -8 8 -26v-173q0 -79 -79 -79h-98v-195q0 -20 6 -25.5t25 -5.5h44q19 0 25 5.5t6 25.5v121h69v-132q0 -79 -79 -79h-86q-79 0 -79 79v367h69v-102h77q19 0 25 6t6 25v157q0 20 -6 25.5t-25 5.5h-211v59h371zM122 -157v86h73v-86h-73z" />
    <glyph glyph-name="uni0932" unicode="&#x932;" horiz-adv-x="488" 
d="M508 622v-59h-68v-563h-69v426h-63q-20 0 -25.5 -6t-5.5 -25v-206h-69v206q0 19 -6 25t-25 6h-32q-19 0 -25 -6t-6 -25v-302q0 -19 6 -25t25 -6h61v-62h-82q-79 0 -79 79v327q0 79 79 79h72q44 0 47 -37h2q3 37 46 37h80v78h-391v59h528z" />
    <glyph glyph-name="uni0933" unicode="&#x933;" horiz-adv-x="523" 
d="M563 563h-171v-78h17q79 0 79 -79v-249q0 -79 -79 -79h-99q-43 0 -46 37h-2q-3 -37 -47 -37h-101q-79 0 -79 79v249q0 79 79 79h101q44 0 47 -37h2q3 37 46 37h13v78h-363v59h603v-59zM227 168v227q0 19 -5.5 25t-25.5 6h-61q-19 0 -25 -6t-6 -25v-227q0 -20 6 -25.5
t25 -5.5h61q20 0 25.5 5.5t5.5 25.5zM419 168v227q0 19 -5.5 25t-25.5 6h-61q-19 0 -25 -6t-6 -25v-227q0 -20 6 -25.5t25 -5.5h61q20 0 25.5 5.5t5.5 25.5z" />
    <glyph glyph-name="uni0933093C" unicode="&#x934;" horiz-adv-x="523" 
d="M563 563h-171v-78h17q79 0 79 -79v-249q0 -79 -79 -79h-99q-43 0 -46 37h-2q-3 -37 -47 -37h-101q-79 0 -79 79v249q0 79 79 79h101q44 0 47 -37h2q3 37 46 37h13v78h-363v59h603v-59zM227 168v227q0 19 -5.5 25t-25.5 6h-61q-19 0 -25 -6t-6 -25v-227q0 -20 6 -25.5
t25 -5.5h61q20 0 25.5 5.5t5.5 25.5zM419 168v227q0 19 -5.5 25t-25.5 6h-61q-19 0 -25 -6t-6 -25v-227q0 -20 6 -25.5t25 -5.5h61q20 0 25.5 5.5t5.5 25.5zM75 -77v86h73v-86h-73z" />
    <glyph glyph-name="uni0935" unicode="&#x935;" horiz-adv-x="346" 
d="M366 622v-59h-75v-563h-69v87q-10 -9 -32 -9h-63q-79 0 -79 79v249q0 79 79 79h55v-59h-34q-20 0 -25.5 -6t-5.5 -25v-227q0 -20 5.5 -25.5t25.5 -5.5h40q20 0 27 7.5t7 26.5v392h-242v59h386z" />
    <glyph glyph-name="uni0936" unicode="&#x936;" horiz-adv-x="496" 
d="M372 622h144v-59h-76v-563h-68v622zM126 623h86q79 0 79 -79v-197q0 -79 -79 -79h-98v-178q0 -20 6 -25.5t25 -5.5h44q19 0 25 5.5t6 25.5v104h69v-115q0 -79 -79 -79h-86q-79 0 -79 79v295h69v-47h77q19 0 25 5.5t6 25.5v175q0 19 -6 25t-25 6h-44q-19 0 -25 -6t-6 -25
v-84h-69v95q0 79 79 79z" />
    <glyph glyph-name="uni0937" unicode="&#x937;" horiz-adv-x="392" 
d="M412 622v-59h-75v-563h-69v87q-10 -9 -32 -9h-102q-79 0 -79 79v406h-75v59h432zM155 137h79q26 0 31 15l-101 213l-49 109q9 -50 9 -121v-185q0 -20 6 -25.5t25 -5.5zM268 366v197h-148l104 -217l52 -121q-8 58 -8 141z" />
    <glyph glyph-name="uni0938" unicode="&#x938;" horiz-adv-x="508" 
d="M528 622v-59h-75v-563h-68v285h-271v-195q0 -20 6 -25.5t25 -5.5h44q19 0 25 5.5t6 25.5v121h69v-132q0 -79 -79 -79h-86q-79 0 -79 79v367h69v-102h77q19 0 25 6t6 25v157q0 20 -6 25.5t-25 5.5h-211v59h548zM385 344v219h-102q8 -8 8 -26v-133q0 -46 -12 -60h106z" />
    <glyph glyph-name="uni0939" unicode="&#x939;" horiz-adv-x="363" 
d="M308 426h-153q-19 0 -25 -6t-6 -25v-49q0 -20 6 -25.5t25 -5.5h84q79 0 79 -79v-62h-69v51q0 19 -5.5 25t-25.5 6h-63q-19 0 -25 -6t-6 -25v-135q0 -20 6 -25.5t25 -5.5h163v-59h-184q-79 0 -79 79v158q0 43 37 46v2q-37 3 -37 47v74q0 79 79 79h105v78h-259v59h413v-59
h-85v-137z" />
    <glyph glyph-name="uni093C" unicode="&#x93c;" horiz-adv-x="0" 
d="M-125 -71h73v-86h-73v86z" />
    <glyph glyph-name="uni093D" unicode="&#x93d;" horiz-adv-x="343" 
d="M280 563h-118q-20 0 -25.5 -5.5t-5.5 -25.5v-133q0 -19 5.5 -25t25.5 -6h52q79 0 79 -79v-210q0 -79 -79 -79h-85q-79 0 -79 79v86h69v-75q0 -20 5.5 -25.5t25.5 -5.5h43q19 0 25 5.5t6 25.5v188q0 20 -6 25.5t-25 5.5h-52q-79 0 -79 79v155q0 79 79 79h139v-59z" />
    <glyph glyph-name="uni093E" unicode="&#x93e;" horiz-adv-x="180" 
d="M199 622v-59h-75v-563h-68v563h-75v59h218z" />
    <glyph glyph-name="uni093F" unicode="&#x93f;" 
d="M134 813h253q79 0 79 -79v-67h-69v56q0 20 -5 25.5t-26 5.5h-211q-19 0 -25 -6t-6 -25v-101h75v-59h-75v-563h-69v563h-75v59h75v112q0 79 79 79z" />
    <glyph glyph-name="uni0940" unicode="&#x940;" 
d="M199 622v-59h-75v-563h-69v563h-75v59h75v101q0 19 -5.5 25t-25.5 6h-48q-21 0 -26 -5.5t-5 -25.5v-56h-69v67q0 79 79 79h90q79 0 79 -79v-112h75z" />
    <glyph glyph-name="uni0941" unicode="&#x941;" horiz-adv-x="0" 
d="M-36 1q79 0 79 -79v-58q0 -79 -79 -79h-100q-55 0 -80 12t-50 56l-37 64h82l26 -43q18 -30 56 -30h82q19 0 25 6t6 25v36q0 19 -6 25t-25 6h-67v59h88z" />
    <glyph glyph-name="uni0942" unicode="&#x942;" horiz-adv-x="0" 
d="M-59 0q49 0 71.5 -12.5t47.5 -52.5l93 -149h-83l-75 120q-22 35 -50 35h-53q-20 0 -25.5 -5.5t-5.5 -25.5v-36q0 -20 5.5 -25.5t25.5 -5.5h55v-59h-76q-79 0 -79 79v58q0 79 79 79h70z" />
    <glyph glyph-name="uni0943" unicode="&#x943;" horiz-adv-x="0" 
d="M-55 0v-59h-48q-19 0 -25 -5.5t-6 -25.5v-36q0 -20 6 -25.5t25 -5.5h89v-59h-110q-79 0 -79 79v58q0 79 79 79h69z" />
    <glyph glyph-name="uni0944" unicode="&#x944;" horiz-adv-x="0" 
d="M-203 -79q0 79 79 79h69v-59h-48q-19 0 -25 -5.5t-6 -25.5v-36q0 -20 6 -25.5t25 -5.5h48v-59h-48q-19 0 -25 -6t-6 -25v-36q0 -19 6 -25t25 -6h89v-59h-110q-79 0 -79 79v59q0 43 37 46v2q-37 3 -37 47v61z" />
    <glyph glyph-name="uni0945" unicode="&#x945;" horiz-adv-x="0" 
d="M-218 791h64v-40q0 -19 6 -25t25 -6h68q19 0 25 6t6 25v40h64v-46q0 -79 -79 -79h-100q-79 0 -79 79v46z" />
    <glyph glyph-name="uni0946" unicode="&#x946;" horiz-adv-x="0" 
d="M-303 813h69v-35q0 -20 6 -25.5t25 -5.5h69q79 0 79 -79v-84h-69v73q0 19 -6 25t-25 6h-69q-79 0 -79 79v46z" />
    <glyph glyph-name="uni0947" unicode="&#x947;" horiz-adv-x="0" 
d="M-202 813l143 -204h-69q-33 30 -89 108l-68 96h83z" />
    <glyph glyph-name="uni0948" unicode="&#x948;" horiz-adv-x="0" 
d="M-346 813h91l42 -46q75 -82 113 -145h4q-20 41 -37 81l-46 110h74l47 -201h-66q-27 17 -82 69z" />
    <glyph glyph-name="uni0949" unicode="&#x949;" horiz-adv-x="180" 
d="M155 791h64v-46q0 -79 -79 -79h-100q-79 0 -79 79v46h64v-40q0 -19 5.5 -25t25.5 -6h68q20 0 25.5 6t5.5 25v40zM-19 563v59h218v-59h-75v-563h-68v563h-75z" />
    <glyph glyph-name="uni094A" unicode="&#x94a;" horiz-adv-x="180" 
d="M199 622v-59h-75v-563h-68v563h-75v59h74v35q0 19 -5.5 25t-25.5 6h-69q-79 0 -79 79v46h69v-35q0 -20 5.5 -25.5t25.5 -5.5h69q79 0 79 -79v-46h75z" />
    <glyph glyph-name="uni094B" unicode="&#x94b;" horiz-adv-x="180" 
d="M199 622v-59h-75v-563h-68v563h-75v59h60q-34 36 -76 95l-68 96h83l134 -191h85z" />
    <glyph glyph-name="uni094C" unicode="&#x94c;" horiz-adv-x="180" 
d="M199 622v-59h-75v-563h-68v563h-75v59h62q-28 22 -68 59l-140 132h91l42 -46q75 -82 113 -145h4q-21 41 -37 81l-46 110h74l45 -191h78z" />
    <glyph glyph-name="uni094D" unicode="&#x94d;" horiz-adv-x="0" 
d="M-64 -61l100 -130h-76l-100 130h76z" />
    <glyph glyph-name="uni0950" unicode="&#x950;" horiz-adv-x="600" 
d="M474 341q79 0 79 -79v-183q0 -79 -79 -79h-63q-79 0 -79 79v96h69v-85q0 -20 5.5 -25.5t25.5 -5.5h21q19 0 25 5.5t6 25.5v161q0 19 -6 25t-25 6h-197q15 -10 15 -44v-159q0 -79 -79 -79h-83q-79 0 -79 79v96h69v-85q0 -20 5.5 -25.5t25.5 -5.5h41q19 0 25 5.5t6 25.5
v158q0 20 -7 27t-27 7h-68v59h68q20 0 27 7.5t7 26.5v157q0 20 -6 25.5t-25 5.5h-41q-20 0 -25.5 -5.5t-5.5 -25.5v-85h-69v96q0 79 79 79h83q79 0 79 -79v-58h137q20 0 25.5 5.5t5.5 25.5v40h64v-50q0 -80 -79 -80h-153v-41q0 -33 -15 -44h218zM383 622v-69h-68v69h68z" />
    <glyph glyph-name="uni0915093C" unicode="&#x958;" horiz-adv-x="507" 
d="M527 563h-239v-87q10 9 32 9h63q79 0 79 -79v-249q0 -79 -79 -79h-55v59h34q20 0 25.5 5.5t5.5 25.5v227q0 19 -5.5 25t-25.5 6h-40q-20 0 -27 -7t-7 -27v-392h-69v87q-11 -9 -32 -9h-63q-79 0 -79 79v249q0 79 79 79h55v-59h-34q-19 0 -25 -6t-6 -25v-227q0 -20 6 -25.5
t25 -5.5h40q19 0 26.5 7.5t7.5 26.5v392h-239v59h547v-59zM52 -56v86h73v-86h-73z" />
    <glyph glyph-name="uni0916093C" unicode="&#x959;" horiz-adv-x="584" 
d="M604 622v-59h-75v-563h-65v134q-10 -15 -37 -15h-52q-79 0 -79 79v194q0 79 79 79h59v-59h-42q-20 0 -25.5 -6t-5.5 -25v-172q0 -19 5.5 -25t25.5 -6h31q23 0 32 8.5t9 30.5v346h-220q8 -8 8 -26v-212q0 -79 -79 -79h-56v-153q0 -19 5.5 -25t25.5 -6h213v-62h-234
q-79 0 -79 79v392h69v-166h35q20 0 25.5 5.5t5.5 25.5v196q0 20 -5.5 25.5t-25.5 5.5h-172v59h624zM126 -148v86h73v-86h-73z" />
    <glyph glyph-name="uni0917093C" unicode="&#x95a;" horiz-adv-x="512" 
d="M532 622v-59h-75v-563h-69v563h-104v-406q0 -79 -79 -79h-91q-79 0 -79 79v190q0 79 79 79h101v137h-235v59h552zM135 137h49q20 0 25.5 5.5t5.5 25.5v199h-80q-19 0 -25 -5.5t-6 -25.5v-168q0 -20 6 -25.5t25 -5.5zM119 -87v86h73v-86h-73z" />
    <glyph glyph-name="uni091C093C" unicode="&#x95b;" horiz-adv-x="490" 
d="M510 622v-59h-75v-563h-69v426h-87v-269q0 -79 -79 -79h-76q-79 0 -79 79v328h69v-317q0 -20 6 -25.5t25 -5.5h34q19 0 25 5.5t6 25.5v317h156v78h-386v59h530zM121 -86v86h73v-86h-73z" />
    <glyph glyph-name="uni0921093C" unicode="&#x95c;" horiz-adv-x="351" 
d="M281 426h-121q-20 0 -25.5 -6t-5.5 -25v-70q0 -19 5.5 -25t25.5 -6h52q79 0 79 -79v-136q0 -79 -79 -79h-85q-79 0 -79 79v86h69v-75q0 -20 5.5 -25.5t25.5 -5.5h43q19 0 25 5.5t6 25.5v114q0 20 -6 25.5t-25 5.5h-52q-79 0 -79 79v92q0 79 79 79h73v78h-232v59h391v-59
h-90v-137zM129 -139v86h73v-86h-73z" />
    <glyph glyph-name="uni0922093C" unicode="&#x95d;" horiz-adv-x="377" 
d="M282 426h-127q-19 0 -25 -6t-6 -25v-305q0 -20 6 -25.5t25 -5.5h67q20 0 25.5 5.5t5.5 25.5v103q0 19 -5.5 25t-25.5 6h-41v59h62q79 0 79 -79v-125q0 -79 -79 -79h-109q-79 0 -79 79v327q0 79 79 79h79v78h-233v59h417v-59h-115v-137zM154 -139v86h73v-86h-73z" />
    <glyph glyph-name="uni092B093C" unicode="&#x95e;" horiz-adv-x="510" 
d="M530 563h-239v-87q11 9 32 9h63q79 0 79 -79v-249q0 -79 -79 -79h-55v59h34q19 0 25 5.5t6 25.5v227q0 19 -6 25t-25 6h-40q-19 0 -26.5 -7t-7.5 -27v-392h-69v87q-10 -9 -32 -9h-63q-79 0 -79 79v406h-68v59h550v-59zM222 171v392h-105v-395q0 -20 5.5 -25.5t25.5 -5.5
h40q20 0 27 7.5t7 26.5zM97 -85v86h73v-86h-73z" />
    <glyph glyph-name="uni092F093C" unicode="&#x95f;" horiz-adv-x="428" 
d="M448 622v-59h-75v-563h-69v87q-10 -9 -32 -9h-158q-79 0 -79 79v217h80q19 0 25 6t6 25v126q0 22 -7 27t-39 5h-140v59h488zM304 171v392h-97q8 -8 8 -27v-142q0 -79 -79 -79h-32v-147q0 -20 6 -25.5t25 -5.5h135q20 0 27 7.5t7 26.5zM158 -79v86h73v-86h-73z" />
    <glyph glyph-name="uni0960" unicode="&#x960;" horiz-adv-x="618" 
d="M317 563v-300h80q-12 14 -12 60v84q0 78 79 78h45q79 0 79 -78v-126q0 -78 -79 -78h-28q-16 -1 -21.5 -6.5t-5.5 -24.5v-36q0 -20 6 -25.5t25 -5.5h43v-59h-43q-19 0 -25 -6t-6 -25v-36q0 -19 6 -25t25 -6h84v-59h-105q-79 0 -79 79v59q0 43 37 46v2q-37 3 -37 47v50
q0 23 14 31h-82v-203h-68v203h-23l-145 -203h-77l175 245l-61 123q-15 31 -30.5 43t-45.5 12h-37v62h37q54 0 77.5 -13.5t44.5 -54.5l77 -154h8v300h-269v59h658v-59h-321zM454 394v-99q0 -19 5 -25.5t24 -6.5h8q19 0 24 6.5t5 25.5v99q0 19 -5 25.5t-24 6.5h-8
q-19 0 -24 -6.5t-5 -25.5z" />
    <glyph glyph-name="uni0961" unicode="&#x961;" horiz-adv-x="488" 
d="M440 191h-48q-20 0 -25.5 -5.5t-5.5 -25.5v-36q0 -20 5.5 -25.5t25.5 -5.5h48v-59h-48q-20 0 -25.5 -6t-5.5 -25v-36q0 -19 5.5 -25t25.5 -6h89v-59h-110q-79 0 -79 79v59q0 43 37 46v2q-37 3 -37 47v61q0 79 79 79v176h-63q-20 0 -25.5 -6t-5.5 -25v-137h-69v137
q0 19 -6 25t-25 6h-32q-19 0 -25 -6t-6 -25v-302q0 -19 6 -25t25 -6h61v-62h-82q-79 0 -79 79v327q0 79 79 79h72q44 0 47 -37h2q3 37 46 37h80v78h-391v59h528v-59h-68v-372z" />
    <glyph glyph-name="uni0964" unicode="&#x964;" horiz-adv-x="324" 
d="M194 653v-684h-64v684h64z" />
    <glyph glyph-name="uni0965" unicode="&#x965;" horiz-adv-x="489" 
d="M359 653v-684h-64v684h64zM194 653v-684h-64v684h64z" />
    <glyph glyph-name="uni0966" unicode="&#x966;" horiz-adv-x="361" 
d="M242 90v442q0 20 -6 25.5t-25 5.5h-61q-20 0 -25.5 -5.5t-5.5 -25.5v-442q0 -20 5.5 -25.5t25.5 -5.5h61q19 0 25 5.5t6 25.5zM311 543v-464q0 -79 -79 -79h-103q-79 0 -79 79v464q0 79 79 79h103q79 0 79 -79z" />
    <glyph glyph-name="uni0967" unicode="&#x967;" horiz-adv-x="211" 
d="M156 622v-622h-68v563h-68v59h136z" />
    <glyph glyph-name="uni0968" unicode="&#x968;" horiz-adv-x="290" 
d="M93 532v-110h-68v121q0 79 79 79h77q79 0 79 -79v-55q0 -69 -26 -130l-137 -299h168v-59h-239v58l142 311q23 54 23 123v40q0 20 -5.5 25.5t-25.5 5.5h-36q-20 0 -25.5 -5.5t-5.5 -25.5z" />
    <glyph glyph-name="uni0969" unicode="&#x969;" horiz-adv-x="322" 
d="M98 532v-102h-68v113q0 79 79 79h84q79 0 79 -79v-179q0 -45 -37 -48q37 -6 37 -47v-190q0 -79 -79 -79h-84q-79 0 -79 79v112h68v-101q0 -20 6 -25.5t25 -5.5h44q19 0 25 5.5t6 25.5v164q0 20 -6 25.5t-25 5.5h-73v60h73q19 0 25 5.5t6 25.5v156q0 20 -6 25.5t-25 5.5
h-44q-19 0 -25 -5.5t-6 -25.5z" />
    <glyph glyph-name="uni096A" unicode="&#x96a;" horiz-adv-x="325" 
d="M325 186v-59h-53v-127h-66v127h-201v53l164 442h67l-161 -436h131v118h66v-118h53z" />
    <glyph glyph-name="uni096B" unicode="&#x96b;" horiz-adv-x="321" 
d="M284 563h-175v-180h96q79 0 79 -79v-225q0 -79 -79 -79h-86q-79 0 -79 79v113h69v-102q0 -20 5.5 -25.5t25.5 -5.5h44q20 0 25.5 5.5t5.5 25.5v203q0 19 -5.5 25t-25.5 6h-144v298h244v-59z" />
    <glyph glyph-name="uni096C" unicode="&#x96c;" horiz-adv-x="352" 
d="M119 353h109q79 0 79 -79v-195q0 -79 -79 -79h-99q-79 0 -79 79v464q0 79 79 79h98q79 0 79 -79v-117h-68v106q0 20 -6 25.5t-25 5.5h-57q-20 0 -25.5 -5.5t-5.5 -25.5v-179zM238 90v173q0 19 -6 25t-25 6h-88v-204q0 -20 5.5 -25.5t25.5 -5.5h57q19 0 25 5.5t6 25.5z
" />
    <glyph glyph-name="uni096D" unicode="&#x96d;" horiz-adv-x="256" 
d="M251 622v-46l-161 -576h-68l155 563h-172v59h246z" />
    <glyph glyph-name="uni096E" unicode="&#x96e;" horiz-adv-x="360" 
d="M310 543v-183q0 -45 -37 -48q37 -6 37 -47v-186q0 -79 -79 -79h-102q-79 0 -79 79v186q0 41 37 47q-37 3 -37 48v183q0 79 79 79h102q79 0 79 -79zM242 90v162q0 20 -6 25.5t-25 5.5h-62q-19 0 -25 -5.5t-6 -25.5v-162q0 -20 6 -25.5t25 -5.5h62q19 0 25 5.5t6 25.5z
M242 374v158q0 20 -6 25.5t-25 5.5h-62q-19 0 -25 -5.5t-6 -25.5v-158q0 -20 6 -25.5t25 -5.5h62q19 0 25 5.5t6 25.5z" />
    <glyph glyph-name="uni096F" unicode="&#x96f;" horiz-adv-x="347" 
d="M119 622h99q79 0 79 -79v-464q0 -79 -79 -79h-98q-79 0 -79 79v117h68v-106q0 -20 5.5 -25.5t25.5 -5.5h57q19 0 25 5.5t6 25.5v169h-109q-79 0 -79 79v205q0 79 79 79zM140 318h88v214q0 20 -6 25.5t-25 5.5h-57q-20 0 -25.5 -5.5t-5.5 -25.5v-183q0 -19 5.5 -25
t25.5 -6z" />
    <glyph glyph-name="uni0970" unicode="&#x970;" horiz-adv-x="353" 
d="M123 305q0 -69 53.5 -69t53.5 69t-53.5 69t-53.5 -69zM60 305q0 59 31.5 92.5t84.5 33.5t85 -33.5t32 -92.5t-32 -92.5t-85 -33.5t-84.5 33.5t-31.5 92.5z" />
    <glyph glyph-name="uni0972" unicode="&#x972;" horiz-adv-x="425" 
d="M480 791h64v-46q0 -79 -79 -79h-100q-79 0 -79 79v46h64v-40q0 -19 6 -25t25 -6h68q19 0 25 6t6 25v40zM520 622v-59h-75v-563h-68v289h-106v-132q0 -79 -79 -79h-83q-79 0 -79 79v96h69v-85q0 -20 5.5 -25.5t25.5 -5.5h41q19 0 25 5.5t6 25.5v116q0 20 -7 27t-27 7h-68
v59h68q20 0 27 7.5t7 26.5v121q0 20 -6 25.5t-25 5.5h-41q-20 0 -25.5 -5.5t-5.5 -25.5v-85h-69v96q0 79 79 79h83q79 0 79 -79v-147q0 -44 -37 -47v-2h143v275h143z" />
    <glyph glyph-name="uni200B" unicode="&#x200b;" horiz-adv-x="0" 
 />
    <glyph glyph-name="uni200C" unicode="&#x200c;" horiz-adv-x="0" 
d="M24 -230h-47v1041h47v-1041z" />
    <glyph glyph-name="uni200D" unicode="&#x200d;" horiz-adv-x="0" 
d="M24 -230h-47v865l-69 -73l-33 33l93 93l-95 95l33 33l95 -95l96 95l32 -32l-96 -96l96 -95l-33 -33l-72 75v-865z" />
    <glyph glyph-name="endash" unicode="&#x2013;" horiz-adv-x="370" 
d="M20 263v58h330v-58h-330z" />
    <glyph glyph-name="emdash" unicode="&#x2014;" horiz-adv-x="479" 
d="M0 263v58h479v-58h-479z" />
    <glyph glyph-name="quoteleft" unicode="&#x2018;" horiz-adv-x="142" 
d="M112 373h-82v58l55 191h27v-249z" />
    <glyph glyph-name="quoteright" unicode="&#x2019;" horiz-adv-x="142" 
d="M30 622h82v-58l-55 -191h-27v249z" />
    <glyph glyph-name="quotesinglbase" unicode="&#x201a;" horiz-adv-x="142" 
d="M30 112h82v-58l-55 -191h-27v249z" />
    <glyph glyph-name="quotedblleft" unicode="&#x201c;" horiz-adv-x="274" 
d="M112 373h-82v58l55 191h27v-249zM244 373h-82v58l55 191h27v-249z" />
    <glyph glyph-name="quotedblright" unicode="&#x201d;" horiz-adv-x="274" 
d="M162 622h82v-58l-55 -191h-27v249zM30 622h82v-58l-55 -191h-27v249z" />
    <glyph glyph-name="quotedblbase" unicode="&#x201e;" horiz-adv-x="274" 
d="M162 112h82v-58l-55 -191h-27v249zM30 112h82v-58l-55 -191h-27v249z" />
    <glyph glyph-name="dagger" unicode="&#x2020;" horiz-adv-x="338" 
d="M333 458v-59h-130v-509h-68v509h-130v59h130v164h68v-164h130z" />
    <glyph glyph-name="daggerdbl" unicode="&#x2021;" horiz-adv-x="358" 
d="M343 399h-130v-333h130v-59h-130v-164h-68v164h-130v59h130v333h-130v59h130v164h68v-164h130v-59z" />
    <glyph glyph-name="bullet" unicode="&#x2022;" horiz-adv-x="396" 
d="M71 321q0 53 37.5 90t89.5 37t89.5 -37t37.5 -90t-37.5 -90t-89.5 -37t-89.5 37t-37.5 90z" />
    <glyph glyph-name="ellipsis" unicode="&#x2026;" horiz-adv-x="502" 
d="M415 0v107h92v-107h-92zM235 0v107h92v-107h-92zM55 0v107h92v-107h-92z" />
    <glyph glyph-name="perthousand" unicode="&#x2030;" horiz-adv-x="820" 
d="M734 80v166q0 19 -5 24.5t-23 5.5h-23q-18 0 -23 -5.5t-5 -24.5v-166q0 -19 5 -24.5t23 -5.5h23q18 0 23 5.5t5 24.5zM790 255v-184q0 -71 -67 -71h-57q-67 0 -67 71v184q0 71 67 71h57q67 0 67 -71zM392 622h61l-273 -622h-60zM487 80v166q0 19 -5 24.5t-23 5.5h-23
q-18 0 -23 -5.5t-5 -24.5v-166q0 -19 5 -24.5t23 -5.5h23q18 0 23 5.5t5 24.5zM165 376v166q0 19 -5 24.5t-23 5.5h-23q-18 0 -23 -5.5t-5 -24.5v-166q0 -19 5 -24.5t23 -5.5h23q18 0 23 5.5t5 24.5zM543 255v-184q0 -71 -67 -71h-57q-67 0 -67 71v184q0 71 67 71h57
q67 0 67 -71zM221 551v-184q0 -71 -67 -71h-57q-67 0 -67 71v184q0 71 67 71h57q67 0 67 -71z" />
    <glyph glyph-name="guilsinglleft" unicode="&#x2039;" horiz-adv-x="287" 
d="M164 106l-121 156l121 156h77l-124 -157l124 -155h-77z" />
    <glyph glyph-name="guilsinglright" unicode="&#x203a;" horiz-adv-x="289" 
d="M241 262l-121 -156h-77l124 155l-124 157h77z" />
    <glyph glyph-name="fraction" unicode="&#x2044;" horiz-adv-x="384" 
d="M272 699h68l-264 -835h-68z" />
    <glyph glyph-name="Euro" unicode="&#x20ac;" horiz-adv-x="368" 
d="M328 438h-69v94q0 20 -5.5 25.5t-25.5 5.5h-55q-19 0 -25 -5.5t-6 -25.5v-134h95v-58h-95v-57h95v-59h-95v-135q0 -19 6 -25t25 -6h55q20 0 25.5 6t5.5 25v94h69v-105q0 -79 -79 -79h-97q-79 0 -79 79v146h-48v59h48v57h-48v58h48v145q0 79 79 79h97q79 0 79 -79v-105z
" />
    <glyph glyph-name="uni20B9" unicode="&#x20b9;" horiz-adv-x="343" 
d="M293 622v-59h-63q10 -13 10 -40v-52h53v-59h-53v-72q0 -79 -79 -79h-50l150 -261h-74l-147 261v59h100q20 0 25.5 6t5.5 25v61h-131v59h131v61q0 20 -5.5 25.5t-25.5 5.5h-100v59h253z" />
    <glyph glyph-name="trademark" unicode="&#x2122;" horiz-adv-x="598" 
d="M568 622v-322h-63v221l-52 -163h-65l-54 164v-222h-63v322h87l62 -186l60 186h88zM233 622v-59h-80v-263h-68v263h-80v59h228z" />
    <glyph glyph-name="uni2126" unicode="&#x2126;" horiz-adv-x="370" 
d="M360 59v-59h-158v59h14q20 0 25.5 5.5t5.5 25.5v442q0 20 -5.5 25.5t-25.5 5.5h-62q-20 0 -25.5 -5.5t-5.5 -25.5v-442q0 -20 5.5 -25.5t25.5 -5.5h14v-59h-158v59h66q-21 12 -21 50v434q0 79 79 79h102q79 0 79 -79v-434q0 -38 -21 -50h66z" />
    <glyph glyph-name="product" unicode="&#x220f;" horiz-adv-x="408" 
d="M70 622h283v-622h-68v563h-146v-484q0 -79 -79 -79h-50v64h29q19 0 25 6t6 25v527z" />
    <glyph glyph-name="minus" unicode="&#x2212;" horiz-adv-x="380" 
d="M25 281v60h330v-60h-330z" />
    <glyph glyph-name="uni2215" unicode="&#x2215;" horiz-adv-x="384" 
d="M272 699h68l-264 -835h-68z" />
    <glyph glyph-name="uni2219" unicode="&#x2219;" horiz-adv-x="142" 
d="M30 255v112h82v-112h-82z" />
    <glyph glyph-name="infinity" unicode="&#x221e;" horiz-adv-x="586" 
d="M412 484h46q78 0 78 -75v-121q0 -76 -78 -76h-39q-42 0 -61.5 10t-44.5 44l-21 29q-30 -53 -56 -68t-79 -15h-30q-77 0 -77 76v121q0 75 77 75h37q40 0 57.5 -10t42.5 -44l28 -38q47 70 63 81t57 11zM166 430h-20q-21 0 -26.5 -7.5t-5.5 -27.5v-94q0 -21 5.5 -28t26.5 -7
h31q29 0 49 30l32 48l-39 54q-13 18 -23 25t-30 7zM472 301v95q0 20 -5.5 27.5t-26.5 7.5h-42q-12 0 -18.5 -5.5t-17.5 -20.5l-38 -61l46 -59q14 -19 40 -19h30q21 0 26.5 7t5.5 28z" />
    <glyph glyph-name="integral" unicode="&#x222b;" horiz-adv-x="243" 
d="M156 639v-676q0 -79 -79 -79h-67v64h46q19 0 24 5.5t7 25.5v676q0 79 79 79h67v-64h-46q-19 0 -25 -6t-6 -25z" />
    <glyph glyph-name="approxequal" unicode="&#x2248;" horiz-adv-x="472" 
d="M317 216q-32 0 -57 13t-38 28q-37 41 -77 41q-18 0 -24 -8.5t-6 -25.5v-47h-64v60q0 76 77 76h29q27 0 50 -13t37 -28t37 -28t44.5 -13t26.5 8t5 27v46h64v-60q0 -76 -78 -76h-26zM317 386q-32 0 -57 13t-38 28q-37 41 -77 41q-18 0 -24 -8.5t-6 -25.5v-47h-64v60
q0 76 77 76h29q27 0 50 -13t37 -28t37 -28t44.5 -13t26.5 8t5 27v46h64v-60q0 -76 -78 -76h-26z" />
    <glyph glyph-name="notequal" unicode="&#x2260;" horiz-adv-x="474" 
d="M424 364h-135l-46 -98h181v-58h-208l-46 -100h-55l46 100h-111v58h138l46 98h-184v58h210l44 94h55l-44 -94h109v-58z" />
    <glyph glyph-name="lessequal" unicode="&#x2264;" horiz-adv-x="434" 
d="M374 165v-57h-334v57h334zM374 444l-252 -88l252 -90v-65l-334 132v50l334 125v-64z" />
    <glyph glyph-name="greaterequal" unicode="&#x2265;" horiz-adv-x="434" 
d="M50 108v57h334v-57h-334zM302 356l-252 88v64l334 -125v-50l-334 -132v65z" />
    <glyph glyph-name="lozenge" unicode="&#x25ca;" horiz-adv-x="446" 
d="M260 622l155 -311l-155 -311h-57l-155 311l155 311h57zM232 70l111 241l-111 242l-112 -242z" />
    <glyph glyph-name="uni25CC" unicode="&#x25cc;" horiz-adv-x="422" 
d="M175 151h66v-73h-66v73zM175 485h66v-73h-66v73zM279 412v73q66 0 66 -73h-66zM279 374h66v-73h-66v73zM279 262h66v-73h-66v73zM279 151h66q0 -30 -18 -51.5t-48 -21.5v73zM137 412h-66q0 34 18 53.5t48 19.5v-73zM71 374h66v-73h-66v73zM71 262h66v-73h-66v73zM137 151
v-73q-29 0 -47.5 20t-18.5 53h66z" />
    <glyph glyph-name="commaaccent" unicode="&#xf6c3;" horiz-adv-x="400" 
d="M160 -51h80v-39l-53 -121h-27v160z" />
    <glyph glyph-name="fi" unicode="&#xfb01;" horiz-adv-x="341" 
d="M227 669h69v-64h-69v64zM122 485h174v-485h-69v426h-105v-426h-69v426h-48v59h48v105q0 79 79 79h42v-64h-21q-19 0 -25 -5.5t-6 -25.5v-89z" />
    <glyph glyph-name="fl" unicode="&#xfb02;" horiz-adv-x="341" 
d="M227 669h69v-669h-69v426h-105v-426h-69v426h-48v59h48v105q0 79 79 79h42v-64h-21q-19 0 -25 -5.5t-6 -25.5v-89h105v184z" />
    <glyph glyph-name="itfLogo" horiz-adv-x="1648" 
d="M1327 224v185h196v-185h-196zM1327 449v185h196v-185h-196zM1091 0v634h196v-634h-196zM855 449v185h196v-185h-196zM619 0v634h196v-634h-196zM383 449v185h196v-185h-196zM147 0v634h196v-634h-196z" />
    <glyph glyph-name="uni0915094D" horiz-adv-x="352" 
d="M441 563h-153v-117q10 9 32 9h121v-59h-119q-20 0 -27 -7t-7 -27v-362h-69v87q-11 -9 -32 -9h-63q-79 0 -79 79v249q0 79 79 79h55v-59h-34q-19 0 -25 -6t-6 -25v-227q0 -20 6 -25.5t25 -5.5h40q19 0 26.5 7.5t7.5 26.5v392h-239v59h461v-59z" />
    <glyph glyph-name="uni0916094D" horiz-adv-x="409" 
d="M-20 622h518v-59h-254q8 -8 8 -26v-227q0 -79 -79 -79h-56v-138q0 -19 5.5 -25t25.5 -6h177v-62h-198q-79 0 -79 79v392h69v-181h35q20 0 25.5 6t5.5 25v211q0 20 -5.5 25.5t-25.5 5.5h-172v59zM361 381v-172q0 -19 5.5 -25t25.5 -6h106v-59h-123q-79 0 -79 79v194
q0 79 79 79h59v-59h-42q-20 0 -25.5 -6t-5.5 -25z" />
    <glyph glyph-name="uni0917094D" horiz-adv-x="334" 
d="M354 622v-59h-70v-406q0 -79 -79 -79h-91q-79 0 -79 79v190q0 79 79 79h101v137h-235v59h374zM135 137h49q20 0 25.5 5.5t5.5 25.5v199h-80q-19 0 -25 -5.5t-6 -25.5v-168q0 -20 6 -25.5t25 -5.5z" />
    <glyph glyph-name="uni0918094D" horiz-adv-x="237" 
d="M324 563h-176q-20 0 -25.5 -5.5t-5.5 -25.5v-122q0 -20 5.5 -25.5t25.5 -5.5h68v-59h-68q-20 0 -25.5 -6t-5.5 -25v-121q0 -20 5.5 -25.5t25.5 -5.5h176v-59h-197q-79 0 -79 79v144q0 43 37 46v2q-37 3 -37 47v141q0 18 8 26h-76v59h344v-59z" />
    <glyph glyph-name="uni0919094D" horiz-adv-x="351" 
d="M-20 622h391v-59h-90v-137h-121q-20 0 -25.5 -6t-5.5 -25v-70q0 -19 5.5 -25t25.5 -6h52q79 0 79 -79v-136q0 -79 -79 -79h-85q-79 0 -79 79v86h69v-75q0 -20 5.5 -25.5t25.5 -5.5h43q19 0 25 5.5t6 25.5v114q0 20 -6 25.5t-25 5.5h-52q-79 0 -79 79v92q0 79 79 79h73v78
h-232v59zM273 308v86h73v-86h-73zM131 -61h76l100 -130h-76z" />
    <glyph glyph-name="uni091A094D" horiz-adv-x="207" 
d="M-20 622h316v-59h-316v59zM137 395v-227q0 -20 5.5 -25.5t25.5 -5.5h128v-59h-149q-79 0 -79 79v243q0 18 8 26h-71v59h204v-59h-41q-20 0 -25.5 -6t-5.5 -25z" />
    <glyph glyph-name="uni091B094D" horiz-adv-x="501" 
d="M521 622v-59h-347l11 -1q-43 2 -52 -2t-9 -28v-163q0 -19 6 -25t25 -6h37v-59h-37q-19 0 -25 -5.5t-6 -25.5v-158q0 -20 6 -25.5t25 -5.5h203q20 0 25.5 5.5t5.5 25.5v305q0 19 -5.5 25t-25.5 6h-20q-20 0 -25.5 -6t-5.5 -25v-132q0 -19 5.5 -25t25.5 -6h20v-59h-36
q-79 0 -79 79v154q0 79 79 79h52q79 0 79 -79v-327q0 -79 -79 -79h-240q-79 0 -79 79v181q0 43 37 46v2q-37 3 -37 47v182q0 18 8 26h-83v59h541z" />
    <glyph glyph-name="uni091C094D" horiz-adv-x="311" 
d="M114 485v-317q0 -20 6 -25.5t25 -5.5h34q19 0 25 5.5t6 25.5v317h189v-59h-120v-269q0 -79 -79 -79h-76q-79 0 -79 79v328h69zM399 622v-59h-419v59h419z" />
    <glyph glyph-name="uni091D094D" horiz-adv-x="353" 
d="M292 426h-146q-20 0 -25.5 -6t-5.5 -25v-40q0 -19 5.5 -25t25.5 -6h292v-59h-139q1 -6 1 -20v-88q0 -79 -79 -79h-104v-78h-69v190h69v-53h83q20 0 25.5 5.5t5.5 25.5v66q0 20 -5.5 25.5t-25.5 5.5h-75q-79 0 -79 79v62q0 79 79 79h98v78h-243v59h458v-59h-146v-137z" />
    <glyph glyph-name="uni091E094D" horiz-adv-x="305" 
d="M-20 622h415v-59h-415v59zM259 406v-73h136v-59h-136v-117q0 -79 -79 -79h-71q-79 0 -79 79v99h69v-88q0 -20 5.5 -25.5t25.5 -5.5h29q19 0 25 5.5t6 25.5v227q0 19 -6 25t-25 6h-86v59h107q79 0 79 -79z" />
    <glyph glyph-name="uni091F094D" horiz-adv-x="334" 
d="M-20 622h374v-59h-72v-137h-127q-19 0 -25 -6t-6 -25v-305q0 -20 6 -25.5t25 -5.5h34q19 0 25 5.5t6 25.5v104h69v-115q0 -79 -79 -79h-76q-79 0 -79 79v327q0 79 79 79h79v78h-233v59zM131 -61h76l100 -130h-76z" />
    <glyph glyph-name="uni0920094D" horiz-adv-x="368" 
d="M388 563h-166v-78h19q79 0 79 -79v-327q0 -79 -79 -79h-107q-79 0 -79 79v327q0 79 79 79h19v78h-173v59h408v-59zM251 90v305q0 19 -5.5 25t-25.5 6h-65q-19 0 -25 -6t-6 -25v-305q0 -20 6 -25.5t25 -5.5h65q20 0 25.5 5.5t5.5 25.5zM131 -61h76l100 -130h-76z" />
    <glyph glyph-name="uni0921094D" horiz-adv-x="351" 
d="M-20 622h391v-59h-90v-137h-121q-20 0 -25.5 -6t-5.5 -25v-70q0 -19 5.5 -25t25.5 -6h52q79 0 79 -79v-136q0 -79 -79 -79h-85q-79 0 -79 79v86h69v-75q0 -20 5.5 -25.5t25.5 -5.5h43q19 0 25 5.5t6 25.5v114q0 20 -6 25.5t-25 5.5h-52q-79 0 -79 79v92q0 79 79 79h73v78
h-232v59zM131 -61h76l100 -130h-76z" />
    <glyph glyph-name="uni0922094D" horiz-adv-x="377" 
d="M282 426h-127q-19 0 -25 -6t-6 -25v-305q0 -20 6 -25.5t25 -5.5h67q20 0 25.5 5.5t5.5 25.5v103q0 19 -5.5 25t-25.5 6h-41v59h62q79 0 79 -79v-125q0 -79 -79 -79h-109q-79 0 -79 79v327q0 79 79 79h79v78h-233v59h417v-59h-115v-137zM131 -61h76l100 -130h-76z" />
    <glyph glyph-name="uni0923094D" horiz-adv-x="311" 
d="M344 622v-59h-65v-406q0 -79 -79 -79h-76q-79 0 -79 79v406h-65v59h364zM210 168v395h-96v-395q0 -20 6 -25.5t25 -5.5h34q19 0 25 5.5t6 25.5z" />
    <glyph glyph-name="uni0924094D" horiz-adv-x="194" 
d="M269 485v-59h-124q-19 0 -25 -6t-6 -25v-302q0 -19 6 -25t25 -6h34v-62h-55q-79 0 -79 79v327q0 79 79 79h145zM269 622v-59h-289v59h289z" />
    <glyph glyph-name="uni0925094D" horiz-adv-x="301" 
d="M396 78h-271q-79 0 -79 79v195h95q19 0 25 6t6 25v154q0 19 -6 25t-25 6h-5q-20 0 -25.5 -6t-5.5 -25v-45h-52v56q0 79 76 79h33q79 0 79 -79v-176q0 -79 -79 -79h-47v-125q0 -20 5.5 -25.5t25.5 -5.5h250v-59z" />
    <glyph glyph-name="uni0926094D" horiz-adv-x="377" 
d="M297 -61l100 -130h-76l-100 130h76zM230 0v87q-10 -9 -32 -9h-64q-79 0 -79 79v249q0 79 79 79h89v78h-243v59h387v-59h-75v-137h-137q-19 0 -25 -6t-6 -25v-227q0 -20 6 -25.5t25 -5.5h41q20 0 27 7.5t7 26.5v95h69v-266h-69z" />
    <glyph glyph-name="uni0927094D" horiz-adv-x="330" 
d="M141 404q0 -20 5.5 -25.5t25.5 -5.5h68v-59h-68q-20 0 -25.5 -6t-5.5 -25v-115q0 -20 5.5 -25.5t25.5 -5.5h249v-59h-270q-79 0 -79 79v138q0 43 37 46v2q-37 3 -37 47v158q0 79 79 79h35q79 0 79 -79v-56h-52v45q0 19 -5.5 25t-25.5 6h-10q-20 0 -25.5 -6t-5.5 -25v-133
z" />
    <glyph glyph-name="uni0928094D" horiz-adv-x="297" 
d="M-20 622h403v-59h-403v59zM35 157v249q0 79 79 79h269v-59h-119v-269q0 -79 -79 -79h-71q-79 0 -79 79zM195 426h-60q-19 0 -25 -6t-6 -25v-227q0 -20 6 -25.5t25 -5.5h29q20 0 25.5 5.5t5.5 25.5v258z" />
    <glyph glyph-name="uni092A094D" horiz-adv-x="167" 
d="M258 563h-141v-395q0 -20 5.5 -25.5t25.5 -5.5h110v-59h-131q-79 0 -79 79v406h-68v59h278v-59z" />
    <glyph glyph-name="uni092B094D" horiz-adv-x="341" 
d="M430 563h-139v-117q11 9 32 9h107v-59h-105q-19 0 -26.5 -7t-7.5 -27v-362h-69v87q-10 -9 -32 -9h-63q-79 0 -79 79v406h-68v59h450v-59zM222 171v392h-105v-395q0 -20 5.5 -25.5t25.5 -5.5h40q20 0 27 7.5t7 26.5z" />
    <glyph glyph-name="uni092C094D" horiz-adv-x="205" 
d="M119 168q0 -20 5.5 -25.5t25.5 -5.5h101q-105 195 -132 258v-227zM129 78q-79 0 -79 79v249q0 79 79 79h91v-59h-76q92 -169 109 -205.5l43 -96.5v-46h-167zM296 622v-59h-316v59h316z" />
    <glyph glyph-name="uni092D094D" horiz-adv-x="355" 
d="M445 401v-59h-153v-185q0 -79 -79 -79h-89q-79 0 -79 79v165q0 79 79 79h99v131q0 20 -5.5 25.5t-25.5 5.5h-39q-19 0 -25 -5.5t-6 -25.5v-56h-69v67q0 79 79 79h81q79 0 79 -79v-142h153zM223 168v174h-78q-19 0 -25 -6t-6 -25v-143q0 -20 6 -25.5t25 -5.5h47
q20 0 25.5 5.5t5.5 25.5z" />
    <glyph glyph-name="uni092E094D" horiz-adv-x="340" 
d="M425 563h-143v-131h143v-59h-143v-186q0 -79 -79 -79h-89q-79 0 -79 79v166q0 79 79 79h99v131h-233v59h445v-59zM213 198v175h-78q-19 0 -25 -5.5t-6 -25.5v-144q0 -20 6 -25.5t25 -5.5h47q20 0 25.5 5.5t5.5 25.5z" />
    <glyph glyph-name="uni092F094D" horiz-adv-x="249" 
d="M336 622v-59h-129q8 -8 8 -27v-142q0 -79 -79 -79h-32v-147q0 -20 6 -25.5t25 -5.5h201v-59h-222q-79 0 -79 79v217h80q19 0 25 6t6 25v126q0 22 -7 27t-39 5h-140v59h376z" />
    <glyph glyph-name="uni0930094D" horiz-adv-x="331" 
d="M281 -61l100 -130h-76l-100 130h76zM289 211v-132q0 -79 -79 -79h-86q-79 0 -79 79v367h69v-102h77q19 0 25 6t6 25v157q0 20 -6 25.5t-25 5.5h-211v59h371v-59h-68q8 -8 8 -26v-173q0 -79 -79 -79h-98v-195q0 -20 6 -25.5t25 -5.5h44q19 0 25 5.5t6 25.5v121h69z" />
    <glyph glyph-name="uni0932094D" horiz-adv-x="316" 
d="M196 485q44 0 47 -37h2q3 37 46 37h112v-59h-95q-20 0 -25.5 -6t-5.5 -25v-206h-69v206q0 19 -6 25t-25 6h-32q-19 0 -25 -6t-6 -25v-302q0 -19 6 -25t25 -6h61v-62h-82q-79 0 -79 79v327q0 79 79 79h72zM403 622v-59h-423v59h423z" />
    <glyph glyph-name="uni0933094D" horiz-adv-x="523" 
d="M227 395q0 19 -5.5 25t-25.5 6h-61q-19 0 -25 -6t-6 -25v-227q0 -20 6 -25.5t25 -5.5h61q20 0 25.5 5.5t5.5 25.5v227zM419 395q0 19 -5.5 25t-25.5 6h-61q-19 0 -25 -6t-6 -25v-227q0 -20 6 -25.5t25 -5.5h61q20 0 25.5 5.5t5.5 25.5v227zM409 485q79 0 79 -79v-249
q0 -79 -79 -79h-99q-43 0 -46 37h-2q-3 -37 -47 -37h-101q-79 0 -79 79v249q0 79 79 79h101q44 0 47 -37h2q3 37 46 37h99zM563 622v-59h-603v59h603z" />
    <glyph glyph-name="uni0935094D" horiz-adv-x="167" 
d="M182 485v-59h-34q-20 0 -25.5 -6t-5.5 -25v-227q0 -20 5.5 -25.5t25.5 -5.5h110v-59h-131q-79 0 -79 79v249q0 79 79 79h55zM258 622v-59h-278v59h278z" />
    <glyph glyph-name="uni0936094D" horiz-adv-x="341" 
d="M212 268h-98v-178q0 -20 6 -25.5t25 -5.5h44q19 0 25 5.5t6 25.5v104h69v-115q0 -79 -79 -79h-86q-79 0 -79 79v295h69v-47h77q19 0 25 5.5t6 25.5v175q0 19 -6 25t-25 6h-44q-19 0 -25 -6t-6 -25v-84h-69v95q0 79 79 79h86q79 0 79 -79v-197q0 -79 -79 -79z" />
    <glyph glyph-name="uni0937094D" horiz-adv-x="213" 
d="M303 622v-59h-183q114 -237 132.5 -281l29.5 -71t13 -29l2 -57q-10 -47 -61 -47h-102q-79 0 -79 79v406h-75v59h323zM124 353v-185q0 -20 6 -25.5t25 -5.5h79q26 0 31 15l-101 213l-49 109q9 -50 9 -121z" />
    <glyph glyph-name="uni0938094D" horiz-adv-x="330" 
d="M405 622v-59h-122q8 -8 8 -26v-133q0 -46 -12 -60h126v-59h-291v-195q0 -20 6 -25.5t25 -5.5h44q19 0 25 5.5t6 25.5v121h69v-132q0 -79 -79 -79h-86q-79 0 -79 79v367h69v-102h77q19 0 25 6t6 25v157q0 20 -6 25.5t-25 5.5h-211v59h425z" />
    <glyph glyph-name="uni0939094D" horiz-adv-x="334" 
d="M308 426h-153q-19 0 -25 -6t-6 -25v-49q0 -20 6 -25.5t25 -5.5h264v-59h-264q-19 0 -25 -6t-6 -25v-135q0 -20 6 -25.5t25 -5.5h163v-59h-184q-79 0 -79 79v158q0 43 37 46v2q-37 3 -37 47v74q0 79 79 79h105v78h-259v59h439v-59h-111v-137z" />
    <glyph glyph-name="uni0915093C094D" horiz-adv-x="352" 
d="M441 563h-153v-117q10 9 32 9h121v-59h-119q-20 0 -27 -7t-7 -27v-362h-69v87q-11 -9 -32 -9h-63q-79 0 -79 79v249q0 79 79 79h55v-59h-34q-19 0 -25 -6t-6 -25v-227q0 -20 6 -25.5t25 -5.5h40q19 0 26.5 7.5t7.5 26.5v392h-239v59h461v-59zM52 -56v86h73v-86h-73z" />
    <glyph glyph-name="uni0916093C094D" horiz-adv-x="409" 
d="M-20 622h518v-59h-254q8 -8 8 -26v-227q0 -79 -79 -79h-56v-138q0 -19 5.5 -25t25.5 -6h177v-62h-198q-79 0 -79 79v392h69v-181h35q20 0 25.5 6t5.5 25v211q0 20 -5.5 25.5t-25.5 5.5h-172v59zM361 381v-172q0 -19 5.5 -25t25.5 -6h106v-59h-123q-79 0 -79 79v194
q0 79 79 79h59v-59h-42q-20 0 -25.5 -6t-5.5 -25zM126 -148v86h73v-86h-73z" />
    <glyph glyph-name="uni0917093C094D" horiz-adv-x="334" 
d="M354 622v-59h-70v-406q0 -79 -79 -79h-91q-79 0 -79 79v190q0 79 79 79h101v137h-235v59h374zM135 137h49q20 0 25.5 5.5t5.5 25.5v199h-80q-19 0 -25 -5.5t-6 -25.5v-168q0 -20 6 -25.5t25 -5.5zM120 -87v86h73v-86h-73z" />
    <glyph glyph-name="uni091C093C094D" horiz-adv-x="311" 
d="M114 485v-317q0 -20 6 -25.5t25 -5.5h34q19 0 25 5.5t6 25.5v317h189v-59h-120v-269q0 -79 -79 -79h-76q-79 0 -79 79v328h69zM399 622v-59h-419v59h419zM121 0h73v-86h-73v86z" />
    <glyph glyph-name="uni0928093C094D" horiz-adv-x="297" 
d="M-20 622h403v-59h-403v59zM35 157v249q0 79 79 79h269v-59h-119v-269q0 -79 -79 -79h-71q-79 0 -79 79zM195 426h-60q-19 0 -25 -6t-6 -25v-227q0 -20 6 -25.5t25 -5.5h29q20 0 25.5 5.5t5.5 25.5v258zM195 -97v86h73v-86h-73z" />
    <glyph glyph-name="uni092B093C094D" horiz-adv-x="410" 
d="M430 563h-139v-117q11 9 32 9h107v-59h-105q-19 0 -26.5 -7t-7.5 -27v-362h-69v87q-10 -9 -32 -9h-63q-79 0 -79 79v406h-68v59h450v-59zM222 171v392h-105v-395q0 -20 5.5 -25.5t25.5 -5.5h40q20 0 27 7.5t7 26.5zM82 -87v86h73v-86h-73z" />
    <glyph glyph-name="uni092F093C094D" horiz-adv-x="249" 
d="M336 622v-59h-129q8 -8 8 -27v-142q0 -79 -79 -79h-32v-147q0 -20 6 -25.5t25 -5.5h201v-59h-222q-79 0 -79 79v217h80q19 0 25 6t6 25v126q0 22 -7 27t-39 5h-140v59h376zM158 -79v86h73v-86h-73z" />
    <glyph glyph-name="itfStar" horiz-adv-x="672" 
d="M663 452l-218 -140q7 -16 48 -125.5t46 -121.5l-204 168q-20 -14 -205 -168l96 247q-14 8 -111 70l-110 70l261 -8q26 102 69 246l66 -246q136 8 262 8z" />
    <glyph glyph-name="uni09080902" horiz-adv-x="340" 
d="M314 719h63v-66h-63v66zM284 724v-102h76v-59h-76v-137h-149q-19 0 -25 -6t-6 -25v-40q0 -19 6 -25t25 -6h81q79 0 79 -79v-88q0 -79 -79 -79h-99v-78h-69v190h69v-53h78q19 0 25 5.5t6 25.5v66q0 20 -6 25.5t-25 5.5h-81q-79 0 -79 79v62q0 79 79 79h101v78h-235v59h235
v113q0 78 79 78h55v-59h-34q-20 0 -25.5 -5.5t-5.5 -24.5z" />
    <glyph glyph-name="uni09300941" horiz-adv-x="496" 
d="M516 622v-59h-233q8 -8 8 -26v-52h95q79 0 79 -79v-133h-69v122q0 19 -6 25t-25 6h-74v-62q0 -79 -79 -79h-98v-195q0 -20 6 -25.5t25 -5.5h44q19 0 25 5.5t6 25.5v121h69v-132q0 -79 -79 -79h-86q-79 0 -79 79v367h69v-102h77q19 0 25 6t6 25v157q0 20 -6 25.5t-25 5.5
h-211v59h536z" />
    <glyph glyph-name="uni09300942" horiz-adv-x="516" 
d="M536 622v-59h-253q8 -8 8 -26v-52h101q79 0 79 -79v-219q0 -79 -79 -79h-55v62h34q19 0 25 6t6 25v194q0 19 -6 25t-25 6h-80v-62q0 -79 -79 -79h-98v-195q0 -20 6 -25.5t25 -5.5h44q19 0 25 5.5t6 25.5v121h69v-132q0 -79 -79 -79h-86q-79 0 -79 79v367h69v-102h77
q19 0 25 6t6 25v157q0 20 -6 25.5t-25 5.5h-211v59h556z" />
    <glyph glyph-name="uni09390941" horiz-adv-x="363" 
d="M308 426h-153q-19 0 -25 -6t-6 -25v-49q0 -20 6 -25.5t25 -5.5h84q79 0 79 -79v-62h-69v51q0 19 -5.5 25t-25.5 6h-63q-19 0 -25 -6t-6 -25v-135q0 -20 6 -25.5t25 -5.5h84q79 0 79 -79v-58q0 -79 -79 -79h-90q-55 0 -80 12t-50 56l-37 64h82l26 -43q18 -30 56 -30h72
q20 0 25.5 6t5.5 25v36q0 19 -5.5 25t-25.5 6h-84q-79 0 -79 79v158q0 43 37 46v2q-37 3 -37 47v74q0 79 79 79h105v78h-259v59h413v-59h-85v-137z" />
    <glyph glyph-name="uni09390942" horiz-adv-x="373" 
d="M246 0h-53q-19 0 -25 -6t-6 -25v-36q0 -19 6 -25t25 -6h55v-59h-76q-79 0 -79 79v58q0 15 3 26q-41 16 -41 73v158q0 43 37 46v2q-37 3 -37 47v74q0 79 79 79h105v78h-259v59h413v-59h-85v-137h-153q-19 0 -25 -6t-6 -25v-49q0 -20 6 -25.5t25 -5.5h84q79 0 79 -79v-62
h-69v51q0 19 -5.5 25t-25.5 6h-63q-19 0 -25 -6t-6 -25v-135q0 -20 6 -25.5t25 -5.5h87q49 0 71.5 -12.5t47.5 -52.5l93 -149h-83l-75 120q-22 35 -50 35z" />
    <glyph glyph-name="uni09260943" horiz-adv-x="347" 
d="M292 426h-137q-19 0 -25 -6t-6 -25v-227q0 -20 6 -25.5t25 -5.5h41q20 0 27 7.5t7 26.5v95h69v-324h-48q-19 0 -25 -6t-6 -25v-36q0 -19 6 -25t25 -6h89v-59h-110q-79 0 -79 79v58q0 79 76 79h3v86q-10 -9 -32 -9h-64q-79 0 -79 79v249q0 79 79 79h89v78h-243v59h387v-59
h-75v-137z" />
    <glyph glyph-name="uni09390943" horiz-adv-x="363" 
d="M308 426h-153q-19 0 -25 -6t-6 -25v-39q0 -20 6 -25.5t25 -5.5h75q70 0 70 -54q0 -24 -21 -60t-21 -44q0 -12 15 -12h36v-56h-52q-70 0 -70 54q0 24 20.5 58.5t20.5 42.5q0 12 -15 12h-58q-19 0 -25 -6t-6 -25v-145q0 -20 6 -25.5t25 -5.5h163v-59h-184q-79 0 -79 79v168
q0 43 37 46v2q-37 3 -37 47v64q0 79 79 79h105v78h-259v59h413v-59h-85v-137z" />
    <glyph glyph-name="uni094D0928.post" horiz-adv-x="180" 
d="M199 622v-59h-74v-563h-69v147l-129 -119q-15 -13 -15.5 -21t13.5 -23l26 -28l-51 -47l-36 40q-53 59 5 112l187 171v331h-75v59h218z" />
    <glyph glyph-name="uni094D092F.post" horiz-adv-x="438" 
d="M458 622v-59h-75v-563h-69v87q-10 -9 -32 -9h-158q-79 0 -79 79v127h80q19 0 25 6t6 25v80q0 19 -6 25t-25 6h-145v59h166q79 0 79 -79v-102q0 -79 -79 -79h-32v-57q0 -20 6 -25.5t25 -5.5h135q20 0 27 7.5t7 26.5v392h-334v59h478z" />
    <glyph glyph-name="uni094D0930.post" horiz-adv-x="180" 
d="M199 622v-59h-74v-563h-69v147l-177 -197h-85l262 289v324h-75v59h218z" />
    <glyph glyph-name="uni094D0930" horiz-adv-x="0" 
d="M-138 24h99l86 -164h-72l-63 130l-65 -130h-72z" />
    <glyph glyph-name="uni0930094D.1" horiz-adv-x="289" 
d="M-20 622h329v-59h-329v59zM309 374v-59h-125q-79 0 -79 79v73h69v-62q0 -19 6 -25t25 -6h104z" />
    <glyph glyph-name="uni0930094D.2" horiz-adv-x="0" 
d="M10 704h-34q-20 0 -25.5 -5.5t-5.5 -24.5v-75h-69v86q0 78 79 78h55v-59z" />
    <glyph glyph-name="uni0930094D0902" horiz-adv-x="0" 
d="M-26 719h63v-66h-63v66zM9 813v-59h-34q-20 0 -25.5 -5.5t-5.5 -24.5v-125h-69v136q0 78 79 78h55z" />
    <glyph glyph-name="uni093E0930094D" horiz-adv-x="180" 
d="M199 622v-59h-75v-563h-68v563h-75v59h74v63q0 78 79 78h55v-59h-34q-20 0 -25.5 -5.5t-5.5 -24.5v-52h75z" />
    <glyph glyph-name="uni093E0930094D0902" horiz-adv-x="180" 
d="M154 719h63v-66h-63v66zM124 724v-102h75v-59h-75v-563h-68v563h-75v59h74v113q0 78 79 78h55v-59h-34q-20 0 -25.5 -5.5t-5.5 -24.5z" />
    <glyph glyph-name="uni0930094D.aMatraI" horiz-adv-x="0" 
d="M65 704h-34q-20 0 -25.5 -5.5t-5.5 -24.5v-75h-69v86q0 78 79 78h55v-59z" />
    <glyph glyph-name="uni0902.aMatraI" horiz-adv-x="0" 
d="M20 743h73v-86h-73v86z" />
    <glyph glyph-name="uni0930094D0902.aMatraI" horiz-adv-x="0" 
d="M30 719h63v-66h-63v66zM65 813v-59h-34q-20 0 -25.5 -5.5t-5.5 -24.5v-125h-69v136q0 78 79 78h55z" />
    <glyph glyph-name="uni09400930094D" 
d="M199 622v-59h-75v-563h-69v563h-75v59h75v101q0 19 -5.5 25t-25.5 6h-48q-20 0 -25.5 -6t-5.5 -25v-56h-69v67q0 79 79 79h80q53 0 53 -42h2v18q0 44 53 44h46v-59h-34q-20 0 -25.5 -5.5t-5.5 -24.5v-122h75z" />
    <glyph glyph-name="uni09400902" 
d="M153 755h73v-86h-73v86zM124 734v-112h75v-59h-75v-563h-69v563h-75v59h75v101q0 19 -5.5 25t-25.5 6h-48q-21 0 -26 -5.5t-5 -25.5v-56h-69v67q0 79 79 79h90q79 0 79 -79z" />
    <glyph glyph-name="uni09400930094D0902" 
d="M159 732h63v-66h-63v66zM124 744v-122h75v-59h-75v-563h-69v563h-75v59h75v101q0 19 -5.5 25t-25.5 6h-48q-20 0 -25.5 -6t-5.5 -25v-56h-69v67q0 79 79 79h80q53 0 53 -42h2v18q0 44 53 44h46v-59h-34q-20 0 -25.5 -5.5t-5.5 -24.5z" />
    <glyph glyph-name="uni0940.aLong" 
d="M199 622v-59h-75v-563h-69v563h-75v59h75v101q0 19 -5.5 25t-25.5 6h-210q-21 0 -26 -5.5t-5 -25.5v-56h-69v67q0 79 79 79h252q79 0 79 -79v-112h75z" />
    <glyph glyph-name="uni09400930094D.aLong" 
d="M199 622v-59h-75v-563h-69v563h-75v59h75v101q0 19 -5.5 25t-25.5 6h-210q-20 0 -25.5 -6t-5.5 -25v-56h-69v67q0 79 79 79h242q53 0 53 -42h2v18q0 44 53 44h46v-59h-34q-20 0 -25.5 -5.5t-5.5 -24.5v-122h75z" />
    <glyph glyph-name="uni09400902.aLong" 
d="M153 755h73v-86h-73v86zM124 734v-112h75v-59h-75v-563h-69v563h-75v59h75v101q0 19 -5.5 25t-25.5 6h-210q-21 0 -26 -5.5t-5 -25.5v-56h-69v67q0 79 79 79h252q79 0 79 -79z" />
    <glyph glyph-name="uni09400930094D0902.aLong" 
d="M162 722h63v-66h-63v66zM124 744v-122h75v-59h-75v-563h-69v563h-75v59h75v101q0 19 -5.5 25t-25.5 6h-210q-20 0 -25.5 -6t-5.5 -25v-56h-69v67q0 79 79 79h242q53 0 53 -42h2v18q0 44 53 44h46v-59h-34q-20 0 -25.5 -5.5t-5.5 -24.5z" />
    <glyph glyph-name="uni09470930094D" horiz-adv-x="0" 
d="M-116 755q0 78 79 78h45v-59h-34q-20 0 -25.5 -5.5t-5.5 -24.5v-135h-61q-33 30 -89 108l-68 96h79l43 -61q30 -44 47 -90h2q-12 40 -12 93z" />
    <glyph glyph-name="uni09470902" horiz-adv-x="0" 
d="M-108 802h73v-86h-73v86zM-194 813l143 -204h-69q-33 30 -89 108l-68 96h83z" />
    <glyph glyph-name="uni09470930094D0902" horiz-adv-x="0" 
d="M-116 755q0 78 79 78h45v-59h-34q-20 0 -25.5 -5.5t-5.5 -24.5v-135h-61q-33 30 -89 108l-68 96h79l43 -61q30 -44 47 -90h2q-12 40 -12 93zM-36 731h63v-66h-63v66z" />
    <glyph glyph-name="uni09480930094D" horiz-adv-x="0" 
d="M-90 678q-10 55 -10 89q0 66 70 66h38v-59h-29q-20 0 -28 -7.5t-8 -27.5v-127h-64q-26 20 -232 201h91q118 -127 163 -191h4q-48 68 -79 129l-32 62h74q32 -97 39 -135h3z" />
    <glyph glyph-name="uni09480902" horiz-adv-x="0" 
d="M-52 743h73v-86h-73v86zM-346 813h91l42 -46q75 -82 113 -145h4q-20 41 -37 81l-46 110h74l47 -201h-66q-27 17 -82 69z" />
    <glyph glyph-name="uni09480930094D0902" horiz-adv-x="0" 
d="M-31 730h63v-66h-63v66zM-89 678q-10 59 -10 91q0 64 70 64h38v-59h-29q-20 0 -28 -7.5t-8 -27.5v-127h-64q-26 20 -232 201h91q118 -127 163 -191h4q-48 68 -79 129l-32 62h74q32 -97 39 -135h3z" />
    <glyph glyph-name="uni094A0902" horiz-adv-x="180" 
d="M130 813h73v-86h-73v86zM124 668v-46h75v-59h-75v-563h-68v563h-75v59h74v35q0 19 -5.5 25t-25.5 6h-69q-79 0 -79 79v46h69v-35q0 -20 5.5 -25.5t25.5 -5.5h69q79 0 79 -79z" />
    <glyph glyph-name="uni094B0930094D" horiz-adv-x="180" 
d="M199 622v-59h-75v-563h-68v563h-75v59h69q-34 36 -76 95l-68 96h79l43 -61q30 -44 47 -90h2q-12 40 -12 93q0 78 79 78h45v-59h-34q-20 0 -25.5 -5.5t-5.5 -24.5v-122h75z" />
    <glyph glyph-name="uni094B0902" horiz-adv-x="180" 
d="M199 622v-59h-75v-563h-68v563h-75v59h66q-34 36 -76 95l-68 96h83l134 -191h79zM145 802v-86h-73v86h73z" />
    <glyph glyph-name="uni094B0930094D0902" horiz-adv-x="180" 
d="M146 731h63v-66h-63v66zM125 744v-122h74v-59h-75v-563h-68v563h-75v59h70q-34 36 -76 95l-68 96h79l43 -61q30 -44 47 -90h2q-12 40 -12 93q0 78 79 78h45v-59h-34q-20 0 -25.5 -5.5t-5.5 -24.5z" />
    <glyph glyph-name="uni094C0930094D" horiz-adv-x="180" 
d="M199 622v-59h-75v-563h-68v563h-75v59h66l-219 191h91q118 -127 163 -191h4q-48 68 -79 129l-32 62h74q32 -97 39 -135h3q-10 55 -10 89q0 66 70 66h38v-59h-29q-20 0 -28 -7.5t-8 -27.5v-117h75z" />
    <glyph glyph-name="uni094C0902" horiz-adv-x="180" 
d="M132 743h73v-86h-73v86zM199 622v-59h-75v-563h-68v563h-75v59h65q-28 22 -68 59l-140 132h91l42 -46q75 -82 113 -145h4q-20 41 -37 81l-46 110h74l45 -191h75z" />
    <glyph glyph-name="uni094C0930094D0902" horiz-adv-x="180" 
d="M149 730h63v-66h-63v66zM124 739v-117h75v-59h-75v-563h-68v563h-75v59h66l-219 191h91q118 -127 163 -191h4q-48 68 -79 129l-32 62h74q32 -97 39 -135h3q-10 59 -10 91q0 64 70 64h38v-59h-29q-20 0 -28 -7.5t-8 -27.5z" />
    <glyph glyph-name="uni0915094D0937" horiz-adv-x="542" 
d="M562 622v-59h-75v-563h-69v306h-288q-20 0 -25.5 -6t-5.5 -25v-107q0 -20 5.5 -25.5t25.5 -5.5h76q23 0 32 8.5t9 30.5v45h69v-221h-69v93q-10 -15 -37 -15h-101q-79 0 -79 79v125q0 72 59 80q-9 8 -9 27v159q0 79 79 79h82q79 0 79 -79v-159q0 -18 -8 -26h106v259h144z
M251 394v143q0 19 -5.5 25t-25.5 6h-40q-20 0 -25.5 -6t-5.5 -25v-143q0 -19 6 -25t26 -6h39q20 0 25.5 5.5t5.5 25.5z" />
    <glyph glyph-name="uni0915094D0937094D" horiz-adv-x="418" 
d="M451 306h-321q-20 0 -25.5 -6t-5.5 -25v-107q0 -20 5.5 -25.5t25.5 -5.5h76q23 0 32 8.5t9 30.5v45h69v-221h-69v93q-10 -15 -37 -15h-101q-79 0 -79 79v125q0 72 59 80q-9 8 -9 27v159q0 79 79 79h82q79 0 79 -79v-159q0 -18 -8 -26h139v-57zM149 537v-143q0 -19 6 -25
t26 -6h39q20 0 25.5 5.5t5.5 25.5v143q0 19 -5.5 25t-25.5 6h-40q-20 0 -25.5 -6t-5.5 -25z" />
    <glyph glyph-name="uni0915094D0937094D092E" horiz-adv-x="905" 
d="M925 622v-59h-75v-563h-69v373h-113v-186q0 -79 -79 -79h-89q-79 0 -79 79v119h-291q-20 0 -25.5 -6t-5.5 -25v-107q0 -20 5.5 -25.5t25.5 -5.5h76q23 0 32 8.5t9 30.5v45h69v-221h-69v93q-10 -15 -37 -15h-101q-79 0 -79 79v125q0 72 59 80q-9 8 -9 27v159q0 79 79 79
h82q79 0 79 -79v-159q0 -18 -8 -26h109q5 69 79 69h99v131h-233v59h559zM251 394v143q0 19 -5.5 25t-25.5 6h-40q-20 0 -25.5 -6t-5.5 -25v-143q0 -19 6 -25t26 -6h39q20 0 25.5 5.5t5.5 25.5zM599 198v175h-78q-19 0 -25 -5.5t-6 -25.5v-144q0 -20 6 -25.5t25 -5.5h47
q20 0 25.5 5.5t5.5 25.5zM781 432v131h-113v-131h113z" />
    <glyph glyph-name="uni0915094D0937094D092E094D" horiz-adv-x="753" 
d="M813 563h-143v-131h143v-59h-143v-186q0 -79 -79 -79h-89q-79 0 -79 79v119h-293q-20 0 -25.5 -6t-5.5 -25v-107q0 -20 5.5 -25.5t25.5 -5.5h76q23 0 32 8.5t9 30.5v45h69v-221h-69v93q-10 -15 -37 -15h-101q-79 0 -79 79v125q0 72 59 80q-9 8 -9 27v159q0 79 79 79h82
q79 0 79 -79v-159q0 -18 -8 -26h111q5 69 79 69h99v131h-233v59h445v-59zM251 394v143q0 19 -5.5 25t-25.5 6h-40q-20 0 -25.5 -6t-5.5 -25v-143q0 -19 6 -25t26 -6h39q20 0 25.5 5.5t5.5 25.5zM601 198v175h-78q-19 0 -25 -5.5t-6 -25.5v-144q0 -20 6 -25.5t25 -5.5h47
q20 0 25.5 5.5t5.5 25.5z" />
    <glyph glyph-name="uni0915094D0937094D092E094D092F" horiz-adv-x="1134" 
d="M1154 622v-59h-75v-563h-69v87q-10 -9 -32 -9h-158q-79 0 -79 79v209h-91v-209q0 -79 -79 -79h-71q-79 0 -79 79v149h-291q-20 0 -25.5 -6t-5.5 -25v-107q0 -20 5.5 -25.5t25.5 -5.5h76q23 0 32 8.5t9 30.5v45h69v-221h-69v93q-10 -15 -37 -15h-101q-79 0 -79 79v125
q0 72 59 80q-9 8 -9 27v159q0 79 79 79h82q79 0 79 -79v-159q0 -18 -8 -26h110q7 62 78 62h81v138h-215v59h788zM251 394v143q0 19 -5.5 25t-25.5 6h-40q-20 0 -25.5 -6t-5.5 -25v-143q0 -19 6 -25t26 -6h39q20 0 25.5 5.5t5.5 25.5zM581 168v198h-60q-19 0 -25 -6t-6 -25
v-167q0 -20 6 -25.5t25 -5.5h29q20 0 25.5 5.5t5.5 25.5zM650 425h171q19 0 25 5.5t6 25.5v75q0 22 -7 27t-39 5h-156v-138zM1010 171v392h-97q8 -8 8 -27v-91q0 -79 -79 -79h-32v-198q0 -20 6 -25.5t25 -5.5h135q20 0 27 7.5t7 26.5z" />
    <glyph glyph-name="uni0915094D0937094D092F" horiz-adv-x="814" 
d="M834 622v-59h-75v-563h-69v87q-10 -9 -32 -9h-158q-79 0 -79 79v160h-291q-20 0 -25.5 -7.5t-5.5 -34.5v-107q0 -20 5.5 -25.5t25.5 -5.5h76q23 0 32 8.5t9 30.5v45h69v-221h-69v93q-10 -15 -37 -15h-101q-79 0 -79 79v125q0 83 59 91q-9 7 -9 27v148q0 79 79 79h82
q79 0 79 -79v-148q0 -18 -8 -26h189q19 0 25 6t6 25v126q0 22 -7 27t-39 5h-94v59h442zM251 405v132q0 19 -5.5 25t-25.5 6h-40q-20 0 -25.5 -6t-5.5 -25v-132q0 -19 6 -25t26 -6h39q20 0 25.5 6t5.5 25zM690 171v392h-97q8 -8 8 -27v-142q0 -79 -79 -79h-32v-147
q0 -20 6 -25.5t25 -5.5h135q20 0 27 7.5t7 26.5z" />
    <glyph glyph-name="uni0915094D0937094D0935" horiz-adv-x="719" 
d="M739 622v-59h-75v-563h-69v87q-11 -9 -32 -9h-63q-79 0 -79 79v149h-291q-20 0 -25.5 -6t-5.5 -25v-107q0 -20 5.5 -25.5t25.5 -5.5h76q23 0 32 8.5t9 30.5v45h69v-221h-69v93q-10 -15 -37 -15h-101q-79 0 -79 79v125q0 72 59 80q-9 8 -9 27v159q0 79 79 79h82
q79 0 79 -79v-159q0 -18 -8 -26h109v43q0 79 79 79h55v-59h-34q-19 0 -25 -6t-6 -25v-227q0 -20 6 -25.5t25 -5.5h40q19 0 26.5 7.5t7.5 26.5v392h-202v59h346zM251 394v143q0 19 -5.5 25t-25.5 6h-40q-20 0 -25.5 -6t-5.5 -25v-143q0 -19 6 -25t26 -6h39q20 0 25.5 5.5
t5.5 25.5z" />
    <glyph glyph-name="uni091C094D091E" horiz-adv-x="491" 
d="M511 622v-59h-76v-563h-69v426h-95q8 -8 8 -26v-243q0 -79 -79 -79h-83v-78h-69v220h69v-83h62q19 0 25 5.5t6 25.5v227q0 19 -6 25t-25 6h-111v59h298v78h-386v59h531z" />
    <glyph glyph-name="uni091C094D091E094D" horiz-adv-x="311" 
d="M-20 622h420v-59h-420v59zM68 426v59h332v-59h-129q8 -8 8 -26v-243q0 -79 -79 -79h-83v-78h-69v220h69v-83h62q19 0 25 5.5t6 25.5v227q0 19 -6 25t-25 6h-111z" />
    <glyph glyph-name="uni091C094D091E094D092F" horiz-adv-x="759" 
d="M779 622v-59h-75v-563h-69v87q-11 -9 -32 -9h-158q-79 0 -79 79v208h-95q8 -8 8 -26v-182q0 -79 -79 -79h-83v-78h-69v220h69v-83h62q19 0 25 5.5t6 25.5v166q0 20 -6 25.5t-25 5.5h-111v59h378q20 0 25.5 6t5.5 25v76q0 22 -7 27t-39 5h-451v59h799zM635 171v392h-97
q8 -8 8 -27v-92q0 -79 -79 -79h-32v-197q0 -20 5.5 -25.5t25.5 -5.5h135q19 0 26.5 7.5t7.5 26.5z" />
    <glyph glyph-name="uni0915094D0928" horiz-adv-x="834" 
d="M854 622v-59h-75v-563h-69v396h-88v-239q0 -79 -79 -79h-71q-79 0 -79 79v219q0 14 1 20h-72q-20 0 -27 -7t-7 -27v-362h-69v87q-11 -9 -32 -9h-63q-79 0 -79 79v249q0 79 79 79h55v-59h-34q-19 0 -25 -6t-6 -25v-227q0 -20 6 -25.5t25 -5.5h40q19 0 26.5 7.5t7.5 26.5
v392h-239v59h874zM553 168v228h-60q-19 0 -25 -6t-6 -25v-197q0 -20 6 -25.5t25 -5.5h29q20 0 25.5 5.5t5.5 25.5zM710 455v108h-422v-117q10 9 32 9h390z" />
    <glyph glyph-name="uni0916094D0928" horiz-adv-x="905" 
d="M925 622v-59h-75v-563h-69v426h-88v-269q0 -79 -79 -79h-71q-68 0 -77 58q-10 -17 -39 -17h-52q-79 0 -79 79v208q0 79 79 79h59v-59h-42q-20 0 -25.5 -6t-5.5 -25v-186q0 -19 5.5 -25t25.5 -6h31q23 0 32 8.5t9 30.5v189q0 79 79 79h238v78h-537q8 -8 8 -26v-212
q0 -79 -79 -79h-56v-153q0 -19 5.5 -25t25.5 -6h213v-62h-234q-79 0 -79 79v392h69v-166h35q20 0 25.5 5.5t5.5 25.5v196q0 20 -5.5 25.5t-25.5 5.5h-172v59h945zM624 168v258h-60q-20 0 -25.5 -6t-5.5 -25v-227q0 -20 5.5 -25.5t25.5 -5.5h29q19 0 25 5.5t6 25.5z" />
    <glyph glyph-name="uni0917094D0928" horiz-adv-x="816" 
d="M836 622v-59h-75v-563h-69v426h-88v-269q0 -79 -79 -79h-71q-79 0 -79 79v249q0 79 79 79h238v78h-408v-406q0 -79 -79 -79h-91q-79 0 -79 79v190q0 79 79 79h101v137h-235v59h856zM135 137h49q20 0 25.5 5.5t5.5 25.5v199h-80q-19 0 -25 -5.5t-6 -25.5v-168
q0 -20 6 -25.5t25 -5.5zM535 168v258h-60q-19 0 -25 -6t-6 -25v-227q0 -20 6 -25.5t25 -5.5h29q20 0 25.5 5.5t5.5 25.5z" />
    <glyph glyph-name="uni0918094D0928" horiz-adv-x="727" 
d="M737 622v-59h-75v-563h-69v426h-88v-269q0 -79 -79 -79h-71q-37 0 -56 16q-15 -16 -53 -16h-119q-79 0 -79 79v144q0 43 37 46v2q-37 3 -37 47v141q0 18 8 26h-76v59h757zM436 168v258h-60q-20 0 -25.5 -6t-5.5 -25v-227q0 -20 5.5 -25.5t25.5 -5.5h29q19 0 25 5.5
t6 25.5zM593 485v78h-445q-20 0 -25.5 -5.5t-5.5 -25.5v-122q0 -20 5.5 -25.5t25.5 -5.5h68v-59h-68q-20 0 -25.5 -6t-5.5 -25v-121q0 -20 5.5 -25.5t25.5 -5.5h94q19 0 26.5 7.5t7.5 25.5v236q0 79 79 79h238z" />
    <glyph glyph-name="uni091A094D0928" horiz-adv-x="703" 
d="M723 622v-59h-75v-563h-69v426h-88v-269q0 -79 -79 -79h-71q-43 0 -62 22q-15 -22 -58 -22h-74q-79 0 -79 79v243q0 18 8 26h-71v59h204v-59h-41q-20 0 -25.5 -6t-5.5 -25v-227q0 -20 5.5 -25.5t25.5 -5.5h60q19 0 26.5 7.5t7.5 25.5v236q0 79 79 79h238v78h-599v59h743z
M422 168v258h-60q-20 0 -25.5 -6t-5.5 -25v-227q0 -20 5.5 -25.5t25.5 -5.5h29q19 0 25 5.5t6 25.5z" />
    <glyph glyph-name="uni091B094D0928" horiz-adv-x="501" 
d="M521 563h-139v-78q71 -4 71 -79v-327q0 -79 -79 -79h-15v-215h-69v99h-59q-19 0 -25 -6t-6 -25v-26h-69v37q0 79 79 79h80v57h-156q-79 0 -79 79v181q0 43 37 46v2q-37 3 -37 47v182q0 18 8 26h-83v59h541v-59zM318 563h-144l11 -1q-43 2 -52 -2t-9 -28v-163q0 -19 6 -25
t25 -6h37v-59h-37q-19 0 -25 -5.5t-6 -25.5v-158q0 -20 6 -25.5t25 -5.5h203q20 0 25.5 5.5t5.5 25.5v305q0 19 -5.5 25t-25.5 6h-20q-20 0 -25.5 -6t-5.5 -25v-132q0 -19 5.5 -25t25.5 -6h20v-59h-36q-79 0 -79 79v154q0 78 75 79v78z" />
    <glyph glyph-name="uni091C094D0928" horiz-adv-x="816" 
d="M836 622v-59h-75v-563h-69v426h-88v-269q0 -79 -79 -79h-71q-79 0 -79 79v249q0 14 1 20h-97v-269q0 -79 -79 -79h-76q-79 0 -79 79v328h69v-317q0 -20 6 -25.5t25 -5.5h34q19 0 25 5.5t6 25.5v317h482v78h-712v59h856zM535 168v258h-60q-19 0 -25 -6t-6 -25v-227
q0 -20 6 -25.5t25 -5.5h29q20 0 25.5 5.5t5.5 25.5z" />
    <glyph glyph-name="uni091D094D0928" horiz-adv-x="832" 
d="M852 622v-59h-75v-563h-69v426h-88v-269q0 -79 -79 -79h-71q-79 0 -79 79v108h-92q1 -6 1 -20v-88q0 -79 -79 -79h-104v-78h-69v190h69v-53h83q20 0 25.5 5.5t5.5 25.5v66q0 20 -5.5 25.5t-25.5 5.5h-75q-79 0 -79 79v62q0 79 79 79h98v78h-243v59h872zM551 168v258h-60
q-19 0 -25 -6t-6 -25v-227q0 -20 6 -25.5t25 -5.5h29q20 0 25.5 5.5t5.5 25.5zM708 485v78h-416v-137h-146q-20 0 -25.5 -6t-5.5 -25v-40q0 -19 5.5 -25t25.5 -6h245v82q0 79 79 79h238z" />
    <glyph glyph-name="uni091F094D0928" horiz-adv-x="334" 
d="M282 426h-127q-19 0 -25 -6t-6 -25v-305q0 -20 6 -25.5t25 -5.5h34q19 0 25 5.5t6 25.5v104h69v-115q0 -40 -20 -60v-234h-69v99h-26q-20 0 -25.5 -6t-5.5 -25v-26h-69v37q0 79 79 79h47v57h-66q-79 0 -79 79v327q0 79 79 79h79v78h-233v59h374v-59h-72v-137z" />
    <glyph glyph-name="uni0920094D0928" horiz-adv-x="368" 
d="M388 563h-166v-78h19q79 0 79 -79v-327q0 -56 -41 -73v-221h-69v99h-26q-20 0 -25.5 -6t-5.5 -25v-26h-69v37q0 79 79 79h47v57h-76q-79 0 -79 79v327q0 79 79 79h19v78h-173v59h408v-59zM251 90v305q0 19 -5.5 25t-25.5 6h-65q-19 0 -25 -6t-6 -25v-305q0 -20 6 -25.5
t25 -5.5h65q20 0 25.5 5.5t5.5 25.5z" />
    <glyph glyph-name="uni0921094D0928" horiz-adv-x="351" 
d="M281 426h-121q-20 0 -25.5 -6t-5.5 -25v-70q0 -19 5.5 -25t25.5 -6h52q79 0 79 -79v-136q0 -47 -29 -67v-227h-69v99h-26q-19 0 -25 -6t-6 -25v-26h-69v37q0 79 79 79h47v57h-66q-79 0 -79 79v86h69v-75q0 -20 5.5 -25.5t25.5 -5.5h43q19 0 25 5.5t6 25.5v114
q0 20 -6 25.5t-25 5.5h-52q-79 0 -79 79v92q0 79 79 79h73v78h-232v59h391v-59h-90v-137z" />
    <glyph glyph-name="uni0924094D0928" horiz-adv-x="690" 
d="M710 622v-59h-75v-563h-69v426h-88v-269q0 -79 -79 -79h-71q-79 0 -79 79v249q0 14 1 20h-105q-19 0 -25 -6t-6 -25v-302q0 -19 6 -25t25 -6h34v-62h-55q-79 0 -79 79v327q0 79 79 79h442v78h-586v59h730zM409 168v258h-60q-19 0 -25 -6t-6 -25v-227q0 -20 6 -25.5
t25 -5.5h29q20 0 25.5 5.5t5.5 25.5z" />
    <glyph glyph-name="uni0925094D0928" horiz-adv-x="747" 
d="M767 622v-59h-75v-563h-69v426h-88v-269q0 -79 -79 -79h-71q-39 0 -59 19q-8 -19 -38 -19h-163q-79 0 -79 79v195h95q19 0 25 6t6 25v154q0 19 -6 25t-25 6h-5q-20 0 -25.5 -6t-5.5 -25v-45h-52v56q0 79 76 79h33q79 0 79 -79v-176q0 -79 -79 -79h-47v-125
q0 -20 5.5 -25.5t25.5 -5.5h126q20 0 27 7.5t7 26.5v235q0 79 79 79h238v78h-317v59h461zM466 168v258h-60q-20 0 -25.5 -6t-5.5 -25v-227q0 -20 5.5 -25.5t25.5 -5.5h29q19 0 25 5.5t6 25.5z" />
    <glyph glyph-name="uni0926094D0928" horiz-adv-x="347" 
d="M292 426h-137q-19 0 -25 -6t-6 -25v-227q0 -20 6 -25.5t25 -5.5h41q20 0 27 7.5t7 26.5v95h69v-404h-69v99h-43q-19 0 -25 -5.5t-6 -25.5v-26h-69v37q0 79 79 79h64v67q-10 -9 -32 -9h-64q-79 0 -79 79v249q0 79 79 79h89v78h-243v59h387v-59h-75v-137z" />
    <glyph glyph-name="uni0927094D0928" horiz-adv-x="761" 
d="M781 622v-59h-75v-563h-69v426h-88v-269q0 -79 -79 -79h-71q-39 0 -59 19q-8 -19 -38 -19h-151q-79 0 -79 79v138q0 43 37 46v2q-37 3 -37 47v158q0 79 79 79h35q79 0 79 -79v-56h-52v45q0 19 -5.5 25t-25.5 6h-10q-20 0 -25.5 -6t-5.5 -25v-133q0 -20 5.5 -25.5
t25.5 -5.5h68v-59h-68q-20 0 -25.5 -6t-5.5 -25v-115q0 -20 5.5 -25.5t25.5 -5.5h114q20 0 27 7.5t7 26.5v235q0 79 79 79h238v78h-317v59h461zM480 168v258h-60q-20 0 -25.5 -6t-5.5 -25v-227q0 -20 5.5 -25.5t25.5 -5.5h29q19 0 25 5.5t6 25.5z" />
    <glyph glyph-name="uni0928094D0928" horiz-adv-x="796" 
d="M816 622v-59h-75v-563h-69v426h-88v-269q0 -79 -79 -79h-71q-79 0 -79 79v249q0 14 1 20h-92v-269q0 -79 -79 -79h-71q-79 0 -79 79v249q0 79 79 79h558v78h-692v59h836zM195 168v258h-60q-19 0 -25 -6t-6 -25v-227q0 -20 6 -25.5t25 -5.5h29q20 0 25.5 5.5t5.5 25.5z
M515 168v258h-60q-19 0 -25 -6t-6 -25v-227q0 -20 6 -25.5t25 -5.5h29q20 0 25.5 5.5t5.5 25.5z" />
    <glyph glyph-name="uni092A094D0928" horiz-adv-x="670" 
d="M690 622v-59h-75v-563h-69v426h-88v-269q0 -79 -79 -79h-71q-39 0 -59 19q-8 -19 -38 -19h-77q-79 0 -79 79v406h-75v59h710zM389 168v258h-60q-19 0 -25 -6t-6 -25v-227q0 -20 6 -25.5t25 -5.5h29q20 0 25.5 5.5t5.5 25.5zM546 485v78h-422v-395q0 -20 6 -25.5t25 -5.5
h40q19 0 26.5 7.5t7.5 26.5v235q0 79 79 79h238z" />
    <glyph glyph-name="uni092B094D0928" horiz-adv-x="837" 
d="M857 622v-59h-75v-563h-69v426h-88v-269q0 -79 -79 -79h-71q-79 0 -79 79v249q0 14 1 20h-72q-19 0 -26.5 -7t-7.5 -27v-392h-69v87q-10 -9 -32 -9h-63q-79 0 -79 79v406h-68v59h877zM148 137h40q20 0 27 7.5t7 26.5v392h-105v-395q0 -20 5.5 -25.5t25.5 -5.5zM556 168
v258h-60q-20 0 -25.5 -6t-5.5 -25v-227q0 -20 5.5 -25.5t25.5 -5.5h29q19 0 25 5.5t6 25.5zM713 485v78h-422v-87q11 9 32 9h390z" />
    <glyph glyph-name="uni092C094D0928" horiz-adv-x="706" 
d="M726 622v-59h-75v-563h-69v426h-88v-269q0 -79 -79 -79h-71q-39 0 -59 19q-11 -19 -49 -19h-102q-79 0 -79 79v249q0 79 79 79h91v-59h-76q104 -191 122 -236q-6 23 -6 81v135q0 79 79 79h238v78h-602v59h746zM155 137h76q15 0 22 4q-103 194 -129 254v-227
q0 -20 6 -25.5t25 -5.5zM425 168v258h-60q-19 0 -25 -6t-6 -25v-227q0 -20 6 -25.5t25 -5.5h29q20 0 25.5 5.5t5.5 25.5z" />
    <glyph glyph-name="uni092D094D0928" horiz-adv-x="821" 
d="M841 622v-59h-75v-563h-69v426h-88v-269q0 -79 -79 -79h-71q-79 0 -79 79v185h-88v-185q0 -79 -79 -79h-89q-79 0 -79 79v165q0 79 79 79h99v131q0 20 -5.5 25.5t-25.5 5.5h-39q-19 0 -25 -5.5t-6 -25.5v-56h-69v67q0 79 79 79h81q79 0 79 -79v-142h88v5q0 79 79 79h238
v78h-317v59h461zM223 168v174h-78q-19 0 -25 -6t-6 -25v-143q0 -20 6 -25.5t25 -5.5h47q20 0 25.5 5.5t5.5 25.5zM540 168v258h-60q-20 0 -25.5 -6t-5.5 -25v-227q0 -20 5.5 -25.5t25.5 -5.5h29q19 0 25 5.5t6 25.5z" />
    <glyph glyph-name="uni092E094D0928" horiz-adv-x="828" 
d="M848 622v-59h-75v-563h-69v426h-88v-269q0 -79 -79 -79h-71q-79 0 -79 79v216h-105v-186q0 -79 -79 -79h-89q-79 0 -79 79v166q0 79 79 79h99v131h-233v59h868zM213 198v175h-78q-19 0 -25 -5.5t-6 -25.5v-144q0 -20 6 -25.5t25 -5.5h47q20 0 25.5 5.5t5.5 25.5zM547 168
v258h-60q-19 0 -25 -6t-6 -25v-227q0 -20 6 -25.5t25 -5.5h29q20 0 25.5 5.5t5.5 25.5zM704 485v78h-422v-131h108q10 53 76 53h238z" />
    <glyph glyph-name="uni092F094D0928" horiz-adv-x="745" 
d="M765 622v-59h-75v-563h-69v426h-88v-269q0 -79 -79 -79h-71q-39 0 -59 19q-8 -19 -38 -19h-172q-79 0 -79 79v217h80q19 0 25 6t6 25v126q0 22 -7 27t-39 5h-120v59h785zM464 168v258h-60q-20 0 -25.5 -6t-5.5 -25v-227q0 -20 5.5 -25.5t25.5 -5.5h29q19 0 25 5.5t6 25.5
zM621 485v78h-414q8 -8 8 -27v-142q0 -79 -79 -79h-32v-147q0 -20 6 -25.5t25 -5.5h135q20 0 27 7.5t7 26.5v235q0 79 79 79h238z" />
    <glyph glyph-name="uni0935094D0928" horiz-adv-x="663" 
d="M683 622v-59h-75v-563h-69v426h-88v-269q0 -79 -79 -79h-71q-43 0 -62 22q-15 -22 -58 -22h-54q-79 0 -79 79v249q0 79 79 79h55v-59h-34q-20 0 -25.5 -6t-5.5 -25v-227q0 -20 5.5 -25.5t25.5 -5.5h40q19 0 26.5 7.5t7.5 25.5v236q0 79 79 79h238v78h-559v59h703z
M382 168v258h-60q-20 0 -25.5 -6t-5.5 -25v-227q0 -20 5.5 -25.5t25.5 -5.5h29q19 0 25 5.5t6 25.5z" />
    <glyph glyph-name="uni0936094D0928" horiz-adv-x="817" 
d="M837 622v-59h-75v-563h-69v426h-88v-269q0 -79 -79 -79h-71q-79 0 -79 79v249q0 79 79 79h238v78h-372v59h516zM536 168v258h-60q-20 0 -25.5 -6t-5.5 -25v-227q0 -20 5.5 -25.5t25.5 -5.5h29q19 0 25 5.5t6 25.5zM126 623h86q79 0 79 -79v-197q0 -79 -79 -79h-98v-178
q0 -20 6 -25.5t25 -5.5h44q19 0 25 5.5t6 25.5v104h69v-115q0 -79 -79 -79h-86q-79 0 -79 79v295h69v-47h77q19 0 25 5.5t6 25.5v175q0 19 -6 25t-25 6h-44q-19 0 -25 -6t-6 -25v-84h-69v95q0 79 79 79z" />
    <glyph glyph-name="uni0938094D0928" horiz-adv-x="836" 
d="M856 622v-59h-75v-563h-69v426h-88v-269q0 -79 -79 -79h-71q-79 0 -79 79v128h-281v-195q0 -20 6 -25.5t25 -5.5h44q19 0 25 5.5t6 25.5v121h69v-132q0 -79 -79 -79h-86q-79 0 -79 79v367h69v-102h77q19 0 25 6t6 25v157q0 20 -6 25.5t-25 5.5h-211v59h876zM555 168v258
h-60q-19 0 -25 -6t-6 -25v-227q0 -20 6 -25.5t25 -5.5h29q20 0 25.5 5.5t5.5 25.5zM712 485v78h-429q8 -8 8 -26v-133q0 -46 -12 -60h116v62q0 79 79 79h238z" />
    <glyph glyph-name="uni0939094D0928" horiz-adv-x="399" 
d="M308 426h-153q-19 0 -25 -6t-6 -25v-19q0 -20 6 -25.5t25 -5.5h138q79 0 79 -79v-158h-61v72h-53q-20 0 -25.5 -6t-5.5 -25v-20h-64v28q0 40 17.5 59.5t56.5 19.5h74v19q0 19 -6.5 25t-26.5 6h-123q-19 0 -25 -6t-6 -25v-165q0 -20 6 -25.5t25 -5.5h163v-59h-184
q-79 0 -79 79v188q0 43 37 46v2q-37 3 -37 47v44q0 79 79 79h105v78h-259v59h439v-59h-111v-137z" />
    <glyph glyph-name="uni0915094D0930" horiz-adv-x="507" 
d="M527 563h-239v-87q10 9 32 9h63q79 0 79 -79v-219q0 -79 -79 -79h-55v59h34q20 0 25.5 5.5t5.5 25.5v197q0 19 -5.5 25t-25.5 6h-40q-20 0 -27 -7t-7 -27v-392h-69v117l-111 -167h-76l108 158h-16q-79 0 -79 79v219q0 79 79 79h55v-59h-34q-19 0 -25 -6t-6 -25v-197
q0 -20 6 -25.5t25 -5.5h40q19 0 26.5 7.5t7.5 26.5v362h-239v59h547v-59z" />
    <glyph glyph-name="uni0916094D0930" horiz-adv-x="584" 
d="M604 622v-59h-75v-563h-65v130l-128 -180h-74l116 161q-82 0 -82 79v202q0 79 79 79h59v-59h-42q-20 0 -25.5 -6t-5.5 -25v-180q0 -19 5.5 -25t25.5 -6h31q23 0 32 8.5t9 30.5v354h-220q8 -8 8 -26v-212q0 -79 -79 -79h-56v-153q0 -19 5.5 -25t25.5 -6h109v-62h-130
q-79 0 -79 79v392h69v-166h35q20 0 25.5 5.5t5.5 25.5v196q0 20 -5.5 25.5t-25.5 5.5h-172v59h624z" />
    <glyph glyph-name="uni0917094D0930" horiz-adv-x="512" 
d="M532 622v-59h-75v-563h-69v147l-177 -197h-85l262 289v324h-104v-336q0 -79 -79 -79h-91q-79 0 -79 79v179q0 79 79 79h101v78h-235v59h552zM135 207h49q20 0 25.5 5.5t5.5 25.5v188h-80q-19 0 -25 -6t-6 -25v-157q0 -20 6 -25.5t25 -5.5z" />
    <glyph glyph-name="uni0918094D0930" horiz-adv-x="416" 
d="M436 622v-59h-75v-563h-69v117l-111 -167h-76l108 158h-86q-79 0 -79 79v130q0 43 37 46v2q-37 3 -37 47v120q0 23 14 31h-82v59h456zM292 201v362h-143q-20 -1 -26 -6.5t-6 -24.5v-106q0 -20 5.5 -25.5t25.5 -5.5h68v-59h-68q-20 0 -25.5 -6t-5.5 -25v-107
q0 -20 5.5 -25.5t25.5 -5.5h110q20 0 27 7.5t7 26.5z" />
    <glyph glyph-name="uni0919094D0930" horiz-adv-x="351" 
d="M-20 622h391v-59h-90v-137h-121q-20 0 -25.5 -6t-5.5 -25v-70q0 -19 5.5 -25t25.5 -6h52q79 0 79 -79v-136q0 -68 -57 -77l74 -142h-72l-63 130l-65 -130h-72l75 141q-63 7 -63 78v86h69v-75q0 -20 5.5 -25.5t25.5 -5.5h43q19 0 25 5.5t6 25.5v114q0 20 -6 25.5t-25 5.5
h-52q-79 0 -79 79v92q0 79 79 79h73v78h-232v59zM273 308v86h73v-86h-73z" />
    <glyph glyph-name="uni091A094D0930" horiz-adv-x="391" 
d="M406 622v-59h-75v-563h-69v117l-111 -167h-76l108 158h-36q-79 0 -79 79v213q0 18 8 26h-71v59h204v-59h-40q-20 -1 -26 -6.5t-6 -24.5v-197q0 -20 5.5 -25.5t25.5 -5.5h60q20 0 27 7.5t7 26.5v362h-282v59h426z" />
    <glyph glyph-name="uni091B094D0930" horiz-adv-x="501" 
d="M521 563h-139v-78q71 -4 71 -79v-327q0 -79 -79 -79h-56l73 -140h-72l-63 130l-65 -130h-72l74 140h-59q-79 0 -79 79v181q0 43 37 46v2q-37 3 -37 47v182q0 18 8 26h-83v59h541v-59zM318 563h-144l11 -1q-43 2 -52 -2t-9 -28v-163q0 -19 6 -25t25 -6h37v-59h-37
q-19 0 -25 -5.5t-6 -25.5v-158q0 -20 6 -25.5t25 -5.5h203q20 0 25.5 5.5t5.5 25.5v305q0 19 -5.5 25t-25.5 6h-20q-20 0 -25.5 -6t-5.5 -25v-132q0 -19 5.5 -25t25.5 -6h20v-59h-36q-79 0 -79 79v154q0 78 75 79v78z" />
    <glyph glyph-name="uni091C094D0930" horiz-adv-x="490" 
d="M510 622v-59h-75v-563h-69v103l-138 -153h-82l220 237v239h-87v-239q0 -79 -79 -79h-76q-79 0 -79 79v298h69v-287q0 -20 6 -25.5t25 -5.5h34q19 0 25 5.5t6 25.5v287h156v78h-386v59h530z" />
    <glyph glyph-name="uni091D094D0930" horiz-adv-x="532" 
d="M552 622v-59h-75v-563h-69v103l-138 -153h-82l220 237v78h-109q1 -6 1 -20v-88q0 -79 -79 -79h-104v-78h-69v190h69v-53h83q20 0 25.5 5.5t5.5 25.5v66q0 20 -5.5 25.5t-25.5 5.5h-75q-79 0 -79 79v62q0 79 79 79h98v78h-243v59h572zM408 324v239h-116v-137h-146
q-20 0 -25.5 -6t-5.5 -25v-40q0 -19 5.5 -25t25.5 -6h262z" />
    <glyph glyph-name="uni091E094D0930" horiz-adv-x="484" 
d="M504 622v-59h-75v-563h-69v147l-177 -197h-85l262 289v35h-101v-47q0 -79 -79 -79h-71q-79 0 -79 79v29h69v-18q0 -20 5.5 -25.5t25.5 -5.5h29q19 0 25 5.5t6 25.5v157q0 19 -6 25t-25 6h-86v59h107q79 0 79 -79v-73h101v230h-380v59h524z" />
    <glyph glyph-name="uni091F094D0930" horiz-adv-x="334" 
d="M282 426h-127q-19 0 -25 -6t-6 -25v-305q0 -20 6 -25.5t25 -5.5h34q19 0 25 5.5t6 25.5v104h69v-115q0 -64 -51 -76l75 -143h-72l-63 130l-65 -130h-72l75 141q-61 9 -61 78v327q0 79 79 79h79v78h-233v59h374v-59h-72v-137z" />
    <glyph glyph-name="uni0920094D0930" horiz-adv-x="368" 
d="M388 563h-166v-78h19q79 0 79 -79v-327q0 -75 -70 -79l74 -140h-72l-63 130l-65 -130h-72l74 140q-71 5 -71 79v327q0 79 79 79h19v78h-173v59h408v-59zM251 90v305q0 19 -5.5 25t-25.5 6h-65q-19 0 -25 -6t-6 -25v-305q0 -20 6 -25.5t25 -5.5h65q20 0 25.5 5.5t5.5 25.5
z" />
    <glyph glyph-name="uni0921094D0930" horiz-adv-x="351" 
d="M281 426h-121q-20 0 -25.5 -6t-5.5 -25v-70q0 -19 5.5 -25t25.5 -6h52q79 0 79 -79v-136q0 -66 -56 -77l74 -142h-72l-63 130l-65 -130h-72l75 141q-64 7 -64 78v86h69v-75q0 -20 5.5 -25.5t25.5 -5.5h43q19 0 25 5.5t6 25.5v114q0 20 -6 25.5t-25 5.5h-52q-79 0 -79 79
v92q0 79 79 79h73v78h-232v59h391v-59h-90v-137z" />
    <glyph glyph-name="uni0922094D0930" horiz-adv-x="377" 
d="M282 426h-127q-19 0 -25 -6t-6 -25v-305q0 -20 6 -25.5t25 -5.5h67q20 0 25.5 5.5t5.5 25.5v103q0 19 -5.5 25t-25.5 6h-41v59h62q79 0 79 -79v-125q0 -75 -71 -79l74 -140h-72l-63 130l-65 -130h-72l74 140q-72 3 -72 79v327q0 79 79 79h79v78h-233v59h417v-59h-115
v-137z" />
    <glyph glyph-name="uni0923094D0930" horiz-adv-x="507" 
d="M527 622v-59h-75v-563h-69v147l-177 -197h-85l262 289v324h-104v-336q0 -79 -79 -79h-76q-79 0 -79 79v336h-65v59h547zM210 238v325h-96v-325q0 -20 6 -25.5t25 -5.5h34q19 0 25 5.5t6 25.5z" />
    <glyph glyph-name="uni0924094D0930" horiz-adv-x="372" 
d="M392 622v-59h-75v-563h-68v203h-23l-145 -203h-77l175 245l-61 123q-15 31 -30.5 43t-45.5 12h-37v62h37q54 0 77.5 -13.5t44.5 -54.5l77 -154h8v300h-269v59h412z" />
    <glyph glyph-name="uni0925094D0930" horiz-adv-x="430" 
d="M450 622v-59h-75v-563h-69v117l-111 -167h-76l108 158h-102q-79 0 -79 79v165h95q19 0 25 6t6 25v154q0 19 -6 25t-25 6h-5q-20 0 -25.5 -6t-5.5 -25v-45h-52v56q0 79 76 79h33q79 0 79 -79v-176q0 -79 -79 -79h-47v-95q0 -20 5.5 -25.5t25.5 -5.5h126q20 0 27 7.5
t7 26.5v421h144z" />
    <glyph glyph-name="uni0926094D0930" horiz-adv-x="347" 
d="M292 426h-137q-19 0 -25 -6t-6 -25v-197q0 -20 6 -25.5t25 -5.5h41q20 0 27 7.5t7 26.5v65h69v-266h-69v117l-111 -167h-76l108 158h-17q-79 0 -79 79v219q0 79 79 79h89v78h-243v59h387v-59h-75v-137z" />
    <glyph glyph-name="uni0927094D0930" horiz-adv-x="444" 
d="M464 622v-59h-75v-563h-69v117l-111 -167h-76l108 158h-90q-79 0 -79 79v128q0 43 37 46v2q-37 3 -37 47v138q0 79 79 79h35q79 0 79 -79v-56h-52v45q0 19 -5.5 25t-25.5 6h-10q-20 0 -25.5 -6t-5.5 -25v-113q0 -20 5.5 -25.5t25.5 -5.5h68v-59h-68q-20 0 -25.5 -6
t-5.5 -25v-105q0 -20 5.5 -25.5t25.5 -5.5h114q20 0 27 7.5t7 26.5v421h144z" />
    <glyph glyph-name="uni0928094D0930" horiz-adv-x="476" 
d="M496 622v-59h-75v-563h-69v147l-177 -197h-85l262 289v187h-88v-185q0 -79 -79 -79h-71q-79 0 -79 79v165q0 79 79 79h238v78h-372v59h516zM195 252v174h-60q-19 0 -25 -6t-6 -25v-143q0 -20 6 -25.5t25 -5.5h29q20 0 25.5 5.5t5.5 25.5z" />
    <glyph glyph-name="uni092A094D0930" horiz-adv-x="353" 
d="M373 622v-59h-75v-563h-69v117l-111 -167h-76l108 158h-16q-79 0 -79 79v376h-75v59h393zM229 201v362h-105v-365q0 -20 6 -25.5t25 -5.5h40q19 0 26.5 7.5t7.5 26.5z" />
    <glyph glyph-name="uni092B094D0930" horiz-adv-x="510" 
d="M530 563h-239v-87q11 9 32 9h63q79 0 79 -79v-249q0 -79 -79 -79h-55v59h34q19 0 25 5.5t6 25.5v227q0 19 -6 25t-25 6h-40q-19 0 -26.5 -7t-7.5 -27v-392h-69v117l-111 -167h-76l108 158h-16q-79 0 -79 79v376h-68v59h550v-59zM222 201v362h-105v-365q0 -20 5.5 -25.5
t25.5 -5.5h40q20 0 27 7.5t7 26.5z" />
    <glyph glyph-name="uni092C094D0930" horiz-adv-x="384" 
d="M404 622v-59h-75v-563h-69v117l-111 -167h-76l108 158h-52q-79 0 -79 79v219q0 79 79 79h91v-59h-76q98 -160 122 -210q-6 46 -6 135v212h-280v59h424zM150 167h76q14 0 21 3l-128 222v-194q0 -20 5.5 -25.5t25.5 -5.5z" />
    <glyph glyph-name="uni092D094D0930" horiz-adv-x="529" 
d="M549 622v-59h-75v-563h-69v147l-177 -197h-85l262 289v103h-113v-135q0 -79 -79 -79h-89q-79 0 -79 79v115q0 79 79 79h99v131q0 20 -5.5 25.5t-25.5 5.5h-39q-19 0 -25 -5.5t-6 -25.5v-56h-69v67q0 79 79 79h81q79 0 79 -79v-142h113v221h144zM223 218v124h-78
q-19 0 -25 -6t-6 -25v-93q0 -20 6 -25.5t25 -5.5h47q20 0 25.5 5.5t5.5 25.5z" />
    <glyph glyph-name="uni092E094D0930" horiz-adv-x="519" 
d="M539 622v-59h-75v-563h-69v147l-177 -197h-85l262 289v134h-113v-166q0 -79 -79 -79h-89q-79 0 -79 79v146q0 79 79 79h99v131h-233v59h559zM213 218v155h-78q-19 0 -25 -5.5t-6 -25.5v-124q0 -20 6 -25.5t25 -5.5h47q20 0 25.5 5.5t5.5 25.5zM395 432v131h-113v-131h113
z" />
    <glyph glyph-name="uni092F094D0930" horiz-adv-x="428" 
d="M448 622v-59h-75v-563h-69v117l-111 -167h-76l108 158h-111q-79 0 -79 79v187h80q19 0 25 6t6 25v126q0 22 -7 27t-39 5h-140v59h488zM304 201v362h-97q8 -8 8 -27v-142q0 -79 -79 -79h-32v-117q0 -20 6 -25.5t25 -5.5h135q20 0 27 7.5t7 26.5z" />
    <glyph glyph-name="uni0935094D0930" horiz-adv-x="346" 
d="M366 622v-59h-75v-563h-69v117l-111 -167h-76l108 158h-16q-79 0 -79 79v219q0 79 79 79h55v-59h-34q-20 0 -25.5 -6t-5.5 -25v-197q0 -20 5.5 -25.5t25.5 -5.5h43q19 0 25 5.5t6 25.5v365h-242v59h386z" />
    <glyph glyph-name="uni0936094D0930" horiz-adv-x="480" 
d="M357 622h143v-59h-74v-563h-69v199l-152 -155h-85l237 239v1h-141l-141 -136h-85l139 136q-76 1 -76 78v182q0 78 79 78h63q79 0 79 -78v-140q0 -46 -12 -60h95v278zM121 531v-155q0 -19 5 -25.5t24 -6.5h26q19 0 24 6.5t5 25.5v155q0 19 -5 25.5t-24 6.5h-26
q-19 0 -24 -6.5t-5 -25.5z" />
    <glyph glyph-name="uni0938094D0930" horiz-adv-x="508" 
d="M528 622v-59h-75v-563h-68v263l-134 -145h-76l157 167h-218v-195q0 -20 6 -25.5t25 -5.5h146v-59h-167q-79 0 -79 79v367h69v-102h77q19 0 25 6t6 25v157q0 20 -6 25.5t-25 5.5h-211v59h548zM385 344v219h-102q8 -8 8 -26v-133q0 -46 -12 -60h106z" />
    <glyph glyph-name="uni0939094D0930" horiz-adv-x="423" 
d="M308 426h-153q-19 0 -25 -6t-6 -25v-49q0 -20 6 -25.5t25 -5.5h150q79 0 79 -79v-62h-65v51q0 17 -4.5 23.5t-17.5 7.5l-70 -148h-66l71 148h-77q-19 0 -25 -6t-6 -25v-135q0 -20 6 -25.5t25 -5.5h163v-59h-184q-79 0 -79 79v158q0 43 37 46v2q-37 3 -37 47v74
q0 79 79 79h105v78h-259v59h463v-59h-135v-137z" />
    <glyph glyph-name="uni0915093C094D0930" horiz-adv-x="507" 
d="M527 563h-239v-87q10 9 32 9h63q79 0 79 -79v-219q0 -79 -79 -79h-55v59h34q20 0 25.5 5.5t5.5 25.5v197q0 19 -5.5 25t-25.5 6h-40q-20 0 -27 -7t-7 -27v-392h-69v117l-111 -167h-76l108 158h-16q-79 0 -79 79v219q0 79 79 79h55v-59h-34q-19 0 -25 -6t-6 -25v-197
q0 -20 6 -25.5t25 -5.5h40q19 0 26.5 7.5t7.5 26.5v362h-239v59h547v-59zM157 -133v86h73v-86h-73z" />
    <glyph glyph-name="uni0916093C094D0930" horiz-adv-x="584" 
d="M604 622v-59h-75v-563h-65v130l-128 -180h-74l116 161q-82 0 -82 79v202q0 79 79 79h59v-59h-42q-20 0 -25.5 -6t-5.5 -25v-180q0 -19 5.5 -25t25.5 -6h31q23 0 32 8.5t9 30.5v354h-220q8 -8 8 -26v-212q0 -79 -79 -79h-56v-153q0 -19 5.5 -25t25.5 -6h109v-62h-130
q-79 0 -79 79v392h69v-166h35q20 0 25.5 5.5t5.5 25.5v196q0 20 -5.5 25.5t-25.5 5.5h-172v59h624zM390 -130v86h73v-86h-73z" />
    <glyph glyph-name="uni0917093C094D0930" horiz-adv-x="512" 
d="M532 622v-59h-75v-563h-69v147l-177 -197h-85l262 289v324h-104v-336q0 -79 -79 -79h-91q-79 0 -79 79v179q0 79 79 79h101v78h-235v59h552zM135 207h49q20 0 25.5 5.5t5.5 25.5v188h-80q-19 0 -25 -6t-6 -25v-157q0 -20 6 -25.5t25 -5.5zM290 -130v86h73v-86h-73z" />
    <glyph glyph-name="uni0918093C094D0930" horiz-adv-x="416" 
d="M436 622v-59h-75v-563h-69v117l-111 -167h-76l108 158h-86q-79 0 -79 79v130q0 43 37 46v2q-37 3 -37 47v120q0 23 14 31h-82v59h456zM292 201v362h-143q-20 -1 -26 -6.5t-6 -24.5v-106q0 -20 5.5 -25.5t25.5 -5.5h68v-59h-68q-20 0 -25.5 -6t-5.5 -25v-107
q0 -20 5.5 -25.5t25.5 -5.5h110q20 0 27 7.5t7 26.5zM240 -130v86h73v-86h-73z" />
    <glyph glyph-name="uni0919093C094D0930" horiz-adv-x="351" 
d="M-20 622h391v-59h-90v-137h-121q-20 0 -25.5 -6t-5.5 -25v-70q0 -19 5.5 -25t25.5 -6h52q79 0 79 -79v-136q0 -68 -57 -77l74 -142h-72l-63 130l-65 -130h-72l75 141q-63 7 -63 78v86h69v-75q0 -20 5.5 -25.5t25.5 -5.5h43q19 0 25 5.5t6 25.5v114q0 20 -6 25.5t-25 5.5
h-52q-79 0 -79 79v92q0 79 79 79h73v78h-232v59zM273 308v86h73v-86h-73zM136 -228v86h73v-86h-73z" />
    <glyph glyph-name="uni091A093C094D0930" horiz-adv-x="391" 
d="M406 622v-59h-75v-563h-69v117l-111 -167h-76l108 158h-36q-79 0 -79 79v213q0 18 8 26h-71v59h204v-59h-40q-20 -1 -26 -6.5t-6 -24.5v-197q0 -20 5.5 -25.5t25.5 -5.5h60q20 0 27 7.5t7 26.5v362h-282v59h426zM200 -130v86h73v-86h-73z" />
    <glyph glyph-name="uni091B093C094D0930" horiz-adv-x="501" 
d="M521 563h-139v-78q71 -4 71 -79v-327q0 -79 -79 -79h-56l73 -140h-72l-63 130l-65 -130h-72l74 140h-59q-79 0 -79 79v181q0 43 37 46v2q-37 3 -37 47v182q0 18 8 26h-83v59h541v-59zM318 563h-144l11 -1q-43 2 -52 -2t-9 -28v-163q0 -19 6 -25t25 -6h37v-59h-37
q-19 0 -25 -5.5t-6 -25.5v-158q0 -20 6 -25.5t25 -5.5h203q20 0 25.5 5.5t5.5 25.5v305q0 19 -5.5 25t-25.5 6h-20q-20 0 -25.5 -6t-5.5 -25v-132q0 -19 5.5 -25t25.5 -6h20v-59h-36q-79 0 -79 79v154q0 78 75 79v78zM219 -242v86h73v-86h-73z" />
    <glyph glyph-name="uni091C093C094D0930" horiz-adv-x="490" 
d="M510 622v-59h-75v-563h-69v103l-138 -153h-82l220 237v239h-87v-239q0 -79 -79 -79h-76q-79 0 -79 79v298h69v-287q0 -20 6 -25.5t25 -5.5h34q19 0 25 5.5t6 25.5v287h156v78h-386v59h530zM286 -119v86h73v-86h-73z" />
    <glyph glyph-name="uni091D093C094D0930" horiz-adv-x="532" 
d="M552 622v-59h-75v-563h-69v103l-138 -153h-82l220 237v78h-109q1 -6 1 -20v-88q0 -79 -79 -79h-104v-78h-69v190h69v-53h83q20 0 25.5 5.5t5.5 25.5v66q0 20 -5.5 25.5t-25.5 5.5h-75q-79 0 -79 79v62q0 79 79 79h98v78h-243v59h572zM408 324v239h-116v-137h-146
q-20 0 -25.5 -6t-5.5 -25v-40q0 -19 5.5 -25t25.5 -6h262zM346 -133v86h73v-86h-73z" />
    <glyph glyph-name="uni091E093C094D0930" horiz-adv-x="484" 
d="M504 622v-59h-75v-563h-69v147l-177 -197h-85l262 289v35h-101v-47q0 -79 -79 -79h-71q-79 0 -79 79v29h69v-18q0 -20 5.5 -25.5t25.5 -5.5h29q19 0 25 5.5t6 25.5v157q0 19 -6 25t-25 6h-86v59h107q79 0 79 -79v-73h101v230h-380v59h524zM262 -137v86h73v-86h-73z" />
    <glyph glyph-name="uni091F093C094D0930" horiz-adv-x="334" 
d="M282 426h-127q-19 0 -25 -6t-6 -25v-305q0 -20 6 -25.5t25 -5.5h34q19 0 25 5.5t6 25.5v104h69v-115q0 -64 -51 -76l75 -143h-72l-63 130l-65 -130h-72l75 141q-61 9 -61 78v327q0 79 79 79h79v78h-233v59h374v-59h-72v-137zM141 -227v86h73v-86h-73z" />
    <glyph glyph-name="uni0920093C094D0930" horiz-adv-x="368" 
d="M388 563h-166v-78h19q79 0 79 -79v-327q0 -75 -70 -79l74 -140h-72l-63 130l-65 -130h-72l74 140q-71 5 -71 79v327q0 79 79 79h19v78h-173v59h408v-59zM251 90v305q0 19 -5.5 25t-25.5 6h-65q-19 0 -25 -6t-6 -25v-305q0 -20 6 -25.5t25 -5.5h65q20 0 25.5 5.5t5.5 25.5
zM150 -232v86h73v-86h-73z" />
    <glyph glyph-name="uni0921093C094D0930" horiz-adv-x="351" 
d="M281 426h-121q-20 0 -25.5 -6t-5.5 -25v-70q0 -19 5.5 -25t25.5 -6h52q79 0 79 -79v-136q0 -66 -56 -77l74 -142h-72l-63 130l-65 -130h-72l75 141q-64 7 -64 78v86h69v-75q0 -20 5.5 -25.5t25.5 -5.5h43q19 0 25 5.5t6 25.5v114q0 20 -6 25.5t-25 5.5h-52q-79 0 -79 79
v92q0 79 79 79h73v78h-232v59h391v-59h-90v-137zM140 -233v86h73v-86h-73z" />
    <glyph glyph-name="uni0922093C094D0930" horiz-adv-x="377" 
d="M282 426h-127q-19 0 -25 -6t-6 -25v-305q0 -20 6 -25.5t25 -5.5h67q20 0 25.5 5.5t5.5 25.5v103q0 19 -5.5 25t-25.5 6h-41v59h62q79 0 79 -79v-125q0 -75 -71 -79l74 -140h-72l-63 130l-65 -130h-72l74 140q-72 3 -72 79v327q0 79 79 79h79v78h-233v59h417v-59h-115
v-137zM152 -231v86h73v-86h-73z" />
    <glyph glyph-name="uni0923093C094D0930" horiz-adv-x="507" 
d="M527 622v-59h-75v-563h-69v147l-177 -197h-85l262 289v324h-104v-336q0 -79 -79 -79h-76q-79 0 -79 79v336h-65v59h547zM210 238v325h-96v-325q0 -20 6 -25.5t25 -5.5h34q19 0 25 5.5t6 25.5zM281 -113v86h73v-86h-73z" />
    <glyph glyph-name="uni0924093C094D0930" horiz-adv-x="372" 
d="M392 622v-59h-75v-563h-68v203h-23l-145 -203h-77l175 245l-61 123q-15 31 -30.5 43t-45.5 12h-37v62h37q54 0 77.5 -13.5t44.5 -54.5l77 -154h8v300h-269v59h412zM140 -123v86h73v-86h-73z" />
    <glyph glyph-name="uni0925093C094D0930" horiz-adv-x="430" 
d="M450 622v-59h-75v-563h-69v117l-111 -167h-76l108 158h-102q-79 0 -79 79v165h95q19 0 25 6t6 25v154q0 19 -6 25t-25 6h-5q-20 0 -25.5 -6t-5.5 -25v-45h-52v56q0 79 76 79h33q79 0 79 -79v-176q0 -79 -79 -79h-47v-95q0 -20 5.5 -25.5t25.5 -5.5h126q20 0 27 7.5
t7 26.5v421h144zM253 -121v86h73v-86h-73z" />
    <glyph glyph-name="uni0926093C094D0930" horiz-adv-x="347" 
d="M292 426h-137q-19 0 -25 -6t-6 -25v-197q0 -20 6 -25.5t25 -5.5h41q20 0 27 7.5t7 26.5v65h69v-266h-69v117l-111 -167h-76l108 158h-17q-79 0 -79 79v219q0 79 79 79h89v78h-243v59h387v-59h-75v-137zM188 -129v86h73v-86h-73z" />
    <glyph glyph-name="uni0927093C094D0930" horiz-adv-x="444" 
d="M464 622v-59h-75v-563h-69v117l-111 -167h-76l108 158h-90q-79 0 -79 79v128q0 43 37 46v2q-37 3 -37 47v138q0 79 79 79h35q79 0 79 -79v-56h-52v45q0 19 -5.5 25t-25.5 6h-10q-20 0 -25.5 -6t-5.5 -25v-113q0 -20 5.5 -25.5t25.5 -5.5h68v-59h-68q-20 0 -25.5 -6
t-5.5 -25v-105q0 -20 5.5 -25.5t25.5 -5.5h114q20 0 27 7.5t7 26.5v421h144zM263 -134v86h73v-86h-73z" />
    <glyph glyph-name="uni0928093C094D0930" horiz-adv-x="476" 
d="M496 622v-59h-75v-563h-69v147l-177 -197h-85l262 289v187h-88v-185q0 -79 -79 -79h-71q-79 0 -79 79v165q0 79 79 79h238v78h-372v59h516zM195 252v174h-60q-19 0 -25 -6t-6 -25v-143q0 -20 6 -25.5t25 -5.5h29q20 0 25.5 5.5t5.5 25.5zM257 -129v86h73v-86h-73z" />
    <glyph glyph-name="uni092A093C094D0930" horiz-adv-x="353" 
d="M373 622v-59h-75v-563h-69v117l-111 -167h-76l108 158h-16q-79 0 -79 79v376h-75v59h393zM229 201v362h-105v-365q0 -20 6 -25.5t25 -5.5h40q19 0 26.5 7.5t7.5 26.5zM169 -117v86h73v-86h-73z" />
    <glyph glyph-name="uni092B093C094D0930" horiz-adv-x="510" 
d="M530 563h-239v-87q11 9 32 9h63q79 0 79 -79v-249q0 -79 -79 -79h-55v59h34q19 0 25 5.5t6 25.5v227q0 19 -6 25t-25 6h-40q-19 0 -26.5 -7t-7.5 -27v-392h-69v117l-111 -167h-76l108 158h-16q-79 0 -79 79v376h-68v59h550v-59zM222 201v362h-105v-365q0 -20 5.5 -25.5
t25.5 -5.5h40q20 0 27 7.5t7 26.5zM167 -130v86h73v-86h-73z" />
    <glyph glyph-name="uni092C093C094D0930" horiz-adv-x="384" 
d="M404 622v-59h-75v-563h-69v117l-111 -167h-76l108 158h-52q-79 0 -79 79v219q0 79 79 79h91v-59h-76q98 -160 122 -210q-6 46 -6 135v212h-280v59h424zM150 167h76q14 0 21 3l-128 222v-194q0 -20 5.5 -25.5t25.5 -5.5zM207 -126v86h73v-86h-73z" />
    <glyph glyph-name="uni092D093C094D0930" horiz-adv-x="529" 
d="M549 622v-59h-75v-563h-69v147l-177 -197h-85l262 289v103h-113v-135q0 -79 -79 -79h-89q-79 0 -79 79v115q0 79 79 79h99v131q0 20 -5.5 25.5t-25.5 5.5h-39q-19 0 -25 -5.5t-6 -25.5v-56h-69v67q0 79 79 79h81q79 0 79 -79v-142h113v221h144zM223 218v124h-78
q-19 0 -25 -6t-6 -25v-93q0 -20 6 -25.5t25 -5.5h47q20 0 25.5 5.5t5.5 25.5zM310 -132v86h73v-86h-73z" />
    <glyph glyph-name="uni092E093C094D0930" horiz-adv-x="519" 
d="M539 622v-59h-75v-563h-69v147l-177 -197h-85l262 289v134h-113v-166q0 -79 -79 -79h-89q-79 0 -79 79v146q0 79 79 79h99v131h-233v59h559zM213 218v155h-78q-19 0 -25 -5.5t-6 -25.5v-124q0 -20 6 -25.5t25 -5.5h47q20 0 25.5 5.5t5.5 25.5zM395 432v131h-113v-131h113
zM294 -129v86h73v-86h-73z" />
    <glyph glyph-name="uni092F093C094D0930" horiz-adv-x="428" 
d="M448 622v-59h-75v-563h-69v117l-111 -167h-76l108 158h-111q-79 0 -79 79v187h80q19 0 25 6t6 25v126q0 22 -7 27t-39 5h-140v59h488zM304 201v362h-97q8 -8 8 -27v-142q0 -79 -79 -79h-32v-117q0 -20 6 -25.5t25 -5.5h135q20 0 27 7.5t7 26.5zM255 -124v86h73v-86h-73z
" />
    <glyph glyph-name="uni0935093C094D0930" horiz-adv-x="346" 
d="M366 622v-59h-75v-563h-69v117l-111 -167h-76l108 158h-16q-79 0 -79 79v219q0 79 79 79h55v-59h-34q-20 0 -25.5 -6t-5.5 -25v-197q0 -20 5.5 -25.5t25.5 -5.5h43q19 0 25 5.5t6 25.5v365h-242v59h386zM192 -137v86h73v-86h-73z" />
    <glyph glyph-name="uni0915094D0930094D" horiz-adv-x="412" 
d="M462 563h-174v-117q10 9 32 9h142v-59h-140q-20 0 -27 -7t-7 -27v-362h-69v117l-111 -167h-76l108 158h-16q-79 0 -79 79v219q0 79 79 79h55v-59h-34q-19 0 -25 -6t-6 -25v-197q0 -20 6 -25.5t25 -5.5h40q19 0 26.5 7.5t7.5 26.5v362h-239v59h482v-59z" />
    <glyph glyph-name="uni0916094D0930094D" horiz-adv-x="423" 
d="M392 170h79v-30l-135 -190h-74l115 161q-81 0 -81 79v202q0 79 79 79h59v-59h-42q-20 0 -25.5 -6t-5.5 -25v-180q0 -19 5.5 -25t25.5 -6zM117 246v-153q0 -19 5.5 -25t25.5 -6h109v-62h-130q-79 0 -79 79v392h69v-166h35q20 0 25.5 5.5t5.5 25.5v196q0 20 -5.5 25.5
t-25.5 5.5h-172v59h463v-59h-199q8 -8 8 -26v-212q0 -79 -79 -79h-56z" />
    <glyph glyph-name="uni0917094D0930094D" horiz-adv-x="345" 
d="M-20 622h441v-59h-137v-336q0 -79 -79 -79h-91q-79 0 -79 79v179q0 79 79 79h101v78h-235v59zM135 207h49q20 0 25.5 5.5t5.5 25.5v188h-80q-19 0 -25 -6t-6 -25v-157q0 -20 6 -25.5t25 -5.5zM211 -50h-85l295 326v-94z" />
    <glyph glyph-name="uni0918094D0930094D" horiz-adv-x="300" 
d="M327 563h-178q-20 -1 -26 -6.5t-6 -24.5v-105q0 -19 5.5 -25t25.5 -6h68v-59h-68q-20 0 -25.5 -5.5t-5.5 -25.5v-108q0 -20 5.5 -25.5t25.5 -5.5h179v-42l-116 -175h-76l108 158h-116q-79 0 -79 79v131q0 43 37 46v2q-37 3 -37 47v119q0 23 14 31h-82v59h347v-59z" />
    <glyph glyph-name="uni091A094D0930094D" horiz-adv-x="246" 
d="M-20 622h286v-59h-286v59zM137 395v-197q0 -20 5.5 -25.5t25.5 -5.5h98v-42l-115 -175h-76l108 158h-36q-79 0 -79 79v213q0 18 8 26h-71v59h204v-59h-40q-20 -1 -26 -6.5t-6 -24.5z" />
    <glyph glyph-name="uni091C094D0930094D" horiz-adv-x="384" 
d="M404 229v-84l-176 -195h-82zM45 485h69v-287q0 -20 6 -25.5t25 -5.5h34q19 0 25 5.5t6 25.5v287h194v-59h-125v-239q0 -79 -79 -79h-76q-79 0 -79 79v298zM-20 622h424v-59h-424v59z" />
    <glyph glyph-name="uni091D094D0930094D" horiz-adv-x="448" 
d="M292 426h-146q-20 0 -25.5 -6t-5.5 -25v-40q0 -19 5.5 -25t25.5 -6h332v-59h-179q1 -6 1 -20v-88q0 -79 -79 -79h-104v-78h-69v190h69v-53h83q20 0 25.5 5.5t5.5 25.5v66q0 20 -5.5 25.5t-25.5 5.5h-75q-79 0 -79 79v62q0 79 79 79h98v78h-243v59h498v-59h-186v-137z
M275 -50h-88l291 294v-81z" />
    <glyph glyph-name="uni091E094D0930094D" horiz-adv-x="380" 
d="M-20 622h430v-59h-430v59zM259 406v-73h151v-59h-151v-117q0 -79 -79 -79h-71q-79 0 -79 79v99h69v-88q0 -20 5.5 -25.5t25.5 -5.5h29q19 0 25 5.5t6 25.5v227q0 19 -6 25t-25 6h-86v59h107q79 0 79 -79zM255 -50h-88l243 246v-83z" />
    <glyph glyph-name="uni091F094D0930094D" horiz-adv-x="334" 
d="M282 426h-127q-19 0 -25 -6t-6 -25v-305q0 -20 6 -25.5t25 -5.5h34q19 0 25 5.5t6 25.5v104h69v-115q0 -64 -51 -76l75 -143h-72l-63 130l-65 -130h-72l75 141q-61 9 -61 78v327q0 79 79 79h79v78h-233v59h374v-59h-72v-137zM131 -152h76l100 -130h-76z" />
    <glyph glyph-name="uni0920094D0930094D" horiz-adv-x="368" 
d="M388 563h-166v-78h19q79 0 79 -79v-327q0 -75 -70 -79l74 -140h-72l-63 130l-65 -130h-72l74 140q-71 5 -71 79v327q0 79 79 79h19v78h-173v59h408v-59zM251 90v305q0 19 -5.5 25t-25.5 6h-65q-19 0 -25 -6t-6 -25v-305q0 -20 6 -25.5t25 -5.5h65q20 0 25.5 5.5t5.5 25.5
zM145 -152h76l100 -130h-76z" />
    <glyph glyph-name="uni0921094D0930094D" horiz-adv-x="351" 
d="M281 426h-121q-20 0 -25.5 -6t-5.5 -25v-70q0 -19 5.5 -25t25.5 -6h52q79 0 79 -79v-136q0 -66 -56 -77l74 -142h-72l-63 130l-65 -130h-72l75 141q-64 7 -64 78v86h69v-75q0 -20 5.5 -25.5t25.5 -5.5h43q19 0 25 5.5t6 25.5v114q0 20 -6 25.5t-25 5.5h-52q-79 0 -79 79
v92q0 79 79 79h73v78h-232v59h391v-59h-90v-137zM131 -152h76l100 -130h-76z" />
    <glyph glyph-name="uni0922094D0930094D" horiz-adv-x="377" 
d="M-20 622h417v-59h-115v-137h-127q-19 0 -25 -6t-6 -25v-305q0 -20 6 -25.5t25 -5.5h67q20 0 25.5 5.5t5.5 25.5v103q0 19 -5.5 25t-25.5 6h-41v59h62q79 0 79 -79v-125q0 -75 -71 -79l74 -140h-72l-63 130l-65 -130h-72l74 140q-72 3 -72 79v327q0 79 79 79h79v78h-233
v59zM151 -152h76l100 -130h-76z" />
    <glyph glyph-name="uni0923094D0930094D" horiz-adv-x="344" 
d="M-20 622h394v-59h-95v-366q0 -79 -79 -79h-76q-79 0 -79 79v366h-65v59zM210 208v355h-96v-355q0 -20 6 -25.5t25 -5.5h34q19 0 25 5.5t6 25.5zM209 -50h-89l254 252v-83z" />
    <glyph glyph-name="uni0924094D0930094D" horiz-adv-x="279" 
d="M-20 622h319v-59h-319v59zM299 263v-60h-73l-145 -203h-77l175 245l-61 123q-15 31 -30.5 43t-45.5 12h-37v62h37q54 0 77.5 -13.5t44.5 -54.5l77 -154h58z" />
    <glyph glyph-name="uni0925094D0930094D" horiz-adv-x="291" 
d="M46 352h95q19 0 25 6t6 25v154q0 19 -6 25t-25 6h-5q-20 0 -25.5 -6t-5.5 -25v-45h-52v56q0 79 76 79h33q79 0 79 -79v-176q0 -79 -79 -79h-47v-95q0 -20 5.5 -25.5t25.5 -5.5h165v-42l-116 -175h-76l108 158h-102q-79 0 -79 79v165z" />
    <glyph glyph-name="uni0926094D0930094D" horiz-adv-x="347" 
d="M297 -61l100 -130h-76l-100 130h76zM230 0v117l-111 -167h-76l108 158h-17q-79 0 -79 79v219q0 79 79 79h89v78h-243v59h387v-59h-75v-137h-137q-19 0 -25 -6t-6 -25v-197q0 -20 6 -25.5t25 -5.5h41q20 0 27 7.5t7 26.5v65h69v-266h-69z" />
    <glyph glyph-name="uni0927094D0930094D" horiz-adv-x="295" 
d="M72 187v128q0 43 37 46v2q-37 3 -37 47v138q0 79 79 79h35q79 0 79 -79v-56h-52v45q0 19 -5.5 25t-25.5 6h-10q-20 0 -25.5 -6t-5.5 -25v-113q0 -20 5.5 -25.5t25.5 -5.5h68v-59h-68q-20 0 -25.5 -6t-5.5 -25v-105q0 -20 5.5 -25.5t25.5 -5.5h153v-42l-116 -175h-76
l108 158h-90q-79 0 -79 79z" />
    <glyph glyph-name="uni0928094D0930094D" horiz-adv-x="372" 
d="M-20 622h412v-59h-412v59zM35 241v165q0 79 79 79h278v-59h-128v-185q0 -79 -79 -79h-71q-79 0 -79 79zM195 426h-60q-19 0 -25 -6t-6 -25v-143q0 -20 6 -25.5t25 -5.5h29q20 0 25.5 5.5t5.5 25.5v174zM175 -50h-85l302 333v-92z" />
    <glyph glyph-name="uni092A094D0930094D" horiz-adv-x="214" 
d="M234 563h-110v-365q0 -20 6 -25.5t25 -5.5h79v-42l-116 -175h-76l108 158h-16q-79 0 -79 79v376h-75v59h254v-59z" />
    <glyph glyph-name="uni092B094D0930094D" horiz-adv-x="410" 
d="M430 563h-139v-87q11 9 32 9h107v-59h-105q-19 0 -26.5 -7t-7.5 -27v-392h-69v117l-111 -167h-76l108 158h-16q-79 0 -79 79v376h-68v59h450v-59zM222 201v362h-105v-365q0 -20 5.5 -25.5t25.5 -5.5h40q20 0 27 7.5t7 26.5z" />
    <glyph glyph-name="uni092C094D0930094D" horiz-adv-x="278" 
d="M50 406q0 79 79 79h91v-59h-76q92 -169 109 -205.5l43 -96.5v-46l-101 -128h-81l107 128h-92q-79 0 -79 79v249zM119 168q0 -20 5.5 -25.5t25.5 -5.5h101q-105 195 -132 258v-227zM-20 622h316v-59h-316v59z" />
    <glyph glyph-name="uni092D094D0930094D" horiz-adv-x="406" 
d="M292 401h134v-59h-134v-135q0 -79 -79 -79h-89q-79 0 -79 79v115q0 79 79 79h99v131q0 20 -5.5 25.5t-25.5 5.5h-39q-19 0 -25 -5.5t-6 -25.5v-56h-69v67q0 79 79 79h81q79 0 79 -79v-142zM223 218v124h-78q-19 0 -25 -6t-6 -25v-93q0 -20 6 -25.5t25 -5.5h47
q20 0 25.5 5.5t5.5 25.5zM228 -50h-85l283 312v-92z" />
    <glyph glyph-name="uni092E094D0930094D" horiz-adv-x="396" 
d="M282 432h134v-59h-134v-166q0 -79 -79 -79h-89q-79 0 -79 79v146q0 79 79 79h99v131h-233v59h435v-59h-133v-131zM213 218v155h-78q-19 0 -25 -5.5t-6 -25.5v-124q0 -20 6 -25.5t25 -5.5h47q20 0 25.5 5.5t5.5 25.5zM218 -50h-85l282 311v-92z" />
    <glyph glyph-name="uni092F094D0930094D" horiz-adv-x="289" 
d="M309 622v-59h-102q8 -8 8 -27v-142q0 -79 -79 -79h-32v-117q0 -20 6 -25.5t25 -5.5h174v-42l-116 -175h-76l108 158h-111q-79 0 -79 79v187h80q19 0 25 6t6 25v126q0 22 -7 27t-39 5h-120v59h329z" />
    <glyph glyph-name="uni0935094D0930094D" horiz-adv-x="217" 
d="M-20 622h247v-59h-247v59zM48 187v219q0 79 79 79h55v-59h-34q-20 0 -25.5 -6t-5.5 -25v-197q0 -20 5.5 -25.5t25.5 -5.5h79v-42l-116 -175h-76l108 158h-16q-79 0 -79 79z" />
    <glyph glyph-name="uni0938094D0930094D" horiz-adv-x="393" 
d="M413 622v-59h-130q8 -8 8 -26v-133q0 -46 -12 -60h134v-51l-162 -175h-76l157 167h-218v-195q0 -20 6 -25.5t25 -5.5h146v-59h-167q-79 0 -79 79v367h69v-102h77q19 0 25 6t6 25v157q0 20 -6 25.5t-25 5.5h-211v59h433z" />
    <glyph glyph-name="uni0915093C094D0930094D" horiz-adv-x="412" 
d="M462 563h-174v-117q10 9 32 9h142v-59h-140q-20 0 -27 -7t-7 -27v-362h-69v117l-111 -167h-76l108 158h-16q-79 0 -79 79v219q0 79 79 79h55v-59h-34q-19 0 -25 -6t-6 -25v-197q0 -20 6 -25.5t25 -5.5h40q19 0 26.5 7.5t7.5 26.5v362h-239v59h482v-59zM164 -128v86h73
v-86h-73z" />
    <glyph glyph-name="uni0916093C094D0930094D" horiz-adv-x="423" 
d="M392 170h79v-30l-135 -190h-74l115 161q-81 0 -81 79v202q0 79 79 79h59v-59h-42q-20 0 -25.5 -6t-5.5 -25v-180q0 -19 5.5 -25t25.5 -6zM117 246v-153q0 -19 5.5 -25t25.5 -6h109v-62h-130q-79 0 -79 79v392h69v-166h35q20 0 25.5 5.5t5.5 25.5v196q0 20 -5.5 25.5
t-25.5 5.5h-172v59h463v-59h-199q8 -8 8 -26v-212q0 -79 -79 -79h-56zM155 -133v86h73v-86h-73z" />
    <glyph glyph-name="uni0917093C094D0930094D" horiz-adv-x="345" 
d="M-20 622h441v-59h-137v-336q0 -79 -79 -79h-91q-79 0 -79 79v179q0 79 79 79h101v78h-235v59zM135 207h49q20 0 25.5 5.5t5.5 25.5v188h-80q-19 0 -25 -6t-6 -25v-157q0 -20 6 -25.5t25 -5.5zM211 -50h-85l295 326v-94zM316 -104v86h73v-86h-73z" />
    <glyph glyph-name="uni0918093C094D0930094D" horiz-adv-x="300" 
d="M285 -14h73v-86h-73v86zM327 167v-42l-116 -175h-76l108 158h-116q-79 0 -79 79v131q0 43 37 46v2q-37 3 -37 47v119q0 23 14 31h-82v59h347v-59h-178q-20 -1 -26 -6.5t-6 -24.5v-105q0 -19 5.5 -25t25.5 -6h68v-59h-68q-20 0 -25.5 -5.5t-5.5 -25.5v-108
q0 -20 5.5 -25.5t25.5 -5.5h179z" />
    <glyph glyph-name="uni0919093C094D0930094D" horiz-adv-x="351" 
d="M-20 622h391v-59h-90v-137h-121q-20 0 -25.5 -6t-5.5 -25v-70q0 -19 5.5 -25t25.5 -6h52q79 0 79 -79v-136q0 -68 -57 -77l74 -142h-72l-63 130l-65 -130h-72l75 141q-63 7 -63 78v86h69v-75q0 -20 5.5 -25.5t25.5 -5.5h43q19 0 25 5.5t6 25.5v114q0 20 -6 25.5t-25 5.5
h-52q-79 0 -79 79v92q0 79 79 79h73v78h-232v59zM273 308v86h73v-86h-73zM181 -159h76l100 -130h-76zM94 -245v86h73v-86h-73z" />
    <glyph glyph-name="uni091A093C094D0930094D" horiz-adv-x="246" 
d="M197 -35h73v-86h-73v86zM266 167v-42l-115 -175h-76l108 158h-36q-79 0 -79 79v213q0 18 8 26h-71v59h204v-59h-40q-20 -1 -26 -6.5t-6 -24.5v-197q0 -20 5.5 -25.5t25.5 -5.5h98zM266 622v-59h-286v59h286z" />
    <glyph glyph-name="uni091B093C094D0930094D" horiz-adv-x="501" 
d="M521 563h-139v-78q71 -4 71 -79v-327q0 -79 -79 -79h-56l73 -140h-72l-63 130l-65 -130h-72l74 140h-59q-79 0 -79 79v181q0 43 37 46v2q-37 3 -37 47v182q0 18 8 26h-83v59h541v-59zM318 563h-144l11 -1q-43 2 -52 -2t-9 -28v-163q0 -19 6 -25t25 -6h37v-59h-37
q-19 0 -25 -5.5t-6 -25.5v-158q0 -20 6 -25.5t25 -5.5h203q20 0 25.5 5.5t5.5 25.5v305q0 19 -5.5 25t-25.5 6h-20q-20 0 -25.5 -6t-5.5 -25v-132q0 -19 5.5 -25t25.5 -6h20v-59h-36q-79 0 -79 79v154q0 78 75 79v78zM251 -159h76l100 -130h-76zM164 -245v86h73v-86h-73z
" />
    <glyph glyph-name="uni091C093C094D0930094D" horiz-adv-x="384" 
d="M277 -35h73v-86h-73v86zM404 229v-84l-176 -195h-82zM45 485h69v-287q0 -20 6 -25.5t25 -5.5h34q19 0 25 5.5t6 25.5v287h194v-59h-125v-239q0 -79 -79 -79h-76q-79 0 -79 79v298zM-20 622h424v-59h-424v59z" />
    <glyph glyph-name="uni091D093C094D0930094D" horiz-adv-x="448" 
d="M292 426h-146q-20 0 -25.5 -6t-5.5 -25v-40q0 -19 5.5 -25t25.5 -6h332v-59h-179q1 -6 1 -20v-88q0 -79 -79 -79h-104v-78h-69v190h69v-53h83q20 0 25.5 5.5t5.5 25.5v66q0 20 -5.5 25.5t-25.5 5.5h-75q-79 0 -79 79v62q0 79 79 79h98v78h-243v59h498v-59h-186v-137z
M275 -50h-88l291 294v-81zM349 -121v86h73v-86h-73z" />
    <glyph glyph-name="uni091E093C094D0930094D" horiz-adv-x="380" 
d="M347 -34h73v-86h-73v86zM410 196v-83l-155 -163h-88zM259 274v-117q0 -79 -79 -79h-71q-79 0 -79 79v99h69v-88q0 -20 5.5 -25.5t25.5 -5.5h29q19 0 25 5.5t6 25.5v227q0 19 -6 25t-25 6h-86v59h107q79 0 79 -79v-73h151v-59h-151zM410 622v-59h-430v59h430z" />
    <glyph glyph-name="uni091F093C094D0930094D" horiz-adv-x="334" 
d="M257 -159l100 -130h-76l-100 130h76zM55 79v327q0 79 79 79h79v78h-233v59h374v-59h-72v-137h-127q-19 0 -25 -6t-6 -25v-305q0 -20 6 -25.5t25 -5.5h34q19 0 25 5.5t6 25.5v104h69v-115q0 -64 -51 -76l75 -143h-72l-63 130l-65 -130h-72l75 141q-61 9 -61 78zM94 -245
v86h73v-86h-73z" />
    <glyph glyph-name="uni0920093C094D0930094D" horiz-adv-x="368" 
d="M-20 622h408v-59h-166v-78h19q79 0 79 -79v-327q0 -75 -70 -79l74 -140h-72l-63 130l-65 -130h-72l74 140q-71 5 -71 79v327q0 79 79 79h19v78h-173v59zM251 90v305q0 19 -5.5 25t-25.5 6h-65q-19 0 -25 -6t-6 -25v-305q0 -20 6 -25.5t25 -5.5h65q20 0 25.5 5.5t5.5 25.5
zM185 -159h76l100 -130h-76zM98 -245v86h73v-86h-73z" />
    <glyph glyph-name="uni0921093C094D0930094D" horiz-adv-x="351" 
d="M-20 622h391v-59h-90v-137h-121q-20 0 -25.5 -6t-5.5 -25v-70q0 -19 5.5 -25t25.5 -6h52q79 0 79 -79v-136q0 -66 -56 -77l74 -142h-72l-63 130l-65 -130h-72l75 141q-64 7 -64 78v86h69v-75q0 -20 5.5 -25.5t25.5 -5.5h43q19 0 25 5.5t6 25.5v114q0 20 -6 25.5t-25 5.5
h-52q-79 0 -79 79v92q0 79 79 79h73v78h-232v59zM171 -159h76l100 -130h-76zM84 -245v86h73v-86h-73z" />
    <glyph glyph-name="uni0922093C094D0930094D" horiz-adv-x="377" 
d="M-20 622h417v-59h-115v-137h-127q-19 0 -25 -6t-6 -25v-305q0 -20 6 -25.5t25 -5.5h67q20 0 25.5 5.5t5.5 25.5v103q0 19 -5.5 25t-25.5 6h-41v59h62q79 0 79 -79v-125q0 -75 -71 -79l74 -140h-72l-63 130l-65 -130h-72l74 140q-72 3 -72 79v327q0 79 79 79h79v78h-233
v59zM191 -159h76l100 -130h-76zM104 -245v86h73v-86h-73z" />
    <glyph glyph-name="uni0923093C094D0930094D" horiz-adv-x="344" 
d="M-20 622h394v-59h-95v-366q0 -79 -79 -79h-76q-79 0 -79 79v366h-65v59zM210 208v355h-96v-355q0 -20 6 -25.5t25 -5.5h34q19 0 25 5.5t6 25.5zM209 -50h-89l254 252v-83zM273 -122v86h73v-86h-73z" />
    <glyph glyph-name="uni0924093C094D0930094D" horiz-adv-x="279" 
d="M-20 622h319v-59h-319v59zM299 263v-60h-73l-145 -203h-77l175 245l-61 123q-15 31 -30.5 43t-45.5 12h-37v62h37q54 0 77.5 -13.5t44.5 -54.5l77 -154h58zM175 -104v86h73v-86h-73z" />
    <glyph glyph-name="uni0925093C094D0930094D" horiz-adv-x="291" 
d="M46 352h95q19 0 25 6t6 25v154q0 19 -6 25t-25 6h-5q-20 0 -25.5 -6t-5.5 -25v-45h-52v56q0 79 76 79h33q79 0 79 -79v-176q0 -79 -79 -79h-47v-95q0 -20 5.5 -25.5t25.5 -5.5h165v-42l-116 -175h-76l108 158h-102q-79 0 -79 79v165zM250 -22h73v-86h-73v86z" />
    <glyph glyph-name="uni0926093C094D0930094D" horiz-adv-x="347" 
d="M301 -49l100 -130h-76l-100 130h76zM138 -135v86h73v-86h-73zM230 0v117l-111 -167h-76l108 158h-17q-79 0 -79 79v219q0 79 79 79h89v78h-243v59h387v-59h-75v-137h-137q-19 0 -25 -6t-6 -25v-197q0 -20 6 -25.5t25 -5.5h41q20 0 27 7.5t7 26.5v65h69v-266h-69z" />
    <glyph glyph-name="uni0927093C094D0930094D" horiz-adv-x="295" 
d="M72 187v128q0 43 37 46v2q-37 3 -37 47v138q0 79 79 79h35q79 0 79 -79v-56h-52v45q0 19 -5.5 25t-25.5 6h-10q-20 0 -25.5 -6t-5.5 -25v-113q0 -20 5.5 -25.5t25.5 -5.5h68v-59h-68q-20 0 -25.5 -6t-5.5 -25v-105q0 -20 5.5 -25.5t25.5 -5.5h153v-42l-116 -175h-76
l108 158h-90q-79 0 -79 79zM266 -19h73v-86h-73v86z" />
    <glyph glyph-name="uni0928093C094D0930094D" horiz-adv-x="372" 
d="M-20 622h412v-59h-412v59zM35 241v165q0 79 79 79h278v-59h-128v-185q0 -79 -79 -79h-71q-79 0 -79 79zM195 426h-60q-19 0 -25 -6t-6 -25v-143q0 -20 6 -25.5t25 -5.5h29q20 0 25.5 5.5t5.5 25.5v174zM175 -50h-85l302 333v-92zM267 -65v86h73v-86h-73z" />
    <glyph glyph-name="uni092A093C094D0930094D" horiz-adv-x="214" 
d="M174 -5h73v-86h-73v86zM234 167v-42l-116 -175h-76l108 158h-16q-79 0 -79 79v376h-75v59h254v-59h-110v-365q0 -20 6 -25.5t25 -5.5h79z" />
    <glyph glyph-name="uni092B093C094D0930094D" horiz-adv-x="410" 
d="M430 563h-139v-87q11 9 32 9h107v-59h-105q-19 0 -26.5 -7t-7.5 -27v-392h-69v117l-111 -167h-76l108 158h-16q-79 0 -79 79v376h-68v59h450v-59zM222 201v362h-105v-365q0 -20 5.5 -25.5t25.5 -5.5h40q20 0 27 7.5t7 26.5zM177 -133v86h73v-86h-73z" />
    <glyph glyph-name="uni092C093C094D0930094D" horiz-adv-x="278" 
d="M253 -36h73v-86h-73v86zM50 406q0 79 79 79h91v-59h-76q92 -169 109 -205.5l43 -96.5v-46l-101 -128h-81l107 128h-92q-79 0 -79 79v249zM119 168q0 -20 5.5 -25.5t25.5 -5.5h101q-105 195 -132 258v-227zM-20 622h316v-59h-316v59z" />
    <glyph glyph-name="uni092D093C094D0930094D" horiz-adv-x="406" 
d="M292 401h134v-59h-134v-135q0 -79 -79 -79h-89q-79 0 -79 79v115q0 79 79 79h99v131q0 20 -5.5 25.5t-25.5 5.5h-39q-19 0 -25 -5.5t-6 -25.5v-56h-69v67q0 79 79 79h81q79 0 79 -79v-142zM223 218v124h-78q-19 0 -25 -6t-6 -25v-93q0 -20 6 -25.5t25 -5.5h47
q20 0 25.5 5.5t5.5 25.5zM228 -50h-85l283 312v-92zM322 -107v86h73v-86h-73z" />
    <glyph glyph-name="uni092E093C094D0930094D" horiz-adv-x="396" 
d="M282 432h134v-59h-134v-166q0 -79 -79 -79h-89q-79 0 -79 79v146q0 79 79 79h99v131h-233v59h435v-59h-133v-131zM213 218v155h-78q-19 0 -25 -5.5t-6 -25.5v-124q0 -20 6 -25.5t25 -5.5h47q20 0 25.5 5.5t5.5 25.5zM218 -50h-85l282 311v-92zM321 -94v86h73v-86h-73z
" />
    <glyph glyph-name="uni092F093C094D0930094D" horiz-adv-x="289" 
d="M244 -27h73v-86h-73v86zM309 167v-42l-116 -175h-76l108 158h-111q-79 0 -79 79v187h80q19 0 25 6t6 25v126q0 22 -7 27t-39 5h-120v59h329v-59h-102q8 -8 8 -27v-142q0 -79 -79 -79h-32v-117q0 -20 6 -25.5t25 -5.5h174z" />
    <glyph glyph-name="uni0935093C094D0930094D" horiz-adv-x="217" 
d="M-20 622h247v-59h-247v59zM48 187v219q0 79 79 79h55v-59h-34q-20 0 -25.5 -6t-5.5 -25v-197q0 -20 5.5 -25.5t25.5 -5.5h79v-42l-116 -175h-76l108 158h-16q-79 0 -79 79zM168 -24h73v-86h-73v86z" />
    <glyph glyph-name="uni0915094D0915" horiz-adv-x="840" 
d="M860 563h-239v-87q11 9 32 9h63q79 0 79 -79v-249q0 -79 -79 -79h-55v59h34q19 0 25 5.5t6 25.5v227q0 19 -6 25t-25 6h-40q-19 0 -26.5 -7t-7.5 -27v-392h-69v87q-10 -9 -32 -9h-63q-79 0 -79 79v240q0 14 5 29h-61q-20 0 -27 -7t-7 -27v-392h-69v87q-11 -9 -32 -9h-63
q-79 0 -79 79v249q0 79 79 79h55v-59h-34q-19 0 -25 -6t-6 -25v-227q0 -20 6 -25.5t25 -5.5h40q19 0 26.5 7.5t7.5 26.5v392h-239v59h880v-59zM552 171v392h-264v-87q10 9 32 9h192v-59h-34q-20 0 -25.5 -6t-5.5 -25v-227q0 -20 5.5 -25.5t25.5 -5.5h40q20 0 27 7.5t7 26.5z
" />
    <glyph glyph-name="uni0915094D0916" horiz-adv-x="929" 
d="M949 622v-59h-75v-563h-65v134q-10 -15 -37 -15h-52q-79 0 -79 79v194q0 79 79 79h59v-59h-42q-19 0 -25 -6t-6 -25v-172q0 -19 6 -25t25 -6h31q23 0 32 8.5t9 30.5v346h-220q8 -8 8 -26v-212q0 -79 -79 -79h-56v-153q0 -19 6 -25t25 -6h213v-62h-234q-79 0 -79 79v317
h-71q-20 0 -27 -7t-7 -27v-362h-69v87q-11 -9 -32 -9h-63q-79 0 -79 79v249q0 79 79 79h55v-59h-34q-19 0 -25 -6t-6 -25v-227q0 -20 6 -25.5t25 -5.5h40q19 0 26.5 7.5t7.5 26.5v392h-239v59h969zM528 336v196q0 20 -6 25.5t-25 5.5h-209v-117q10 9 32 9h142v-150h35
q19 0 25 5.5t6 25.5z" />
    <glyph glyph-name="uni0915094D091A" horiz-adv-x="711" 
d="M731 622v-59h-75v-563h-69v87q-11 -9 -32 -9h-83q-79 0 -79 79v213q0 18 8 26h-79q-20 0 -27 -7t-7 -27v-362h-69v87q-11 -9 -32 -9h-63q-79 0 -79 79v249q0 79 79 79h55v-59h-34q-19 0 -25 -6t-6 -25v-227q0 -20 6 -25.5t25 -5.5h40q19 0 26.5 7.5t7.5 26.5v392h-239v59
h751zM587 171v392h-299v-117q10 9 32 9h214v-59h-40q-20 -1 -26 -6.5t-6 -24.5v-197q0 -20 6 -25.5t25 -5.5h60q19 0 26.5 7.5t7.5 26.5z" />
    <glyph glyph-name="uni0915094D091C" horiz-adv-x="838" 
d="M858 622v-59h-75v-563h-69v426h-87v-269q0 -79 -79 -79h-76q-79 0 -79 79v269h-71q-20 0 -27 -7t-7 -27v-392h-69v87q-11 -9 -32 -9h-63q-79 0 -79 79v249q0 79 79 79h55v-59h-34q-19 0 -25 -6t-6 -25v-227q0 -20 6 -25.5t25 -5.5h40q19 0 26.5 7.5t7.5 26.5v392h-239v59
h878zM714 485v78h-426v-87q10 9 32 9h142v-317q0 -20 6 -25.5t25 -5.5h34q19 0 25 5.5t6 25.5v317h156z" />
    <glyph glyph-name="uni0915094D091F" horiz-adv-x="682" 
d="M620 426h-127q-19 0 -25 -6t-6 -25v-305q0 -20 6 -25.5t25 -5.5h34q19 0 25 5.5t6 25.5v104h69v-115q0 -79 -79 -79h-76q-79 0 -79 79v327q0 14 1 20h-72q-20 0 -27 -7t-7 -27v-392h-69v87q-11 -9 -32 -9h-63q-79 0 -79 79v249q0 79 79 79h55v-59h-34q-19 0 -25 -6
t-6 -25v-227q0 -20 6 -25.5t25 -5.5h40q19 0 26.5 7.5t7.5 26.5v392h-239v59h722v-59h-82v-137zM320 485h231v78h-263v-87q10 9 32 9z" />
    <glyph glyph-name="uni0915094D0923" horiz-adv-x="838" 
d="M858 622v-59h-75v-563h-69v563h-87v-406q0 -79 -79 -79h-76q-79 0 -79 79v239h-71q-20 0 -27 -7t-7 -27v-362h-69v87q-11 -9 -32 -9h-63q-79 0 -79 79v249q0 79 79 79h55v-59h-34q-19 0 -25 -6t-6 -25v-227q0 -20 6 -25.5t25 -5.5h40q19 0 26.5 7.5t7.5 26.5v392h-239v59
h878zM320 455h73v108h-105v-117q10 9 32 9zM558 168v395h-96v-395q0 -20 6 -25.5t25 -5.5h34q19 0 25 5.5t6 25.5z" />
    <glyph glyph-name="uni0915094D0924" horiz-adv-x="527" 
d="M547 563h-239v-87q10 9 32 9h63q79 0 79 -79v-249q0 -79 -79 -79h-55v59h34q20 0 25.5 5.5t5.5 25.5v227q0 19 -5.5 25t-25.5 6h-40q-20 0 -27 -7t-7 -27v-392h-69v392q0 20 -7.5 27t-26.5 7h-40q-19 0 -25 -6t-6 -25v-227q0 -20 6 -25.5t25 -5.5h34v-59h-55
q-79 0 -79 79v235q0 23 11 34h-71v59h202q21 0 32 -9v87h-259v59h567v-59z" />
    <glyph glyph-name="uni0915094D0925" horiz-adv-x="786" 
d="M806 622v-59h-75v-563h-69v87q-10 -9 -32 -9h-158q-79 0 -79 79v136h-71q-20 0 -27 -7.5t-7 -26.5v-259h-69v87q-11 -9 -32 -9h-63q-79 0 -79 79v249q0 79 79 79h55v-59h-34q-19 0 -25 -6t-6 -25v-227q0 -20 6 -25.5t25 -5.5h40q19 0 26.5 7.5t7.5 26.5v392h-239v59h362
v-59h-54v-220q10 9 32 9h153q19 0 25 6t6 25v154q0 19 -6 25t-25 6h-5q-20 0 -25.5 -6t-5.5 -25v-45h-52v56q0 79 76 79h33q79 0 79 -79v-176q0 -79 -79 -79h-32v-125q0 -20 6 -25.5t25 -5.5h135q20 0 27 7.5t7 26.5v451h144z" />
    <glyph glyph-name="uni0915094D0926" horiz-adv-x="685" 
d="M630 396h-137q-19 0 -25 -6t-6 -25v-197q0 -20 6 -25.5t25 -5.5h41q20 0 27 7.5t7 26.5v95h69v-266h-69v87q-10 -9 -32 -9h-64q-79 0 -79 79v219q0 14 1 20h-72q-20 0 -27 -7t-7 -27v-362h-69v87q-11 -9 -32 -9h-63q-79 0 -79 79v249q0 79 79 79h55v-59h-34q-19 0 -25 -6
t-6 -25v-227q0 -20 6 -25.5t25 -5.5h40q19 0 26.5 7.5t7.5 26.5v392h-239v59h732v-59h-82v-167zM320 455h241v108h-273v-117q10 9 32 9z" />
    <glyph glyph-name="uni0915094D092A" horiz-adv-x="691" 
d="M718 622v-59h-75v-563h-69v87q-10 -9 -32 -9h-63q-79 0 -79 79v239h-78q-20 0 -27 -7t-7 -27v-362h-69v87q-11 -9 -32 -9h-63q-79 0 -79 79v249q0 79 79 79h55v-59h-34q-19 0 -25 -6t-6 -25v-227q0 -20 6 -25.5t25 -5.5h40q19 0 26.5 7.5t7.5 26.5v392h-239v59h738z
M320 455h80v108h-112v-117q10 9 32 9zM574 171v392h-105v-395q0 -20 5.5 -25.5t25.5 -5.5h40q20 0 27 7.5t7 26.5z" />
    <glyph glyph-name="uni0915094D092B" horiz-adv-x="855" 
d="M875 563h-239v-87q10 9 32 9h63q79 0 79 -79v-249q0 -79 -79 -79h-55v59h34q20 0 25.5 5.5t5.5 25.5v227q0 19 -5.5 25t-25.5 6h-40q-20 0 -27 -7t-7 -27v-392h-69v87q-11 -9 -32 -9h-63q-79 0 -79 79v239h-71q-20 0 -27 -7t-7 -27v-362h-69v87q-11 -9 -32 -9h-63
q-79 0 -79 79v249q0 79 79 79h55v-59h-34q-19 0 -25 -6t-6 -25v-227q0 -20 6 -25.5t25 -5.5h40q19 0 26.5 7.5t7.5 26.5v392h-239v59h895v-59zM320 455h73v108h-105v-117q10 9 32 9zM567 171v392h-105v-395q0 -20 6 -25.5t25 -5.5h40q19 0 26.5 7.5t7.5 26.5z" />
    <glyph glyph-name="uni0915094D092E" horiz-adv-x="877" 
d="M897 622v-59h-75v-563h-69v373h-113v-186q0 -79 -79 -79h-89q-79 0 -79 79v166q0 14 1 20h-72q-20 0 -27 -7.5t-7 -26.5v-339h-69v87q-11 -9 -32 -9h-63q-79 0 -79 79v249q0 79 79 79h55v-59h-34q-19 0 -25 -6t-6 -25v-227q0 -20 6 -25.5t25 -5.5h40q19 0 26.5 7.5
t7.5 26.5v392h-239v59h917zM320 432h251v131h-283v-140q10 9 32 9zM571 198v175h-78q-19 0 -25 -5.5t-6 -25.5v-144q0 -20 6 -25.5t25 -5.5h47q20 0 25.5 5.5t5.5 25.5zM753 432v131h-113v-131h113z" />
    <glyph glyph-name="uni0915094D092F" horiz-adv-x="781" 
d="M801 622v-59h-75v-563h-69v87q-11 -9 -32 -9h-158q-79 0 -79 79v158h-66q-20 0 -27 -7.5t-7 -26.5v-281h-69v87q-11 -9 -32 -9h-63q-79 0 -79 79v249q0 79 79 79h55v-59h-34q-19 0 -25 -6t-6 -25v-227q0 -20 6 -25.5t25 -5.5h40q19 0 26.5 7.5t7.5 26.5v392h-239v59h821z
M320 374h148q20 0 25.5 6t5.5 25v126q0 22 -7 27t-39 5h-165v-198q10 9 32 9zM657 171v392h-97q8 -8 8 -27v-142q0 -79 -79 -79h-32v-147q0 -20 5.5 -25.5t25.5 -5.5h135q19 0 26.5 7.5t7.5 26.5z" />
    <glyph glyph-name="uni0915094D0932" horiz-adv-x="836" 
d="M856 622v-59h-68v-563h-69v396h-63q-20 0 -25.5 -6t-5.5 -25v-176h-69v176q0 19 -6 25t-25 6h-32q-19 0 -25 -6t-6 -25v-272q0 -19 6 -25t25 -6h61v-62h-82q-79 0 -79 79v297q0 14 1 20h-72q-20 0 -27 -7t-7 -27v-362h-69v87q-11 -9 -32 -9h-63q-79 0 -79 79v249
q0 79 79 79h55v-59h-34q-19 0 -25 -6t-6 -25v-227q0 -20 6 -25.5t25 -5.5h40q19 0 26.5 7.5t7.5 26.5v392h-239v59h876zM719 455v108h-431v-117q10 9 32 9h224q44 0 47 -37h2q3 37 46 37h80z" />
    <glyph glyph-name="uni0915094D0935" horiz-adv-x="691" 
d="M711 622v-59h-75v-563h-69v87q-11 -9 -32 -9h-63q-79 0 -79 79v219q0 14 1 20h-72q-20 0 -27 -7t-7 -27v-362h-69v87q-11 -9 -32 -9h-63q-79 0 -79 79v249q0 79 79 79h55v-59h-34q-19 0 -25 -6t-6 -25v-227q0 -20 6 -25.5t25 -5.5h40q19 0 26.5 7.5t7.5 26.5v392h-239v59
h731zM567 171v392h-279v-117q10 9 32 9h207v-59h-34q-19 0 -25 -6t-6 -25v-197q0 -20 6 -25.5t25 -5.5h40q19 0 26.5 7.5t7.5 26.5z" />
    <glyph glyph-name="uni0915094D0936" horiz-adv-x="844" 
d="M720 622h143v-59h-75v-563h-68v622zM474 623h86q79 0 79 -79v-197q0 -79 -79 -79h-98v-178q0 -20 6 -25.5t25 -5.5h44q19 0 25 5.5t6 25.5v104h69v-115q0 -79 -79 -79h-86q-79 0 -79 79v236h-71q-20 0 -27 -7.5t-7 -26.5v-281h-69v87q-11 -9 -32 -9h-63q-79 0 -79 79v249
q0 79 79 79h55v-59h-34q-19 0 -25 -6t-6 -25v-227q0 -20 6 -25.5t25 -5.5h40q19 0 26.5 7.5t7.5 26.5v392h-239v59h368v-59h-60v-198q10 9 32 9h142v-47h77q19 0 25 5.5t6 25.5v175q0 19 -6 25t-25 6h-44q-19 0 -25 -6t-6 -25v-84h-69v95q0 79 79 79z" />
    <glyph glyph-name="uni0915094D0938" horiz-adv-x="856" 
d="M876 622v-59h-75v-563h-68v285h-271v-195q0 -20 6 -25.5t25 -5.5h44q19 0 25 5.5t6 25.5v121h69v-132q0 -79 -79 -79h-86q-79 0 -79 79v317h-71q-20 0 -27 -7t-7 -27v-362h-69v87q-11 -9 -32 -9h-63q-79 0 -79 79v249q0 79 79 79h55v-59h-34q-19 0 -25 -6t-6 -25v-227
q0 -20 6 -25.5t25 -5.5h40q19 0 26.5 7.5t7.5 26.5v392h-239v59h896zM570 375v157q0 20 -6 25.5t-25 5.5h-251v-117q10 9 32 9h142v-111h77q19 0 25 6t6 25zM733 344v219h-102q8 -8 8 -26v-133q0 -46 -12 -60h106z" />
    <glyph glyph-name="uni0916094D0916" horiz-adv-x="1000" 
d="M1020 622v-59h-75v-563h-65v134q-10 -15 -37 -15h-52q-79 0 -79 79v194q0 79 79 79h59v-59h-42q-20 0 -25.5 -6t-5.5 -25v-172q0 -19 5.5 -25t25.5 -6h31q23 0 32 8.5t9 30.5v346h-220q8 -8 8 -26v-212q0 -79 -79 -79h-56v-153q0 -19 5.5 -25t25.5 -6h213v-62h-234
q-79 0 -79 79v55q-10 -15 -37 -15h-52q-79 0 -79 79v194q0 79 79 79h59v-59h-42q-20 0 -25.5 -6t-5.5 -25v-172q0 -19 5.5 -25t25.5 -6h31q23 0 32 8.5t9 30.5v254h69v-166h35q20 0 25.5 5.5t5.5 25.5v196q0 20 -5.5 25.5t-25.5 5.5h-324q8 -8 8 -26v-212q0 -79 -79 -79h-56
v-153q0 -19 5.5 -25t25.5 -6h213v-62h-234q-79 0 -79 79v392h69v-166h35q20 0 25.5 5.5t5.5 25.5v196q0 20 -5.5 25.5t-25.5 5.5h-172v59h1040z" />
    <glyph glyph-name="uni0916094D0924" horiz-adv-x="792" 
d="M812 622v-59h-75v-563h-69v426h-104q-20 0 -25.5 -6t-5.5 -25v-302q0 -19 5.5 -25t25.5 -6h34v-62h-55q-79 0 -79 79v55q-10 -15 -37 -15h-52q-79 0 -79 79v194q0 79 79 79h59v-59h-42q-20 0 -25.5 -6t-5.5 -25v-172q0 -19 5.5 -25t25.5 -6h31q23 0 32 8.5t9 30.5v189
q0 79 79 79h125v78h-424q8 -8 8 -26v-227q0 -79 -79 -79h-56v-138q0 -19 5.5 -25t25.5 -6h177v-62h-198q-79 0 -79 79v392h69v-181h35q20 0 25.5 6t5.5 25v211q0 20 -5.5 25.5t-25.5 5.5h-172v59h832z" />
    <glyph glyph-name="uni0916094D092E" horiz-adv-x="905" 
d="M943 622v-59h-75v-563h-69v373h-88v-186q0 -79 -79 -79h-89q-45 0 -65 26q-11 -26 -51 -26h-52q-79 0 -79 79v219q0 79 79 79h59v-59h-42q-20 0 -25.5 -6t-5.5 -25v-197q0 -20 5.5 -25.5t25.5 -5.5h31q23 0 32 8.5t9 30.5v147q0 79 79 79h99v131h-398q8 -8 8 -26v-212
q0 -79 -79 -79h-56v-153q0 -19 5.5 -25t25.5 -6h213v-62h-234q-79 0 -79 79v392h69v-166h35q20 0 25.5 5.5t5.5 25.5v196q0 20 -5.5 25.5t-25.5 5.5h-172v59h963zM642 198v175h-78q-20 0 -25.5 -5.5t-5.5 -25.5v-144q0 -20 5.5 -25.5t25.5 -5.5h47q19 0 25 5.5t6 25.5z
M799 432v131h-88v-131h88z" />
    <glyph glyph-name="uni0916094D092F" horiz-adv-x="857" 
d="M877 622v-59h-75v-563h-69v87q-11 -9 -32 -9h-158q-59 0 -74 43q-13 -13 -42 -13h-52q-79 0 -79 79v219q0 79 79 79h59v-59h-42q-20 0 -25.5 -6t-5.5 -25v-197q0 -20 5.5 -25.5t25.5 -5.5h31q23 0 32 8.5t9 30.5v168h80q20 0 25.5 6t5.5 25v126q0 22 -7 27t-39 5h-285
q8 -8 8 -26v-212q0 -79 -79 -79h-56v-153q0 -19 5.5 -25t25.5 -6h213v-62h-234q-79 0 -79 79v392h69v-166h35q20 0 25.5 5.5t5.5 25.5v196q0 20 -5.5 25.5t-25.5 5.5h-172v59h897zM733 171v392h-97q8 -8 8 -27v-142q0 -79 -79 -79h-32v-147q0 -20 5.5 -25.5t25.5 -5.5h135
q19 0 26.5 7.5t7.5 26.5z" />
    <glyph glyph-name="uni0916094D0935" horiz-adv-x="746" 
d="M766 622v-59h-59v-563h-69v87q-11 -9 -32 -9h-63q-68 0 -77 58q-10 -17 -39 -17h-52q-79 0 -79 79v208q0 79 79 79h59v-59h-42q-20 0 -25.5 -6t-5.5 -25v-186q0 -19 5.5 -25t25.5 -6h31q23 0 32 8.5t9 30.5v189q0 79 79 79h55v-59h-34q-20 0 -25.5 -6t-5.5 -25v-227
q0 -20 5.5 -25.5t25.5 -5.5h40q20 0 27 7.5t7 26.5v392h-394q8 -8 8 -26v-212q0 -79 -79 -79h-56v-153q0 -19 5.5 -25t25.5 -6h213v-62h-234q-79 0 -79 79v392h69v-166h35q20 0 25.5 5.5t5.5 25.5v196q0 20 -5.5 25.5t-25.5 5.5h-172v59h786z" />
    <glyph glyph-name="uni0916094D0936" horiz-adv-x="915" 
d="M791 622h144v-59h-76v-563h-68v622zM545 623h86q79 0 79 -79v-197q0 -79 -79 -79h-98v-178q0 -20 5.5 -25.5t25.5 -5.5h44q20 0 25.5 5.5t5.5 25.5v104h69v-115q0 -79 -79 -79h-86q-79 0 -79 79v55q-10 -15 -37 -15h-52q-79 0 -79 79v194q0 79 79 79h49v-59h-32
q-20 0 -25.5 -6t-5.5 -25v-172q0 -19 5.5 -25t25.5 -6h31q23 0 32 8.5t9 30.5v157h69v-47h77q20 0 25.5 5.5t5.5 25.5v175q0 19 -5.5 25t-25.5 6h-44q-20 0 -25.5 -6t-5.5 -25v-84h-69v95q0 79 79 79zM117 246v-153q0 -19 5.5 -25t25.5 -6h213v-62h-234q-79 0 -79 79v392h69
v-166h35q20 0 25.5 5.5t5.5 25.5v196q0 20 -5.5 25.5t-25.5 5.5h-172v59h444v-59h-180q8 -8 8 -26v-212q0 -79 -79 -79h-56z" />
    <glyph glyph-name="uni0917094D0917" horiz-adv-x="842" 
d="M862 622v-59h-75v-563h-69v563h-104v-406q0 -79 -79 -79h-91q-79 0 -79 79v190q0 79 79 79h101v137h-261v-406q0 -79 -79 -79h-91q-79 0 -79 79v190q0 79 79 79h101v137h-235v59h882zM135 137h49q20 0 25.5 5.5t5.5 25.5v199h-80q-19 0 -25 -5.5t-6 -25.5v-168
q0 -20 6 -25.5t25 -5.5zM465 137h49q20 0 25.5 5.5t5.5 25.5v199h-80q-19 0 -25 -5.5t-6 -25.5v-168q0 -20 6 -25.5t25 -5.5z" />
    <glyph glyph-name="uni0917094D0918" horiz-adv-x="754" 
d="M774 622v-59h-75v-563h-69v87q-10 -9 -32 -9h-133q-79 0 -79 79v144q0 43 37 46v2q-37 3 -37 47v136q0 23 14 31h-116v-406q0 -79 -79 -79h-91q-79 0 -79 79v190q0 79 79 79h101v137h-235v59h794zM135 137h49q20 0 25.5 5.5t5.5 25.5v199h-80q-19 0 -25 -5.5t-6 -25.5
v-168q0 -20 6 -25.5t25 -5.5zM630 171v392h-143q-20 -1 -26 -6.5t-6 -24.5v-122q0 -20 5.5 -25.5t25.5 -5.5h68v-59h-68q-20 0 -25.5 -6t-5.5 -25v-121q0 -20 5.5 -25.5t25.5 -5.5h110q20 0 27 7.5t7 26.5z" />
    <glyph glyph-name="uni0917094D091C" horiz-adv-x="825" 
d="M845 622v-59h-75v-563h-69v426h-87v-269q0 -79 -79 -79h-76q-79 0 -79 79v328h69v-317q0 -20 5.5 -25.5t25.5 -5.5h34q20 0 25.5 5.5t5.5 25.5v317h156v78h-417v-406q0 -79 -79 -79h-91q-79 0 -79 79v190q0 79 79 79h101v137h-235v59h865zM135 137h49q20 0 25.5 5.5
t5.5 25.5v199h-80q-19 0 -25 -5.5t-6 -25.5v-168q0 -20 6 -25.5t25 -5.5z" />
    <glyph glyph-name="uni0917094D0923" horiz-adv-x="825" 
d="M845 622v-59h-75v-563h-69v563h-87v-406q0 -79 -79 -79h-76q-79 0 -79 79v406h-96v-406q0 -79 -79 -79h-91q-79 0 -79 79v190q0 79 79 79h101v137h-235v59h865zM135 137h49q20 0 25.5 5.5t5.5 25.5v199h-80q-19 0 -25 -5.5t-6 -25.5v-168q0 -20 6 -25.5t25 -5.5zM545 168
v395h-96v-395q0 -20 5.5 -25.5t25.5 -5.5h34q20 0 25.5 5.5t5.5 25.5z" />
    <glyph glyph-name="uni0917094D0926" horiz-adv-x="679" 
d="M617 426h-137q-20 0 -25.5 -6t-5.5 -25v-227q0 -20 5.5 -25.5t25.5 -5.5h41q19 0 26.5 7.5t7.5 26.5v95h69v-266h-69v87q-11 -9 -32 -9h-64q-79 0 -79 79v249q0 79 79 79h89v78h-264v-406q0 -79 -79 -79h-91q-79 0 -79 79v190q0 79 79 79h101v137h-235v59h712v-59h-75
v-137zM135 137h49q20 0 25.5 5.5t5.5 25.5v199h-80q-19 0 -25 -5.5t-6 -25.5v-168q0 -20 6 -25.5t25 -5.5z" />
    <glyph glyph-name="uni0917094D0927" horiz-adv-x="752" 
d="M772 622v-59h-75v-563h-69v87q-10 -9 -32 -9h-137q-79 0 -79 79v138q0 43 37 46v2q-37 3 -37 47v158q0 79 79 79h35q79 0 79 -79v-56h-52v45q0 19 -5.5 25t-25.5 6h-10q-20 0 -25.5 -6t-5.5 -25v-133q0 -20 5.5 -25.5t25.5 -5.5h68v-59h-68q-20 0 -25.5 -6t-5.5 -25v-115
q0 -20 5.5 -25.5t25.5 -5.5h114q20 0 27 7.5t7 26.5v451h144zM-20 563v59h368v-59h-64v-406q0 -79 -79 -79h-91q-79 0 -79 79v190q0 79 79 79h101v137h-235zM135 137h49q20 0 25.5 5.5t5.5 25.5v199h-80q-19 0 -25 -5.5t-6 -25.5v-168q0 -20 6 -25.5t25 -5.5z" />
    <glyph glyph-name="uni0917094D092C" horiz-adv-x="709" 
d="M737 622v-59h-75v-563h-69v87q-11 -9 -32 -9h-99q-79 0 -79 79v249q0 79 79 79h91v-59h-76q104 -191 122 -236q-6 46 -6 135v238h-309v-406q0 -79 -79 -79h-91q-79 0 -79 79v190q0 79 79 79h101v137h-235v59h757zM135 137h49q20 0 25.5 5.5t5.5 25.5v199h-80
q-19 0 -25 -5.5t-6 -25.5v-168q0 -20 6 -25.5t25 -5.5zM483 137h76q15 0 22 4q-103 194 -129 254v-227q0 -20 6 -25.5t25 -5.5z" />
    <glyph glyph-name="uni0917094D092D" horiz-adv-x="859" 
d="M879 622v-59h-75v-563h-69v342h-113v-185q0 -79 -79 -79h-89q-79 0 -79 79v165q0 79 79 79h99v131q0 20 -5.5 25.5t-25.5 5.5h-39q-19 0 -25 -5.5t-6 -25.5v-56h-69v67q0 79 79 79h81q79 0 79 -79v-142h113v221h144zM553 168v174h-78q-19 0 -25 -6t-6 -25v-143
q0 -20 6 -25.5t25 -5.5h47q20 0 25.5 5.5t5.5 25.5zM-20 563v59h368v-59h-64v-406q0 -79 -79 -79h-91q-79 0 -79 79v190q0 79 79 79h101v137h-235zM135 137h49q20 0 25.5 5.5t5.5 25.5v199h-80q-19 0 -25 -5.5t-6 -25.5v-168q0 -20 6 -25.5t25 -5.5z" />
    <glyph glyph-name="uni0917094D092E" horiz-adv-x="859" 
d="M879 622v-59h-75v-563h-69v373h-113v-186q0 -79 -79 -79h-89q-79 0 -79 79v166q0 79 79 79h99v131h-269v-406q0 -79 -79 -79h-91q-79 0 -79 79v190q0 79 79 79h101v137h-235v59h899zM135 137h49q20 0 25.5 5.5t5.5 25.5v199h-80q-19 0 -25 -5.5t-6 -25.5v-168
q0 -20 6 -25.5t25 -5.5zM553 198v175h-78q-19 0 -25 -5.5t-6 -25.5v-144q0 -20 6 -25.5t25 -5.5h47q20 0 25.5 5.5t5.5 25.5zM735 432v131h-113v-131h113z" />
    <glyph glyph-name="uni0917094D092F" horiz-adv-x="768" 
d="M788 622v-59h-75v-563h-69v87q-10 -9 -32 -9h-158q-79 0 -79 79v217h80q19 0 25 6t6 25v126q0 22 -7 27t-39 5h-156v-406q0 -79 -79 -79h-91q-79 0 -79 79v190q0 79 79 79h101v137h-235v59h808zM135 137h49q20 0 25.5 5.5t5.5 25.5v199h-80q-19 0 -25 -5.5t-6 -25.5v-168
q0 -20 6 -25.5t25 -5.5zM644 171v392h-97q8 -8 8 -27v-142q0 -79 -79 -79h-32v-147q0 -20 6 -25.5t25 -5.5h135q20 0 27 7.5t7 26.5z" />
    <glyph glyph-name="uni0917094D0932" horiz-adv-x="818" 
d="M838 622v-59h-68v-563h-69v426h-63q-20 0 -25.5 -6t-5.5 -25v-206h-69v206q0 19 -6 25t-25 6h-32q-19 0 -25 -6t-6 -25v-302q0 -19 6 -25t25 -6h61v-62h-82q-79 0 -79 79v327q0 79 79 79h72q44 0 47 -37h2q3 37 46 37h80v78h-417v-406q0 -79 -79 -79h-91q-79 0 -79 79
v190q0 79 79 79h101v137h-235v59h858zM135 137h49q20 0 25.5 5.5t5.5 25.5v199h-80q-19 0 -25 -5.5t-6 -25.5v-168q0 -20 6 -25.5t25 -5.5z" />
    <glyph glyph-name="uni0917094D0935" horiz-adv-x="673" 
d="M693 622v-59h-75v-563h-69v87q-11 -9 -32 -9h-63q-79 0 -79 79v249q0 79 79 79h55v-59h-34q-19 0 -25 -6t-6 -25v-227q0 -20 6 -25.5t25 -5.5h40q19 0 26.5 7.5t7.5 26.5v392h-265v-406q0 -79 -79 -79h-91q-79 0 -79 79v190q0 79 79 79h101v137h-235v59h713zM135 137h49
q20 0 25.5 5.5t5.5 25.5v199h-80q-19 0 -25 -5.5t-6 -25.5v-168q0 -20 6 -25.5t25 -5.5z" />
    <glyph glyph-name="uni0917094D0938" horiz-adv-x="838" 
d="M858 622v-59h-75v-563h-68v285h-271v-195q0 -20 6 -25.5t25 -5.5h44q19 0 25 5.5t6 25.5v121h69v-132q0 -79 -79 -79h-86q-79 0 -79 79v367h69v-102h77q19 0 25 6t6 25v157q0 20 -6 25.5t-25 5.5h-237v-406q0 -79 -79 -79h-91q-79 0 -79 79v190q0 79 79 79h101v137h-235
v59h878zM135 137h49q20 0 25.5 5.5t5.5 25.5v199h-80q-19 0 -25 -5.5t-6 -25.5v-168q0 -20 6 -25.5t25 -5.5zM715 344v219h-102q8 -8 8 -26v-133q0 -46 -12 -60h106z" />
    <glyph glyph-name="uni0918094D092E" horiz-adv-x="759" 
d="M779 622v-59h-74v-563h-69v373h-113v-216q0 -79 -79 -79h-89q-37 0 -56 16q-15 -16 -53 -16h-119q-79 0 -79 79v144q0 43 37 46v2q-37 3 -37 47v141q0 18 8 26h-76v59h799zM148 137h94q19 0 26.5 7.5t7.5 25.5v183q0 79 79 79h99v131h-306q-20 0 -25.5 -5.5t-5.5 -25.5
v-122q0 -20 5.5 -25.5t25.5 -5.5h68v-59h-68q-20 0 -25.5 -6t-5.5 -25v-121q0 -20 5.5 -25.5t25.5 -5.5zM454 168v205h-78q-20 0 -25.5 -5.5t-5.5 -25.5v-174q0 -20 5.5 -25.5t25.5 -5.5h47q19 0 25 5.5t6 25.5zM636 432v131h-113v-131h113z" />
    <glyph glyph-name="uni0918094D092F" horiz-adv-x="649" 
d="M669 622v-59h-55v-563h-69v87q-11 -9 -32 -9h-158q-37 0 -56 16q-15 -16 -53 -16h-119q-79 0 -79 79v144q0 43 37 46v2q-37 3 -37 47v141q0 18 8 26h-76v59h689zM148 137h94q19 0 26.5 7.5t7.5 25.5v204h80q20 0 25.5 6t5.5 25v126q0 22 -7 27t-39 5h-193
q-20 0 -25.5 -5.5t-5.5 -25.5v-122q0 -20 5.5 -25.5t25.5 -5.5h68v-59h-68q-20 0 -25.5 -6t-5.5 -25v-121q0 -20 5.5 -25.5t25.5 -5.5zM545 171v392h-97q8 -8 8 -27v-142q0 -79 -79 -79h-32v-147q0 -20 5.5 -25.5t25.5 -5.5h135q19 0 26.5 7.5t7.5 26.5z" />
    <glyph glyph-name="uni091A094D091A" horiz-adv-x="580" 
d="M600 622v-59h-75v-563h-69v87q-10 -9 -32 -9h-83q-37 0 -56 16q-15 -16 -53 -16h-85q-79 0 -79 79v243q0 18 8 26h-71v59h174v-59h-9q-20 0 -26.5 -7t-6.5 -24v-227q0 -20 5.5 -25.5t25.5 -5.5h60q19 0 26.5 7.5t7.5 25.5v230q0 18 8 26h-41v59h174v-59h-39
q-20 0 -26.5 -7t-6.5 -24v-227q0 -20 5.5 -25.5t25.5 -5.5h60q20 0 27 7.5t7 26.5v392h-476v59h620z" />
    <glyph glyph-name="uni091A094D091B" horiz-adv-x="708" 
d="M728 563h-139v-78q71 -4 71 -79v-327q0 -79 -79 -79h-240q-79 0 -79 79v7q-13 -8 -41 -8h-74q-79 0 -79 79v243q0 18 8 26h-71v59h204v-59h-41q-20 0 -25.5 -6t-5.5 -25v-227q0 -20 5.5 -25.5t25.5 -5.5h60q19 0 26.5 7.5t7.5 25.5v90q0 43 37 46v2q-37 3 -37 47v182
q0 18 8 26h-290v59h748v-59zM525 563h-144l11 -1q-43 2 -52 -2t-9 -28v-163q0 -19 5.5 -25t25.5 -6h37v-59h-37q-20 0 -25.5 -5.5t-5.5 -25.5v-158q0 -20 5.5 -25.5t25.5 -5.5h203q19 0 25 5.5t6 25.5v305q0 19 -6 25t-25 6h-20q-19 0 -25 -6t-6 -25v-132q0 -19 6 -25t25 -6
h20v-59h-36q-79 0 -79 79v154q0 78 75 79v78z" />
    <glyph glyph-name="uni091A094D092E" horiz-adv-x="746" 
d="M766 622v-59h-75v-563h-69v373h-113v-216q0 -79 -79 -79h-89q-43 0 -62 22q-15 -22 -58 -22h-74q-79 0 -79 79v243q0 18 8 26h-71v59h204v-59h-41q-20 0 -25.5 -6t-5.5 -25v-227q0 -20 5.5 -25.5t25.5 -5.5h60q19 0 26.5 7.5t7.5 25.5v183q0 79 79 79h99v131h-460v59h786
zM440 168v205h-78q-20 0 -25.5 -5.5t-5.5 -25.5v-174q0 -20 5.5 -25.5t25.5 -5.5h47q19 0 25 5.5t6 25.5zM622 432v131h-113v-131h113z" />
    <glyph glyph-name="uni091A094D092F" horiz-adv-x="655" 
d="M675 622v-59h-75v-563h-69v87q-11 -9 -32 -9h-158q-43 0 -62 22q-15 -22 -58 -22h-74q-79 0 -79 79v243q0 18 8 26h-71v59h204v-59h-41q-20 0 -25.5 -6t-5.5 -25v-227q0 -20 5.5 -25.5t25.5 -5.5h60q19 0 26.5 7.5t7.5 25.5v204h80q20 0 25.5 6t5.5 25v126q0 22 -7 27
t-39 5h-347v59h695zM531 171v392h-97q8 -8 8 -27v-142q0 -79 -79 -79h-32v-147q0 -20 5.5 -25.5t25.5 -5.5h135q19 0 26.5 7.5t7.5 26.5z" />
    <glyph glyph-name="uni091B094D092F" horiz-adv-x="928" 
d="M948 622v-59h-75v-563h-69v87q-10 -9 -32 -9h-158q-79 0 -79 79v127h80q19 0 25 6t6 25v80q0 19 -6 25t-25 6h-163q1 -6 1 -20v-327q0 -79 -79 -79h-240q-79 0 -79 79v181q0 43 37 46v2q-37 3 -37 47v182q0 18 8 26h-83v59h968zM804 171v392h-630l11 -1q-43 2 -52 -2
t-9 -28v-163q0 -19 6 -25t25 -6h37v-59h-37q-19 0 -25 -5.5t-6 -25.5v-158q0 -20 6 -25.5t25 -5.5h203q20 0 25.5 5.5t5.5 25.5v305q0 19 -5.5 25t-25.5 6h-20q-20 0 -25.5 -6t-5.5 -25v-132q0 -19 5.5 -25t25.5 -6h20v-59h-36q-79 0 -79 79v154q0 79 79 79h314q79 0 79 -79
v-102q0 -79 -79 -79h-32v-57q0 -20 6 -25.5t25 -5.5h135q20 0 27 7.5t7 26.5z" />
    <glyph glyph-name="uni091B094D0935" horiz-adv-x="501" 
d="M521 563h-139v-78q71 -4 71 -79v-327q0 -73 -67 -79v-215h-69v65q-8 -8 -28 -8h-89q-78 0 -78 77v56q0 18 7 25q-74 3 -74 79v181q0 43 37 46v2q-37 3 -37 47v182q0 18 8 26h-83v59h541v-59zM219 -99h68q17 0 23.5 6.5t6.5 24.5v68h-110q-16 -2 -16 -30v-41
q0 -17 5.5 -22.5t22.5 -5.5zM318 563h-144l11 -1q-43 2 -52 -2t-9 -28v-163q0 -19 6 -25t25 -6h37v-59h-37q-19 0 -25 -5.5t-6 -25.5v-158q0 -20 6 -25.5t25 -5.5h203q20 0 25.5 5.5t5.5 25.5v305q0 19 -5.5 25t-25.5 6h-20q-20 0 -25.5 -6t-5.5 -25v-132q0 -19 5.5 -25
t25.5 -6h20v-59h-36q-79 0 -79 79v154q0 78 75 79v78z" />
    <glyph glyph-name="uni091C094D0915" horiz-adv-x="837" 
d="M857 563h-239v-87q10 9 32 9h63q79 0 79 -79v-249q0 -79 -79 -79h-55v59h34q20 0 25.5 5.5t5.5 25.5v227q0 19 -5.5 25t-25.5 6h-40q-20 0 -27 -7t-7 -27v-392h-69v87q-11 -9 -32 -9h-63q-79 0 -79 79v249q0 14 1 20h-97v-269q0 -79 -79 -79h-76q-79 0 -79 79v328h69
v-317q0 -20 6 -25.5t25 -5.5h34q19 0 25 5.5t6 25.5v317h299v-59h-34q-19 0 -25 -6t-6 -25v-227q0 -20 6 -25.5t25 -5.5h40q19 0 26.5 7.5t7.5 26.5v392h-569v59h877v-59z" />
    <glyph glyph-name="uni091C094D091C" horiz-adv-x="820" 
d="M840 622v-59h-75v-563h-69v426h-87v-269q0 -79 -79 -79h-76q-79 0 -79 79v269h-96v-269q0 -79 -79 -79h-76q-79 0 -79 79v328h69v-317q0 -20 6 -25.5t25 -5.5h34q19 0 25 5.5t6 25.5v317h234v-317q0 -20 6 -25.5t25 -5.5h34q19 0 25 5.5t6 25.5v317h156v78h-716v59h860z
" />
    <glyph glyph-name="uni091C094D091D" horiz-adv-x="861" 
d="M881 622v-59h-75v-563h-69v265h-109q1 -6 1 -20v-88q0 -79 -79 -79h-104v-78h-69v190h69v-53h83q19 0 25 5.5t6 25.5v66q0 20 -6 25.5t-25 5.5h-75q-79 0 -79 79v62q0 14 1 20h-97v-269q0 -79 -79 -79h-76q-79 0 -79 79v328h69v-317q0 -20 6 -25.5t25 -5.5h34
q19 0 25 5.5t6 25.5v317h342v78h-572v59h901zM737 324v239h-116v-137h-146q-19 0 -25 -6t-6 -25v-40q0 -19 6 -25t25 -6h262z" />
    <glyph glyph-name="uni091C094D091F" horiz-adv-x="654" 
d="M602 426h-127q-19 0 -25 -6t-6 -25v-305q0 -20 6 -25.5t25 -5.5h34q19 0 25 5.5t6 25.5v104h69v-115q0 -79 -79 -79h-76q-79 0 -79 79v327q0 14 1 20h-97v-269q0 -79 -79 -79h-76q-79 0 -79 79v328h69v-317q0 -20 6 -25.5t25 -5.5h34q19 0 25 5.5t6 25.5v317h323v78h-553
v59h694v-59h-72v-137z" />
    </font>
</defs>
</svg>
